<svg xmlns="http://www.w3.org/2000/svg" viewBox="-136 184 174 74"><style>.st0{fill:#d9232e}</style><g id="Слой_2"><path class="st0" d="M-186.2 312.6c-4 6.8-7.8 13.6-11.7 20.4-1.1 1.6-1.3 3.7-.1 5.3 4.1 7.2 8.3 14.3 12.5 21.5.9 1.7 3.7 1.7 5.4 1.7h72.9c-4.4-6.7-8.4-13.6-12.7-20.3-1.8-2.5-1.6-5.8 0-8.3 4.8-7.6 9.4-15.3 14.2-22.9l-76.1-.1c-2.3 0-3.6 1-4.4 2.7z"/><path d="M36.7 216.8c-6-9.6-11.9-19.3-17.9-28.9-1.1-2-3.1-3-5.1-3.9h-.5c1 9.3-3.8 19.3-4.7 28.6-.8 8.4 0 17-.5 25.5-.4 6.7-1.3 13.3-2.2 19.9h7.9c2.3-.7 4.3-2.2 5.5-4.4 5.8-9.5 11.7-18.9 17.5-28.4 1.7-2.5 1.7-5.9 0-8.4z" fill="#fcfcfc"/></g><g id="Слой_1"><path class="st0" d="M-30.4 184H9.1c2 .9 4 1.9 5.1 3.9 6 9.6 11.9 19.3 17.9 28.9 1.8 2.5 1.8 5.9 0 8.4-5.8 9.5-11.7 18.9-17.5 28.4-1.2 2.2-3.2 3.7-5.5 4.4H-31c-4.7-1.1-6.4-5.9-8.8-9.5h-72.3c-3.4 0-7.3.5-9.5-2.1-2.5-3.2-4.2-7-6.3-10.4-2.6-5-5.9-9.6-8.1-14.9v-2.7c3.7-7.9 8.5-15.1 12.6-22.8 1.3-2.8 3.5-4.8 7.3-4.8h77.8c1.9-2.9 4.1-6.2 7.9-6.8m-90 12.6c-4 6.8-7.8 13.6-11.7 20.4-1.1 1.6-1.3 3.7-.1 5.3 4.1 7.2 8.3 14.3 12.5 21.5.9 1.7 3.7 1.7 5.4 1.7h72.9c-4.4-6.7-8.4-13.6-12.7-20.3-1.8-2.5-1.6-5.8 0-8.3 4.8-7.6 9.4-15.3 14.2-22.9l-76.1-.1c-2.3 0-3.6 1-4.4 2.7z" id="_x23_d9232eff"/></g></svg>