<svg xmlns="http://www.w3.org/2000/svg" viewBox="-60 54 129 143"><path d="M2.2 56.3c4.8-.7 9.8 1 13.9 3.6 9 5.5 18.3 10.3 27.2 15.9C50 80 57.9 82.8 63 89.1c3 3.5 3.8 8.4 3.8 12.9v48.1c-.1 5.1-1.5 10.6-5.8 13.7-5.1 3.9-10.9 6.5-16.4 9.7-10.3 6.5-21.2 12-31.5 18.4-4.7 3.3-10.9 1.9-15.9.4-4.8-2.5-9.3-5.5-14-8.2-9.8-5-19-11.2-28.7-16.4-6.8-3.1-12-10-11.9-17.7-.1-16 0-32.1-.1-48.1-.1-5.5 1.5-11.3 5.7-15.2 5.4-5 12.3-7.6 18.4-11.5 8.9-5.6 18.3-10.3 27.2-15.9 2.3-1.5 5.4-2.4 8.4-3M.5 61.7c-2.1.7-48.4 26.9-51.1 30.7-2.3 3.4-2.2 7.7-2.2 11.7.1 15.7-.1 31.3.1 47 .1 4.8 3.3 8.9 7.2 11.5 6.9 3.5 13.5 7.7 20.2 11.7 7.6 3.9 14.8 8.5 22.2 12.7 4.6 2.5 10.4 2.7 15 .1 5.5-3.2 10.9-6.4 16.4-9.6 9.5-5 18.5-11 28-16 4.3-2.1 5.5-7 5.4-11.4.1-15.7 0-31.3 0-47 0-3.8 0-8.1-2.6-11.2-2.7-3.5-6.8-5.3-10.5-7.5C38.2 78.1 27.5 72.2 17 66 12.2 62.9 6.4 59.6.5 61.7z" fill="#d82d31"/></svg>