<svg xmlns="http://www.w3.org/2000/svg" viewBox="0 0 430 385"><path d="M337 19.7C331.1 9.4 316.6 1 304.7 1H127.3C115.4 1 100.9 9.4 95 19.7L6.3 174.5c-5.9 10.3-5.9 27.1 0 37.4L95 366.6c5.9 10.3 20.4 18.7 32.3 18.7h177.3c11.9 0 26.4-8.4 32.3-18.7l88.8-154.8c5.9-10.3 5.9-27.1 0-37.4L337 19.7z" fill="#dadada"/><path d="M337.9 22.7C331.1 10.9 314.6 1.3 301 1.3H129c-13.5 0-30 9.6-36.9 21.4L6.1 172c-6.8 11.8-6.8 30.8 0 42.6l86 149.3c6.8 11.8 23.3 21.4 36.9 21.4h172c13.5 0 30-9.6 36.9-21.4l86-149.3c6.8-11.8 6.8-30.8 0-42.6l-86-149.3z" fill="#d7282f"/></svg>