<svg xmlns="http://www.w3.org/2000/svg" viewBox="0 0 129 143"><path d="M64.1 0h.8c3.8.6 7.7 1.2 11 3.3 13.3 7.7 26.6 15.3 39.8 23 3.3 1.9 6.4 4.2 8.9 7.2 3.4 4 4.2 9.5 4.3 14.6v47c-.1 4.6-.8 9.5-3.4 13.4-2.5 3.6-6.6 5.5-10.3 7.6l-41.4 24c-5.8 3.5-13.2 2.1-19.2-.4-13.8-7.9-27.6-16-41.4-23.9-3.1-1.7-6.3-3.6-8.4-6.6-3.7-4.1-4.6-9.7-4.7-15V49.1C0 45 .7 40.9 2.2 37.2c2.7-5.8 8.3-9.3 13.6-12.3 12.4-7.2 24.9-14.3 37.3-21.6 3.3-2.2 7.2-2.7 11-3.3m-1.9 2.3c-3.1.5-6.1 1.5-8.7 3.2-8.9 5.5-18.3 10.3-27.2 15.9-6.1 3.9-13.1 6.5-18.4 11.5-4.1 3.9-5.7 9.6-5.6 15.1.1 16 0 32.1.1 48.1 0 7.6 5.2 14.5 11.9 17.7 9.8 5.1 18.9 11.4 28.7 16.4 4.7 2.7 9.2 5.7 14 8.2 5.1 1.5 11.2 2.9 15.9-.4 10.3-6.5 21.3-11.9 31.5-18.4 5.5-3.2 11.4-5.9 16.4-9.7 4.3-3.2 5.8-8.6 5.8-13.7V48.1c0-4.5-.8-9.4-3.8-12.9-5.1-6.3-13-9.1-19.7-13.3-8.7-5.7-18.1-10.5-27-16C72 3.3 67 1.6 62.2 2.3z" opacity=".92" fill="#fff"/><path d="M62.2 2.3c4.8-.7 9.8 1 13.9 3.6 9 5.5 18.3 10.3 27.2 15.9 6.7 4.2 14.6 7 19.7 13.3 3 3.5 3.8 8.4 3.8 12.9v48.1c-.1 5.1-1.5 10.6-5.8 13.7-5.1 3.9-10.9 6.5-16.4 9.7-10.3 6.5-21.2 12-31.5 18.4-4.7 3.3-10.9 1.9-15.9.4-4.8-2.5-9.3-5.5-14-8.2-9.8-5-19-11.2-28.7-16.4-6.8-3.1-12-10-11.9-17.7-.1-16 0-32.1-.1-48.1-.1-5.5 1.5-11.3 5.7-15.2 5.4-5 12.3-7.6 18.4-11.5 8.9-5.6 18.3-10.3 27.2-15.9 2.3-1.5 5.4-2.4 8.4-3m-1.7 5.4c-2.1.7-48.4 26.9-51.1 30.7-2.3 3.4-2.2 7.7-2.2 11.7.1 15.7-.1 31.3.1 47 .1 4.8 3.3 8.9 7.2 11.5 6.9 3.5 13.5 7.7 20.2 11.7 7.6 3.9 14.8 8.5 22.2 12.7 4.6 2.5 10.4 2.7 15 .1 5.5-3.2 10.9-6.4 16.4-9.6 9.5-5 18.5-11 28-16 4.3-2.1 5.5-7 5.4-11.4.1-15.7 0-31.3 0-47 0-3.8 0-8.1-2.6-11.2-2.7-3.5-6.8-5.3-10.5-7.5C98.2 24.1 87.5 18.2 77 12c-4.8-3.1-10.6-6.4-16.5-4.3z" fill="#d82d31"/><path d="M60.5 7.7C66.4 5.6 72.2 8.9 77 12c10.5 6.2 21.1 12.2 31.6 18.4 3.7 2.2 7.8 4 10.5 7.5 2.6 3.1 2.6 7.4 2.6 11.2v47c.1 4.3-1.2 9.3-5.4 11.4-9.5 5-18.5 11-28 16-5.4 3.2-10.9 6.4-16.4 9.6-4.6 2.7-10.4 2.5-15-.1-7.5-4.2-14.6-8.8-22.2-12.7-6.7-4-13.3-8.2-20.2-11.7-3.9-2.6-7.1-6.6-7.2-11.5-.2-15.7 0-31.3-.1-47 0-3.9 0-8.3 2.2-11.7 2.7-3.8 7-5.7 10.9-8 11.3-6.7 22.9-13.1 34.1-19.9 2-1.2 4-2.1 6.1-2.8m1 2c-2.6.8-4.9 2.3-7.2 3.6-12.5 7.2-25 14.5-37.5 21.7-4 2.3-7.6 6.1-7.5 11 0 17-.1 34 0 50.9 0 4.6 3.6 8.1 7.4 10.3 13.9 8 27.8 16.1 41.8 24.1 3.4 1.9 7.6 2.2 11 .4 14.4-8.3 28.8-16.6 43.1-24.9 2-1.2 4.2-2.3 5.5-4.2 1.3-2.3 1.3-5 1.3-7.6-.1-16.6.1-33.3-.1-49.9 0-4.9-4.2-8.2-8-10.5C97.9 26.8 84.4 18.9 70.8 11c-2.8-1.5-6.1-2.4-9.3-1.3z" opacity=".94" fill="#fff"/></svg>