<svg width="907pt" height="554pt" viewBox="0 0 907 554" xmlns="http://www.w3.org/2000/svg"><g fill="#fff"><path d="M0 0h907v554H0V0m792.25 17.16c-2.86 1.55-5.93 2.72-8.57 4.63-1.36 2.59-1.19 5.75-2.62 8.33-.74 1.57-1.89 3-2.11 4.76 2.35 1.31 5.07 1.68 7.58 2.63-3.87 1.66-7.59-1.29-11.45-.99-4.54 2.51-8.36 6.1-12.76 8.81-11.01 8.11-22.91 15.57-31.45 26.43-2.94 5.71-5.66 11.56-8.24 17.44 1.21 2.34 3.3 4.2 5.54 5.54 2.46.42 4.97.07 7.45.04-.15 1.9-.31 3.79-.52 5.68-4.52.28-9.07-.98-13.55-.16-1.02 3.04-.93 6.57-3.12 9.12-4.08 5.2-8.41 10.66-9.58 17.35-1.35 1.05-2.69 2.09-4.03 3.14-2.89-2.12-6.01-4.65-9.82-4.4-4.24.36-8.54 1.91-11.75 4.72-3.62 5.86-6.05 12.38-9.68 18.24-4.5 1.08-9.05 1.93-13.53 3.05 0-1.49 1.38-3.35.03-4.59-3.06-.34-6.16-.59-9.23-.34-2.55 1.35-3.92 4.2-6.32 5.8-7.11 4.34-14.35 8.52-21.31 13.1.33 3.43.26 6.91.92 10.3 1.87 1.71 4.1 2.94 6.22 4.31-1.66 1.67-3.31 3.45-3.93 5.79-2.88.41-5.86.72-8.5 2.02-2.14 1.08-2.52 3.64-3.31 5.66-3.28-.24-6.58-.39-9.86-.13 1.23 4.77 2.52 9.52 4.07 14.2-6.2-1.08-12.79-2.18-17.79-6.34 2.17-.42 4.36-.82 6.53-1.28-.67-1.46-1.42-2.93-2.85-3.77-5.01-3.45-9.55-7.57-14.75-10.74-2.46.3-4.31 2.53-6.87 2.42-3.23.22-7.05.11-9.33 2.84-1.87 2.88-.07 6.38.8 9.29-4.44 2.12-8.6 4.99-13.44 6.18-1.88-1-1.04-3.86-1.7-5.61-5.31.89-10.3 3.02-15.53 4.21-.43 1.03-.84 2.07-1.25 3.1-1.41-1.26-2.24-4.36-4.55-3.64-6.81 4.16-11.55 11.01-18.35 15.17 4.31-8.61 10.68-16.08 14.6-24.9 2.89-5.83.99-12.4-.22-18.4-2.19-2.74-5.65-4.25-8.36-6.47-3.62.19-7.25.32-10.85.63-2.1-.17-3.26 1.75-4.63 2.96-.53-1.61-1.07-3.2-1.71-4.75-1.69.34-3.35.7-5.02 1.08 1.33-1.72 2.64-3.46 3.84-5.27-3.69-1.46-8.22-3.67-11.92-1.04-2.63 3.37-4.62 7.2-7.06 10.71.36 1.89.74 3.77 1.13 5.66-1.38.5-2.83.84-4.09 1.6-.24 1.64-.25 3.29-.32 4.94-2.05.87-4.11 1.73-6.14 2.64-.7-1.22-.87-2.93-2.1-3.73-3.84-1.23-7.24 1.42-10.62 2.81-.56 1.12-1 2.31-1.7 3.36-4.5 2.71-10.52 2.88-13.91 7.27-4.34 4.86-9.05 10.72-7.53 17.73-7.08.97-14.16 1.91-21.24 2.91-.75 4.26-1.53 8.54-1.82 12.86 1.15 3.16 4.36 5.02 6.24 7.74-.05 1.02-.15 3.06-.21 4.08-3.38-4.08-5.88-8.8-9.25-12.88-.53.01-1.59.04-2.11.06-2.55-2.75-8.44-2.04-9.21 1.93-.9 3.06 2.52 4.47 4 6.54-1.49-.98-2.81-2.18-4.11-3.38-.54-.08-1.61-.22-2.14-.3.95-3.39 2.6-7.36.67-10.68-1.47-2.44-4.62-2.11-7.02-1.67-.27 2.48-.04 5.12-.8 7.49-2.91 3.57-6.45 6.57-9.63 9.88.93 4.23 2.29 8.35 3.44 12.52-1.97 2.86-4.17 5.62-5.63 8.78-.02 3.23.93 6.37 1.53 9.53 5.14.62 11.36 1.02 14.49 5.82 1.71 2.24 3.27 7.58-.85 7.98-.5-3.26.08-7.12-2.25-9.77-3.16-2.78-8.14-2-11.57-.13-1.31 4.42-.69 9.33-2.39 13.6-4.52 4.84-9.46 10.48-16.41 11.4-4.01.18-6.96-3.01-9.73-5.44 4.09.4 8.47 1.94 12.45.21 5.18-4.89 10.43-10.11 12.76-17.04 1.78-2.9-.86-5.74-1.92-8.37 1.6-6.06 3.77-11.94 5.82-17.85 1.71-4.23-.34-8.64-.95-12.88 1.94-2.36 3.96-4.68 5.65-7.23 2.04-2.8 2.17-6.39 2.7-9.68-3.98-1.66-7.93-3.37-11.88-5.08-3.03 3.52-5.84 7.21-8.5 11.03-3.23 4.73-8.76 7.03-12.86 10.85-.34 2.28 2.79 4.33 1.41 6.72-1.72 3.91-4.47 7.24-7.09 10.57 1.67 1.23 3.42 2.35 5.18 3.45-.92 3.13-.62 6.38.81 9.3l-2.03 1.94c-3.11-5.39-7.09-10.2-10.31-15.51-2.2-3.03-3.96-6.7-7.46-8.44-3.07-1.61-5.99-3.5-9.09-5.03-1.37.75-2.55 1.79-3.75 2.77.27 2.77.44 5.55.46 8.34-1.62.65-3.26 1.26-4.91 1.83-.35-2.16-.62-4.33-.88-6.5-3.09-.04-6.18.15-9.26.22-4.2-2.28-9.13-2.77-13.66-1.18-.6-.53-1.82-1.6-2.43-2.14 2.1-1.78 4.32-3.45 6.13-5.55-.09-.48-.27-1.46-.36-1.95-7.72-.42-15.46-.35-23.18-.39-4.26 0-8.57-.59-12.79.09-2.44 1.35-4.56 3.17-6.79 4.83-.73-.26-2.19-.79-2.92-1.05-.2-2.21-.39-4.43-.57-6.64.9-.69 1.81-1.38 2.73-2.06 1.96.57 4.26 3.14 6.21 1.27 3.59-2.57 4.66-8.02 1.87-11.56-2.43-2.79-5.22-5.63-8.85-6.74-.69 2.22-.56 4.63-1.38 6.81-2.09 3.59-5.91 5.66-9.54 7.38 0 2.39.04 4.78.05 7.18-1.92.61-3.82 1.26-5.71 1.93-1.33-2.37-2.39-4.92-4.07-7.06-5.39-.95-11.21-1.17-16.4.84-3.69 1.31-4.93 5.4-6.84 8.43-.73-1.05-1.44-2.11-2.12-3.18-2.16-3.12-1.01-7.51-3.52-10.44-2.81-2.79-8.24-.46-8.52 3.4-.15 2.61.47 5.19.97 7.74l-3.33 2.37c-1.82-4.52-2.42-9.37-3.36-14.12 4.61-4.84 9.46-9.45 14.02-14.35-.85-3.5-1.71-7-2.68-10.47.76-.76 1.52-1.52 2.29-2.28 1.44 6.08 2.89 12.19 5.16 18.03 1.66 3.75 3.89 7.84 7.96 9.38 3.88 1.57 8 2.62 12.2 2.85 2.66.13 5.79-.43 7.3-2.89 2.8-4.19 2.6-9.53 2.27-14.35-.24-4.15-2.38-7.86-2.89-11.95-.58-3.79.16-7.66-.48-11.42-1.76-3.89-3.83-7.64-5.44-11.6 3-2.15 4.88-7.58 1.33-10.02-5.9-2.11-12.56-.51-18.34-3.21-3.5 1.42-7.06 2.82-10.24 4.86-1.47 3.66-1.99 7.63-3.08 11.41-2.71.32-5.42.64-8.12 1.04-1.8 5.11-4.03 10.42-8.35 13.94-2.39 2.17-5.36 3.49-7.99 5.3-2.32 2.74-3.58 6.21-5.73 9.08-2.19 1.55-4.86 2.24-7.26 3.4 0 3.53-.14 7.05-.37 10.58-6.09 2.75-12.82 4.61-19.54 3.54-5.03-.48-11.24-1.84-15.14 2.32-2.17 3.24-1.02 7.33-.24 10.84-2.88-1.21-5.67-2.68-8.72-3.41-4.2.49-8.22 1.96-12.29 3.06-3.22.51-3.77 4.23-5.73 6.29-1.87 1.13-4.63 1.02-5.74 3.18-2.88 5.05-6.57 9.65-9.1 14.9 1.6 5.71 4.8 10.83 6.94 16.35-3.54 3.09-6.87 6.59-8.7 10.99-2.86 5.66-.46 12.18-2.31 18.07-1.83-.38-4.38-.18-5.18-2.3-1.21-1.42-1.33-4.68-3.8-4.1-2.67 4.17-4.12 9-6.95 13.1 1.46 1.11 3 2.12 4.36 3.36.69 1.74.91 3.62 1.37 5.43 2.02.21 4.03.43 6.04.64-.54 1.91-1.09 3.82-1.64 5.73-1.87.59-3.74 1.17-5.6 1.8.98 3.99 2.53 7.8 3.92 11.65-.77 2.39-2.01 4.72-2.09 7.27.66 2.08 1.63 4.05 2.65 5.98 1.13 2.59 4.53 2.14 6.78 3.04.51 3.7.95 7.43.82 11.17-.46 4.95 6.47 8.43 3.92 13.45-2.39 1.46-5.31 1.13-7.97 1.22-1.34 2.14-2.63 4.3-3.89 6.49-3.27-1.98-6.79-4.74-10.87-3.73-2.65 1.6-6.05 3.94-4.75 7.52-2.66-.53-5.34-.96-8.02-1.32-.12 1.96-.18 3.94-.2 5.91-3.64-1.09-7.36-.45-10.16 2.17-2.24-1.22-6.19-4.42-7.89-.97-.63 6.21 2.17 12.05 3.49 18 1.77 6.32 1.76 12.92 2.23 19.41 1.63.71 3.38 1.08 5.09 1.56 1.76 3.56 3.27 7.32 5.93 10.33 1.81 2.22 4.17 3.94 5.87 6.26 1.58 4.45 2.61 9.36 5.98 12.89 2.44 2.55 6.93 2.09 8.79 5.32 1.86 2.83.27 6.27.92 9.37.32 2.7 2.34 4.68 3.95 6.7 3.37 3.36.84 9.35 3.8 12.69 4.55-.18 8.99-1.37 13.43-2.26.24-6.03-.27-12.05-.23-18.07 1.73-2.8 3.51-5.55 5.36-8.26-.45-3.55-.88-7.1-1.37-10.64 5.5-.54 11.45-2.31 14.52-7.29 5.59.55 11.17 1.31 16.78 1.55-.02-1.61-.12-3.21-.25-4.8 1.02-.74 2.25-1.25 3.1-2.21.79-3.74.71-7.68.05-11.43-.58-3.18-3.11-5.41-5.31-7.56 1.22-2.94 1.02-6.1.81-9.19 1.99-1.85 4.37-3.18 6.67-4.58.3-1.45.61-2.88.92-4.32 2.38-1.43 4.82-2.76 7.28-4.06 1.08 2.84 1.86 5.83 3.42 8.46 1.16 1.85 3.73 2.16 5.47.93 1.82-1.91 2.05-5.28 4.82-6.21 5.67-2.33 11.92-2.13 17.93-2.23.15.74.46 2.2.62 2.93 3.08.22 6.18.23 9.27.28-.43 1.58-.85 3.17-1.26 4.76 2.19 1.2 5.04 2 6.11 4.51 1.68 3.84 1.8 8.08 2.41 12.17 1.29-.27 2.58-.55 3.87-.82 1.12 2.33 1.69 5.07 3.59 6.94 3.45-.33 6.52-2.11 9.64-3.45 1.13 2.19 2.1 4.48 3.53 6.51 2.69-.11 5.27-1.04 7.96-1.22.43 2.28.23 4.63.75 6.9 1.19 3.04 4.41 4.49 6.93 6.28 1.7-1.16 3.09-3.08 5.21-3.44 2.25 1.02 3.9 2.93 5.85 4.4 2.4-2.7 5.47-4.99 7.18-8.21-.99-3.46-3.85-6.09-5.63-9.18 1.78-.22 3.62-.2 5.36-.73.54-2.62.84-5.28 1.58-7.85 2.34.12 4.61.73 6.71 1.78 1.4.64 4.49 2 3.87-.83-1.5-3.63-3.84-7.03-3.88-11.12 4.65-.28 8.66 2.38 13.02 3.52 3.88 1.01 7.9 1.43 11.9 1.55 3.75.18 7.35-1.28 11.09-1.04 4.73.22 9.11 2.76 13.89 2.38 2.67-.16 4.56-2.25 6.51-3.82 3.63 1.59 7.27 3.14 10.99 4.52.61 5.31.35 10.76 1.79 15.94 1.88-.38 3.77-1.18 5.73-.94 2.11.14 3.19 2.19 4.5 3.56-.48 2.99-.8 7.94 3.41 8.12 7.48-.29 14.74-2.82 21.66-5.53-.56 1.21-1.02 2.45-1.39 3.74 2.31 4.13 6.14 7.22 8.32 11.45 4.4 9.69 7.48 19.92 11.98 29.56.4.23 1.2.69 1.6.91 1.72-1.6 3.18-3.44 4.69-5.23.81 2.65.53 5.97 2.51 8.11 5.83.2 11.65-.57 17.47-.77 3.59 6.19 7.63 12.44 13.28 16.95 2.96 2.61 6.81.76 9.8-.75 1.03 2.26 1.81 4.7 3.37 6.68 2.36.93 4.94.98 7.44 1.28 1.38-1.46 2.7-3.03 4.37-4.18 3.13-1.95 6.95-1.81 10.44-2.61.46-1.37.7-2.81 1.03-4.21 5.61-2.55 11.02-5.52 16.65-8.03 3.03-1.51 6.49-.65 9.71-.39 2.27.39 4.73.5 6.75 1.75 2.21 1.56 2.37 4.52 3.13 6.89 6.83.23 13.66-.29 20.5-.43 4.18-.03 6.9-3.77 9.97-6.09-1.49-3.89-2.83-7.84-4.33-11.72 2.3-3.63 4.89-7.05 7.4-10.53 7.24 1.48 14.44 3.17 21.68 4.66.82 2.92 1.51 5.89 2.57 8.74.25 1.23 1.67 1.45 2.62 1.96 3.78 1.45 7.64 2.69 11.48 3.99 3.98-4.99 9.84-8.66 16.43-8.18 6.25.55 14.31-.02 18.09 6.12 6.64-.29 13.26-.81 19.9-1.14 2.06-.23 4.44.05 6.09-1.48 3.96-3.09 8.25-5.9 11.63-9.64 1.82-3.67 2.46-8.33 6.08-10.79 3.73-1.99 7.64.62 11.26 1.53 1.92-1.04 3.36-2.71 4.9-4.21 3.54 1.23 7.48 2.77 11.21 1.33 3.32-1.32 4.63-4.93 6.73-7.53 1.49-2.11 3.89-3.25 5.8-4.92-1.07-1.86-2.43-3.5-3.69-5.22-.01-3.95-.08-7.91-.04-11.86-.29-3.71 2.41-6.63 3.74-9.88-2.87-2.64-5.86-5.13-8.77-7.73 2.73-7.82 10.67-11.75 16.93-16.38 3.52.74 7.3 2.07 10.79.52 2.56-.81 5.8-2.33 8.18-.3 10.05 8.76 19.54 18.2 29.95 26.55 5.61-1.41 11.18-4.59 17.11-3.25 2.74.49 5.54.22 8.24-.4 3.66 3.87 6.96 9.35 12.78 9.89 4.8-1.07 7.15-5.88 9.21-9.85 2.27-4.96 5.56-9.33 8.37-13.97 1.48 2.39 2.98 4.77 4.5 7.15-.46 1.88-1.01 3.76-1.16 5.7 1.28 4.13 3.85 7.77 4.95 11.97.47 4.58.29 9.24 1.44 13.74-3.22.56-6.54.74-9.66 1.77-.94 4.06-1.87 8.15-2.37 12.29 2.16 2.2 5.62 2.92 7.16 5.75 1.97 3.32 3.72 6.77 5.95 9.94-2.18 2.91-4.52 5.71-6.48 8.77 2.88 2.65 7.12 2.66 10.72 3.71 2.36-4.38 4.47-9.01 3.74-14.13 4.68-1.38 9.65-2.03 14.11-4.04 2.3-4.58 4.19-9.36 6.38-14 1.09-2.08.99-4.48 1-6.76-.26-9.67-.52-19.34-.56-29.01.04-7.8-2.72-15.22-3.7-22.89-1.24-5.73.39-11.5.22-17.26.07-2.82-2.2-4.82-3.71-6.92-8.65-10.52-16.59-21.87-21.09-34.84 3.36 2.22 6.97 4.07 10.86 5.19 7.15 9.35 13.74 19.49 23.28 26.62 2.57 4.13 4.19 8.88 7.59 12.48 3.66 4.8 9.01 7.81 14.5 10.08.36-.29 1.07-.88 1.43-1.18-.69-3.1-1.75-6.11-2.57-9.17 3.58.02 7.32 1.14 10.83-.02-.36-3.21-3.28-5.36-5.35-7.57-5.69-2.24-11.72-3.55-17.43-5.77-2.18-5.28-4.47-10.52-6.35-15.91 3.15-1.7 6.55-3.12 9.18-5.63-11.46-7.37-23.83-13.21-35.56-20.11-.64-1.44-1.03-3.06-2.18-4.19-4.78-4.91-9.73-9.64-14.48-14.57-2.68-3.88-9.88 1.97-6.6 5.44 2.06 2.02 4.78 3.21 6.83 5.26-.7 2-1.95 3.84-2.17 5.99-.09 4.66 4.09 7.66 6.34 11.33-3.05-2.75-6.55-5.43-7.52-9.64-5.41-.54-10.83-1.68-16.26-1.53-2.32 1.72-4.37 3.76-6.55 5.65 1.07 2.14 2.16 4.28 3.25 6.43-1.02.74-2.04 1.47-3.04 2.22-.78-1.84-1.54-3.68-2.32-5.52-2.71.46-5.31 1.38-7.64 2.85-.94-.87-1.88-1.74-2.81-2.59-2.76 2.11-5.65 4.06-8.76 5.62 1.83-6.81 3.46-13.71 4.26-20.72.6-4.84-2.19-9.26-2-14.06.19-5.4 2.12-10.5 3.64-15.62-1.44-1.92-2.85-3.87-4.2-5.84 1.24-2.76 3.02-5.49 2.95-8.63.23-2.44-1.48-4.35-2.57-6.34 3.61-4.13 7.44-8.06 10.78-12.42 1.95-.23 4.39.55 5.92-1.03.85-1.31 1.13-2.89 1.62-4.36 1.6-.65 3.33-1.1 4.73-2.18.75-1.38.97-2.97 1.35-4.47 1.42-1.17 3.66-2.02 3.54-4.21.01-2.35-.84-4.6-1.4-6.85 3.03-1.67 6.12-3.24 9.24-4.73-.08 1.58-1.23 3.66.54 4.71 2.14 1.79 5.8 3.27 7.9.6 2.84-4.19 1.51-9.76 3.73-14.21 1.63-2.83 5.01-4.4 6.03-7.63.2-2.5-1.82-4.21-3.34-5.86-1.55 1.21-3.04 2.46-4.54 3.7-4.12-9.63-6.31-19.91-8.66-30.08 2.15-2.77 4.12-5.69 6.18-8.54 3.05 4.3 8.55 6.9 13.71 4.79-.3-7.41-3.59-14.56-2.64-22.09-2.56-2.34-5.08-4.71-7.59-7.1 1.35-2.9 2.62-6.02 5.23-8.05-.66 2.9-1.85 5.64-2.88 8.42 3.91 3.19 7.85 6.37 11.96 9.32.24 3.76.11 7.55.53 11.3 3.32 11.16 7.7 22.01 10.42 33.36.83 3.35-.24 6.73-.56 10.08 2.1 1.71 4.91 2.79 6.25 5.31 1.44 2.94 1.36 6.29 1.48 9.48 3.48 4.16 6.71 8.63 10.74 12.25 15.08 8.24 30.93 14.98 46.17 22.91 1.08.57 2.25 1.12 3.53.8 1.82-9.24-1.14-19.3-8.63-25.26.44-4.8 1.02-10.31-2.1-14.39-2.31-2.19-5.35-3.41-7.87-5.32.21-1.66-.53-3.67.74-5.03 1.46-2.16 4.11-4.47 2.87-7.37-2.57-3.94-7.39-5.31-11.25-7.61-.52-1.84-1.02-3.68-1.49-5.52.82-2.04 2.34-3.99 2.25-6.27-1.57-3.67-6.23-2.63-9.36-2.57-3.74-1.4-6.14-4.63-9.12-7.06-4.2-2.18-4.8 3.68-6.14 6.3-5.15-6.1-9.27-12.96-14.01-19.37 1.24-1.71 2.72-3.35 3.39-5.41.62-2.73-.16-5.5-.71-8.17 1.93.98 3.84 2.2 6.07 2.36.37-3.67-2.47-6.54-3.94-9.65.45-3.23.98-6.45 1.49-9.67 4.19-1.86 8.55-3.36 12.67-5.4-1.77-3.3-5.51-5.44-6.06-9.33-3.4-14-6.99-27.95-10.35-41.96 2.73-3.27 5.97-6.12 8.33-9.69-2.35-1.89-4.75-3.72-7.23-5.43-3.15 1.45-6.33 3.14-9.83 3.42-2.36-.25-4.44-1.43-6.55-2.38-2.87 1.81-5.56 4.04-8.9 4.92.91-1.61 1.92-3.17 2.93-4.73-1.14-4.18-2.3-8.36-3.54-12.51-4.34-.55-10.33.54-12.51-4.31 3.4.16 6.83.26 10.22-.24.97-3.94 1.41-8.32 4.28-11.45 1.87-.28 3.78-.03 5.68-.15 2.67-3.14 4.59-8 9.53-7.72 1.3-1.76 2.79-3.6 2.96-5.88-.16-2.34-1.75-4.5-4.04-5.14-4.48-1.47-9.08-2.58-13.66-3.69.82-2.96 2.19-5.84 2.31-8.95-3.36-1.12-7.35-3.27-10.68-1.06m-70.42 22.76c-1.24.08-2.46.22-3.67.42-.12 2.83.17 5.68.52 8.49.36 2.66 2.71 4.39 4.68 5.94 1.44 1.1 4.16 1.92 5.16-.18 2.14-4.14 2.88-8.94 2.87-13.56.06-2.41-1.42-4.32-3.15-5.8-2.21 1.46-4.31 3.09-6.41 4.69m-373.96 60.97c-2.14 3.96 2.4 7.54 6.11 7.34 3.31-.24 6.7-.92 9.65-2.5 2.54-1.68 2.61-5.32 1.52-7.88-1.13-3.31-4.6-4.9-7.61-6.1-5.1-2.25-12.07 3.88-9.67 9.14m21.24-.72c-1.29 3.17.44 6.49.44 9.74.23 2.68-.5 6.67 2.67 7.88 4.36.61 9.13.98 13.21-1.03 4.17 2.12 8.83.86 12.35-1.91.12-2.46.73-5.41-1.49-7.17-3.06-3.14-7.52-.32-10.73 1.04-1.31-.95-2.57-1.95-3.82-2.96.71-.54 2.11-1.61 2.82-2.14.12-3.25-1.08-6.28-2.57-9.1-4.4 1.53-9.09 2.86-12.88 5.65m80.9 29.87c.64 3.09 3.75 5.09 4.77 8.02-.11 3.77-1.08 8.25 1.85 11.28 3.79 3.53 9.38 3.42 14.23 3.81-.1 3.67-1.6 8.72 2.03 11.19 3.04.14 5.3-2.45 8.11-3.27 3.82-1.31 8.71-2 10.55-6.17 1.31-5.56-2.5-11.69-7.97-13.23-1.89-2.95-5.23-2.28-7.98-1.09-.54-4.7-3.94-8.37-8.38-9.74.62-6.55-3.83-11.67-7.59-16.44-6.77 1.98-8.91 9.42-9.62 15.64m166.56-8.59c-2.14 1.21-5 1.96-5.69 4.65-2.64 1.23-5.28 2.53-8.14 3.16-2.39.09-4.76-.18-7.14-.2.4 2.4.98 4.77 1.58 7.14-3.05-.18-6.11-.24-9.17-.1-.09 5 .23 10.36 3.13 14.62 3.01 3.41 8.46 3.27 12.4 1.83 4.7-3.36 7.69-8.6 10.54-13.52 2.02-3.66.1-7.77-1.25-11.29 1.22 1.71 2.45 3.42 3.78 5.06 4.69-.97 9.37-1.99 14.02-3.15.94-3.95 1.83-7.91 2.21-11.96-2.28-.29-4.55-.68-6.84-.64-3.31 1.07-6.26 3-9.43 4.4m-1.61 31.69c-1.84 2.82-1.27 6.53-.75 9.69.42 1.08.51 3.51 2.26 2.72 4.02-2.17 7.52-5.17 11.27-7.77 1.53-.99 2.74-2.36 3.55-4-4.59-3.84-11.59-4.73-16.33-.64m-246.84 14.5c-9.27.45-18.74-.13-27.67 2.9-6.05 7.37-16.14 9.85-21.61 17.83-5.39-.68-7.48 4.77-10.54 8-2.3 2.84-7.36 2.55-8.42 6.49-2.1 8.34-.24 17.99 6 24.18 2.34 2.32 5.41 5.23 9.01 4.23 2.02-2.37 1.06-5.58.92-8.36-.27-3.87-.55-7.85.3-11.66 2.44-4.44 6.28-7.91 9.93-11.35 9.28-8.26 21.56-11.94 30.93-20.07 6.67-.2 13.49 0 19.98-1.8 2.8-.74 5.71-2.32 6.89-5.11 1.3-3.22-.68-7.15-3.85-8.35-4.29-.76-7.65 3.05-11.87 3.07M26.01 228.78c1.3 4.07 4.36 7.16 6.7 10.64 2.28 3.35 4.7 6.6 7.21 9.79 3.37-.69 6.71-1.58 9.98-2.68-.96-5.91-2.14-11.83-4.05-17.51-2.12-.43-3.4 1.57-4.89 2.66-1.06-1.3-2.07-2.63-3.3-3.77-3.89-.31-7.79.41-11.65.87z"/><path d="M158.37 227.51c5.37-2.77 12.54-.52 15.47 4.72 2.3 3.76 2.14 8.68-.19 12.39-3.26 5.34-6.78 10.53-10.14 15.82-3.43-5.56-7.08-10.99-10.48-16.57-3.37-5.66-.64-13.73 5.34-16.36m3.13 5.09c-3.33 1.28-4.28 6.1-1.62 8.5 2.57 2.77 7.77 1.42 8.65-2.25 1.42-3.98-3.26-8.07-7.03-6.25zm-26.44 1.6c6.01-2.66 13.68.83 15.72 7.05 1.47 3.68.57 7.83-1.53 11.06-3.2 5.07-6.49 10.08-9.75 15.12-3.41-5.56-7.07-10.97-10.47-16.54-3.52-5.9-.39-14.35 6.03-16.69m2.35 5.43c-3.25 1.33-4.16 6.06-1.55 8.45 2.56 2.8 7.78 1.44 8.67-2.24 1.42-4.01-3.33-8.1-7.12-6.21zm267.58-4.74c1.35-.36 2.99 1.56 2.66 2.87-1.35.29-3.05-1.55-2.66-2.87zm-15.55 10.23c.82-2.08 1.62-4.17 2.34-6.29-.14 1.3-.27 2.61-.38 3.92 2.16 2.16 4.32 4.34 6.35 6.63-2.8-1.37-5.56-2.8-8.31-4.26zm-249.21 26.05c3.98-4.45 11.35-5.15 16.09-1.54 4.68 3.28 6.39 10.14 3.52 15.15-3.29 5.71-7.09 11.11-10.6 16.69-3.68-5.27-7.03-10.76-10.48-16.18-2.75-4.35-2.03-10.4 1.47-14.12m7.14 2.3c-3.15.97-4.63 5.13-2.66 7.82 2.21 3.62 8.53 2.77 9.56-1.41 1.42-3.96-3.1-7.94-6.9-6.41zm49.86 15.83c6.68-3.07 15.61 1.29 16.78 8.68 1.18 4.77-1.69 9.1-4.26 12.82-2.7 3.79-5.23 7.69-7.71 11.63-3.41-5.68-7.48-10.93-10.82-16.64-3.4-5.85-.36-14.22 6.01-16.49m3.12 5.18c-3.1.98-4.7 5.14-2.63 7.8 2.13 3.61 8.27 2.74 9.28-1.34 1.46-3.83-2.89-7.96-6.65-6.46zM164 290.02c6.57-2.51 14.84 1.86 16 8.91 1.2 4.78-1.67 9.14-4.25 12.87-2.71 3.78-5.23 7.69-7.71 11.64-3.41-5.7-7.49-10.96-10.83-16.69-3.55-6.1-.02-14.83 6.79-16.73m2.47 5.41c-3.17.94-4.85 5.13-2.77 7.85 2.13 3.6 8.29 2.75 9.3-1.34 1.45-3.79-2.79-7.87-6.53-6.51zm-44.74 13.3c2.32-6.11 10.12-9.04 16.01-6.47 6.14 2.18 9.36 10.03 6.41 15.86-3.15 6.11-7.63 11.4-11.11 17.31-3.11-5.03-6.44-9.92-9.75-14.82-2.43-3.4-3.3-7.98-1.56-11.88m9.64-1.26c-3.4 1.03-4.75 5.75-2.25 8.35 2.19 2.76 7.13 2.15 8.56-1.09 2.39-3.84-2.24-8.89-6.31-7.26zm44.26 11.11c3.22-5.02 10.46-6.79 15.63-3.79 5.62 2.89 8 10.58 4.79 16.08-3.29 5.65-7.05 11.03-10.54 16.57-3.32-5.35-6.78-10.62-10.14-15.94-2.51-3.87-2.34-9.14.26-12.92m7.89 1c-3.32 1.27-4.31 6.07-1.67 8.49 2.55 2.78 7.72 1.49 8.65-2.15 1.49-3.98-3.17-8.13-6.98-6.34zm84.91-4.11c5.38-2.72 12.55-.45 15.45 4.82 2.25 3.74 2.08 8.62-.23 12.31-3.25 5.36-6.78 10.54-10.13 15.84-3.43-5.53-7.05-10.95-10.46-16.48-3.43-5.7-.68-13.86 5.37-16.49m3.04 5.14c-3.3 1.3-4.24 6.11-1.58 8.49 2.58 2.76 7.75 1.42 8.64-2.25 1.41-3.99-3.28-8.09-7.06-6.24zm46.81 5.71c5.43-2.5 12.47-.26 15.36 5 2.18 3.66 2.11 8.45-.13 12.08-3.31 5.47-6.84 10.81-10.39 16.13-3.57-5.63-7.28-11.18-10.71-16.89-3.29-5.8-.28-13.88 5.87-16.32m3.15 5.12c-3.42.99-4.82 5.72-2.34 8.34 2.45 3.1 8.17 2.04 9.17-1.86 1.44-3.94-3.01-7.94-6.83-6.48zm-209.74 4.27c4.23-4.24 11.68-4.56 16.22-.62 4.26 3.4 5.65 9.89 2.94 14.67-3.29 5.72-7.1 11.14-10.62 16.72-3.66-5.31-7.05-10.8-10.5-16.25-2.85-4.53-1.89-10.86 1.96-14.52m6.75 2.74c-3.18.92-4.71 5.11-2.75 7.82 2.19 3.62 8.5 2.82 9.57-1.34 1.46-3.93-3.01-7.96-6.82-6.48zm36.94 15.94c5.62-2.74 12.99-.03 15.63 5.61 1.82 3.56 1.59 7.97-.49 11.38-3.26 5.45-6.86 10.68-10.24 16.05-3.45-5.49-7.02-10.9-10.42-16.42-3.53-5.75-.69-14.07 5.52-16.62m3.05 5.16c-3.19 1.07-4.48 5.53-2.21 8.08 2.32 3.25 8.03 2.19 9.03-1.68 1.49-3.9-3.03-8.1-6.82-6.4zm137.83-2.26c5.89-2.63 13.65.31 16.05 6.36 1.65 3.7 1.02 8.06-1.16 11.41-3.24 5.2-6.94 10.11-10.11 15.36-3.42-5.67-7.48-10.93-10.82-16.64-3.4-5.85-.36-14.24 6.04-16.49m3.13 5.17c-3.38 1.03-4.85 5.73-2.28 8.34 2.4 3.07 7.93 1.93 8.89-1.87 1.44-3.8-2.86-7.92-6.61-6.47zM134.4 372.49c5.35-2.73 12.5-.51 15.42 4.72 2.32 3.76 2.16 8.7-.18 12.41-3.25 5.35-6.76 10.54-10.13 15.82-3.41-5.55-7.05-10.95-10.46-16.5-3.4-5.69-.68-13.81 5.35-16.45m3.12 5.11c-3.35 1.26-4.31 6.12-1.63 8.52 2.58 2.72 7.72 1.4 8.63-2.24 1.44-3.98-3.21-8.09-7-6.28zm585.78 8.67c5.89-2.59 13.61.34 16.01 6.38 1.65 3.71 1.01 8.08-1.18 11.44-3.24 5.19-6.93 10.09-10.09 15.33-3.43-5.68-7.5-10.95-10.84-16.69-3.38-5.86-.3-14.23 6.1-16.46m3.14 5.17c-3.41 1-4.91 5.69-2.37 8.32 2.38 3.11 7.96 2.01 8.93-1.81 1.46-3.8-2.81-7.91-6.56-6.51zm-647.7 2.31c3.83-4.93 11.63-5.91 16.58-2.12 4.67 3.27 6.38 10.11 3.54 15.11-3.29 5.73-7.1 11.14-10.62 16.74-3.56-5.1-6.77-10.42-10.15-15.64-2.91-4.19-2.61-10.18.65-14.09m7.67 1.7c-3.15.95-4.71 5.14-2.7 7.83 2.19 3.6 8.45 2.81 9.54-1.32 1.49-3.95-3-8.01-6.84-6.51zm26.01-4.97c5.36-2.73 12.52-.48 15.43 4.77 2.29 3.74 2.13 8.66-.2 12.36-3.24 5.35-6.79 10.52-10.12 15.83-3.46-5.55-7.08-10.99-10.5-16.55-3.38-5.69-.63-13.79 5.39-16.41m3.09 5.12c-3.32 1.27-4.29 6.06-1.65 8.47 2.56 2.82 7.79 1.45 8.68-2.24 1.39-3.96-3.25-8.06-7.03-6.23zm-76.07 11.87c5.36-2.71 12.5-.46 15.41 4.77 2.3 3.78 2.13 8.7-.22 12.41-3.26 5.33-6.76 10.51-10.11 15.79-3.43-5.54-7.06-10.95-10.46-16.5-3.43-5.7-.67-13.84 5.38-16.47m3.07 5.12c-3.33 1.28-4.3 6.12-1.62 8.52 2.59 2.76 7.78 1.4 8.64-2.28 1.4-3.97-3.24-8.03-7.02-6.24zm20.89 9.9c5.36-2.74 12.53-.5 15.45 4.75 2.28 3.74 2.14 8.65-.19 12.34-3.25 5.37-6.78 10.56-10.15 15.86-3.42-5.55-7.06-10.95-10.45-16.5-3.41-5.68-.69-13.81 5.34-16.45m3.04 5.13c-3.26 1.31-4.2 6.06-1.58 8.46 2.55 2.78 7.74 1.46 8.65-2.19 1.47-4.01-3.26-8.15-7.07-6.27zm6.66 28.56c5.99-2.61 13.63.84 15.67 7.02 1.48 3.68.6 7.84-1.51 11.08-3.18 5.09-6.52 10.09-9.74 15.16-3.45-5.57-7.11-11.01-10.52-16.61-3.49-5.91-.31-14.33 6.1-16.65m2.37 5.43c-3.29 1.29-4.25 6.1-1.59 8.49 2.57 2.77 7.77 1.43 8.65-2.25 1.41-3.99-3.27-8.08-7.06-6.24z"/></g><g fill="#cb1c23"><path d="M792.25 17.16c3.33-2.21 7.32-.06 10.68 1.06-.12 3.11-1.49 5.99-2.31 8.95 4.58 1.11 9.18 2.22 13.66 3.69 2.29.64 3.88 2.8 4.04 5.14-.17 2.28-1.66 4.12-2.96 5.88-4.94-.28-6.86 4.58-9.53 7.72-1.9.12-3.81-.13-5.68.15-2.87 3.13-3.31 7.51-4.28 11.45-3.39.5-6.82.4-10.22.24 2.18 4.85 8.17 3.76 12.51 4.31 1.24 4.15 2.4 8.33 3.54 12.51-1.01 1.56-2.02 3.12-2.93 4.73 3.34-.88 6.03-3.11 8.9-4.92 2.11.95 4.19 2.13 6.55 2.38 3.5-.28 6.68-1.97 9.83-3.42 2.48 1.71 4.88 3.54 7.23 5.43-2.36 3.57-5.6 6.42-8.33 9.69 3.36 14.01 6.95 27.96 10.35 41.96.55 3.89 4.29 6.03 6.06 9.33-4.12 2.04-8.48 3.54-12.67 5.4-.51 3.22-1.04 6.44-1.49 9.67 1.47 3.11 4.31 5.98 3.94 9.65-2.23-.16-4.14-1.38-6.07-2.36.55 2.67 1.33 5.44.71 8.17-.67 2.06-2.15 3.7-3.39 5.41 4.74 6.41 8.86 13.27 14.01 19.37 1.34-2.62 1.94-8.48 6.14-6.3 2.98 2.43 5.38 5.66 9.12 7.06 3.13-.06 7.79-1.1 9.36 2.57.09 2.28-1.43 4.23-2.25 6.27.47 1.84.97 3.68 1.49 5.52 3.86 2.3 8.68 3.67 11.25 7.61 1.24 2.9-1.41 5.21-2.87 7.37-1.27 1.36-.53 3.37-.74 5.03 2.52 1.91 5.56 3.13 7.87 5.32 3.12 4.08 2.54 9.59 2.1 14.39 7.49 5.96 10.45 16.02 8.63 25.26-1.28.32-2.45-.23-3.53-.8-15.24-7.93-31.09-14.67-46.17-22.91-4.03-3.62-7.26-8.09-10.74-12.25-.12-3.19-.04-6.54-1.48-9.48-1.34-2.52-4.15-3.6-6.25-5.31.32-3.35 1.39-6.73.56-10.08-2.72-11.35-7.1-22.2-10.42-33.36-.42-3.75-.29-7.54-.53-11.3-4.11-2.95-8.05-6.13-11.96-9.32 1.03-2.78 2.22-5.52 2.88-8.42-2.61 2.03-3.88 5.15-5.23 8.05 2.51 2.39 5.03 4.76 7.59 7.1-.95 7.53 2.34 14.68 2.64 22.09-5.16 2.11-10.66-.49-13.71-4.79-2.06 2.85-4.03 5.77-6.18 8.54 2.35 10.17 4.54 20.45 8.66 30.08 1.5-1.24 2.99-2.49 4.54-3.7 1.52 1.65 3.54 3.36 3.34 5.86-1.02 3.23-4.4 4.8-6.03 7.63-2.22 4.45-.89 10.02-3.73 14.21-2.1 2.67-5.76 1.19-7.9-.6-1.77-1.05-.62-3.13-.54-4.71-3.12 1.49-6.21 3.06-9.24 4.73.56 2.25 1.41 4.5 1.4 6.85.12 2.19-2.12 3.04-3.54 4.21-.38 1.5-.6 3.09-1.35 4.47-1.4 1.08-3.13 1.53-4.73 2.18-.49 1.47-.77 3.05-1.62 4.36-1.53 1.58-3.97.8-5.92 1.03-3.34 4.36-7.17 8.29-10.78 12.42 1.09 1.99 2.8 3.9 2.57 6.34.07 3.14-1.71 5.87-2.95 8.63 1.35 1.97 2.76 3.92 4.2 5.84-1.52 5.12-3.45 10.22-3.64 15.62-.19 4.8 2.6 9.22 2 14.06-.8 7.01-2.43 13.91-4.26 20.72 3.11-1.56 6-3.51 8.76-5.62.93.85 1.87 1.72 2.81 2.59 2.33-1.47 4.93-2.39 7.64-2.85.78 1.84 1.54 3.68 2.32 5.52 1-.75 2.02-1.48 3.04-2.22-1.09-2.15-2.18-4.29-3.25-6.43 2.18-1.89 4.23-3.93 6.55-5.65 5.43-.15 10.85.99 16.26 1.53.97 4.21 4.47 6.89 7.52 9.64-2.25-3.67-6.43-6.67-6.34-11.33.22-2.15 1.47-3.99 2.17-5.99-2.05-2.05-4.77-3.24-6.83-5.26-3.28-3.47 3.92-9.32 6.6-5.44 4.75 4.93 9.7 9.66 14.48 14.57 1.15 1.13 1.54 2.75 2.18 4.19 11.73 6.9 24.1 12.74 35.56 20.11-2.63 2.51-6.03 3.93-9.18 5.63 1.88 5.39 4.17 10.63 6.35 15.91 5.71 2.22 11.74 3.53 17.43 5.77 2.07 2.21 4.99 4.36 5.35 7.57-3.51 1.16-7.25.04-10.83.02.82 3.06 1.88 6.07 2.57 9.17-.36.3-1.07.89-1.43 1.18-5.49-2.27-10.84-5.28-14.5-10.08-3.4-3.6-5.02-8.35-7.59-12.48-9.54-7.13-16.13-17.27-23.28-26.62-3.89-1.12-7.5-2.97-10.86-5.19 4.5 12.97 12.44 24.32 21.09 34.84 1.51 2.1 3.78 4.1 3.71 6.92.17 5.76-1.46 11.53-.22 17.26.98 7.67 3.74 15.09 3.7 22.89.04 9.67.3 19.34.56 29.01-.01 2.28.09 4.68-1 6.76-2.19 4.64-4.08 9.42-6.38 14-4.46 2.01-9.43 2.66-14.11 4.04.73 5.12-1.38 9.75-3.74 14.13-3.6-1.05-7.84-1.06-10.72-3.71 1.96-3.06 4.3-5.86 6.48-8.77-2.23-3.17-3.98-6.62-5.95-9.94-1.54-2.83-5-3.55-7.16-5.75.5-4.14 1.43-8.23 2.37-12.29 3.12-1.03 6.44-1.21 9.66-1.77-1.15-4.5-.97-9.16-1.44-13.74-1.1-4.2-3.67-7.84-4.95-11.97.15-1.94.7-3.82 1.16-5.7-1.52-2.38-3.02-4.76-4.5-7.15-2.81 4.64-6.1 9.01-8.37 13.97-2.06 3.97-4.41 8.78-9.21 9.85-5.82-.54-9.12-6.02-12.78-9.89-2.7.62-5.5.89-8.24.4-5.93-1.34-11.5 1.84-17.11 3.25-10.41-8.35-19.9-17.79-29.95-26.55-2.38-2.03-5.62-.51-8.18.3-3.49 1.55-7.27.22-10.79-.52-6.26 4.63-14.2 8.56-16.93 16.38 2.91 2.6 5.9 5.09 8.77 7.73-1.33 3.25-4.03 6.17-3.74 9.88-.04 3.95.03 7.91.04 11.86 1.26 1.72 2.62 3.36 3.69 5.22-1.91 1.67-4.31 2.81-5.8 4.92-2.1 2.6-3.41 6.21-6.73 7.53-3.73 1.44-7.67-.1-11.21-1.33-1.54 1.5-2.98 3.17-4.9 4.21-3.62-.91-7.53-3.52-11.26-1.53-3.62 2.46-4.26 7.12-6.08 10.79-3.38 3.74-7.67 6.55-11.63 9.64-1.65 1.53-4.03 1.25-6.09 1.48-6.64.33-13.26.85-19.9 1.14-3.78-6.14-11.84-5.57-18.09-6.12-6.59-.48-12.45 3.19-16.43 8.18-3.84-1.3-7.7-2.54-11.48-3.99-.95-.51-2.37-.73-2.62-1.96-1.06-2.85-1.75-5.82-2.57-8.74-7.24-1.49-14.44-3.18-21.68-4.66-2.51 3.48-5.1 6.9-7.4 10.53 1.5 3.88 2.84 7.83 4.33 11.72-3.07 2.32-5.79 6.06-9.97 6.09-6.84.14-13.67.66-20.5.43-.76-2.37-.92-5.33-3.13-6.89-2.02-1.25-4.48-1.36-6.75-1.75-3.22-.26-6.68-1.12-9.71.39-5.63 2.51-11.04 5.48-16.65 8.03-.33 1.4-.57 2.84-1.03 4.21-3.49.8-7.31.66-10.44 2.61-1.67 1.15-2.99 2.72-4.37 4.18-2.5-.3-5.08-.35-7.44-1.28-1.56-1.98-2.34-4.42-3.37-6.68-2.99 1.51-6.84 3.36-9.8.75-5.65-4.51-9.69-10.76-13.28-16.95-5.82.2-11.64.97-17.47.77-1.98-2.14-1.7-5.46-2.51-8.11-1.51 1.79-2.97 3.63-4.69 5.23-.4-.22-1.2-.68-1.6-.91-4.5-9.64-7.58-19.87-11.98-29.56-2.18-4.23-6.01-7.32-8.32-11.45.37-1.29.83-2.53 1.39-3.74-6.92 2.71-14.18 5.24-21.66 5.53-4.21-.18-3.89-5.13-3.41-8.12-1.31-1.37-2.39-3.42-4.5-3.56-1.96-.24-3.85.56-5.73.94-1.44-5.18-1.18-10.63-1.79-15.94-3.72-1.38-7.36-2.93-10.99-4.52-1.95 1.57-3.84 3.66-6.51 3.82-4.78.38-9.16-2.16-13.89-2.38-3.74-.24-7.34 1.22-11.09 1.04-4-.12-8.02-.54-11.9-1.55-4.36-1.14-8.37-3.8-13.02-3.52.04 4.09 2.38 7.49 3.88 11.12.62 2.83-2.47 1.47-3.87.83-2.1-1.05-4.37-1.66-6.71-1.78-.74 2.57-1.04 5.23-1.58 7.85-1.74.53-3.58.51-5.36.73 1.78 3.09 4.64 5.72 5.63 9.18-1.71 3.22-4.78 5.51-7.18 8.21-1.95-1.47-3.6-3.38-5.85-4.4-2.12.36-3.51 2.28-5.21 3.44-2.52-1.79-5.74-3.24-6.93-6.28-.52-2.27-.32-4.62-.75-6.9-2.69.18-5.27 1.11-7.96 1.22-1.43-2.03-2.4-4.32-3.53-6.51-3.12 1.34-6.19 3.12-9.64 3.45-1.9-1.87-2.47-4.61-3.59-6.94-1.29.27-2.58.55-3.87.82-.61-4.09-.73-8.33-2.41-12.17-1.07-2.51-3.92-3.31-6.11-4.51.41-1.59.83-3.18 1.26-4.76-3.09-.05-6.19-.06-9.27-.28-.16-.73-.47-2.19-.62-2.93-6.01.1-12.26-.1-17.93 2.23-2.77.93-3 4.3-4.82 6.21-1.74 1.23-4.31.92-5.47-.93-1.56-2.63-2.34-5.62-3.42-8.46-2.46 1.3-4.9 2.63-7.28 4.06-.31 1.44-.62 2.87-.92 4.32-2.3 1.4-4.68 2.73-6.67 4.58.21 3.09.41 6.25-.81 9.19 2.2 2.15 4.73 4.38 5.31 7.56.66 3.75.74 7.69-.05 11.43-.85.96-2.08 1.47-3.1 2.21.13 1.59.23 3.19.25 4.8-5.61-.24-11.19-1-16.78-1.55-3.07 4.98-9.02 6.75-14.52 7.29.49 3.54.92 7.09 1.37 10.64-1.85 2.71-3.63 5.46-5.36 8.26-.04 6.02.47 12.04.23 18.07-4.44.89-8.88 2.08-13.43 2.26-2.96-3.34-.43-9.33-3.8-12.69-1.61-2.02-3.63-4-3.95-6.7-.65-3.1.94-6.54-.92-9.37-1.86-3.23-6.35-2.77-8.79-5.32-3.37-3.53-4.4-8.44-5.98-12.89-1.7-2.32-4.06-4.04-5.87-6.26-2.66-3.01-4.17-6.77-5.93-10.33-1.71-.48-3.46-.85-5.09-1.56-.47-6.49-.46-13.09-2.23-19.41-1.32-5.95-4.12-11.79-3.49-18 1.7-3.45 5.65-.25 7.89.97 2.8-2.62 6.52-3.26 10.16-2.17.02-1.97.08-3.95.2-5.91 2.68.36 5.36.79 8.02 1.32-1.3-3.58 2.1-5.92 4.75-7.52 4.08-1.01 7.6 1.75 10.87 3.73 1.26-2.19 2.55-4.35 3.89-6.49 2.66-.09 5.58.24 7.97-1.22 2.55-5.02-4.38-8.5-3.92-13.45.13-3.74-.31-7.47-.82-11.17-2.25-.9-5.65-.45-6.78-3.04-1.02-1.93-1.99-3.9-2.65-5.98.08-2.55 1.32-4.88 2.09-7.27-1.39-3.85-2.94-7.66-3.92-11.65 1.86-.63 3.73-1.21 5.6-1.8.55-1.91 1.1-3.82 1.64-5.73-2.01-.21-4.02-.43-6.04-.64-.46-1.81-.68-3.69-1.37-5.43-1.36-1.24-2.9-2.25-4.36-3.36 2.83-4.1 4.28-8.93 6.95-13.1 2.47-.58 2.59 2.68 3.8 4.1.8 2.12 3.35 1.92 5.18 2.3 1.85-5.89-.55-12.41 2.31-18.07 1.83-4.4 5.16-7.9 8.7-10.99-2.14-5.52-5.34-10.64-6.94-16.35 2.53-5.25 6.22-9.85 9.1-14.9 1.11-2.16 3.87-2.05 5.74-3.18 1.96-2.06 2.51-5.78 5.73-6.29 4.07-1.1 8.09-2.57 12.29-3.06 3.05.73 5.84 2.2 8.72 3.41-.78-3.51-1.93-7.6.24-10.84 3.9-4.16 10.11-2.8 15.14-2.32 6.72 1.07 13.45-.79 19.54-3.54.23-3.53.37-7.05.37-10.58 2.4-1.16 5.07-1.85 7.26-3.4 2.15-2.87 3.41-6.34 5.73-9.08 2.63-1.81 5.6-3.13 7.99-5.3 4.32-3.52 6.55-8.83 8.35-13.94 2.7-.4 5.41-.72 8.12-1.04 1.09-3.78 1.61-7.75 3.08-11.41 3.18-2.04 6.74-3.44 10.24-4.86 5.78 2.7 12.44 1.1 18.34 3.21 3.55 2.44 1.67 7.87-1.33 10.02 1.61 3.96 3.68 7.71 5.44 11.6.64 3.76-.1 7.63.48 11.42.51 4.09 2.65 7.8 2.89 11.95.33 4.82.53 10.16-2.27 14.35-1.51 2.46-4.64 3.02-7.3 2.89-4.2-.23-8.32-1.28-12.2-2.85-4.07-1.54-6.3-5.63-7.96-9.38-2.27-5.84-3.72-11.95-5.16-18.03-.77.76-1.53 1.52-2.29 2.28.97 3.47 1.83 6.97 2.68 10.47-4.56 4.9-9.41 9.51-14.02 14.35.94 4.75 1.54 9.6 3.36 14.12l3.33-2.37c-.5-2.55-1.12-5.13-.97-7.74.28-3.86 5.71-6.19 8.52-3.4 2.51 2.93 1.36 7.32 3.52 10.44.68 1.07 1.39 2.13 2.12 3.18 1.91-3.03 3.15-7.12 6.84-8.43 5.19-2.01 11.01-1.79 16.4-.84 1.68 2.14 2.74 4.69 4.07 7.06 1.89-.67 3.79-1.32 5.71-1.93-.01-2.4-.05-4.79-.05-7.18 3.63-1.72 7.45-3.79 9.54-7.38.82-2.18.69-4.59 1.38-6.81 3.63 1.11 6.42 3.95 8.85 6.74 2.79 3.54 1.72 8.99-1.87 11.56-1.95 1.87-4.25-.7-6.21-1.27-.92.68-1.83 1.37-2.73 2.06.18 2.21.37 4.43.57 6.64.73.26 2.19.79 2.92 1.05 2.23-1.66 4.35-3.48 6.79-4.83 4.22-.68 8.53-.09 12.79-.09 7.72.04 15.46-.03 23.18.39.09.49.27 1.47.36 1.95-1.81 2.1-4.03 3.77-6.13 5.55.61.54 1.83 1.61 2.43 2.14 4.53-1.59 9.46-1.1 13.66 1.18 3.08-.07 6.17-.26 9.26-.22.26 2.17.53 4.34.88 6.5 1.65-.57 3.29-1.18 4.91-1.83-.02-2.79-.19-5.57-.46-8.34 1.2-.98 2.38-2.02 3.75-2.77 3.1 1.53 6.02 3.42 9.09 5.03 3.5 1.74 5.26 5.41 7.46 8.44 3.22 5.31 7.2 10.12 10.31 15.51l2.03-1.94c-1.43-2.92-1.73-6.17-.81-9.3-1.76-1.1-3.51-2.22-5.18-3.45 2.62-3.33 5.37-6.66 7.09-10.57 1.38-2.39-1.75-4.44-1.41-6.72 4.1-3.82 9.63-6.12 12.86-10.85 2.66-3.82 5.47-7.51 8.5-11.03 3.95 1.71 7.9 3.42 11.88 5.08-.53 3.29-.66 6.88-2.7 9.68-1.69 2.55-3.71 4.87-5.65 7.23.61 4.24 2.66 8.65.95 12.88-2.05 5.91-4.22 11.79-5.82 17.85 1.06 2.63 3.7 5.47 1.92 8.37-2.33 6.93-7.58 12.15-12.76 17.04-3.98 1.73-8.36.19-12.45-.21 2.77 2.43 5.72 5.62 9.73 5.44 6.95-.92 11.89-6.56 16.41-11.4 1.7-4.27 1.08-9.18 2.39-13.6 3.43-1.87 8.41-2.65 11.57.13 2.33 2.65 1.75 6.51 2.25 9.77 4.12-.4 2.56-5.74.85-7.98-3.13-4.8-9.35-5.2-14.49-5.82-.6-3.16-1.55-6.3-1.53-9.53 1.46-3.16 3.66-5.92 5.63-8.78-1.15-4.17-2.51-8.29-3.44-12.52 3.18-3.31 6.72-6.31 9.63-9.88.76-2.37.53-5.01.8-7.49 2.4-.44 5.55-.77 7.02 1.67 1.93 3.32.28 7.29-.67 10.68.53.08 1.6.22 2.14.3 1.3 1.2 2.62 2.4 4.11 3.38-1.48-2.07-4.9-3.48-4-6.54.77-3.97 6.66-4.68 9.21-1.93.52-.02 1.58-.05 2.11-.06 3.37 4.08 5.87 8.8 9.25 12.88.06-1.02.16-3.06.21-4.08-1.88-2.72-5.09-4.58-6.24-7.74.29-4.32 1.07-8.6 1.82-12.86 7.08-1 14.16-1.94 21.24-2.91-1.52-7.01 3.19-12.87 7.53-17.73 3.39-4.39 9.41-4.56 13.91-7.27.7-1.05 1.14-2.24 1.7-3.36 3.38-1.39 6.78-4.04 10.62-2.81 1.23.8 1.4 2.51 2.1 3.73 2.03-.91 4.09-1.77 6.14-2.64.07-1.65.08-3.3.32-4.94 1.26-.76 2.71-1.1 4.09-1.6-.39-1.89-.77-3.77-1.13-5.66 2.44-3.51 4.43-7.34 7.06-10.71 3.7-2.63 8.23-.42 11.92 1.04-1.2 1.81-2.51 3.55-3.84 5.27 1.67-.38 3.33-.74 5.02-1.08.64 1.55 1.18 3.14 1.71 4.75 1.37-1.21 2.53-3.13 4.63-2.96 3.6-.31 7.23-.44 10.85-.63 2.71 2.22 6.17 3.73 8.36 6.47 1.21 6 3.11 12.57.22 18.4-3.92 8.82-10.29 16.29-14.6 24.9 6.8-4.16 11.54-11.01 18.35-15.17 2.31-.72 3.14 2.38 4.55 3.64.41-1.03.82-2.07 1.25-3.1 5.23-1.19 10.22-3.32 15.53-4.21.66 1.75-.18 4.61 1.7 5.61 4.84-1.19 9-4.06 13.44-6.18-.87-2.91-2.67-6.41-.8-9.29 2.28-2.73 6.1-2.62 9.33-2.84 2.56.11 4.41-2.12 6.87-2.42 5.2 3.17 9.74 7.29 14.75 10.74 1.43.84 2.18 2.31 2.85 3.77-2.17.46-4.36.86-6.53 1.28 5 4.16 11.59 5.26 17.79 6.34-1.55-4.68-2.84-9.43-4.07-14.2 3.28-.26 6.58-.11 9.86.13.79-2.02 1.17-4.58 3.31-5.66 2.64-1.3 5.62-1.61 8.5-2.02.62-2.34 2.27-4.12 3.93-5.79-2.12-1.37-4.35-2.6-6.22-4.31-.66-3.39-.59-6.87-.92-10.3 6.96-4.58 14.2-8.76 21.31-13.1 2.4-1.6 3.77-4.45 6.32-5.8 3.07-.25 6.17 0 9.23.34 1.35 1.24-.03 3.1-.03 4.59 4.48-1.12 9.03-1.97 13.53-3.05 3.63-5.86 6.06-12.38 9.68-18.24 3.21-2.81 7.51-4.36 11.75-4.72 3.81-.25 6.93 2.28 9.82 4.4 1.34-1.05 2.68-2.09 4.03-3.14 1.17-6.69 5.5-12.15 9.58-17.35 2.19-2.55 2.1-6.08 3.12-9.12 4.48-.82 9.03.44 13.55.16.21-1.89.37-3.78.52-5.68-2.48.03-4.99.38-7.45-.04-2.24-1.34-4.33-3.2-5.54-5.54 2.58-5.88 5.3-11.73 8.24-17.44 8.54-10.86 20.44-18.32 31.45-26.43 4.4-2.71 8.22-6.3 12.76-8.81 3.86-.3 7.58 2.65 11.45.99-2.51-.95-5.23-1.32-7.58-2.63.22-1.76 1.37-3.19 2.11-4.76 1.43-2.58 1.26-5.74 2.62-8.33 2.64-1.91 5.71-3.08 8.57-4.63M158.37 227.51c-5.98 2.63-8.71 10.7-5.34 16.36 3.4 5.58 7.05 11.01 10.48 16.57 3.36-5.29 6.88-10.48 10.14-15.82 2.33-3.71 2.49-8.63.19-12.39-2.93-5.24-10.1-7.49-15.47-4.72m-23.31 6.69c-6.42 2.34-9.55 10.79-6.03 16.69 3.4 5.57 7.06 10.98 10.47 16.54 3.26-5.04 6.55-10.05 9.75-15.12 2.1-3.23 3-7.38 1.53-11.06-2.04-6.22-9.71-9.71-15.72-7.05m269.93.69c-.39 1.32 1.31 3.16 2.66 2.87.33-1.31-1.31-3.23-2.66-2.87m-15.55 10.23c2.75 1.46 5.51 2.89 8.31 4.26-2.03-2.29-4.19-4.47-6.35-6.63.11-1.31.24-2.62.38-3.92-.72 2.12-1.52 4.21-2.34 6.29m-249.21 26.05c-3.5 3.72-4.22 9.77-1.47 14.12 3.45 5.42 6.8 10.91 10.48 16.18 3.51-5.58 7.31-10.98 10.6-16.69 2.87-5.01 1.16-11.87-3.52-15.15-4.74-3.61-12.11-2.91-16.09 1.54m57 18.13c-6.37 2.27-9.41 10.64-6.01 16.49 3.34 5.71 7.41 10.96 10.82 16.64 2.48-3.94 5.01-7.84 7.71-11.63 2.57-3.72 5.44-8.05 4.26-12.82-1.17-7.39-10.1-11.75-16.78-8.68m-33.23.72c-6.81 1.9-10.34 10.63-6.79 16.73 3.34 5.73 7.42 10.99 10.83 16.69 2.48-3.95 5-7.86 7.71-11.64 2.58-3.73 5.45-8.09 4.25-12.87-1.16-7.05-9.43-11.42-16-8.91m-42.27 18.71c-1.74 3.9-.87 8.48 1.56 11.88 3.31 4.9 6.64 9.79 9.75 14.82 3.48-5.91 7.96-11.2 11.11-17.31 2.95-5.83-.27-13.68-6.41-15.86-5.89-2.57-13.69.36-16.01 6.47m53.9 9.85c-2.6 3.78-2.77 9.05-.26 12.92 3.36 5.32 6.82 10.59 10.14 15.94 3.49-5.54 7.25-10.92 10.54-16.57 3.21-5.5.83-13.19-4.79-16.08-5.17-3-12.41-1.23-15.63 3.79m92.8-3.11c-6.05 2.63-8.8 10.79-5.37 16.49 3.41 5.53 7.03 10.95 10.46 16.48 3.35-5.3 6.88-10.48 10.13-15.84 2.31-3.69 2.48-8.57.23-12.31-2.9-5.27-10.07-7.54-15.45-4.82m49.85 10.85c-6.15 2.44-9.16 10.52-5.87 16.32 3.43 5.71 7.14 11.26 10.71 16.89 3.55-5.32 7.08-10.66 10.39-16.13 2.24-3.63 2.31-8.42.13-12.08-2.89-5.26-9.93-7.5-15.36-5m-206.59 9.39c-3.85 3.66-4.81 9.99-1.96 14.52 3.45 5.45 6.84 10.94 10.5 16.25 3.52-5.58 7.33-11 10.62-16.72 2.71-4.78 1.32-11.27-2.94-14.67-4.54-3.94-11.99-3.62-16.22.62m43.69 18.68c-6.21 2.55-9.05 10.87-5.52 16.62 3.4 5.52 6.97 10.93 10.42 16.42 3.38-5.37 6.98-10.6 10.24-16.05 2.08-3.41 2.31-7.82.49-11.38-2.64-5.64-10.01-8.35-15.63-5.61m140.88 2.9c-6.4 2.25-9.44 10.64-6.04 16.49 3.34 5.71 7.4 10.97 10.82 16.64 3.17-5.25 6.87-10.16 10.11-15.36 2.18-3.35 2.81-7.71 1.16-11.41-2.4-6.05-10.16-8.99-16.05-6.36m-161.86 15.2c-6.03 2.64-8.75 10.76-5.35 16.45 3.41 5.55 7.05 10.95 10.46 16.5 3.37-5.28 6.88-10.47 10.13-15.82 2.34-3.71 2.5-8.65.18-12.41-2.92-5.23-10.07-7.45-15.42-4.72m588.9 13.78c-6.4 2.23-9.48 10.6-6.1 16.46 3.34 5.74 7.41 11.01 10.84 16.69 3.16-5.24 6.85-10.14 10.09-15.33 2.19-3.36 2.83-7.73 1.18-11.44-2.4-6.04-10.12-8.97-16.01-6.38m-644.56 7.48c-3.26 3.91-3.56 9.9-.65 14.09 3.38 5.22 6.59 10.54 10.15 15.64 3.52-5.6 7.33-11.01 10.62-16.74 2.84-5 1.13-11.84-3.54-15.11-4.95-3.79-12.75-2.81-16.58 2.12m33.68-3.27c-6.02 2.62-8.77 10.72-5.39 16.41 3.42 5.56 7.04 11 10.5 16.55 3.33-5.31 6.88-10.48 10.12-15.83 2.33-3.7 2.49-8.62.2-12.36-2.91-5.25-10.07-7.5-15.43-4.77m-72.98 16.99c-6.05 2.63-8.81 10.77-5.38 16.47 3.4 5.55 7.03 10.96 10.46 16.5 3.35-5.28 6.85-10.46 10.11-15.79 2.35-3.71 2.52-8.63.22-12.41-2.91-5.23-10.05-7.48-15.41-4.77m23.96 15.02c-6.03 2.64-8.75 10.77-5.34 16.45 3.39 5.55 7.03 10.95 10.45 16.5 3.37-5.3 6.9-10.49 10.15-15.86 2.33-3.69 2.47-8.6.19-12.34-2.92-5.25-10.09-7.49-15.45-4.75m9.7 33.69c-6.41 2.32-9.59 10.74-6.1 16.65 3.41 5.6 7.07 11.04 10.52 16.61 3.22-5.07 6.56-10.07 9.74-15.16 2.11-3.24 2.99-7.4 1.51-11.08-2.04-6.18-9.68-9.63-15.67-7.02z"/><path d="M721.83 39.92c2.1-1.6 4.2-3.23 6.41-4.69 1.73 1.48 3.21 3.39 3.15 5.8.01 4.62-.73 9.42-2.87 13.56-1 2.1-3.72 1.28-5.16.18-1.97-1.55-4.32-3.28-4.68-5.94-.35-2.81-.64-5.66-.52-8.49 1.21-.2 2.43-.34 3.67-.42zm-373.96 60.97c-2.4-5.26 4.57-11.39 9.67-9.14 3.01 1.2 6.48 2.79 7.61 6.1 1.09 2.56 1.02 6.2-1.52 7.88-2.95 1.58-6.34 2.26-9.65 2.5-3.71.2-8.25-3.38-6.11-7.34zm21.24-.72c3.79-2.79 8.48-4.12 12.88-5.65 1.49 2.82 2.69 5.85 2.57 9.1-.71.53-2.11 1.6-2.82 2.14 1.25 1.01 2.51 2.01 3.82 2.96 3.21-1.36 7.67-4.18 10.73-1.04 2.22 1.76 1.61 4.71 1.49 7.17-3.52 2.77-8.18 4.03-12.35 1.91-4.08 2.01-8.85 1.64-13.21 1.03-3.17-1.21-2.44-5.2-2.67-7.88 0-3.25-1.73-6.57-.44-9.74zm80.9 29.87c.71-6.22 2.85-13.66 9.62-15.64 3.76 4.77 8.21 9.89 7.59 16.44 4.44 1.37 7.84 5.04 8.38 9.74 2.75-1.19 6.09-1.86 7.98 1.09 5.47 1.54 9.28 7.67 7.97 13.23-1.84 4.17-6.73 4.86-10.55 6.17-2.81.82-5.07 3.41-8.11 3.27-3.63-2.47-2.13-7.52-2.03-11.19-4.85-.39-10.44-.28-14.23-3.81-2.93-3.03-1.96-7.51-1.85-11.28-1.02-2.93-4.13-4.93-4.77-8.02zm166.56-8.59c3.17-1.4 6.12-3.33 9.43-4.4 2.29-.04 4.56.35 6.84.64-.38 4.05-1.27 8.01-2.21 11.96-4.65 1.16-9.33 2.18-14.02 3.15-1.33-1.64-2.56-3.35-3.78-5.06 1.35 3.52 3.27 7.63 1.25 11.29-2.85 4.92-5.84 10.16-10.54 13.52-3.94 1.44-9.39 1.58-12.4-1.83-2.9-4.26-3.22-9.62-3.13-14.62 3.06-.14 6.12-.08 9.17.1-.6-2.37-1.18-4.74-1.58-7.14 2.38.02 4.75.29 7.14.2 2.86-.63 5.5-1.93 8.14-3.16.69-2.69 3.55-3.44 5.69-4.65zm-1.61 31.69c4.74-4.09 11.74-3.2 16.33.64-.81 1.64-2.02 3.01-3.55 4-3.75 2.6-7.25 5.6-11.27 7.77-1.75.79-1.84-1.64-2.26-2.72-.52-3.16-1.09-6.87.75-9.69zm-246.84 14.5c4.22-.02 7.58-3.83 11.87-3.07 3.17 1.2 5.15 5.13 3.85 8.35-1.18 2.79-4.09 4.37-6.89 5.11-6.49 1.8-13.31 1.6-19.98 1.8-9.37 8.13-21.65 11.81-30.93 20.07-3.65 3.44-7.49 6.91-9.93 11.35-.85 3.81-.57 7.79-.3 11.66.14 2.78 1.1 5.99-.92 8.36-3.6 1-6.67-1.91-9.01-4.23-6.24-6.19-8.1-15.84-6-24.18 1.06-3.94 6.12-3.65 8.42-6.49 3.06-3.23 5.15-8.68 10.54-8 5.47-7.98 15.56-10.46 21.61-17.83 8.93-3.03 18.4-2.45 27.67-2.9zM26.01 228.78c3.86-.46 7.76-1.18 11.65-.87 1.23 1.14 2.24 2.47 3.3 3.77 1.49-1.09 2.77-3.09 4.89-2.66 1.91 5.68 3.09 11.6 4.05 17.51-3.27 1.1-6.61 1.99-9.98 2.68-2.51-3.19-4.93-6.44-7.21-9.79-2.34-3.48-5.4-6.57-6.7-10.64zm135.49 3.82c3.77-1.82 8.45 2.27 7.03 6.25-.88 3.67-6.08 5.02-8.65 2.25-2.66-2.4-1.71-7.22 1.62-8.5zm-24.09 7.03c3.79-1.89 8.54 2.2 7.12 6.21-.89 3.68-6.11 5.04-8.67 2.24-2.61-2.39-1.7-7.12 1.55-8.45zm9.96 33.84c3.8-1.53 8.32 2.45 6.9 6.41-1.03 4.18-7.35 5.03-9.56 1.41-1.97-2.69-.49-6.85 2.66-7.82zm52.98 21.01c3.76-1.5 8.11 2.63 6.65 6.46-1.01 4.08-7.15 4.95-9.28 1.34-2.07-2.66-.47-6.82 2.63-7.8zm-33.88.95c3.74-1.36 7.98 2.72 6.53 6.51-1.01 4.09-7.17 4.94-9.3 1.34-2.08-2.72-.4-6.91 2.77-7.85zm-35.1 12.04c4.07-1.63 8.7 3.42 6.31 7.26-1.43 3.24-6.37 3.85-8.56 1.09-2.5-2.6-1.15-7.32 2.25-8.35zm52.15 12.11c3.81-1.79 8.47 2.36 6.98 6.34-.93 3.64-6.1 4.93-8.65 2.15-2.64-2.42-1.65-7.22 1.67-8.49zm87.95 1.03c3.78-1.85 8.47 2.25 7.06 6.24-.89 3.67-6.06 5.01-8.64 2.25-2.66-2.38-1.72-7.19 1.58-8.49zm49.96 10.83c3.82-1.46 8.27 2.54 6.83 6.48-1 3.9-6.72 4.96-9.17 1.86-2.48-2.62-1.08-7.35 2.34-8.34zm-202.99 7.01c3.81-1.48 8.28 2.55 6.82 6.48-1.07 4.16-7.38 4.96-9.57 1.34-1.96-2.71-.43-6.9 2.75-7.82zm39.99 21.1c3.79-1.7 8.31 2.5 6.82 6.4-1 3.87-6.71 4.93-9.03 1.68-2.27-2.55-.98-7.01 2.21-8.08zm140.96 2.91c3.75-1.45 8.05 2.67 6.61 6.47-.96 3.8-6.49 4.94-8.89 1.87-2.57-2.61-1.1-7.31 2.28-8.34zM137.52 377.6c3.79-1.81 8.44 2.3 7 6.28-.91 3.64-6.05 4.96-8.63 2.24-2.68-2.4-1.72-7.26 1.63-8.52zm588.92 13.84c3.75-1.4 8.02 2.71 6.56 6.51-.97 3.82-6.55 4.92-8.93 1.81-2.54-2.63-1.04-7.32 2.37-8.32zm-640.03 4.01c3.84-1.5 8.33 2.56 6.84 6.51-1.09 4.13-7.35 4.92-9.54 1.32-2.01-2.69-.45-6.88 2.7-7.83zm29.1.15c3.78-1.83 8.42 2.27 7.03 6.23-.89 3.69-6.12 5.06-8.68 2.24-2.64-2.41-1.67-7.2 1.65-8.47zm-73 16.99c3.78-1.79 8.42 2.27 7.02 6.24-.86 3.68-6.05 5.04-8.64 2.28-2.68-2.4-1.71-7.24 1.62-8.52zm23.93 15.03c3.81-1.88 8.54 2.26 7.07 6.27-.91 3.65-6.1 4.97-8.65 2.19-2.62-2.4-1.68-7.15 1.58-8.46zm9.03 33.99c3.79-1.84 8.47 2.25 7.06 6.24-.88 3.68-6.08 5.02-8.65 2.25-2.66-2.39-1.7-7.2 1.59-8.49z"/></g></svg>