<svg version="1.1" id="Слой_1" xmlns="http://www.w3.org/2000/svg" x="0" y="0" viewBox="234 -57 907 554" xml:space="preserve"><style>.st0{fill:#fff}.st1{fill:#cb1c23}</style><path class="st0" d="M234-57h907v554H234V-57m792.3 17.2c-2.9 1.5-5.9 2.7-8.6 4.6-1.4 2.6-1.2 5.8-2.6 8.3-.7 1.6-1.9 3-2.1 4.8 2.3 1.3 5.1 1.7 7.6 2.6-3.9 1.7-7.6-1.3-11.5-1-4.5 2.5-8.4 6.1-12.8 8.8-11 8.1-22.9 15.6-31.5 26.4-2.9 5.7-5.7 11.6-8.2 17.4 1.2 2.3 3.3 4.2 5.5 5.5 2.5.4 5 .1 7.5 0-.2 1.9-.3 3.8-.5 5.7-4.5.3-9.1-1-13.5-.2-1 3-.9 6.6-3.1 9.1-4.1 5.2-8.4 10.7-9.6 17.3-1.3 1.1-2.7 2.1-4 3.1-2.9-2.1-6-4.7-9.8-4.4-4.2.4-8.5 1.9-11.8 4.7-3.6 5.9-6 12.4-9.7 18.2-4.5 1.1-9 1.9-13.5 3.1 0-1.5 1.4-3.4 0-4.6-3.1-.3-6.2-.6-9.2-.3-2.5 1.4-3.9 4.2-6.3 5.8-7.1 4.3-14.3 8.5-21.3 13.1.3 3.4.3 6.9.9 10.3 1.9 1.7 4.1 2.9 6.2 4.3-1.7 1.7-3.3 3.4-3.9 5.8-2.9.4-5.9.7-8.5 2-2.1 1.1-2.5 3.6-3.3 5.7-3.3-.2-6.6-.4-9.9-.1 1.2 4.8 2.5 9.5 4.1 14.2-6.2-1.1-12.8-2.2-17.8-6.3 2.2-.4 4.4-.8 6.5-1.3-.7-1.5-1.4-2.9-2.8-3.8-5-3.4-9.5-7.6-14.8-10.7-2.5.3-4.3 2.5-6.9 2.4-3.2.2-7 .1-9.3 2.8-1.9 2.9-.1 6.4.8 9.3-4.4 2.1-8.6 5-13.4 6.2-1.9-1-1-3.9-1.7-5.6-5.3.9-10.3 3-15.5 4.2-.4 1-.8 2.1-1.3 3.1-1.4-1.3-2.2-4.4-4.5-3.6-6.8 4.2-11.5 11-18.3 15.2 4.3-8.6 10.7-16.1 14.6-24.9 2.9-5.8 1-12.4-.2-18.4-2.2-2.7-5.7-4.3-8.4-6.5-3.6.2-7.3.3-10.8.6-2.1-.2-3.3 1.8-4.6 3-.5-1.6-1.1-3.2-1.7-4.8-1.7.3-3.4.7-5 1.1 1.3-1.7 2.6-3.5 3.8-5.3-3.7-1.5-8.2-3.7-11.9-1-2.6 3.4-4.6 7.2-7.1 10.7.4 1.9.7 3.8 1.1 5.7-1.4.5-2.8.8-4.1 1.6-.2 1.6-.3 3.3-.3 4.9-2 .9-4.1 1.7-6.1 2.6-.7-1.2-.9-2.9-2.1-3.7-3.8-1.2-7.2 1.4-10.6 2.8-.6 1.1-1 2.3-1.7 3.4-4.5 2.7-10.5 2.9-13.9 7.3-4.3 4.9-9 10.7-7.5 17.7-7.1 1-14.2 1.9-21.2 2.9-.8 4.3-1.5 8.5-1.8 12.9 1.2 3.2 4.4 5 6.2 7.7 0 1-.1 3.1-.2 4.1-3.4-4.1-5.9-8.8-9.3-12.9-.5 0-1.6 0-2.1.1-2.5-2.8-8.4-2-9.2 1.9-.9 3.1 2.5 4.5 4 6.5-1.5-1-2.8-2.2-4.1-3.4-.5-.1-1.6-.2-2.1-.3.9-3.4 2.6-7.4.7-10.7-1.5-2.4-4.6-2.1-7-1.7-.3 2.5 0 5.1-.8 7.5-2.9 3.6-6.4 6.6-9.6 9.9.9 4.2 2.3 8.4 3.4 12.5-2 2.9-4.2 5.6-5.6 8.8 0 3.2.9 6.4 1.5 9.5 5.1.6 11.4 1 14.5 5.8 1.7 2.2 3.3 7.6-.9 8-.5-3.3.1-7.1-2.3-9.8-3.2-2.8-8.1-2-11.6-.1-1.3 4.4-.7 9.3-2.4 13.6-4.5 4.8-9.5 10.5-16.4 11.4-4 .2-7-3-9.7-5.4 4.1.4 8.5 1.9 12.4.2 5.2-4.9 10.4-10.1 12.8-17 1.8-2.9-.9-5.7-1.9-8.4 1.6-6.1 3.8-11.9 5.8-17.9 1.7-4.2-.3-8.6-1-12.9 1.9-2.4 4-4.7 5.6-7.2 2-2.8 2.2-6.4 2.7-9.7-4-1.7-7.9-3.4-11.9-5.1-3 3.5-5.8 7.2-8.5 11-3.2 4.7-8.8 7-12.9 10.9-.3 2.3 2.8 4.3 1.4 6.7-1.7 3.9-4.5 7.2-7.1 10.6 1.7 1.2 3.4 2.4 5.2 3.5-.9 3.1-.6 6.4.8 9.3l-2 1.9c-3.1-5.4-7.1-10.2-10.3-15.5-2.2-3-4-6.7-7.5-8.4-3.1-1.6-6-3.5-9.1-5-1.4.8-2.5 1.8-3.8 2.8.3 2.8.4 5.6.5 8.3-1.6.6-3.3 1.3-4.9 1.8-.3-2.2-.6-4.3-.9-6.5-3.1 0-6.2.1-9.3.2-4.2-2.3-9.1-2.8-13.7-1.2-.6-.5-1.8-1.6-2.4-2.1 2.1-1.8 4.3-3.4 6.1-5.6-.1-.5-.3-1.5-.4-1.9-7.7-.4-15.5-.4-23.2-.4-4.3 0-8.6-.6-12.8.1-2.4 1.4-4.6 3.2-6.8 4.8-.7-.3-2.2-.8-2.9-1.1l-.6-6.6 2.7-2.1c2 .6 4.3 3.1 6.2 1.3 3.6-2.6 4.7-8 1.9-11.6-2.4-2.8-5.2-5.6-8.9-6.7-.7 2.2-.6 4.6-1.4 6.8-2.1 3.6-5.9 5.7-9.5 7.4v7.2c-1.9.6-3.8 1.3-5.7 1.9-1.3-2.4-2.4-4.9-4.1-7.1-5.4-.9-11.2-1.2-16.4.8-3.7 1.3-4.9 5.4-6.8 8.4-.7-1.1-1.4-2.1-2.1-3.2-2.2-3.1-1-7.5-3.5-10.4-2.8-2.8-8.2-.5-8.5 3.4-.2 2.6.5 5.2 1 7.7l-3.3 2.4c-1.8-4.5-2.4-9.4-3.4-14.1 4.6-4.8 9.5-9.4 14-14.4-.9-3.5-1.7-7-2.7-10.5l2.3-2.3c1.4 6.1 2.9 12.2 5.2 18 1.7 3.8 3.9 7.8 8 9.4 3.9 1.6 8 2.6 12.2 2.9 2.7.1 5.8-.4 7.3-2.9 2.8-4.2 2.6-9.5 2.3-14.4-.2-4.1-2.4-7.9-2.9-11.9-.6-3.8.2-7.7-.5-11.4-1.8-3.9-3.8-7.6-5.4-11.6 3-2.1 4.9-7.6 1.3-10-5.9-2.1-12.6-.5-18.3-3.2-3.5 1.4-7.1 2.8-10.2 4.9-1.5 3.7-2 7.6-3.1 11.4-2.7.3-5.4.6-8.1 1-1.8 5.1-4 10.4-8.4 13.9-2.4 2.2-5.4 3.5-8 5.3-2.3 2.7-3.6 6.2-5.7 9.1-2.2 1.6-4.9 2.2-7.3 3.4 0 3.5-.1 7.1-.4 10.6-6.1 2.8-12.8 4.6-19.5 3.5-5-.5-11.2-1.8-15.1 2.3-2.2 3.2-1 7.3-.2 10.8-2.9-1.2-5.7-2.7-8.7-3.4-4.2.5-8.2 2-12.3 3.1-3.2.5-3.8 4.2-5.7 6.3-1.9 1.1-4.6 1-5.7 3.2-2.9 5.1-6.6 9.7-9.1 14.9 1.6 5.7 4.8 10.8 6.9 16.4-3.5 3.1-6.9 6.6-8.7 11-2.9 5.7-.5 12.2-2.3 18.1-1.8-.4-4.4-.2-5.2-2.3-1.2-1.4-1.3-4.7-3.8-4.1-2.7 4.2-4.1 9-7 13.1 1.5 1.1 3 2.1 4.4 3.4.7 1.7.9 3.6 1.4 5.4l6 .6c-.5 1.9-1.1 3.8-1.6 5.7-1.9.6-3.7 1.2-5.6 1.8 1 4 2.5 7.8 3.9 11.6-.8 2.4-2 4.7-2.1 7.3.7 2.1 1.6 4 2.7 6 1.1 2.6 4.5 2.1 6.8 3 .5 3.7.9 7.4.8 11.2-.5 5 6.5 8.4 3.9 13.5-2.4 1.5-5.3 1.1-8 1.2-1.3 2.1-2.6 4.3-3.9 6.5-3.3-2-6.8-4.7-10.9-3.7-2.6 1.6-6 3.9-4.8 7.5-2.7-.5-5.3-1-8-1.3-.1 2-.2 3.9-.2 5.9-3.6-1.1-7.4-.5-10.2 2.2-2.2-1.2-6.2-4.4-7.9-1-.6 6.2 2.2 12 3.5 18 1.8 6.3 1.8 12.9 2.2 19.4 1.6.7 3.4 1.1 5.1 1.6 1.8 3.6 3.3 7.3 5.9 10.3 1.8 2.2 4.2 3.9 5.9 6.3 1.6 4.5 2.6 9.4 6 12.9 2.4 2.5 6.9 2.1 8.8 5.3 1.9 2.8.3 6.3.9 9.4.3 2.7 2.3 4.7 4 6.7 3.4 3.4.8 9.4 3.8 12.7 4.6-.2 9-1.4 13.4-2.3.2-6-.3-12-.2-18.1 1.7-2.8 3.5-5.5 5.4-8.3-.4-3.5-.9-7.1-1.4-10.6 5.5-.5 11.4-2.3 14.5-7.3 5.6.5 11.2 1.3 16.8 1.5 0-1.6-.1-3.2-.3-4.8 1-.7 2.3-1.3 3.1-2.2.8-3.7.7-7.7.1-11.4-.6-3.2-3.1-5.4-5.3-7.6 1.2-2.9 1-6.1.8-9.2 2-1.9 4.4-3.2 6.7-4.6.3-1.5.6-2.9.9-4.3 2.4-1.4 4.8-2.8 7.3-4.1 1.1 2.8 1.9 5.8 3.4 8.5 1.2 1.9 3.7 2.2 5.5.9 1.8-1.9 2.1-5.3 4.8-6.2 5.7-2.3 11.9-2.1 17.9-2.2.1.7.5 2.2.6 2.9 3.1.2 6.2.2 9.3.3-.4 1.6-.8 3.2-1.3 4.8 2.2 1.2 5 2 6.1 4.5 1.7 3.8 1.8 8.1 2.4 12.2 1.3-.3 2.6-.5 3.9-.8 1.1 2.3 1.7 5.1 3.6 6.9 3.4-.3 6.5-2.1 9.6-3.5 1.1 2.2 2.1 4.5 3.5 6.5 2.7-.1 5.3-1 8-1.2.4 2.3.2 4.6.8 6.9 1.2 3 4.4 4.5 6.9 6.3 1.7-1.2 3.1-3.1 5.2-3.4 2.3 1 3.9 2.9 5.9 4.4 2.4-2.7 5.5-5 7.2-8.2-1-3.5-3.9-6.1-5.6-9.2 1.8-.2 3.6-.2 5.4-.7.5-2.6.8-5.3 1.6-7.9 2.3.1 4.6.7 6.7 1.8 1.4.6 4.5 2 3.9-.8-1.5-3.6-3.8-7-3.9-11.1 4.6-.3 8.7 2.4 13 3.5 3.9 1 7.9 1.4 11.9 1.5 3.8.2 7.4-1.3 11.1-1 4.7.2 9.1 2.8 13.9 2.4 2.7-.2 4.6-2.3 6.5-3.8 3.6 1.6 7.3 3.1 11 4.5.6 5.3.3 10.8 1.8 15.9 1.9-.4 3.8-1.2 5.7-.9 2.1.1 3.2 2.2 4.5 3.6-.5 3-.8 7.9 3.4 8.1 7.5-.3 14.7-2.8 21.7-5.5-.6 1.2-1 2.5-1.4 3.7 2.3 4.1 6.1 7.2 8.3 11.5 4.4 9.7 7.5 19.9 12 29.6.4.2 1.2.7 1.6.9 1.7-1.6 3.2-3.4 4.7-5.2.8 2.6.5 6 2.5 8.1 5.8.2 11.6-.6 17.5-.8 3.6 6.2 7.6 12.4 13.3 17 3 2.6 6.8.8 9.8-.8 1 2.3 1.8 4.7 3.4 6.7 2.4.9 4.9 1 7.4 1.3 1.4-1.5 2.7-3 4.4-4.2 3.1-2 6.9-1.8 10.4-2.6.5-1.4.7-2.8 1-4.2 5.6-2.5 11-5.5 16.7-8 3-1.5 6.5-.6 9.7-.4 2.3.4 4.7.5 6.8 1.8 2.2 1.6 2.4 4.5 3.1 6.9 6.8.2 13.7-.3 20.5-.4 4.2 0 6.9-3.8 10-6.1-1.5-3.9-2.8-7.8-4.3-11.7 2.3-3.6 4.9-7 7.4-10.5 7.2 1.5 14.4 3.2 21.7 4.7.8 2.9 1.5 5.9 2.6 8.7.3 1.2 1.7 1.5 2.6 2 3.8 1.5 7.6 2.7 11.5 4 4-5 9.8-8.7 16.4-8.2 6.3.5 14.3 0 18.1 6.1 6.6-.3 13.3-.8 19.9-1.1 2.1-.2 4.4 0 6.1-1.5 4-3.1 8.3-5.9 11.6-9.6 1.8-3.7 2.5-8.3 6.1-10.8 3.7-2 7.6.6 11.3 1.5 1.9-1 3.4-2.7 4.9-4.2 3.5 1.2 7.5 2.8 11.2 1.3 3.3-1.3 4.6-4.9 6.7-7.5 1.5-2.1 3.9-3.3 5.8-4.9-1.1-1.9-2.4-3.5-3.7-5.2 0-4-.1-7.9 0-11.9-.3-3.7 2.4-6.6 3.7-9.9-2.9-2.6-5.9-5.1-8.8-7.7 2.7-7.8 10.7-11.8 16.9-16.4 3.5.7 7.3 2.1 10.8.5 2.6-.8 5.8-2.3 8.2-.3 10 8.8 19.5 18.2 30 26.5 5.6-1.4 11.2-4.6 17.1-3.3 2.7.5 5.5.2 8.2-.4 3.7 3.9 7 9.4 12.8 9.9 4.8-1.1 7.2-5.9 9.2-9.9 2.3-5 5.6-9.3 8.4-14 1.5 2.4 3 4.8 4.5 7.1-.5 1.9-1 3.8-1.2 5.7 1.3 4.1 3.9 7.8 5 12 .5 4.6.3 9.2 1.4 13.7-3.2.6-6.5.7-9.7 1.8-.9 4.1-1.9 8.1-2.4 12.3 2.2 2.2 5.6 2.9 7.2 5.8 2 3.3 3.7 6.8 6 9.9-2.2 2.9-4.5 5.7-6.5 8.8 2.9 2.6 7.1 2.7 10.7 3.7 2.4-4.4 4.5-9 3.7-14.1 4.7-1.4 9.7-2 14.1-4 2.3-4.6 4.2-9.4 6.4-14 1.1-2.1 1-4.5 1-6.8-.3-9.7-.5-19.3-.6-29 0-7.8-2.7-15.2-3.7-22.9-1.2-5.7.4-11.5.2-17.3.1-2.8-2.2-4.8-3.7-6.9-8.6-10.5-16.6-21.9-21.1-34.8 3.4 2.2 7 4.1 10.9 5.2 7.2 9.4 13.7 19.5 23.3 26.6 2.6 4.1 4.2 8.9 7.6 12.5 3.7 4.8 9 7.8 14.5 10.1.4-.3 1.1-.9 1.4-1.2-.7-3.1-1.8-6.1-2.6-9.2 3.6 0 7.3 1.1 10.8 0-.4-3.2-3.3-5.4-5.3-7.6-5.7-2.2-11.7-3.5-17.4-5.8-2.2-5.3-4.5-10.5-6.3-15.9 3.1-1.7 6.5-3.1 9.2-5.6-11.5-7.4-23.8-13.2-35.6-20.1-.6-1.4-1-3.1-2.2-4.2-4.8-4.9-9.7-9.6-14.5-14.6-2.7-3.9-9.9 2-6.6 5.4 2.1 2 4.8 3.2 6.8 5.3-.7 2-2 3.8-2.2 6-.1 4.7 4.1 7.7 6.3 11.3-3.1-2.8-6.6-5.4-7.5-9.6-5.4-.5-10.8-1.7-16.3-1.5-2.3 1.7-4.4 3.8-6.5 5.6 1.1 2.1 2.2 4.3 3.3 6.4-1 .7-2 1.5-3 2.2-.8-1.8-1.5-3.7-2.3-5.5-2.7.5-5.3 1.4-7.6 2.9-.9-.9-1.9-1.7-2.8-2.6-2.8 2.1-5.7 4.1-8.8 5.6 1.8-6.8 3.5-13.7 4.3-20.7.6-4.8-2.2-9.3-2-14.1.2-5.4 2.1-10.5 3.6-15.6-1.4-1.9-2.8-3.9-4.2-5.8 1.2-2.8 3-5.5 3-8.6.2-2.4-1.5-4.4-2.6-6.3 3.6-4.1 7.4-8.1 10.8-12.4 2-.2 4.4.5 5.9-1 .8-1.3 1.1-2.9 1.6-4.4 1.6-.6 3.3-1.1 4.7-2.2.8-1.4 1-3 1.3-4.5 1.4-1.2 3.7-2 3.5-4.2 0-2.4-.8-4.6-1.4-6.9 3-1.7 6.1-3.2 9.2-4.7-.1 1.6-1.2 3.7.5 4.7 2.1 1.8 5.8 3.3 7.9.6 2.8-4.2 1.5-9.8 3.7-14.2 1.6-2.8 5-4.4 6-7.6.2-2.5-1.8-4.2-3.3-5.9-1.6 1.2-3 2.5-4.5 3.7-4.1-9.6-6.3-19.9-8.7-30.1 2.2-2.8 4.1-5.7 6.2-8.5 3 4.3 8.5 6.9 13.7 4.8-.3-7.4-3.6-14.6-2.6-22.1-2.6-2.3-5.1-4.7-7.6-7.1 1.4-2.9 2.6-6 5.2-8.1-.7 2.9-1.8 5.6-2.9 8.4 3.9 3.2 7.8 6.4 12 9.3.2 3.8.1 7.6.5 11.3 3.3 11.2 7.7 22 10.4 33.4.8 3.4-.2 6.7-.6 10.1 2.1 1.7 4.9 2.8 6.3 5.3 1.4 2.9 1.4 6.3 1.5 9.5 3.5 4.2 6.7 8.6 10.7 12.3 15.1 8.2 30.9 15 46.2 22.9 1.1.6 2.3 1.1 3.5.8 1.8-9.2-1.1-19.3-8.6-25.3.4-4.8 1-10.3-2.1-14.4-2.3-2.2-5.4-3.4-7.9-5.3.2-1.7-.5-3.7.7-5 1.5-2.2 4.1-4.5 2.9-7.4-2.6-3.9-7.4-5.3-11.3-7.6-.5-1.8-1-3.7-1.5-5.5.8-2 2.3-4 2.3-6.3-1.6-3.7-6.2-2.6-9.4-2.6-3.7-1.4-6.1-4.6-9.1-7.1-4.2-2.2-4.8 3.7-6.1 6.3-5.1-6.1-9.3-13-14-19.4 1.2-1.7 2.7-3.4 3.4-5.4.6-2.7-.2-5.5-.7-8.2 1.9 1 3.8 2.2 6.1 2.4.4-3.7-2.5-6.5-3.9-9.6.4-3.2 1-6.4 1.5-9.7 4.2-1.9 8.6-3.4 12.7-5.4-1.8-3.3-5.5-5.4-6.1-9.3-3.4-14-7-27.9-10.3-42 2.7-3.3 6-6.1 8.3-9.7-2.4-1.9-4.8-3.7-7.2-5.4-3.2 1.4-6.3 3.1-9.8 3.4-2.4-.3-4.4-1.4-6.6-2.4-2.9 1.8-5.6 4-8.9 4.9.9-1.6 1.9-3.2 2.9-4.7-1.1-4.2-2.3-8.4-3.5-12.5-4.3-.6-10.3.5-12.5-4.3 3.4.2 6.8.3 10.2-.2 1-3.9 1.4-8.3 4.3-11.5 1.9-.3 3.8 0 5.7-.2 2.7-3.1 4.6-8 9.5-7.7 1.3-1.8 2.8-3.6 3-5.9-.2-2.3-1.8-4.5-4-5.1-4.5-1.5-9.1-2.6-13.7-3.7.8-3 2.2-5.8 2.3-8.9-3.5-.9-7.5-3.1-10.8-.8m-70.5 22.7c-1.2.1-2.5.2-3.7.4-.1 2.8.2 5.7.5 8.5.4 2.7 2.7 4.4 4.7 5.9 1.4 1.1 4.2 1.9 5.2-.2 2.1-4.1 2.9-8.9 2.9-13.6.1-2.4-1.4-4.3-3.2-5.8-2.2 1.6-4.3 3.2-6.4 4.8m-373.9 61c-2.1 4 2.4 7.5 6.1 7.3 3.3-.2 6.7-.9 9.6-2.5 2.5-1.7 2.6-5.3 1.5-7.9-1.1-3.3-4.6-4.9-7.6-6.1-5.1-2.2-12 3.9-9.6 9.2m21.2-.7c-1.3 3.2.4 6.5.4 9.7.2 2.7-.5 6.7 2.7 7.9 4.4.6 9.1 1 13.2-1 4.2 2.1 8.8.9 12.3-1.9.1-2.5.7-5.4-1.5-7.2-3.1-3.1-7.5-.3-10.7 1-1.3-.9-2.6-1.9-3.8-3 .7-.5 2.1-1.6 2.8-2.1.1-3.3-1.1-6.3-2.6-9.1-4.3 1.5-9 2.9-12.8 5.7M684 73c.6 3.1 3.8 5.1 4.8 8-.1 3.8-1.1 8.3 1.8 11.3 3.8 3.5 9.4 3.4 14.2 3.8-.1 3.7-1.6 8.7 2 11.2 3 .1 5.3-2.4 8.1-3.3 3.8-1.3 8.7-2 10.6-6.2 1.3-5.6-2.5-11.7-8-13.2-1.9-2.9-5.2-2.3-8-1.1-.5-4.7-3.9-8.4-8.4-9.7.6-6.6-3.8-11.7-7.6-16.4-6.6 2-8.8 9.4-9.5 15.6m166.6-8.6c-2.1 1.2-5 2-5.7 4.7-2.6 1.2-5.3 2.5-8.1 3.2-2.4.1-4.8-.2-7.1-.2.4 2.4 1 4.8 1.6 7.1-3-.2-6.1-.2-9.2-.1-.1 5 .2 10.4 3.1 14.6 3 3.4 8.5 3.3 12.4 1.8 4.7-3.4 7.7-8.6 10.5-13.5 2-3.7.1-7.8-1.3-11.3 1.2 1.7 2.5 3.4 3.8 5.1 4.7-1 9.4-2 14-3.1.9-3.9 1.8-7.9 2.2-12-2.3-.3-4.5-.7-6.8-.6-3.3 1-6.3 2.9-9.4 4.3M849 96.1c-1.8 2.8-1.3 6.5-.8 9.7.4 1.1.5 3.5 2.3 2.7 4-2.2 7.5-5.2 11.3-7.8 1.5-1 2.7-2.4 3.5-4-4.6-3.8-11.6-4.7-16.3-.6m-246.9 14.5c-9.3.4-18.7-.1-27.7 2.9-6 7.4-16.1 9.9-21.6 17.8-5.4-.7-7.5 4.8-10.5 8-2.3 2.8-7.4 2.6-8.4 6.5-2.1 8.3-.2 18 6 24.2 2.3 2.3 5.4 5.2 9 4.2 2-2.4 1.1-5.6.9-8.4-.3-3.9-.5-7.9.3-11.7 2.4-4.4 6.3-7.9 9.9-11.4 9.3-8.3 21.6-11.9 30.9-20.1 6.7-.2 13.5 0 20-1.8 2.8-.7 5.7-2.3 6.9-5.1 1.3-3.2-.7-7.1-3.8-8.4-4.3-.5-7.7 3.3-11.9 3.3M260 171.8c1.3 4.1 4.4 7.2 6.7 10.6 2.3 3.4 4.7 6.6 7.2 9.8 3.4-.7 6.7-1.6 10-2.7-1-5.9-2.1-11.8-4-17.5-2.1-.4-3.4 1.6-4.9 2.7-1.1-1.3-2.1-2.6-3.3-3.8-3.9-.3-7.8.4-11.7.9z"/><path class="st0" d="M392.4 170.5c5.4-2.8 12.5-.5 15.5 4.7 2.3 3.8 2.1 8.7-.2 12.4-3.3 5.3-6.8 10.5-10.1 15.8-3.4-5.6-7.1-11-10.5-16.6-3.4-5.6-.7-13.7 5.3-16.3m3.1 5.1c-3.3 1.3-4.3 6.1-1.6 8.5 2.6 2.8 7.8 1.4 8.6-2.3 1.5-3.9-3.2-8-7-6.2zm-26.4 1.6c6-2.7 13.7.8 15.7 7.1 1.5 3.7.6 7.8-1.5 11.1-3.2 5.1-6.5 10.1-9.8 15.1-3.4-5.6-7.1-11-10.5-16.5-3.5-6-.4-14.5 6.1-16.8m2.3 5.4c-3.3 1.3-4.2 6.1-1.6 8.4 2.6 2.8 7.8 1.4 8.7-2.2 1.5-4-3.3-8.1-7.1-6.2zm267.6-4.7c1.3-.4 3 1.6 2.7 2.9-1.4.2-3.1-1.6-2.7-2.9zm-15.6 10.2c.8-2.1 1.6-4.2 2.3-6.3-.1 1.3-.3 2.6-.4 3.9 2.2 2.2 4.3 4.3 6.3 6.6-2.6-1.3-5.4-2.7-8.2-4.2zm-249.2 26.1c4-4.5 11.4-5.1 16.1-1.5 4.7 3.3 6.4 10.1 3.5 15.1-3.3 5.7-7.1 11.1-10.6 16.7-3.7-5.3-7-10.8-10.5-16.2-2.7-4.4-2-10.4 1.5-14.1m7.2 2.3c-3.1 1-4.6 5.1-2.7 7.8 2.2 3.6 8.5 2.8 9.6-1.4 1.4-4-3.1-8-6.9-6.4zm49.8 15.8c6.7-3.1 15.6 1.3 16.8 8.7 1.2 4.8-1.7 9.1-4.3 12.8-2.7 3.8-5.2 7.7-7.7 11.6-3.4-5.7-7.5-10.9-10.8-16.6-3.4-5.9-.3-14.2 6-16.5m3.1 5.2c-3.1 1-4.7 5.1-2.6 7.8 2.1 3.6 8.3 2.7 9.3-1.3 1.5-3.9-2.9-8-6.7-6.5zM398 233c6.6-2.5 14.8 1.9 16 8.9 1.2 4.8-1.7 9.1-4.3 12.9-2.7 3.8-5.2 7.7-7.7 11.6-3.4-5.7-7.5-11-10.8-16.7-3.5-6.1 0-14.8 6.8-16.7m2.5 5.4c-3.2.9-4.8 5.1-2.8 7.9 2.1 3.6 8.3 2.8 9.3-1.3 1.4-3.9-2.8-7.9-6.5-6.6zm-44.8 13.3c2.3-6.1 10.1-9 16-6.5 6.1 2.2 9.4 10 6.4 15.9-3.1 6.1-7.6 11.4-11.1 17.3-3.1-5-6.4-9.9-9.8-14.8-2.3-3.4-3.2-8-1.5-11.9m9.7-1.2c-3.4 1-4.8 5.8-2.3 8.4 2.2 2.8 7.1 2.1 8.6-1.1 2.4-3.9-2.3-9-6.3-7.3zm44.2 11.1c3.2-5 10.5-6.8 15.6-3.8 5.6 2.9 8 10.6 4.8 16.1-3.3 5.6-7.1 11-10.5 16.6-3.3-5.4-6.8-10.6-10.1-15.9-2.5-4-2.4-9.2.2-13m7.9 1c-3.3 1.3-4.3 6.1-1.7 8.5 2.5 2.8 7.7 1.5 8.6-2.1 1.6-4.1-3.1-8.2-6.9-6.4zm84.9-4.1c5.4-2.7 12.5-.5 15.5 4.8 2.3 3.7 2.1 8.6-.2 12.3-3.3 5.4-6.8 10.5-10.1 15.8-3.4-5.5-7-11-10.5-16.5-3.5-5.6-.7-13.8 5.3-16.4m3.1 5.1c-3.3 1.3-4.2 6.1-1.6 8.5 2.6 2.8 7.8 1.4 8.6-2.3 1.4-3.9-3.2-8-7-6.2zm46.8 5.7c5.4-2.5 12.5-.3 15.4 5 2.2 3.7 2.1 8.5-.1 12.1-3.3 5.5-6.8 10.8-10.4 16.1-3.6-5.6-7.3-11.2-10.7-16.9-3.4-5.8-.4-13.8 5.8-16.3m3.1 5.1c-3.4 1-4.8 5.7-2.3 8.3 2.5 3.1 8.2 2 9.2-1.9 1.4-3.8-3-7.8-6.9-6.4zm-209.7 4.3c4.2-4.2 11.7-4.6 16.2-.6 4.3 3.4 5.6 9.9 2.9 14.7-3.3 5.7-7.1 11.1-10.6 16.7-3.7-5.3-7-10.8-10.5-16.3-2.8-4.5-1.9-10.8 2-14.5m6.7 2.7c-3.2.9-4.7 5.1-2.8 7.8 2.2 3.6 8.5 2.8 9.6-1.3 1.5-3.9-3-7.9-6.8-6.5zm37 16c5.6-2.7 13 0 15.6 5.6 1.8 3.6 1.6 8-.5 11.4-3.3 5.5-6.9 10.7-10.2 16-3.5-5.5-7-10.9-10.4-16.4-3.6-5.7-.7-14.1 5.5-16.6m3 5.1c-3.2 1.1-4.5 5.5-2.2 8.1 2.3 3.3 8 2.2 9-1.7 1.5-3.9-3-8.1-6.8-6.4zm137.9-2.2c5.9-2.6 13.6.3 16 6.4 1.7 3.7 1 8.1-1.2 11.4-3.2 5.2-6.9 10.1-10.1 15.4-3.4-5.7-7.5-10.9-10.8-16.6-3.4-6-.3-14.4 6.1-16.6m3.1 5.2c-3.4 1-4.9 5.7-2.3 8.3 2.4 3.1 7.9 1.9 8.9-1.9 1.4-3.8-2.9-7.9-6.6-6.4zm-165 10c5.4-2.7 12.5-.5 15.4 4.7 2.3 3.8 2.2 8.7-.2 12.4-3.3 5.4-6.8 10.5-10.1 15.8-3.4-5.5-7.1-11-10.5-16.5-3.4-5.6-.6-13.8 5.4-16.4m3.1 5.1c-3.4 1.3-4.3 6.1-1.6 8.5 2.6 2.7 7.7 1.4 8.6-2.2 1.5-4-3.2-8.1-7-6.3zm585.8 8.7c5.9-2.6 13.6.3 16 6.4 1.7 3.7 1 8.1-1.2 11.4-3.2 5.2-6.9 10.1-10.1 15.3-3.4-5.7-7.5-11-10.8-16.7-3.4-5.8-.3-14.2 6.1-16.4m3.1 5.1c-3.4 1-4.9 5.7-2.4 8.3 2.4 3.1 8 2 8.9-1.8 1.6-3.7-2.7-7.9-6.5-6.5zm-647.7 2.4c3.8-4.9 11.6-5.9 16.6-2.1 4.7 3.3 6.4 10.1 3.5 15.1-3.3 5.7-7.1 11.1-10.6 16.7-3.6-5.1-6.8-10.4-10.1-15.6-2.9-4.3-2.6-10.2.6-14.1m7.7 1.6c-3.1 1-4.7 5.1-2.7 7.8 2.2 3.6 8.4 2.8 9.5-1.3 1.5-3.9-2.9-8-6.8-6.5zm26-4.9c5.4-2.7 12.5-.5 15.4 4.8 2.3 3.7 2.1 8.7-.2 12.4-3.2 5.4-6.8 10.5-10.1 15.8-3.5-5.5-7.1-11-10.5-16.5-3.4-5.8-.6-13.9 5.4-16.5m3.1 5.1c-3.3 1.3-4.3 6.1-1.6 8.5 2.6 2.8 7.8 1.5 8.7-2.2 1.3-4-3.3-8.1-7.1-6.3zm-76.1 11.9c5.4-2.7 12.5-.5 15.4 4.8 2.3 3.8 2.1 8.7-.2 12.4-3.3 5.3-6.8 10.5-10.1 15.8-3.4-5.5-7.1-11-10.5-16.5-3.4-5.8-.6-13.9 5.4-16.5m3.1 5.1c-3.3 1.3-4.3 6.1-1.6 8.5 2.6 2.8 7.8 1.4 8.6-2.3 1.4-3.9-3.2-8-7-6.2zm20.9 9.9c5.4-2.7 12.5-.5 15.4 4.8 2.3 3.7 2.1 8.6-.2 12.3-3.3 5.4-6.8 10.6-10.1 15.9-3.4-5.5-7.1-11-10.5-16.5-3.4-5.7-.6-13.9 5.4-16.5m3 5.1c-3.3 1.3-4.2 6.1-1.6 8.5 2.5 2.8 7.7 1.5 8.6-2.2 1.6-4-3.2-8.2-7-6.3zm6.7 28.6c6-2.6 13.6.8 15.7 7 1.5 3.7.6 7.8-1.5 11.1-3.2 5.1-6.5 10.1-9.7 15.2-3.4-5.6-7.1-11-10.5-16.6-3.6-6-.4-14.4 6-16.7m2.4 5.4c-3.3 1.3-4.3 6.1-1.6 8.5 2.6 2.8 7.8 1.4 8.6-2.3 1.4-3.9-3.2-8-7-6.2z"/><path class="st1" d="M1026.3-39.8c3.3-2.2 7.3-.1 10.7 1.1-.1 3.1-1.5 6-2.3 8.9 4.6 1.1 9.2 2.2 13.7 3.7 2.3.6 3.9 2.8 4 5.1-.2 2.3-1.7 4.1-3 5.9-4.9-.3-6.9 4.6-9.5 7.7-1.9.1-3.8-.1-5.7.2-2.9 3.1-3.3 7.5-4.3 11.5-3.4.5-6.8.4-10.2.2 2.2 4.9 8.2 3.8 12.5 4.3 1.2 4.2 2.4 8.3 3.5 12.5-1 1.6-2 3.1-2.9 4.7 3.3-.9 6-3.1 8.9-4.9 2.1.9 4.2 2.1 6.6 2.4 3.5-.3 6.7-2 9.8-3.4 2.5 1.7 4.9 3.5 7.2 5.4-2.4 3.6-5.6 6.4-8.3 9.7 3.4 14 6.9 28 10.3 42 .6 3.9 4.3 6 6.1 9.3-4.1 2-8.5 3.5-12.7 5.4-.5 3.2-1 6.4-1.5 9.7 1.5 3.1 4.3 6 3.9 9.6-2.2-.2-4.1-1.4-6.1-2.4.6 2.7 1.3 5.4.7 8.2-.7 2.1-2.2 3.7-3.4 5.4 4.7 6.4 8.9 13.3 14 19.4 1.3-2.6 1.9-8.5 6.1-6.3 3 2.4 5.4 5.7 9.1 7.1 3.1-.1 7.8-1.1 9.4 2.6.1 2.3-1.4 4.2-2.3 6.3.5 1.8 1 3.7 1.5 5.5 3.9 2.3 8.7 3.7 11.3 7.6 1.2 2.9-1.4 5.2-2.9 7.4-1.3 1.4-.5 3.4-.7 5 2.5 1.9 5.6 3.1 7.9 5.3 3.1 4.1 2.5 9.6 2.1 14.4 7.5 6 10.4 16 8.6 25.3-1.3.3-2.5-.2-3.5-.8-15.2-7.9-31.1-14.7-46.2-22.9-4-3.6-7.3-8.1-10.7-12.3-.1-3.2 0-6.5-1.5-9.5-1.3-2.5-4.1-3.6-6.3-5.3.3-3.4 1.4-6.7.6-10.1-2.7-11.4-7.1-22.2-10.4-33.4-.4-3.8-.3-7.5-.5-11.3-4.1-2.9-8.1-6.1-12-9.3 1-2.8 2.2-5.5 2.9-8.4-2.6 2-3.9 5.1-5.2 8.1 2.5 2.4 5 4.8 7.6 7.1-1 7.5 2.3 14.7 2.6 22.1-5.2 2.1-10.7-.5-13.7-4.8-2.1 2.9-4 5.8-6.2 8.5 2.3 10.2 4.5 20.4 8.7 30.1 1.5-1.2 3-2.5 4.5-3.7 1.5 1.6 3.5 3.4 3.3 5.9-1 3.2-4.4 4.8-6 7.6-2.2 4.4-.9 10-3.7 14.2-2.1 2.7-5.8 1.2-7.9-.6-1.8-1.1-.6-3.1-.5-4.7-3.1 1.5-6.2 3.1-9.2 4.7.6 2.3 1.4 4.5 1.4 6.9.1 2.2-2.1 3-3.5 4.2-.4 1.5-.6 3.1-1.3 4.5-1.4 1.1-3.1 1.5-4.7 2.2-.5 1.5-.8 3-1.6 4.4-1.5 1.6-4 .8-5.9 1-3.3 4.4-7.2 8.3-10.8 12.4 1.1 2 2.8 3.9 2.6 6.3.1 3.1-1.7 5.9-3 8.6 1.3 2 2.8 3.9 4.2 5.8-1.5 5.1-3.5 10.2-3.6 15.6-.2 4.8 2.6 9.2 2 14.1-.8 7-2.4 13.9-4.3 20.7 3.1-1.6 6-3.5 8.8-5.6.9.9 1.9 1.7 2.8 2.6 2.3-1.5 4.9-2.4 7.6-2.9.8 1.8 1.5 3.7 2.3 5.5 1-.8 2-1.5 3-2.2-1.1-2.1-2.2-4.3-3.3-6.4 2.2-1.9 4.2-3.9 6.5-5.6 5.4-.1 10.8 1 16.3 1.5 1 4.2 4.5 6.9 7.5 9.6-2.3-3.7-6.4-6.7-6.3-11.3.2-2.1 1.5-4 2.2-6-2-2-4.8-3.2-6.8-5.3-3.3-3.5 3.9-9.3 6.6-5.4 4.8 4.9 9.7 9.7 14.5 14.6 1.1 1.1 1.5 2.8 2.2 4.2 11.7 6.9 24.1 12.7 35.6 20.1-2.6 2.5-6 3.9-9.2 5.6 1.9 5.4 4.2 10.6 6.3 15.9 5.7 2.2 11.7 3.5 17.4 5.8 2.1 2.2 5 4.4 5.4 7.6-3.5 1.2-7.3 0-10.8 0 .8 3.1 1.9 6.1 2.6 9.2-.4.3-1.1.9-1.4 1.2-5.5-2.3-10.8-5.3-14.5-10.1-3.4-3.6-5-8.4-7.6-12.5-9.5-7.1-16.1-17.3-23.3-26.6-3.9-1.1-7.5-3-10.9-5.2 4.5 13 12.4 24.3 21.1 34.8 1.5 2.1 3.8 4.1 3.7 6.9.2 5.8-1.5 11.5-.2 17.3 1 7.7 3.7 15.1 3.7 22.9 0 9.7.3 19.3.6 29 0 2.3.1 4.7-1 6.8-2.2 4.6-4.1 9.4-6.4 14-4.5 2-9.4 2.7-14.1 4 .7 5.1-1.4 9.8-3.7 14.1-3.6-1-7.8-1.1-10.7-3.7 2-3.1 4.3-5.9 6.5-8.8-2.2-3.2-4-6.6-5.9-9.9-1.5-2.8-5-3.5-7.2-5.8.5-4.1 1.4-8.2 2.4-12.3 3.1-1 6.4-1.2 9.7-1.8-1.2-4.5-1-9.2-1.4-13.7-1.1-4.2-3.7-7.8-4.9-12 .2-1.9.7-3.8 1.2-5.7-1.5-2.4-3-4.8-4.5-7.1-2.8 4.6-6.1 9-8.4 14-2.1 4-4.4 8.8-9.2 9.9-5.8-.5-9.1-6-12.8-9.9-2.7.6-5.5.9-8.2.4-5.9-1.3-11.5 1.8-17.1 3.3-10.4-8.4-19.9-17.8-30-26.5-2.4-2-5.6-.5-8.2.3-3.5 1.5-7.3.2-10.8-.5-6.3 4.6-14.2 8.6-16.9 16.4 2.9 2.6 5.9 5.1 8.8 7.7-1.3 3.3-4 6.2-3.7 9.9v11.9c1.3 1.7 2.6 3.4 3.7 5.2-1.9 1.7-4.3 2.8-5.8 4.9-2.1 2.6-3.4 6.2-6.7 7.5-3.7 1.4-7.7-.1-11.2-1.3-1.5 1.5-3 3.2-4.9 4.2-3.6-.9-7.5-3.5-11.3-1.5-3.6 2.5-4.3 7.1-6.1 10.8-3.4 3.7-7.7 6.5-11.6 9.6-1.7 1.5-4 1.3-6.1 1.5-6.6.3-13.3.9-19.9 1.1-3.8-6.1-11.8-5.6-18.1-6.1-6.6-.5-12.5 3.2-16.4 8.2-3.8-1.3-7.7-2.5-11.5-4-1-.5-2.4-.7-2.6-2-1.1-2.9-1.8-5.8-2.6-8.7-7.2-1.5-14.4-3.2-21.7-4.7-2.5 3.5-5.1 6.9-7.4 10.5 1.5 3.9 2.8 7.8 4.3 11.7-3.1 2.3-5.8 6.1-10 6.1-6.8.1-13.7.7-20.5.4-.8-2.4-.9-5.3-3.1-6.9-2-1.3-4.5-1.4-6.8-1.8-3.2-.3-6.7-1.1-9.7.4-5.6 2.5-11 5.5-16.7 8-.3 1.4-.6 2.8-1 4.2-3.5.8-7.3.7-10.4 2.6-1.7 1.2-3 2.7-4.4 4.2-2.5-.3-5.1-.3-7.4-1.3-1.6-2-2.3-4.4-3.4-6.7-3 1.5-6.8 3.4-9.8.8-5.7-4.5-9.7-10.8-13.3-17-5.8.2-11.6 1-17.5.8-2-2.1-1.7-5.5-2.5-8.1-1.5 1.8-3 3.6-4.7 5.2-.4-.2-1.2-.7-1.6-.9-4.5-9.6-7.6-19.9-12-29.6-2.2-4.2-6-7.3-8.3-11.5.4-1.3.8-2.5 1.4-3.7-6.9 2.7-14.2 5.2-21.7 5.5-4.2-.2-3.9-5.1-3.4-8.1-1.3-1.4-2.4-3.4-4.5-3.6-2-.2-3.8.6-5.7.9-1.4-5.2-1.2-10.6-1.8-15.9-3.7-1.4-7.4-2.9-11-4.5-2 1.6-3.8 3.7-6.5 3.8-4.8.4-9.2-2.2-13.9-2.4-3.7-.2-7.3 1.2-11.1 1-4-.1-8-.5-11.9-1.5-4.4-1.1-8.4-3.8-13-3.5 0 4.1 2.4 7.5 3.9 11.1.6 2.8-2.5 1.5-3.9.8-2.1-1-4.4-1.7-6.7-1.8-.7 2.6-1 5.2-1.6 7.9-1.7.5-3.6.5-5.4.7 1.8 3.1 4.6 5.7 5.6 9.2-1.7 3.2-4.8 5.5-7.2 8.2-1.9-1.5-3.6-3.4-5.9-4.4-2.1.4-3.5 2.3-5.2 3.4-2.5-1.8-5.7-3.2-6.9-6.3-.5-2.3-.3-4.6-.8-6.9-2.7.2-5.3 1.1-8 1.2-1.4-2-2.4-4.3-3.5-6.5-3.1 1.3-6.2 3.1-9.6 3.5-1.9-1.9-2.5-4.6-3.6-6.9-1.3.3-2.6.5-3.9.8-.6-4.1-.7-8.3-2.4-12.2-1.1-2.5-3.9-3.3-6.1-4.5.4-1.6.8-3.2 1.3-4.8-3.1 0-6.2-.1-9.3-.3-.2-.7-.5-2.2-.6-2.9-6 .1-12.3-.1-17.9 2.2-2.8.9-3 4.3-4.8 6.2-1.7 1.2-4.3.9-5.5-.9-1.6-2.6-2.3-5.6-3.4-8.5-2.5 1.3-4.9 2.6-7.3 4.1-.3 1.4-.6 2.9-.9 4.3-2.3 1.4-4.7 2.7-6.7 4.6.2 3.1.4 6.3-.8 9.2 2.2 2.1 4.7 4.4 5.3 7.6.7 3.8.7 7.7 0 11.4-.9 1-2.1 1.5-3.1 2.2l.3 4.8c-5.6-.2-11.2-1-16.8-1.5-3.1 5-9 6.8-14.5 7.3.5 3.5.9 7.1 1.4 10.6-1.9 2.7-3.6 5.5-5.4 8.3 0 6 .5 12 .2 18.1-4.4.9-8.9 2.1-13.4 2.3-3-3.3-.4-9.3-3.8-12.7-1.6-2-3.6-4-4-6.7-.6-3.1.9-6.5-.9-9.4-1.9-3.2-6.4-2.8-8.8-5.3-3.4-3.5-4.4-8.4-6-12.9-1.7-2.3-4.1-4-5.9-6.3-2.7-3-4.2-6.8-5.9-10.3-1.7-.5-3.5-.9-5.1-1.6-.5-6.5-.5-13.1-2.2-19.4-1.3-6-4.1-11.8-3.5-18 1.7-3.5 5.6-.3 7.9 1 2.8-2.6 6.5-3.3 10.2-2.2 0-2 .1-4 .2-5.9 2.7.4 5.4.8 8 1.3-1.3-3.6 2.1-5.9 4.8-7.5 4.1-1 7.6 1.8 10.9 3.7 1.3-2.2 2.6-4.4 3.9-6.5 2.7-.1 5.6.2 8-1.2 2.6-5-4.4-8.5-3.9-13.5.1-3.7-.3-7.5-.8-11.2-2.3-.9-5.6-.5-6.8-3-1-1.9-2-3.9-2.7-6 .1-2.5 1.3-4.9 2.1-7.3-1.4-3.9-2.9-7.7-3.9-11.6 1.9-.6 3.7-1.2 5.6-1.8.5-1.9 1.1-3.8 1.6-5.7l-6-.6c-.5-1.8-.7-3.7-1.4-5.4-1.4-1.2-2.9-2.3-4.4-3.4 2.8-4.1 4.3-8.9 6.9-13.1 2.5-.6 2.6 2.7 3.8 4.1.8 2.1 3.3 1.9 5.2 2.3 1.9-5.9-.5-12.4 2.3-18.1 1.8-4.4 5.2-7.9 8.7-11-2.1-5.5-5.3-10.6-6.9-16.4 2.5-5.3 6.2-9.9 9.1-14.9 1.1-2.2 3.9-2.1 5.7-3.2 2-2.1 2.5-5.8 5.7-6.3 4.1-1.1 8.1-2.6 12.3-3.1 3 .7 5.8 2.2 8.7 3.4-.8-3.5-1.9-7.6.2-10.8 3.9-4.2 10.1-2.8 15.1-2.3 6.7 1.1 13.4-.8 19.5-3.5.2-3.5.4-7.1.4-10.6 2.4-1.2 5.1-1.9 7.3-3.4 2.1-2.9 3.4-6.3 5.7-9.1 2.6-1.8 5.6-3.1 8-5.3 4.3-3.5 6.6-8.8 8.4-13.9 2.7-.4 5.4-.7 8.1-1 1.1-3.8 1.6-7.8 3.1-11.4 3.2-2 6.7-3.4 10.2-4.9 5.8 2.7 12.4 1.1 18.3 3.2 3.6 2.4 1.7 7.9-1.3 10 1.6 4 3.7 7.7 5.4 11.6.6 3.8-.1 7.6.5 11.4.5 4.1 2.6 7.8 2.9 11.9.3 4.8.5 10.2-2.3 14.4-1.5 2.5-4.6 3-7.3 2.9-4.2-.2-8.3-1.3-12.2-2.9-4.1-1.5-6.3-5.6-8-9.4-2.3-5.8-3.7-11.9-5.2-18l-2.3 2.3c1 3.5 1.8 7 2.7 10.5-4.6 4.9-9.4 9.5-14 14.4.9 4.8 1.5 9.6 3.4 14.1l3.3-2.4c-.5-2.6-1.1-5.1-1-7.7.3-3.9 5.7-6.2 8.5-3.4 2.5 2.9 1.4 7.3 3.5 10.4.7 1.1 1.4 2.1 2.1 3.2 1.9-3 3.1-7.1 6.8-8.4 5.2-2 11-1.8 16.4-.8 1.7 2.1 2.7 4.7 4.1 7.1 1.9-.7 3.8-1.3 5.7-1.9v-7.2c3.6-1.7 7.5-3.8 9.5-7.4.8-2.2.7-4.6 1.4-6.8 3.6 1.1 6.4 3.9 8.9 6.7 2.8 3.5 1.7 9-1.9 11.6-1.9 1.9-4.3-.7-6.2-1.3l-2.7 2.1.6 6.6c.7.3 2.2.8 2.9 1.1 2.2-1.7 4.3-3.5 6.8-4.8 4.2-.7 8.5-.1 12.8-.1 7.7 0 15.5 0 23.2.4.1.5.3 1.5.4 1.9-1.8 2.1-4 3.8-6.1 5.6.6.5 1.8 1.6 2.4 2.1 4.5-1.6 9.5-1.1 13.7 1.2 3.1-.1 6.2-.3 9.3-.2.3 2.2.5 4.3.9 6.5 1.6-.6 3.3-1.2 4.9-1.8 0-2.8-.2-5.6-.5-8.3 1.2-1 2.4-2 3.8-2.8 3.1 1.5 6 3.4 9.1 5 3.5 1.7 5.3 5.4 7.5 8.4 3.2 5.3 7.2 10.1 10.3 15.5l2-1.9c-1.4-2.9-1.7-6.2-.8-9.3-1.8-1.1-3.5-2.2-5.2-3.5 2.6-3.3 5.4-6.7 7.1-10.6 1.4-2.4-1.8-4.4-1.4-6.7 4.1-3.8 9.6-6.1 12.9-10.9 2.7-3.8 5.5-7.5 8.5-11 4 1.7 7.9 3.4 11.9 5.1-.5 3.3-.7 6.9-2.7 9.7-1.7 2.6-3.7 4.9-5.7 7.2.6 4.2 2.7 8.6 1 12.9-2 5.9-4.2 11.8-5.8 17.8 1.1 2.6 3.7 5.5 1.9 8.4-2.3 6.9-7.6 12.1-12.8 17-4 1.7-8.4.2-12.5-.2 2.8 2.4 5.7 5.6 9.7 5.4 7-.9 11.9-6.6 16.4-11.4 1.7-4.3 1.1-9.2 2.4-13.6 3.4-1.9 8.4-2.6 11.6.1 2.3 2.6 1.8 6.5 2.3 9.8 4.1-.4 2.6-5.7.8-8-3.1-4.8-9.3-5.2-14.5-5.8-.6-3.2-1.5-6.3-1.5-9.5 1.5-3.2 3.7-5.9 5.6-8.8-1.1-4.2-2.5-8.3-3.4-12.5 3.2-3.3 6.7-6.3 9.6-9.9.8-2.4.5-5 .8-7.5 2.4-.4 5.6-.8 7 1.7 1.9 3.3.3 7.3-.7 10.7.5.1 1.6.2 2.1.3 1.3 1.2 2.6 2.4 4.1 3.4-1.5-2.1-4.9-3.5-4-6.5.8-4 6.7-4.7 9.2-1.9.5 0 1.6-.1 2.1-.1 3.4 4.1 5.9 8.8 9.3 12.9.1-1 .2-3.1.2-4.1-1.9-2.7-5.1-4.6-6.2-7.7.3-4.3 1.1-8.6 1.8-12.9 7.1-1 14.2-1.9 21.2-2.9-1.5-7 3.2-12.9 7.5-17.7 3.4-4.4 9.4-4.6 13.9-7.3.7-1.1 1.1-2.2 1.7-3.4 3.4-1.4 6.8-4 10.6-2.8 1.2.8 1.4 2.5 2.1 3.7 2-.9 4.1-1.8 6.1-2.6.1-1.6.1-3.3.3-4.9 1.3-.8 2.7-1.1 4.1-1.6-.4-1.9-.8-3.8-1.1-5.7 2.4-3.5 4.4-7.3 7.1-10.7 3.7-2.6 8.2-.4 11.9 1-1.2 1.8-2.5 3.6-3.8 5.3 1.7-.4 3.3-.7 5-1.1.6 1.6 1.2 3.1 1.7 4.8 1.4-1.2 2.5-3.1 4.6-3 3.6-.3 7.2-.4 10.9-.6 2.7 2.2 6.2 3.7 8.4 6.5 1.2 6 3.1 12.6.2 18.4-3.9 8.8-10.3 16.3-14.6 24.9 6.8-4.2 11.5-11 18.4-15.2 2.3-.7 3.1 2.4 4.5 3.6.4-1 .8-2.1 1.3-3.1 5.2-1.2 10.2-3.3 15.5-4.2.7 1.8-.2 4.6 1.7 5.6 4.8-1.2 9-4.1 13.4-6.2-.9-2.9-2.7-6.4-.8-9.3 2.3-2.7 6.1-2.6 9.3-2.8 2.6.1 4.4-2.1 6.9-2.4 5.2 3.2 9.7 7.3 14.8 10.7 1.4.8 2.2 2.3 2.8 3.8-2.2.5-4.4.9-6.5 1.3 5 4.2 11.6 5.3 17.8 6.3-1.5-4.7-2.8-9.4-4.1-14.2 3.3-.3 6.6-.1 9.9.1.8-2 1.2-4.6 3.3-5.7 2.6-1.3 5.6-1.6 8.5-2 .6-2.3 2.3-4.1 3.9-5.8-2.1-1.4-4.3-2.6-6.2-4.3-.7-3.4-.6-6.9-.9-10.3 7-4.6 14.2-8.8 21.3-13.1 2.4-1.6 3.8-4.4 6.3-5.8 3.1-.3 6.2 0 9.2.3 1.3 1.2 0 3.1 0 4.6 4.5-1.1 9-2 13.5-3.1 3.6-5.9 6.1-12.4 9.7-18.2 3.2-2.8 7.5-4.4 11.8-4.7 3.8-.3 6.9 2.3 9.8 4.4 1.3-1.1 2.7-2.1 4-3.1 1.2-6.7 5.5-12.2 9.6-17.3 2.2-2.6 2.1-6.1 3.1-9.1 4.5-.8 9 .4 13.5.2.2-1.9.4-3.8.5-5.7-2.5 0-5 .4-7.5 0-2.2-1.3-4.3-3.2-5.5-5.5 2.6-5.9 5.3-11.7 8.2-17.4 8.5-10.9 20.4-18.3 31.5-26.4 4.4-2.7 8.2-6.3 12.8-8.8 3.9-.3 7.6 2.7 11.5 1-2.5-1-5.2-1.3-7.6-2.6.2-1.8 1.4-3.2 2.1-4.8 1.4-2.6 1.3-5.7 2.6-8.3 2.5-2.1 5.6-3.3 8.5-4.8"/><path class="st1" d="M392.4 170.5c-6 2.6-8.7 10.7-5.3 16.4 3.4 5.6 7.1 11 10.5 16.6 3.4-5.3 6.9-10.5 10.1-15.8 2.3-3.7 2.5-8.6.2-12.4-3-5.3-10.2-7.6-15.5-4.8m-23.3 6.7c-6.4 2.3-9.5 10.8-6 16.7 3.4 5.6 7.1 11 10.5 16.5 3.3-5 6.5-10 9.8-15.1 2.1-3.2 3-7.4 1.5-11.1-2.2-6.2-9.8-9.7-15.8-7m269.9.7c-.4 1.3 1.3 3.2 2.7 2.9.3-1.4-1.4-3.3-2.7-2.9m-15.6 10.2c2.8 1.5 5.5 2.9 8.3 4.3-2-2.3-4.2-4.5-6.3-6.6.1-1.3.2-2.6.4-3.9-.7 2-1.5 4.1-2.4 6.2m-249.2 26.1c-3.5 3.7-4.2 9.8-1.5 14.1 3.4 5.4 6.8 10.9 10.5 16.2 3.5-5.6 7.3-11 10.6-16.7 2.9-5 1.2-11.9-3.5-15.1-4.7-3.7-12.1-3-16.1 1.5m57 18.1c-6.4 2.3-9.4 10.6-6 16.5 3.3 5.7 7.4 11 10.8 16.6 2.5-3.9 5-7.8 7.7-11.6 2.6-3.7 5.4-8 4.3-12.8-1.2-7.4-10.1-11.8-16.8-8.7m-33.2.7c-6.8 1.9-10.3 10.6-6.8 16.7 3.3 5.7 7.4 11 10.8 16.7 2.5-4 5-7.9 7.7-11.6 2.6-3.7 5.4-8.1 4.3-12.9-1.2-7-9.4-11.4-16-8.9m-42.3 18.7c-1.7 3.9-.9 8.5 1.6 11.9 3.3 4.9 6.6 9.8 9.8 14.8 3.5-5.9 8-11.2 11.1-17.3 3-5.8-.3-13.7-6.4-15.9-5.9-2.5-13.7.4-16.1 6.5m53.9 9.9c-2.6 3.8-2.8 9-.3 12.9 3.4 5.3 6.8 10.6 10.1 15.9 3.5-5.5 7.3-10.9 10.5-16.6 3.2-5.5.8-13.2-4.8-16.1-5-2.9-12.2-1.1-15.5 3.9m92.8-3.1c-6 2.6-8.8 10.8-5.4 16.5 3.4 5.5 7 11 10.5 16.5 3.4-5.3 6.9-10.5 10.1-15.8 2.3-3.7 2.5-8.6.2-12.3-2.8-5.4-10-7.6-15.4-4.9m49.9 10.8c-6.2 2.4-9.2 10.5-5.9 16.3 3.4 5.7 7.1 11.3 10.7 16.9 3.6-5.3 7.1-10.7 10.4-16.1 2.2-3.6 2.3-8.4.1-12.1-2.8-5.2-9.9-7.5-15.3-5m-206.6 9.4c-3.9 3.7-4.8 10-2 14.5 3.4 5.5 6.8 10.9 10.5 16.3 3.5-5.6 7.3-11 10.6-16.7 2.7-4.8 1.3-11.3-2.9-14.7-4.5-3.9-12-3.6-16.2.6m43.7 18.7c-6.2 2.5-9 10.9-5.5 16.6 3.4 5.5 7 10.9 10.4 16.4 3.4-5.4 7-10.6 10.2-16 2.1-3.4 2.3-7.8.5-11.4-2.6-5.6-10-8.3-15.6-5.6m140.9 2.9c-6.4 2.3-9.4 10.6-6 16.5 3.3 5.7 7.4 11 10.8 16.6 3.2-5.3 6.9-10.2 10.1-15.4 2.2-3.4 2.8-7.7 1.2-11.4-2.5-6-10.2-8.9-16.1-6.3m-161.9 15.2c-6 2.6-8.8 10.8-5.4 16.5 3.4 5.5 7.1 11 10.5 16.5 3.4-5.3 6.9-10.5 10.1-15.8 2.3-3.7 2.5-8.6.2-12.4-2.9-5.3-10-7.5-15.4-4.8m588.9 13.8c-6.4 2.2-9.5 10.6-6.1 16.5 3.3 5.7 7.4 11 10.8 16.7 3.2-5.2 6.8-10.1 10.1-15.3 2.2-3.4 2.8-7.7 1.2-11.4-2.4-6.2-10.1-9.1-16-6.5m-644.6 7.5c-3.3 3.9-3.6 9.9-.6 14.1 3.4 5.2 6.6 10.5 10.1 15.6 3.5-5.6 7.3-11 10.6-16.7 2.8-5 1.1-11.8-3.5-15.1-4.9-3.9-12.7-2.9-16.6 2.1m33.7-3.3c-6 2.6-8.8 10.7-5.4 16.4 3.4 5.6 7 11 10.5 16.5 3.3-5.3 6.9-10.5 10.1-15.8 2.3-3.7 2.5-8.6.2-12.4-2.9-5.2-10-7.4-15.4-4.7m-73 17c-6.1 2.6-8.8 10.8-5.4 16.5 3.4 5.5 7 11 10.5 16.5 3.4-5.3 6.9-10.5 10.1-15.8 2.4-3.7 2.5-8.6.2-12.4-2.9-5.3-10-7.5-15.4-4.8m24 15c-6 2.6-8.8 10.8-5.3 16.5 3.4 5.5 7 11 10.4 16.5 3.4-5.3 6.9-10.5 10.1-15.9 2.3-3.7 2.5-8.6.2-12.3-2.9-5.3-10-7.5-15.4-4.8m9.7 33.7c-6.4 2.3-9.6 10.7-6.1 16.6 3.4 5.6 7.1 11 10.5 16.6 3.2-5.1 6.6-10.1 9.7-15.2 2.1-3.2 3-7.4 1.5-11.1-2-6.1-9.6-9.5-15.6-6.9z"/><path class="st1" d="M955.8-17.1c2.1-1.6 4.2-3.2 6.4-4.7 1.7 1.5 3.2 3.4 3.2 5.8 0 4.6-.7 9.4-2.9 13.6-1 2.1-3.7 1.3-5.2.2-2-1.5-4.3-3.3-4.7-5.9-.3-2.8-.6-5.7-.5-8.5 1.3-.3 2.5-.4 3.7-.5zm-373.9 61c-2.4-5.3 4.6-11.4 9.7-9.1 3 1.2 6.5 2.8 7.6 6.1 1.1 2.6 1 6.2-1.5 7.9-2.9 1.6-6.3 2.3-9.6 2.5-3.8.1-8.4-3.5-6.2-7.4zm21.2-.7c3.8-2.8 8.5-4.1 12.9-5.7 1.5 2.8 2.7 5.8 2.6 9.1-.7.5-2.1 1.6-2.8 2.1 1.3 1 2.5 2 3.8 3 3.2-1.4 7.7-4.2 10.7-1 2.2 1.8 1.6 4.7 1.5 7.2-3.5 2.8-8.2 4-12.3 1.9-4.1 2-8.9 1.6-13.2 1-3.2-1.2-2.4-5.2-2.7-7.9 0-3.2-1.8-6.6-.5-9.7zM684 73c.7-6.2 2.8-13.7 9.6-15.6 3.8 4.8 8.2 9.9 7.6 16.4 4.4 1.4 7.8 5 8.4 9.7 2.8-1.2 6.1-1.9 8 1.1 5.5 1.5 9.3 7.7 8 13.2-1.8 4.2-6.7 4.9-10.6 6.2-2.8.8-5.1 3.4-8.1 3.3-3.6-2.5-2.1-7.5-2-11.2-4.9-.4-10.4-.3-14.2-3.8-2.9-3-2-7.5-1.8-11.3-1.1-2.9-4.2-4.9-4.9-8zm166.6-8.6c3.2-1.4 6.1-3.3 9.4-4.4 2.3 0 4.6.3 6.8.6-.4 4.1-1.3 8-2.2 12-4.7 1.2-9.3 2.2-14 3.1-1.3-1.6-2.6-3.4-3.8-5.1 1.3 3.5 3.3 7.6 1.3 11.3-2.8 4.9-5.8 10.2-10.5 13.5-3.9 1.4-9.4 1.6-12.4-1.8-2.9-4.3-3.2-9.6-3.1-14.6 3.1-.1 6.1-.1 9.2.1-.6-2.4-1.2-4.7-1.6-7.1 2.4 0 4.8.3 7.1.2 2.9-.6 5.5-1.9 8.1-3.2.7-2.6 3.5-3.3 5.7-4.6zM849 96.1c4.7-4.1 11.7-3.2 16.3.6-.8 1.6-2 3-3.5 4-3.8 2.6-7.3 5.6-11.3 7.8-1.8.8-1.8-1.6-2.3-2.7-.5-3.1-1.1-6.8.8-9.7zm-246.9 14.5c4.2 0 7.6-3.8 11.9-3.1 3.2 1.2 5.2 5.1 3.9 8.4-1.2 2.8-4.1 4.4-6.9 5.1-6.5 1.8-13.3 1.6-20 1.8-9.4 8.1-21.6 11.8-30.9 20.1-3.7 3.4-7.5 6.9-9.9 11.4-.8 3.8-.6 7.8-.3 11.7.1 2.8 1.1 6-.9 8.4-3.6 1-6.7-1.9-9-4.2-6.2-6.2-8.1-15.8-6-24.2 1.1-3.9 6.1-3.6 8.4-6.5 3.1-3.2 5.1-8.7 10.5-8 5.5-8 15.6-10.5 21.6-17.8 8.9-3.2 18.3-2.6 27.6-3.1zM260 171.8c3.9-.5 7.8-1.2 11.6-.9 1.2 1.1 2.2 2.5 3.3 3.8 1.5-1.1 2.8-3.1 4.9-2.7 1.9 5.7 3.1 11.6 4 17.5-3.3 1.1-6.6 2-10 2.7-2.5-3.2-4.9-6.4-7.2-9.8-2.2-3.5-5.3-6.6-6.6-10.6zm135.5 3.8c3.8-1.8 8.5 2.3 7 6.3-.9 3.7-6.1 5-8.6 2.3-2.7-2.5-1.7-7.3 1.6-8.6zm-24.1 7c3.8-1.9 8.5 2.2 7.1 6.2-.9 3.7-6.1 5-8.7 2.2-2.5-2.3-1.6-7 1.6-8.4zm10 33.9c3.8-1.5 8.3 2.5 6.9 6.4-1 4.2-7.4 5-9.6 1.4-2-2.7-.5-6.9 2.7-7.8zm53 21c3.8-1.5 8.1 2.6 6.6 6.5-1 4.1-7.1 5-9.3 1.3-2.1-2.7-.4-6.8 2.7-7.8zm-33.9.9c3.7-1.4 8 2.7 6.5 6.5-1 4.1-7.2 4.9-9.3 1.3-2.1-2.6-.4-6.8 2.8-7.8zm-35.1 12.1c4.1-1.6 8.7 3.4 6.3 7.3-1.4 3.2-6.4 3.9-8.6 1.1-2.5-2.7-1.1-7.4 2.3-8.4zm52.1 12.1c3.8-1.8 8.5 2.4 7 6.3-.9 3.6-6.1 4.9-8.7 2.1-2.6-2.4-1.6-7.1 1.7-8.4zm88 1c3.8-1.9 8.5 2.3 7.1 6.2-.9 3.7-6.1 5-8.6 2.3-2.8-2.4-1.8-7.2 1.5-8.5zm49.9 10.8c3.8-1.5 8.3 2.5 6.8 6.5-1 3.9-6.7 5-9.2 1.9-2.4-2.6-1-7.4 2.4-8.4zm-203 7.1c3.8-1.5 8.3 2.5 6.8 6.5-1.1 4.2-7.4 5-9.6 1.3-1.9-2.7-.3-6.9 2.8-7.8zm40 21.1c3.8-1.7 8.3 2.5 6.8 6.4-1 3.9-6.7 4.9-9 1.7-2.3-2.6-1-7.1 2.2-8.1zm141 2.9c3.8-1.5 8 2.7 6.6 6.5-1 3.8-6.5 4.9-8.9 1.9-2.6-2.7-1.1-7.4 2.3-8.4zm-161.9 15.1c3.8-1.8 8.4 2.3 7 6.3-.9 3.6-6.1 5-8.6 2.2-2.7-2.4-1.7-7.2 1.6-8.5zm588.9 13.8c3.8-1.4 8 2.7 6.6 6.5-1 3.8-6.5 4.9-8.9 1.8-2.6-2.6-1.1-7.3 2.3-8.3zm-640 4.1c3.8-1.5 8.3 2.6 6.8 6.5-1.1 4.1-7.4 4.9-9.5 1.3-2-2.7-.4-6.9 2.7-7.8zm29.1.1c3.8-1.8 8.4 2.3 7 6.2-.9 3.7-6.1 5.1-8.7 2.2-2.6-2.3-1.6-7.1 1.7-8.4zm-73 17c3.8-1.8 8.4 2.3 7 6.2-.9 3.7-6 5-8.6 2.3-2.7-2.4-1.7-7.2 1.6-8.5zm23.9 15c3.8-1.9 8.5 2.3 7.1 6.3-.9 3.6-6.1 5-8.6 2.2-2.7-2.4-1.7-7.2 1.5-8.5zm9.1 34c3.8-1.8 8.5 2.3 7.1 6.2-.9 3.7-6.1 5-8.6 2.3-2.8-2.4-1.8-7.2 1.5-8.5z"/></svg>