<?xml version="1.0" encoding="utf-8"?>
<!-- Generator: Adobe Illustrator 19.0.1, SVG Export Plug-In . SVG Version: 6.00 Build 0)  -->
<svg version="1.1" id="Слой_1" xmlns="http://www.w3.org/2000/svg" xmlns:xlink="http://www.w3.org/1999/xlink" x="0px" y="0px"
	 viewBox="-60 54 129 143" style="enable-background:new -60 54 129 143;" xml:space="preserve">
<style type="text/css">
	.st0{fill:#D82D31;}
</style>
<g id="_x23_d82d31ff">
	<path class="st0" d="M2.2,56.3c4.8-0.7,9.8,1,13.9,3.6c9,5.5,18.3,10.3,27.2,15.9C50,80,57.9,82.8,63,89.1c3,3.5,3.8,8.4,3.8,12.9
		c0,16,0,32.1,0,48.1c-0.1,5.1-1.5,10.6-5.8,13.7c-5.1,3.9-10.9,6.5-16.4,9.7c-10.3,6.5-21.2,12-31.5,18.4
		c-4.7,3.3-10.9,1.9-15.9,0.4c-4.8-2.5-9.3-5.5-14-8.2c-9.8-5-19-11.2-28.7-16.4c-6.8-3.1-12-10-11.9-17.7c-0.1-16,0-32.1-0.1-48.1
		c-0.1-5.5,1.5-11.3,5.7-15.2c5.4-5,12.3-7.6,18.4-11.5c8.9-5.6,18.3-10.3,27.2-15.9C-3.9,57.8-0.8,56.9,2.2,56.3 M0.5,61.7
		c-2.1,0.7-48.4,26.9-51.1,30.7c-2.3,3.4-2.2,7.7-2.2,11.7c0.1,15.7-0.1,31.3,0.1,47c0.1,4.8,3.3,8.9,7.2,11.5
		c6.9,3.5,13.5,7.7,20.2,11.7c7.6,3.9,14.8,8.5,22.2,12.7c4.6,2.5,10.4,2.7,15,0.1c5.5-3.2,10.9-6.4,16.4-9.6c9.5-5,18.5-11,28-16
		c4.3-2.1,5.5-7,5.4-11.4c0.1-15.7,0-31.3,0-47c0-3.8,0-8.1-2.6-11.2c-2.7-3.5-6.8-5.3-10.5-7.5C38.2,78.1,27.5,72.2,17,66
		C12.2,62.9,6.4,59.6,0.5,61.7z"/>
</g>
</svg>
