<?xml version="1.0" encoding="utf-8"?>
<!-- Generator: Adobe Illustrator 19.0.1, SVG Export Plug-In . SVG Version: 6.00 Build 0)  -->
<svg version="1.1" xmlns="http://www.w3.org/2000/svg" xmlns:xlink="http://www.w3.org/1999/xlink" x="0px" y="0px"
	 viewBox="-59 184 20 74" style="enable-background:new -59 184 20 74;" xml:space="preserve">
<style type="text/css">
	.st0{fill:#FFFFFF;}
	.st1{fill:#FCFCFC;}
	.st2{fill:#D9232E;}
</style>
<g id="Слой_2">
	<path class="st0" d="M20.5,254.1c4-9.8,7.8-19.5,11.7-29.3c1.1-2.3,1.3-5.3,0.1-7.6c-4.1-10.3-8.3-20.5-12.5-30.8
		c-0.9-2.4-3.7-2.4-5.4-2.4h-72.9c4.4,9.6,8.4,19.5,12.7,29.1c1.8,3.6,1.6,8.3,0,11.9c-4.8,10.9-9.4,21.9-14.2,32.8l76.1,0.1
		C18.4,258,19.7,256.6,20.5,254.1z"/>
	<path class="st1" d="M-39.9,307.8c-6-9.6-11.9-19.3-17.9-28.9c-1.1-2-3.1-3-5.1-3.9h-0.5c1,9.3-3.8,19.3-4.7,28.6
		c-0.8,8.4,0,17-0.5,25.5c-0.4,6.7-1.3,13.3-2.2,19.9h7.9c2.3-0.7,4.3-2.2,5.5-4.4c5.8-9.5,11.7-18.9,17.5-28.4
		C-38.1,313.7-38.1,310.3-39.9,307.8z"/>
</g>
<g id="Слой_1">
	<g id="_x23_d9232eff">
		<path class="st2" d="M99.6,281.3h39.5c2,0.9,4,1.9,5.1,3.9c6,9.6,11.9,19.3,17.9,28.9c1.8,2.5,1.8,5.9,0,8.4
			c-5.8,9.5-11.7,18.9-17.5,28.4c-1.2,2.2-3.2,3.7-5.5,4.4H99c-4.7-1.1-6.4-5.9-8.8-9.5H17.9c-3.4,0-7.3,0.5-9.5-2.1
			c-2.5-3.2-4.2-7-6.3-10.4c-2.6-5-5.9-9.6-8.1-14.9v-2.7c3.7-7.9,8.5-15.1,12.6-22.8c1.3-2.8,3.5-4.8,7.3-4.8h77.8
			C93.6,285.2,95.8,281.9,99.6,281.3 M9.6,293.9c-4,6.8-7.8,13.6-11.7,20.4c-1.1,1.6-1.3,3.7-0.1,5.3c4.1,7.2,8.3,14.3,12.5,21.5
			c0.9,1.7,3.7,1.7,5.4,1.7h72.9c-4.4-6.7-8.4-13.6-12.7-20.3c-1.8-2.5-1.6-5.8,0-8.3c4.8-7.6,9.4-15.3,14.2-22.9L14,291.2
			C11.7,291.2,10.4,292.2,9.6,293.9z"/>
	</g>
</g>
</svg>
