<?xml version="1.0" encoding="utf-8"?>
<!-- Generator: Adobe Illustrator 19.2.1, SVG Export Plug-In . SVG Version: 6.00 Build 0)  -->
<svg version="1.1" id="Слой_1" xmlns="http://www.w3.org/2000/svg" xmlns:xlink="http://www.w3.org/1999/xlink" x="0px" y="0px"
	 viewBox="0 0 129 143" style="enable-background:new 0 0 129 143;" xml:space="preserve">
<style type="text/css">
	.st0{opacity:0.92;fill:#FFFFFF;enable-background:new    ;}
	.st1{fill:#D82D31;}
	.st2{opacity:0.94;fill:#FFFFFF;enable-background:new    ;}
</style>
<g id="_x23_e9dfe0eb">
	<path class="st0" d="M64.1,0h0.8c3.8,0.6,7.7,1.2,11,3.3c13.3,7.7,26.6,15.3,39.8,23c3.3,1.9,6.4,4.2,8.9,7.2
		c3.4,4,4.2,9.5,4.3,14.6c0,15.7,0,31.3,0,47c-0.1,4.6-0.8,9.5-3.4,13.4c-2.5,3.6-6.6,5.5-10.3,7.6c-13.8,8-27.6,16-41.4,24
		c-5.8,3.5-13.2,2.1-19.2-0.4c-13.8-7.9-27.6-16-41.4-23.9c-3.1-1.7-6.3-3.6-8.4-6.6c-3.7-4.1-4.6-9.7-4.7-15c0-15,0-30.1,0-45.1
		c-0.1-4.1,0.6-8.2,2.1-11.9c2.7-5.8,8.3-9.3,13.6-12.3c12.4-7.2,24.9-14.3,37.3-21.6C56.4,1.1,60.3,0.6,64.1,0 M62.2,2.3
		c-3.1,0.5-6.1,1.5-8.7,3.2c-8.9,5.5-18.3,10.3-27.2,15.9c-6.1,3.9-13.1,6.5-18.4,11.5C3.8,36.8,2.2,42.5,2.3,48
		c0.1,16,0,32.1,0.1,48.1c0,7.6,5.2,14.5,11.9,17.7c9.8,5.1,18.9,11.4,28.7,16.4c4.7,2.7,9.2,5.7,14,8.2c5.1,1.5,11.2,2.9,15.9-0.4
		c10.3-6.5,21.3-11.9,31.5-18.4c5.5-3.2,11.4-5.9,16.4-9.7c4.3-3.2,5.8-8.6,5.8-13.7c0-16,0-32.1,0-48.1c0-4.5-0.8-9.4-3.8-12.9
		c-5.1-6.3-13-9.1-19.7-13.3C94.4,16.2,85,11.4,76.1,5.9C72,3.3,67,1.6,62.2,2.3z"/>
</g>
<g id="_x23_d82d31ff">
	<path class="st1" d="M62.2,2.3C67,1.6,72,3.3,76.1,5.9c9,5.5,18.3,10.3,27.2,15.9c6.7,4.2,14.6,7,19.7,13.3c3,3.5,3.8,8.4,3.8,12.9
		c0,16,0,32.1,0,48.1c-0.1,5.1-1.5,10.6-5.8,13.7c-5.1,3.9-10.9,6.5-16.4,9.7c-10.3,6.5-21.2,12-31.5,18.4
		c-4.7,3.3-10.9,1.9-15.9,0.4c-4.8-2.5-9.3-5.5-14-8.2c-9.8-5-19-11.2-28.7-16.4c-6.8-3.1-12-10-11.9-17.7c-0.1-16,0-32.1-0.1-48.1
		c-0.1-5.5,1.5-11.3,5.7-15.2c5.4-5,12.3-7.6,18.4-11.5c8.9-5.6,18.3-10.3,27.2-15.9C56.1,3.8,59.2,2.9,62.2,2.3 M60.5,7.7
		C58.4,8.4,12.1,34.6,9.4,38.4c-2.3,3.4-2.2,7.7-2.2,11.7c0.1,15.7-0.1,31.3,0.1,47c0.1,4.8,3.3,8.9,7.2,11.5
		c6.9,3.5,13.5,7.7,20.2,11.7c7.6,3.9,14.8,8.5,22.2,12.7c4.6,2.5,10.4,2.7,15,0.1c5.5-3.2,10.9-6.4,16.4-9.6c9.5-5,18.5-11,28-16
		c4.3-2.1,5.5-7,5.4-11.4c0.1-15.7,0-31.3,0-47c0-3.8,0-8.1-2.6-11.2c-2.7-3.5-6.8-5.3-10.5-7.5C98.2,24.1,87.5,18.2,77,12
		C72.2,8.9,66.4,5.6,60.5,7.7z"/>
</g>
<g id="_x23_ecd9daf0">
	<path class="st2" d="M60.5,7.7C66.4,5.6,72.2,8.9,77,12c10.5,6.2,21.1,12.2,31.6,18.4c3.7,2.2,7.8,4,10.5,7.5
		c2.6,3.1,2.6,7.4,2.6,11.2c0,15.7,0,31.3,0,47c0.1,4.3-1.2,9.3-5.4,11.4c-9.5,5-18.5,11-28,16c-5.4,3.2-10.9,6.4-16.4,9.6
		c-4.6,2.7-10.4,2.5-15-0.1c-7.5-4.2-14.6-8.8-22.2-12.7c-6.7-4-13.3-8.2-20.2-11.7c-3.9-2.6-7.1-6.6-7.2-11.5
		c-0.2-15.7,0-31.3-0.1-47c0-3.9,0-8.3,2.2-11.7c2.7-3.8,7-5.7,10.9-8c11.3-6.7,22.9-13.1,34.1-19.9C56.4,9.3,58.4,8.4,60.5,7.7
		 M61.5,9.7c-2.6,0.8-4.9,2.3-7.2,3.6c-12.5,7.2-25,14.5-37.5,21.7c-4,2.3-7.6,6.1-7.5,11c0,17-0.1,34,0,50.9
		c0,4.6,3.6,8.1,7.4,10.3c13.9,8,27.8,16.1,41.8,24.1c3.4,1.9,7.6,2.2,11,0.4c14.4-8.3,28.8-16.6,43.1-24.9c2-1.2,4.2-2.3,5.5-4.2
		c1.3-2.3,1.3-5,1.3-7.6c-0.1-16.6,0.1-33.3-0.1-49.9c0-4.9-4.2-8.2-8-10.5C97.9,26.8,84.4,18.9,70.8,11C68,9.5,64.7,8.6,61.5,9.7z"
		/>
</g>
</svg>
