<?xml version="1.0" encoding="UTF-8" ?>
<!DOCTYPE svg PUBLIC "-//W3C//DTD SVG 1.1//EN" "http://www.w3.org/Graphics/SVG/1.1/DTD/svg11.dtd">
<svg width="907pt" height="554pt" viewBox="0 0 907 554" version="1.1" xmlns="http://www.w3.org/2000/svg">
<g id="#ffffffff">
<path fill="#ffffff" opacity="1.00" d=" M 0.00 0.00 L 907.00 0.00 L 907.00 554.00 L 0.00 554.00 L 0.00 0.00 M 792.25 17.16 C 789.39 18.71 786.32 19.88 783.68 21.79 C 782.32 24.38 782.49 27.54 781.06 30.12 C 780.32 31.69 779.17 33.12 778.95 34.88 C 781.30 36.19 784.02 36.56 786.53 37.51 C 782.66 39.17 778.94 36.22 775.08 36.52 C 770.54 39.03 766.72 42.62 762.32 45.33 C 751.31 53.44 739.41 60.90 730.87 71.76 C 727.93 77.47 725.21 83.32 722.63 89.20 C 723.84 91.54 725.93 93.40 728.17 94.74 C 730.63 95.16 733.14 94.81 735.62 94.78 C 735.47 96.68 735.31 98.57 735.10 100.46 C 730.58 100.74 726.03 99.48 721.55 100.30 C 720.53 103.34 720.62 106.87 718.43 109.42 C 714.35 114.62 710.02 120.08 708.85 126.77 C 707.50 127.82 706.16 128.86 704.82 129.91 C 701.93 127.79 698.81 125.26 695.00 125.51 C 690.76 125.87 686.46 127.42 683.25 130.23 C 679.63 136.09 677.20 142.61 673.57 148.47 C 669.07 149.55 664.52 150.40 660.04 151.52 C 660.04 150.03 661.42 148.17 660.07 146.93 C 657.01 146.59 653.91 146.34 650.84 146.59 C 648.29 147.94 646.92 150.79 644.52 152.39 C 637.41 156.73 630.17 160.91 623.21 165.49 C 623.54 168.92 623.47 172.40 624.13 175.79 C 626.00 177.50 628.23 178.73 630.35 180.10 C 628.69 181.77 627.04 183.55 626.42 185.89 C 623.54 186.30 620.56 186.61 617.92 187.91 C 615.78 188.99 615.40 191.55 614.61 193.57 C 611.33 193.33 608.03 193.18 604.75 193.44 C 605.98 198.21 607.27 202.96 608.82 207.64 C 602.62 206.56 596.03 205.46 591.03 201.30 C 593.20 200.88 595.39 200.48 597.56 200.02 C 596.89 198.56 596.14 197.09 594.71 196.25 C 589.70 192.80 585.16 188.68 579.96 185.51 C 577.50 185.81 575.65 188.04 573.09 187.93 C 569.86 188.15 566.04 188.04 563.76 190.77 C 561.89 193.65 563.69 197.15 564.56 200.06 C 560.12 202.18 555.96 205.05 551.12 206.24 C 549.24 205.24 550.08 202.38 549.42 200.63 C 544.11 201.52 539.12 203.65 533.89 204.84 C 533.46 205.87 533.05 206.91 532.64 207.94 C 531.23 206.68 530.40 203.58 528.09 204.30 C 521.28 208.46 516.54 215.31 509.74 219.47 C 514.05 210.86 520.42 203.39 524.34 194.57 C 527.23 188.74 525.33 182.17 524.12 176.17 C 521.93 173.43 518.47 171.92 515.76 169.70 C 512.14 169.89 508.51 170.02 504.91 170.33 C 502.81 170.16 501.65 172.08 500.28 173.29 C 499.75 171.68 499.21 170.09 498.57 168.54 C 496.88 168.88 495.22 169.24 493.55 169.62 C 494.88 167.90 496.19 166.16 497.39 164.35 C 493.70 162.89 489.17 160.68 485.47 163.31 C 482.84 166.68 480.85 170.51 478.41 174.02 C 478.77 175.91 479.15 177.79 479.54 179.68 C 478.16 180.18 476.71 180.52 475.45 181.28 C 475.21 182.92 475.20 184.57 475.13 186.22 C 473.08 187.09 471.02 187.95 468.99 188.86 C 468.29 187.64 468.12 185.93 466.89 185.13 C 463.05 183.90 459.65 186.55 456.27 187.94 C 455.71 189.06 455.27 190.25 454.57 191.30 C 450.07 194.01 444.05 194.18 440.66 198.57 C 436.32 203.43 431.61 209.29 433.13 216.30 C 426.05 217.27 418.97 218.21 411.89 219.21 C 411.14 223.47 410.36 227.75 410.07 232.07 C 411.22 235.23 414.43 237.09 416.31 239.81 C 416.26 240.83 416.16 242.87 416.10 243.89 C 412.72 239.81 410.22 235.09 406.85 231.01 C 406.32 231.02 405.26 231.05 404.74 231.07 C 402.19 228.32 396.30 229.03 395.53 233.00 C 394.63 236.06 398.05 237.47 399.53 239.54 C 398.04 238.56 396.72 237.36 395.42 236.16 C 394.88 236.08 393.81 235.94 393.28 235.86 C 394.23 232.47 395.88 228.50 393.95 225.18 C 392.48 222.74 389.33 223.07 386.93 223.51 C 386.66 225.99 386.89 228.63 386.13 231.00 C 383.22 234.57 379.68 237.57 376.50 240.88 C 377.43 245.11 378.79 249.23 379.94 253.40 C 377.97 256.26 375.77 259.02 374.31 262.18 C 374.29 265.41 375.24 268.55 375.84 271.71 C 380.98 272.33 387.20 272.73 390.33 277.53 C 392.04 279.77 393.60 285.11 389.48 285.51 C 388.98 282.25 389.56 278.39 387.23 275.74 C 384.07 272.96 379.09 273.74 375.66 275.61 C 374.35 280.03 374.97 284.94 373.27 289.21 C 368.75 294.05 363.81 299.69 356.86 300.61 C 352.85 300.79 349.90 297.60 347.13 295.17 C 351.22 295.57 355.60 297.11 359.58 295.38 C 364.76 290.49 370.01 285.27 372.34 278.34 C 374.12 275.44 371.48 272.60 370.42 269.97 C 372.02 263.91 374.19 258.03 376.24 252.12 C 377.95 247.89 375.90 243.48 375.29 239.24 C 377.23 236.88 379.25 234.56 380.94 232.01 C 382.98 229.21 383.11 225.62 383.64 222.33 C 379.66 220.67 375.71 218.96 371.76 217.25 C 368.73 220.77 365.92 224.46 363.26 228.28 C 360.03 233.01 354.50 235.31 350.40 239.13 C 350.06 241.41 353.19 243.46 351.81 245.85 C 350.09 249.76 347.34 253.09 344.72 256.42 C 346.39 257.65 348.14 258.77 349.90 259.87 C 348.98 263.00 349.28 266.25 350.71 269.17 C 350.03 269.82 349.36 270.46 348.68 271.11 C 345.57 265.72 341.59 260.91 338.37 255.60 C 336.17 252.57 334.41 248.90 330.91 247.16 C 327.84 245.55 324.92 243.66 321.82 242.13 C 320.45 242.88 319.27 243.92 318.07 244.90 C 318.34 247.67 318.51 250.45 318.53 253.24 C 316.91 253.89 315.27 254.50 313.62 255.07 C 313.27 252.91 313.00 250.74 312.74 248.57 C 309.65 248.53 306.56 248.72 303.48 248.79 C 299.28 246.51 294.35 246.02 289.82 247.61 C 289.22 247.08 288.00 246.01 287.39 245.47 C 289.49 243.69 291.71 242.02 293.52 239.92 C 293.43 239.44 293.25 238.46 293.16 237.97 C 285.44 237.55 277.70 237.62 269.98 237.58 C 265.72 237.58 261.41 236.99 257.19 237.67 C 254.75 239.02 252.63 240.84 250.40 242.50 C 249.67 242.24 248.21 241.71 247.48 241.45 C 247.28 239.24 247.09 237.02 246.91 234.81 C 247.81 234.12 248.72 233.43 249.64 232.75 C 251.60 233.32 253.90 235.89 255.85 234.02 C 259.44 231.45 260.51 226.00 257.72 222.46 C 255.29 219.67 252.50 216.83 248.87 215.72 C 248.18 217.94 248.31 220.35 247.49 222.53 C 245.40 226.12 241.58 228.19 237.95 229.91 C 237.95 232.30 237.99 234.69 238.00 237.09 C 236.08 237.70 234.18 238.35 232.29 239.02 C 230.96 236.65 229.90 234.10 228.22 231.96 C 222.83 231.01 217.01 230.79 211.82 232.80 C 208.13 234.11 206.89 238.20 204.98 241.23 C 204.25 240.18 203.54 239.12 202.86 238.05 C 200.70 234.93 201.85 230.54 199.34 227.61 C 196.53 224.82 191.10 227.15 190.82 231.01 C 190.67 233.62 191.29 236.20 191.79 238.75 C 190.68 239.54 189.57 240.33 188.46 241.12 C 186.64 236.60 186.04 231.75 185.10 227.00 C 189.71 222.16 194.56 217.55 199.12 212.65 C 198.27 209.15 197.41 205.65 196.44 202.18 C 197.20 201.42 197.96 200.66 198.73 199.90 C 200.17 205.98 201.62 212.09 203.89 217.93 C 205.55 221.68 207.78 225.77 211.85 227.31 C 215.73 228.88 219.85 229.93 224.05 230.16 C 226.71 230.29 229.84 229.73 231.35 227.27 C 234.15 223.08 233.95 217.74 233.62 212.92 C 233.38 208.77 231.24 205.06 230.73 200.97 C 230.15 197.18 230.89 193.31 230.25 189.55 C 228.49 185.66 226.42 181.91 224.81 177.95 C 227.81 175.80 229.69 170.37 226.14 167.93 C 220.24 165.82 213.58 167.42 207.80 164.72 C 204.30 166.14 200.74 167.54 197.56 169.58 C 196.09 173.24 195.57 177.21 194.48 180.99 C 191.77 181.31 189.06 181.63 186.36 182.03 C 184.56 187.14 182.33 192.45 178.01 195.97 C 175.62 198.14 172.65 199.46 170.02 201.27 C 167.70 204.01 166.44 207.48 164.29 210.35 C 162.10 211.90 159.43 212.59 157.03 213.75 C 157.03 217.28 156.89 220.80 156.66 224.33 C 150.57 227.08 143.84 228.94 137.12 227.87 C 132.09 227.39 125.88 226.03 121.98 230.19 C 119.81 233.43 120.96 237.52 121.74 241.03 C 118.86 239.82 116.07 238.35 113.02 237.62 C 108.82 238.11 104.80 239.58 100.73 240.68 C 97.51 241.19 96.96 244.91 95.00 246.97 C 93.13 248.10 90.37 247.99 89.26 250.15 C 86.38 255.20 82.69 259.80 80.16 265.05 C 81.76 270.76 84.96 275.88 87.10 281.40 C 83.56 284.49 80.23 287.99 78.40 292.39 C 75.54 298.05 77.94 304.57 76.09 310.46 C 74.26 310.08 71.71 310.28 70.91 308.16 C 69.70 306.74 69.58 303.48 67.11 304.06 C 64.44 308.23 62.99 313.06 60.16 317.16 C 61.62 318.27 63.16 319.28 64.52 320.52 C 65.21 322.26 65.43 324.14 65.89 325.95 C 67.91 326.16 69.92 326.38 71.93 326.59 C 71.39 328.50 70.84 330.41 70.29 332.32 C 68.42 332.91 66.55 333.49 64.69 334.12 C 65.67 338.11 67.22 341.92 68.61 345.77 C 67.84 348.16 66.60 350.49 66.52 353.04 C 67.18 355.12 68.15 357.09 69.17 359.02 C 70.30 361.61 73.70 361.16 75.95 362.06 C 76.46 365.76 76.90 369.49 76.77 373.23 C 76.31 378.18 83.24 381.66 80.69 386.68 C 78.30 388.14 75.38 387.81 72.72 387.90 C 71.38 390.04 70.09 392.20 68.83 394.39 C 65.56 392.41 62.04 389.65 57.96 390.66 C 55.31 392.26 51.91 394.60 53.21 398.18 C 50.55 397.65 47.87 397.22 45.19 396.86 C 45.07 398.82 45.01 400.80 44.99 402.77 C 41.35 401.68 37.63 402.32 34.83 404.94 C 32.59 403.72 28.64 400.52 26.94 403.97 C 26.31 410.18 29.11 416.02 30.43 421.97 C 32.20 428.29 32.19 434.89 32.66 441.38 C 34.29 442.09 36.04 442.46 37.75 442.94 C 39.51 446.50 41.02 450.26 43.68 453.27 C 45.49 455.49 47.85 457.21 49.55 459.53 C 51.13 463.98 52.16 468.89 55.53 472.42 C 57.97 474.97 62.46 474.51 64.32 477.74 C 66.18 480.57 64.59 484.01 65.24 487.11 C 65.56 489.81 67.58 491.79 69.19 493.81 C 72.56 497.17 70.03 503.16 72.99 506.50 C 77.54 506.32 81.98 505.13 86.42 504.24 C 86.66 498.21 86.15 492.19 86.19 486.17 C 87.92 483.37 89.70 480.62 91.55 477.91 C 91.10 474.36 90.67 470.81 90.18 467.27 C 95.68 466.73 101.63 464.96 104.70 459.98 C 110.29 460.53 115.87 461.29 121.48 461.53 C 121.46 459.92 121.36 458.32 121.23 456.73 C 122.25 455.99 123.48 455.48 124.33 454.52 C 125.12 450.78 125.04 446.84 124.38 443.09 C 123.80 439.91 121.27 437.68 119.07 435.53 C 120.29 432.59 120.09 429.43 119.88 426.34 C 121.87 424.49 124.25 423.16 126.55 421.76 C 126.85 420.31 127.16 418.88 127.47 417.44 C 129.85 416.01 132.29 414.68 134.75 413.38 C 135.83 416.22 136.61 419.21 138.17 421.84 C 139.33 423.69 141.90 424.00 143.64 422.77 C 145.46 420.86 145.69 417.49 148.46 416.56 C 154.13 414.23 160.38 414.43 166.39 414.33 C 166.54 415.07 166.85 416.53 167.01 417.26 C 170.09 417.48 173.19 417.49 176.28 417.54 C 175.85 419.12 175.43 420.71 175.02 422.30 C 177.21 423.50 180.06 424.30 181.13 426.81 C 182.81 430.65 182.93 434.89 183.54 438.98 C 184.83 438.71 186.12 438.43 187.41 438.16 C 188.53 440.49 189.10 443.23 191.00 445.10 C 194.45 444.77 197.52 442.99 200.64 441.65 C 201.77 443.84 202.74 446.13 204.17 448.16 C 206.86 448.05 209.44 447.12 212.13 446.94 C 212.56 449.22 212.36 451.57 212.88 453.84 C 214.07 456.88 217.29 458.33 219.81 460.12 C 221.51 458.96 222.90 457.04 225.02 456.68 C 227.27 457.70 228.92 459.61 230.87 461.08 C 233.27 458.38 236.34 456.09 238.05 452.87 C 237.06 449.41 234.20 446.78 232.42 443.69 C 234.20 443.47 236.04 443.49 237.78 442.96 C 238.32 440.34 238.62 437.68 239.36 435.11 C 241.70 435.23 243.97 435.84 246.07 436.89 C 247.47 437.53 250.56 438.89 249.94 436.06 C 248.44 432.43 246.10 429.03 246.06 424.94 C 250.71 424.66 254.72 427.32 259.08 428.46 C 262.96 429.47 266.98 429.89 270.98 430.01 C 274.73 430.19 278.33 428.73 282.07 428.97 C 286.80 429.19 291.18 431.73 295.96 431.35 C 298.63 431.19 300.52 429.10 302.47 427.53 C 306.10 429.12 309.74 430.67 313.46 432.05 C 314.07 437.36 313.81 442.81 315.25 447.99 C 317.13 447.61 319.02 446.81 320.98 447.05 C 323.09 447.19 324.17 449.24 325.48 450.61 C 325.00 453.60 324.68 458.55 328.89 458.73 C 336.37 458.44 343.63 455.91 350.55 453.20 C 349.99 454.41 349.53 455.65 349.16 456.94 C 351.47 461.07 355.30 464.16 357.48 468.39 C 361.88 478.08 364.96 488.31 369.46 497.95 C 369.86 498.18 370.66 498.64 371.06 498.86 C 372.78 497.26 374.24 495.42 375.75 493.63 C 376.56 496.28 376.28 499.60 378.26 501.74 C 384.09 501.94 389.91 501.17 395.73 500.97 C 399.32 507.16 403.36 513.41 409.01 517.92 C 411.97 520.53 415.82 518.68 418.81 517.17 C 419.84 519.43 420.62 521.87 422.18 523.85 C 424.54 524.78 427.12 524.83 429.62 525.13 C 431.00 523.67 432.32 522.10 433.99 520.95 C 437.12 519.00 440.94 519.14 444.43 518.34 C 444.89 516.97 445.13 515.53 445.46 514.13 C 451.07 511.58 456.48 508.61 462.11 506.10 C 465.14 504.59 468.60 505.45 471.82 505.71 C 474.09 506.10 476.55 506.21 478.57 507.46 C 480.78 509.02 480.94 511.98 481.70 514.35 C 488.53 514.58 495.36 514.06 502.20 513.92 C 506.38 513.89 509.10 510.15 512.17 507.83 C 510.68 503.94 509.34 499.99 507.84 496.11 C 510.14 492.48 512.73 489.06 515.24 485.58 C 522.48 487.06 529.68 488.75 536.92 490.24 C 537.74 493.16 538.43 496.13 539.49 498.98 C 539.74 500.21 541.16 500.43 542.11 500.94 C 545.89 502.39 549.75 503.63 553.59 504.93 C 557.57 499.94 563.43 496.27 570.02 496.75 C 576.27 497.30 584.33 496.73 588.11 502.87 C 594.75 502.58 601.37 502.06 608.01 501.73 C 610.07 501.50 612.45 501.78 614.10 500.25 C 618.06 497.16 622.35 494.35 625.73 490.61 C 627.55 486.94 628.19 482.28 631.81 479.82 C 635.54 477.83 639.45 480.44 643.07 481.35 C 644.99 480.31 646.43 478.64 647.97 477.14 C 651.51 478.37 655.45 479.91 659.18 478.47 C 662.50 477.15 663.81 473.54 665.91 470.94 C 667.40 468.83 669.80 467.69 671.71 466.02 C 670.64 464.16 669.28 462.52 668.02 460.80 C 668.01 456.85 667.94 452.89 667.98 448.94 C 667.69 445.23 670.39 442.31 671.72 439.06 C 668.85 436.42 665.86 433.93 662.95 431.33 C 665.68 423.51 673.62 419.58 679.88 414.95 C 683.40 415.69 687.18 417.02 690.67 415.47 C 693.23 414.66 696.47 413.14 698.85 415.17 C 708.90 423.93 718.39 433.37 728.80 441.72 C 734.41 440.31 739.98 437.13 745.91 438.47 C 748.65 438.96 751.45 438.69 754.15 438.07 C 757.81 441.94 761.11 447.42 766.93 447.96 C 771.73 446.89 774.08 442.08 776.14 438.11 C 778.41 433.15 781.70 428.78 784.51 424.14 C 785.99 426.53 787.49 428.91 789.01 431.29 C 788.55 433.17 788.00 435.05 787.85 436.99 C 789.13 441.12 791.70 444.76 792.80 448.96 C 793.27 453.54 793.09 458.20 794.24 462.70 C 791.02 463.26 787.70 463.44 784.58 464.47 C 783.64 468.53 782.71 472.62 782.21 476.76 C 784.37 478.96 787.83 479.68 789.37 482.51 C 791.34 485.83 793.09 489.28 795.32 492.45 C 793.14 495.36 790.80 498.16 788.84 501.22 C 791.72 503.87 795.96 503.88 799.56 504.93 C 801.92 500.55 804.03 495.92 803.30 490.80 C 807.98 489.42 812.95 488.77 817.41 486.76 C 819.71 482.18 821.60 477.40 823.79 472.76 C 824.88 470.68 824.78 468.28 824.79 466.00 C 824.53 456.33 824.27 446.66 824.23 436.99 C 824.27 429.19 821.51 421.77 820.53 414.10 C 819.29 408.37 820.92 402.60 820.75 396.84 C 820.82 394.02 818.55 392.02 817.04 389.92 C 808.39 379.40 800.45 368.05 795.95 355.08 C 799.31 357.30 802.92 359.15 806.81 360.27 C 813.96 369.62 820.55 379.76 830.09 386.89 C 832.66 391.02 834.28 395.77 837.68 399.37 C 841.34 404.17 846.69 407.18 852.18 409.45 C 852.54 409.16 853.25 408.57 853.61 408.27 C 852.92 405.17 851.86 402.16 851.04 399.10 C 854.62 399.12 858.36 400.24 861.87 399.08 C 861.51 395.87 858.59 393.72 856.52 391.51 C 850.83 389.27 844.80 387.96 839.09 385.74 C 836.91 380.46 834.62 375.22 832.74 369.83 C 835.89 368.13 839.29 366.71 841.92 364.20 C 830.46 356.83 818.09 350.99 806.36 344.09 C 805.72 342.65 805.33 341.03 804.18 339.90 C 799.40 334.99 794.45 330.26 789.70 325.33 C 787.02 321.45 779.82 327.30 783.10 330.77 C 785.16 332.79 787.88 333.98 789.93 336.03 C 789.23 338.03 787.98 339.87 787.76 342.02 C 787.67 346.68 791.85 349.68 794.10 353.35 C 791.05 350.60 787.55 347.92 786.58 343.71 C 781.17 343.17 775.75 342.03 770.32 342.18 C 768.00 343.90 765.95 345.94 763.77 347.83 C 764.84 349.97 765.93 352.11 767.02 354.26 C 766.00 355.00 764.98 355.73 763.98 356.48 C 763.20 354.64 762.44 352.80 761.66 350.96 C 758.95 351.42 756.35 352.34 754.02 353.81 C 753.08 352.94 752.14 352.07 751.21 351.22 C 748.45 353.33 745.56 355.28 742.45 356.84 C 744.28 350.03 745.91 343.13 746.71 336.12 C 747.31 331.28 744.52 326.86 744.71 322.06 C 744.90 316.66 746.83 311.56 748.35 306.44 C 746.91 304.52 745.50 302.57 744.15 300.60 C 745.39 297.84 747.17 295.11 747.10 291.97 C 747.33 289.53 745.62 287.62 744.53 285.63 C 748.14 281.50 751.97 277.57 755.31 273.21 C 757.26 272.98 759.70 273.76 761.23 272.18 C 762.08 270.87 762.36 269.29 762.85 267.82 C 764.45 267.17 766.18 266.72 767.58 265.64 C 768.33 264.26 768.55 262.67 768.93 261.17 C 770.35 260.00 772.59 259.15 772.47 256.96 C 772.48 254.61 771.63 252.36 771.07 250.11 C 774.10 248.44 777.19 246.87 780.31 245.38 C 780.23 246.96 779.08 249.04 780.85 250.09 C 782.99 251.88 786.65 253.36 788.75 250.69 C 791.59 246.50 790.26 240.93 792.48 236.48 C 794.11 233.65 797.49 232.08 798.51 228.85 C 798.71 226.35 796.69 224.64 795.17 222.99 C 793.62 224.20 792.13 225.45 790.63 226.69 C 786.51 217.06 784.32 206.78 781.97 196.61 C 784.12 193.84 786.09 190.92 788.15 188.07 C 791.20 192.37 796.70 194.97 801.86 192.86 C 801.56 185.45 798.27 178.30 799.22 170.77 C 796.66 168.43 794.14 166.06 791.63 163.67 C 792.98 160.77 794.25 157.65 796.86 155.62 C 796.20 158.52 795.01 161.26 793.98 164.04 C 797.89 167.23 801.83 170.41 805.94 173.36 C 806.18 177.12 806.05 180.91 806.47 184.66 C 809.79 195.82 814.17 206.67 816.89 218.02 C 817.72 221.37 816.65 224.75 816.33 228.10 C 818.43 229.81 821.24 230.89 822.58 233.41 C 824.02 236.35 823.94 239.70 824.06 242.89 C 827.54 247.05 830.77 251.52 834.80 255.14 C 849.88 263.38 865.73 270.12 880.97 278.05 C 882.05 278.62 883.22 279.17 884.50 278.85 C 886.32 269.61 883.36 259.55 875.87 253.59 C 876.31 248.79 876.89 243.28 873.77 239.20 C 871.46 237.01 868.42 235.79 865.90 233.88 C 866.11 232.22 865.37 230.21 866.64 228.85 C 868.10 226.69 870.75 224.38 869.51 221.48 C 866.94 217.54 862.12 216.17 858.26 213.87 C 857.74 212.03 857.24 210.19 856.77 208.35 C 857.59 206.31 859.11 204.36 859.02 202.08 C 857.45 198.41 852.79 199.45 849.66 199.51 C 845.92 198.11 843.52 194.88 840.54 192.45 C 836.34 190.27 835.74 196.13 834.40 198.75 C 829.25 192.65 825.13 185.79 820.39 179.38 C 821.63 177.67 823.11 176.03 823.78 173.97 C 824.40 171.24 823.62 168.47 823.07 165.80 C 825.00 166.78 826.91 168.00 829.14 168.16 C 829.51 164.49 826.67 161.62 825.20 158.51 C 825.65 155.28 826.18 152.06 826.69 148.84 C 830.88 146.98 835.24 145.48 839.36 143.44 C 837.59 140.14 833.85 138.00 833.30 134.11 C 829.90 120.11 826.31 106.16 822.95 92.15 C 825.68 88.88 828.92 86.03 831.28 82.46 C 828.93 80.57 826.53 78.74 824.05 77.03 C 820.90 78.48 817.72 80.17 814.22 80.45 C 811.86 80.20 809.78 79.02 807.67 78.07 C 804.80 79.88 802.11 82.11 798.77 82.99 C 799.68 81.38 800.69 79.82 801.70 78.26 C 800.56 74.08 799.40 69.90 798.16 65.75 C 793.82 65.20 787.83 66.29 785.65 61.44 C 789.05 61.60 792.48 61.70 795.87 61.20 C 796.84 57.26 797.28 52.88 800.15 49.75 C 802.02 49.47 803.93 49.72 805.83 49.60 C 808.50 46.46 810.42 41.60 815.36 41.88 C 816.66 40.12 818.15 38.28 818.32 36.00 C 818.16 33.66 816.57 31.50 814.28 30.86 C 809.80 29.39 805.20 28.28 800.62 27.17 C 801.44 24.21 802.81 21.33 802.93 18.22 C 799.57 17.10 795.58 14.95 792.25 17.16 M 721.83 39.92 C 720.59 40.00 719.37 40.14 718.16 40.34 C 718.04 43.17 718.33 46.02 718.68 48.83 C 719.04 51.49 721.39 53.22 723.36 54.77 C 724.80 55.87 727.52 56.69 728.52 54.59 C 730.66 50.45 731.40 45.65 731.39 41.03 C 731.45 38.62 729.97 36.71 728.24 35.23 C 726.03 36.69 723.93 38.32 721.83 39.92 M 347.87 100.89 C 345.73 104.85 350.27 108.43 353.98 108.23 C 357.29 107.99 360.68 107.31 363.63 105.73 C 366.17 104.05 366.24 100.41 365.15 97.85 C 364.02 94.54 360.55 92.95 357.54 91.75 C 352.44 89.50 345.47 95.63 347.87 100.89 M 369.11 100.17 C 367.82 103.34 369.55 106.66 369.55 109.91 C 369.78 112.59 369.05 116.58 372.22 117.79 C 376.58 118.40 381.35 118.77 385.43 116.76 C 389.60 118.88 394.26 117.62 397.78 114.85 C 397.90 112.39 398.51 109.44 396.29 107.68 C 393.23 104.54 388.77 107.36 385.56 108.72 C 384.25 107.77 382.99 106.77 381.74 105.76 C 382.45 105.22 383.85 104.15 384.56 103.62 C 384.68 100.37 383.48 97.34 381.99 94.52 C 377.59 96.05 372.90 97.38 369.11 100.17 M 450.01 130.04 C 450.65 133.13 453.76 135.13 454.78 138.06 C 454.67 141.83 453.70 146.31 456.63 149.34 C 460.42 152.87 466.01 152.76 470.86 153.15 C 470.76 156.82 469.26 161.87 472.89 164.34 C 475.93 164.48 478.19 161.89 481.00 161.07 C 484.82 159.76 489.71 159.07 491.55 154.90 C 492.86 149.34 489.05 143.21 483.58 141.67 C 481.69 138.72 478.35 139.39 475.60 140.58 C 475.06 135.88 471.66 132.21 467.22 130.84 C 467.84 124.29 463.39 119.17 459.63 114.40 C 452.86 116.38 450.72 123.82 450.01 130.04 M 616.57 121.45 C 614.43 122.66 611.57 123.41 610.88 126.10 C 608.24 127.33 605.60 128.63 602.74 129.26 C 600.35 129.35 597.98 129.08 595.60 129.06 C 596.00 131.46 596.58 133.83 597.18 136.20 C 594.13 136.02 591.07 135.96 588.01 136.10 C 587.92 141.10 588.24 146.46 591.14 150.72 C 594.15 154.13 599.60 153.99 603.54 152.55 C 608.24 149.19 611.23 143.95 614.08 139.03 C 616.10 135.37 614.18 131.26 612.83 127.74 C 614.05 129.45 615.28 131.16 616.61 132.80 C 621.30 131.83 625.98 130.81 630.63 129.65 C 631.57 125.70 632.46 121.74 632.84 117.69 C 630.56 117.40 628.29 117.01 626.00 117.05 C 622.69 118.12 619.74 120.05 616.57 121.45 M 614.96 153.14 C 613.12 155.96 613.69 159.67 614.21 162.83 C 614.63 163.91 614.72 166.34 616.47 165.55 C 620.49 163.38 623.99 160.38 627.74 157.78 C 629.27 156.79 630.48 155.42 631.29 153.78 C 626.70 149.94 619.70 149.05 614.96 153.14 M 368.12 167.64 C 358.85 168.09 349.38 167.51 340.45 170.54 C 334.40 177.91 324.31 180.39 318.84 188.37 C 313.45 187.69 311.36 193.14 308.30 196.37 C 306.00 199.21 300.94 198.92 299.88 202.86 C 297.78 211.20 299.64 220.85 305.88 227.04 C 308.22 229.36 311.29 232.27 314.89 231.27 C 316.91 228.90 315.95 225.69 315.81 222.91 C 315.54 219.04 315.26 215.06 316.11 211.25 C 318.55 206.81 322.39 203.34 326.04 199.90 C 335.32 191.64 347.60 187.96 356.97 179.83 C 363.64 179.63 370.46 179.83 376.95 178.03 C 379.75 177.29 382.66 175.71 383.84 172.92 C 385.14 169.70 383.16 165.77 379.99 164.57 C 375.70 163.81 372.34 167.62 368.12 167.64 M 26.01 228.78 C 27.31 232.85 30.37 235.94 32.71 239.42 C 34.99 242.77 37.41 246.02 39.92 249.21 C 43.29 248.52 46.63 247.63 49.90 246.53 C 48.94 240.62 47.76 234.70 45.85 229.02 C 43.73 228.59 42.45 230.59 40.96 231.68 C 39.90 230.38 38.89 229.05 37.66 227.91 C 33.77 227.60 29.87 228.32 26.01 228.78 Z" />
<path fill="#ffffff" opacity="1.00" d=" M 158.37 227.51 C 163.74 224.74 170.91 226.99 173.84 232.23 C 176.14 235.99 175.98 240.91 173.65 244.62 C 170.39 249.96 166.87 255.15 163.51 260.44 C 160.08 254.88 156.43 249.45 153.03 243.87 C 149.66 238.21 152.39 230.14 158.37 227.51 M 161.50 232.60 C 158.17 233.88 157.22 238.70 159.88 241.10 C 162.45 243.87 167.65 242.52 168.53 238.85 C 169.95 234.87 165.27 230.78 161.50 232.60 Z" />
<path fill="#ffffff" opacity="1.00" d=" M 135.06 234.20 C 141.07 231.54 148.74 235.03 150.78 241.25 C 152.25 244.93 151.35 249.08 149.25 252.31 C 146.05 257.38 142.76 262.39 139.50 267.43 C 136.09 261.87 132.43 256.46 129.03 250.89 C 125.51 244.99 128.64 236.54 135.06 234.20 M 137.41 239.63 C 134.16 240.96 133.25 245.69 135.86 248.08 C 138.42 250.88 143.64 249.52 144.53 245.84 C 145.95 241.83 141.20 237.74 137.41 239.63 Z" />
<path fill="#ffffff" opacity="1.00" d=" M 404.99 234.89 C 406.34 234.53 407.98 236.45 407.65 237.76 C 406.30 238.05 404.60 236.21 404.99 234.89 Z" />
<path fill="#ffffff" opacity="1.00" d=" M 389.44 245.12 C 390.26 243.04 391.06 240.95 391.78 238.83 C 391.64 240.13 391.51 241.44 391.40 242.75 C 393.56 244.91 395.72 247.09 397.75 249.38 C 394.95 248.01 392.19 246.58 389.44 245.12 Z" />
<path fill="#ffffff" opacity="1.00" d=" M 140.23 271.17 C 144.21 266.72 151.58 266.02 156.32 269.63 C 161.00 272.91 162.71 279.77 159.84 284.78 C 156.55 290.49 152.75 295.89 149.24 301.47 C 145.56 296.20 142.21 290.71 138.76 285.29 C 136.01 280.94 136.73 274.89 140.23 271.17 M 147.37 273.47 C 144.22 274.44 142.74 278.60 144.71 281.29 C 146.92 284.91 153.24 284.06 154.27 279.88 C 155.69 275.92 151.17 271.94 147.37 273.47 Z" />
<path fill="#ffffff" opacity="1.00" d=" M 197.23 289.30 C 203.91 286.23 212.84 290.59 214.01 297.98 C 215.19 302.75 212.32 307.08 209.75 310.80 C 207.05 314.59 204.52 318.49 202.04 322.43 C 198.63 316.75 194.56 311.50 191.22 305.79 C 187.82 299.94 190.86 291.57 197.23 289.30 M 200.35 294.48 C 197.25 295.46 195.65 299.62 197.72 302.28 C 199.85 305.89 205.99 305.02 207.00 300.94 C 208.46 297.11 204.11 292.98 200.35 294.48 Z" />
<path fill="#ffffff" opacity="1.00" d=" M 164.00 290.02 C 170.57 287.51 178.84 291.88 180.00 298.93 C 181.20 303.71 178.33 308.07 175.75 311.80 C 173.04 315.58 170.52 319.49 168.04 323.44 C 164.63 317.74 160.55 312.48 157.21 306.75 C 153.66 300.65 157.19 291.92 164.00 290.02 M 166.47 295.43 C 163.30 296.37 161.62 300.56 163.70 303.28 C 165.83 306.88 171.99 306.03 173.00 301.94 C 174.45 298.15 170.21 294.07 166.47 295.43 Z" />
<path fill="#ffffff" opacity="1.00" d=" M 121.73 308.73 C 124.05 302.62 131.85 299.69 137.74 302.26 C 143.88 304.44 147.10 312.29 144.15 318.12 C 141.00 324.23 136.52 329.52 133.04 335.43 C 129.93 330.40 126.60 325.51 123.29 320.61 C 120.86 317.21 119.99 312.63 121.73 308.73 M 131.37 307.47 C 127.97 308.50 126.62 313.22 129.12 315.82 C 131.31 318.58 136.25 317.97 137.68 314.73 C 140.07 310.89 135.44 305.84 131.37 307.47 Z" />
<path fill="#ffffff" opacity="1.00" d=" M 175.63 318.58 C 178.85 313.56 186.09 311.79 191.26 314.79 C 196.88 317.68 199.26 325.37 196.05 330.87 C 192.76 336.52 189.00 341.90 185.51 347.44 C 182.19 342.09 178.73 336.82 175.37 331.50 C 172.86 327.63 173.03 322.36 175.63 318.58 M 183.52 319.58 C 180.20 320.85 179.21 325.65 181.85 328.07 C 184.40 330.85 189.57 329.56 190.50 325.92 C 191.99 321.94 187.33 317.79 183.52 319.58 Z" />
<path fill="#ffffff" opacity="1.00" d=" M 268.43 315.47 C 273.81 312.75 280.98 315.02 283.88 320.29 C 286.13 324.03 285.96 328.91 283.65 332.60 C 280.40 337.96 276.87 343.14 273.52 348.44 C 270.09 342.91 266.47 337.49 263.06 331.96 C 259.63 326.26 262.38 318.10 268.43 315.47 M 271.47 320.61 C 268.17 321.91 267.23 326.72 269.89 329.10 C 272.47 331.86 277.64 330.52 278.53 326.85 C 279.94 322.86 275.25 318.76 271.47 320.61 Z" />
<path fill="#ffffff" opacity="1.00" d=" M 318.28 326.32 C 323.71 323.82 330.75 326.06 333.64 331.32 C 335.82 334.98 335.75 339.77 333.51 343.40 C 330.20 348.87 326.67 354.21 323.12 359.53 C 319.55 353.90 315.84 348.35 312.41 342.64 C 309.12 336.84 312.13 328.76 318.28 326.32 M 321.43 331.44 C 318.01 332.43 316.61 337.16 319.09 339.78 C 321.54 342.88 327.26 341.82 328.26 337.92 C 329.70 333.98 325.25 329.98 321.43 331.44 Z" />
<path fill="#ffffff" opacity="1.00" d=" M 111.69 335.71 C 115.92 331.47 123.37 331.15 127.91 335.09 C 132.17 338.49 133.56 344.98 130.85 349.76 C 127.56 355.48 123.75 360.90 120.23 366.48 C 116.57 361.17 113.18 355.68 109.73 350.23 C 106.88 345.70 107.84 339.37 111.69 335.71 M 118.44 338.45 C 115.26 339.37 113.73 343.56 115.69 346.27 C 117.88 349.89 124.19 349.09 125.26 344.93 C 126.72 341.00 122.25 336.97 118.44 338.45 Z" />
<path fill="#ffffff" opacity="1.00" d=" M 155.38 354.39 C 161.00 351.65 168.37 354.36 171.01 360.00 C 172.83 363.56 172.60 367.97 170.52 371.38 C 167.26 376.83 163.66 382.06 160.28 387.43 C 156.83 381.94 153.26 376.53 149.86 371.01 C 146.33 365.26 149.17 356.94 155.38 354.39 M 158.43 359.55 C 155.24 360.62 153.95 365.08 156.22 367.63 C 158.54 370.88 164.25 369.82 165.25 365.95 C 166.74 362.05 162.22 357.85 158.43 359.55 Z" />
<path fill="#ffffff" opacity="1.00" d=" M 296.26 357.29 C 302.15 354.66 309.91 357.60 312.31 363.65 C 313.96 367.35 313.33 371.71 311.15 375.06 C 307.91 380.26 304.21 385.17 301.04 390.42 C 297.62 384.75 293.56 379.49 290.22 373.78 C 286.82 367.93 289.86 359.54 296.26 357.29 M 299.39 362.46 C 296.01 363.49 294.54 368.19 297.11 370.80 C 299.51 373.87 305.04 372.73 306.00 368.93 C 307.44 365.13 303.14 361.01 299.39 362.46 Z" />
<path fill="#ffffff" opacity="1.00" d=" M 134.40 372.49 C 139.75 369.76 146.90 371.98 149.82 377.21 C 152.14 380.97 151.98 385.91 149.64 389.62 C 146.39 394.97 142.88 400.16 139.51 405.44 C 136.10 399.89 132.46 394.49 129.05 388.94 C 125.65 383.25 128.37 375.13 134.40 372.49 M 137.52 377.60 C 134.17 378.86 133.21 383.72 135.89 386.12 C 138.47 388.84 143.61 387.52 144.52 383.88 C 145.96 379.90 141.31 375.79 137.52 377.60 Z" />
<path fill="#ffffff" opacity="1.00" d=" M 723.30 386.27 C 729.19 383.68 736.91 386.61 739.31 392.65 C 740.96 396.36 740.32 400.73 738.13 404.09 C 734.89 409.28 731.20 414.18 728.04 419.42 C 724.61 413.74 720.54 408.47 717.20 402.73 C 713.82 396.87 716.90 388.50 723.30 386.27 M 726.44 391.44 C 723.03 392.44 721.53 397.13 724.07 399.76 C 726.45 402.87 732.03 401.77 733.00 397.95 C 734.46 394.15 730.19 390.04 726.44 391.44 Z" />
<path fill="#ffffff" opacity="1.00" d=" M 78.74 393.75 C 82.57 388.82 90.37 387.84 95.32 391.63 C 99.99 394.90 101.70 401.74 98.86 406.74 C 95.57 412.47 91.76 417.88 88.24 423.48 C 84.68 418.38 81.47 413.06 78.09 407.84 C 75.18 403.65 75.48 397.66 78.74 393.75 M 86.41 395.45 C 83.26 396.40 81.70 400.59 83.71 403.28 C 85.90 406.88 92.16 406.09 93.25 401.96 C 94.74 398.01 90.25 393.95 86.41 395.45 Z" />
<path fill="#ffffff" opacity="1.00" d=" M 112.42 390.48 C 117.78 387.75 124.94 390.00 127.85 395.25 C 130.14 398.99 129.98 403.91 127.65 407.61 C 124.41 412.96 120.86 418.13 117.53 423.44 C 114.07 417.89 110.45 412.45 107.03 406.89 C 103.65 401.20 106.40 393.10 112.42 390.48 M 115.51 395.60 C 112.19 396.87 111.22 401.66 113.86 404.07 C 116.42 406.89 121.65 405.52 122.54 401.83 C 123.93 397.87 119.29 393.77 115.51 395.60 Z" />
<path fill="#ffffff" opacity="1.00" d=" M 39.44 407.47 C 44.80 404.76 51.94 407.01 54.85 412.24 C 57.15 416.02 56.98 420.94 54.63 424.65 C 51.37 429.98 47.87 435.16 44.52 440.44 C 41.09 434.90 37.46 429.49 34.06 423.94 C 30.63 418.24 33.39 410.10 39.44 407.47 M 42.51 412.59 C 39.18 413.87 38.21 418.71 40.89 421.11 C 43.48 423.87 48.67 422.51 49.53 418.83 C 50.93 414.86 46.29 410.80 42.51 412.59 Z" />
<path fill="#ffffff" opacity="1.00" d=" M 63.40 422.49 C 68.76 419.75 75.93 421.99 78.85 427.24 C 81.13 430.98 80.99 435.89 78.66 439.58 C 75.41 444.95 71.88 450.14 68.51 455.44 C 65.09 449.89 61.45 444.49 58.06 438.94 C 54.65 433.26 57.37 425.13 63.40 422.49 M 66.44 427.62 C 63.18 428.93 62.24 433.68 64.86 436.08 C 67.41 438.86 72.60 437.54 73.51 433.89 C 74.98 429.88 70.25 425.74 66.44 427.62 Z" />
<path fill="#ffffff" opacity="1.00" d=" M 73.10 456.18 C 79.09 453.57 86.73 457.02 88.77 463.20 C 90.25 466.88 89.37 471.04 87.26 474.28 C 84.08 479.37 80.74 484.37 77.52 489.44 C 74.07 483.87 70.41 478.43 67.00 472.83 C 63.51 466.92 66.69 458.50 73.10 456.18 M 75.47 461.61 C 72.18 462.90 71.22 467.71 73.88 470.10 C 76.45 472.87 81.65 471.53 82.53 467.85 C 83.94 463.86 79.26 459.77 75.47 461.61 Z" />
</g>
<g id="#cb1c23ff">
<path fill="#cb1c23" opacity="1.00" d=" M 792.25 17.16 C 795.58 14.95 799.57 17.10 802.93 18.22 C 802.81 21.33 801.44 24.21 800.62 27.17 C 805.20 28.28 809.80 29.39 814.28 30.86 C 816.57 31.50 818.16 33.66 818.32 36.00 C 818.15 38.28 816.66 40.12 815.36 41.88 C 810.42 41.60 808.50 46.46 805.83 49.60 C 803.93 49.72 802.02 49.47 800.15 49.75 C 797.28 52.88 796.84 57.26 795.87 61.20 C 792.48 61.70 789.05 61.60 785.65 61.44 C 787.83 66.29 793.82 65.20 798.16 65.75 C 799.40 69.90 800.56 74.08 801.70 78.26 C 800.69 79.82 799.68 81.38 798.77 82.99 C 802.11 82.11 804.80 79.88 807.67 78.07 C 809.78 79.02 811.86 80.20 814.22 80.45 C 817.72 80.17 820.90 78.48 824.05 77.03 C 826.53 78.74 828.93 80.57 831.28 82.46 C 828.92 86.03 825.68 88.88 822.95 92.15 C 826.31 106.16 829.90 120.11 833.30 134.11 C 833.85 138.00 837.59 140.14 839.36 143.44 C 835.24 145.48 830.88 146.98 826.69 148.84 C 826.18 152.06 825.65 155.28 825.20 158.51 C 826.67 161.62 829.51 164.49 829.14 168.16 C 826.91 168.00 825.00 166.78 823.07 165.80 C 823.62 168.47 824.40 171.24 823.78 173.97 C 823.11 176.03 821.63 177.67 820.39 179.38 C 825.13 185.79 829.25 192.65 834.40 198.75 C 835.74 196.13 836.34 190.27 840.54 192.45 C 843.52 194.88 845.92 198.11 849.66 199.51 C 852.79 199.45 857.45 198.41 859.02 202.08 C 859.11 204.36 857.59 206.31 856.77 208.35 C 857.24 210.19 857.74 212.03 858.26 213.87 C 862.12 216.17 866.94 217.54 869.51 221.48 C 870.75 224.38 868.10 226.69 866.64 228.85 C 865.37 230.21 866.11 232.22 865.90 233.88 C 868.42 235.79 871.46 237.01 873.77 239.20 C 876.89 243.28 876.31 248.79 875.87 253.59 C 883.36 259.55 886.32 269.61 884.50 278.85 C 883.22 279.17 882.05 278.62 880.97 278.05 C 865.73 270.12 849.88 263.38 834.80 255.14 C 830.77 251.52 827.54 247.05 824.06 242.89 C 823.94 239.70 824.02 236.35 822.58 233.41 C 821.24 230.89 818.43 229.81 816.33 228.10 C 816.65 224.75 817.72 221.37 816.89 218.02 C 814.17 206.67 809.79 195.82 806.47 184.66 C 806.05 180.91 806.18 177.12 805.94 173.36 C 801.83 170.41 797.89 167.23 793.98 164.04 C 795.01 161.26 796.20 158.52 796.86 155.62 C 794.25 157.65 792.98 160.77 791.63 163.67 C 794.14 166.06 796.66 168.43 799.22 170.77 C 798.27 178.30 801.56 185.45 801.86 192.86 C 796.70 194.97 791.20 192.37 788.15 188.07 C 786.09 190.92 784.12 193.84 781.97 196.61 C 784.32 206.78 786.51 217.06 790.63 226.69 C 792.13 225.45 793.62 224.20 795.17 222.99 C 796.69 224.64 798.71 226.35 798.51 228.85 C 797.49 232.08 794.11 233.65 792.48 236.48 C 790.26 240.93 791.59 246.50 788.75 250.69 C 786.65 253.36 782.99 251.88 780.85 250.09 C 779.08 249.04 780.23 246.96 780.31 245.38 C 777.19 246.87 774.10 248.44 771.07 250.11 C 771.63 252.36 772.48 254.61 772.47 256.96 C 772.59 259.15 770.35 260.00 768.93 261.17 C 768.55 262.67 768.33 264.26 767.58 265.64 C 766.18 266.72 764.45 267.17 762.85 267.82 C 762.36 269.29 762.08 270.87 761.23 272.18 C 759.70 273.76 757.26 272.98 755.31 273.21 C 751.97 277.57 748.14 281.50 744.53 285.63 C 745.62 287.62 747.33 289.53 747.10 291.97 C 747.17 295.11 745.39 297.84 744.15 300.60 C 745.50 302.57 746.91 304.52 748.35 306.44 C 746.83 311.56 744.90 316.66 744.71 322.06 C 744.52 326.86 747.31 331.28 746.71 336.12 C 745.91 343.13 744.28 350.03 742.45 356.84 C 745.56 355.28 748.45 353.33 751.21 351.22 C 752.14 352.07 753.08 352.94 754.02 353.81 C 756.35 352.34 758.95 351.42 761.66 350.96 C 762.44 352.80 763.20 354.64 763.98 356.48 C 764.98 355.73 766.00 355.00 767.02 354.26 C 765.93 352.11 764.84 349.97 763.77 347.83 C 765.95 345.94 768.00 343.90 770.32 342.18 C 775.75 342.03 781.17 343.17 786.58 343.71 C 787.55 347.92 791.05 350.60 794.10 353.35 C 791.85 349.68 787.67 346.68 787.76 342.02 C 787.98 339.87 789.23 338.03 789.93 336.03 C 787.88 333.98 785.16 332.79 783.10 330.77 C 779.82 327.30 787.02 321.45 789.70 325.33 C 794.45 330.26 799.40 334.99 804.18 339.90 C 805.33 341.03 805.72 342.65 806.36 344.09 C 818.09 350.99 830.46 356.83 841.92 364.20 C 839.29 366.71 835.89 368.13 832.74 369.83 C 834.62 375.22 836.91 380.46 839.09 385.74 C 844.80 387.96 850.83 389.27 856.52 391.51 C 858.59 393.72 861.51 395.87 861.87 399.08 C 858.36 400.24 854.62 399.12 851.04 399.10 C 851.86 402.16 852.92 405.17 853.61 408.27 C 853.25 408.57 852.54 409.16 852.18 409.45 C 846.69 407.18 841.34 404.17 837.68 399.37 C 834.28 395.77 832.66 391.02 830.09 386.89 C 820.55 379.76 813.96 369.62 806.81 360.27 C 802.92 359.15 799.31 357.30 795.95 355.08 C 800.45 368.05 808.39 379.40 817.04 389.92 C 818.55 392.02 820.82 394.02 820.75 396.84 C 820.92 402.60 819.29 408.37 820.53 414.10 C 821.51 421.77 824.27 429.19 824.23 436.99 C 824.27 446.66 824.53 456.33 824.79 466.00 C 824.78 468.28 824.88 470.68 823.79 472.76 C 821.60 477.40 819.71 482.18 817.41 486.76 C 812.95 488.77 807.98 489.42 803.30 490.80 C 804.03 495.92 801.92 500.55 799.56 504.93 C 795.96 503.88 791.72 503.87 788.84 501.22 C 790.80 498.16 793.14 495.36 795.32 492.45 C 793.09 489.28 791.34 485.83 789.37 482.51 C 787.83 479.68 784.37 478.96 782.21 476.76 C 782.71 472.62 783.64 468.53 784.58 464.47 C 787.70 463.44 791.02 463.26 794.24 462.70 C 793.09 458.20 793.27 453.54 792.80 448.96 C 791.70 444.76 789.13 441.12 787.85 436.99 C 788.00 435.05 788.55 433.17 789.01 431.29 C 787.49 428.91 785.99 426.53 784.51 424.14 C 781.70 428.78 778.41 433.15 776.14 438.11 C 774.08 442.08 771.73 446.89 766.93 447.96 C 761.11 447.42 757.81 441.94 754.15 438.07 C 751.45 438.69 748.65 438.96 745.91 438.47 C 739.98 437.13 734.41 440.31 728.80 441.72 C 718.39 433.37 708.90 423.93 698.85 415.17 C 696.47 413.14 693.23 414.66 690.67 415.47 C 687.18 417.02 683.40 415.69 679.88 414.95 C 673.62 419.58 665.68 423.51 662.95 431.33 C 665.86 433.93 668.85 436.42 671.72 439.06 C 670.39 442.31 667.69 445.23 667.98 448.94 C 667.94 452.89 668.01 456.85 668.02 460.80 C 669.28 462.52 670.64 464.16 671.71 466.02 C 669.80 467.69 667.40 468.83 665.91 470.94 C 663.81 473.54 662.50 477.15 659.18 478.47 C 655.45 479.91 651.51 478.37 647.97 477.14 C 646.43 478.64 644.99 480.31 643.07 481.35 C 639.45 480.44 635.54 477.83 631.81 479.82 C 628.19 482.28 627.55 486.94 625.73 490.61 C 622.35 494.35 618.06 497.16 614.10 500.25 C 612.45 501.78 610.07 501.50 608.01 501.73 C 601.37 502.06 594.75 502.58 588.11 502.87 C 584.33 496.73 576.27 497.30 570.02 496.75 C 563.43 496.27 557.57 499.94 553.59 504.93 C 549.75 503.63 545.89 502.39 542.11 500.94 C 541.16 500.43 539.74 500.21 539.49 498.98 C 538.43 496.13 537.74 493.16 536.92 490.24 C 529.68 488.75 522.48 487.06 515.24 485.58 C 512.73 489.06 510.14 492.48 507.84 496.11 C 509.34 499.99 510.68 503.94 512.17 507.83 C 509.10 510.15 506.38 513.89 502.20 513.92 C 495.36 514.06 488.53 514.58 481.70 514.35 C 480.94 511.98 480.78 509.02 478.57 507.46 C 476.55 506.21 474.09 506.10 471.82 505.71 C 468.60 505.45 465.14 504.59 462.11 506.10 C 456.48 508.61 451.07 511.58 445.46 514.13 C 445.13 515.53 444.89 516.97 444.43 518.34 C 440.94 519.14 437.12 519.00 433.99 520.95 C 432.32 522.10 431.00 523.67 429.62 525.13 C 427.12 524.83 424.54 524.78 422.18 523.85 C 420.62 521.87 419.84 519.43 418.81 517.17 C 415.82 518.68 411.97 520.53 409.01 517.92 C 403.36 513.41 399.32 507.16 395.73 500.97 C 389.91 501.17 384.09 501.94 378.26 501.74 C 376.28 499.60 376.56 496.28 375.75 493.63 C 374.24 495.42 372.78 497.26 371.06 498.86 C 370.66 498.64 369.86 498.18 369.46 497.95 C 364.96 488.31 361.88 478.08 357.48 468.39 C 355.30 464.16 351.47 461.07 349.16 456.94 C 349.53 455.65 349.99 454.41 350.55 453.20 C 343.63 455.91 336.37 458.44 328.89 458.73 C 324.68 458.55 325.00 453.60 325.48 450.61 C 324.17 449.24 323.09 447.19 320.98 447.05 C 319.02 446.81 317.13 447.61 315.25 447.99 C 313.81 442.81 314.07 437.36 313.46 432.05 C 309.74 430.67 306.10 429.12 302.47 427.53 C 300.52 429.10 298.63 431.19 295.96 431.35 C 291.18 431.73 286.80 429.19 282.07 428.97 C 278.33 428.73 274.73 430.19 270.98 430.01 C 266.98 429.89 262.96 429.47 259.08 428.46 C 254.72 427.32 250.71 424.66 246.06 424.94 C 246.10 429.03 248.44 432.43 249.94 436.06 C 250.56 438.89 247.47 437.53 246.07 436.89 C 243.97 435.84 241.70 435.23 239.36 435.11 C 238.62 437.68 238.32 440.34 237.78 442.96 C 236.04 443.49 234.20 443.47 232.42 443.69 C 234.20 446.78 237.06 449.41 238.05 452.87 C 236.34 456.09 233.27 458.38 230.87 461.08 C 228.92 459.61 227.27 457.70 225.02 456.68 C 222.90 457.04 221.51 458.96 219.81 460.12 C 217.29 458.33 214.07 456.88 212.88 453.84 C 212.36 451.57 212.56 449.22 212.13 446.94 C 209.44 447.12 206.86 448.05 204.17 448.16 C 202.74 446.13 201.77 443.84 200.64 441.65 C 197.52 442.99 194.45 444.77 191.00 445.10 C 189.10 443.23 188.53 440.49 187.41 438.16 C 186.12 438.43 184.83 438.71 183.54 438.98 C 182.93 434.89 182.81 430.65 181.13 426.81 C 180.06 424.30 177.21 423.50 175.02 422.30 C 175.43 420.71 175.85 419.12 176.28 417.54 C 173.19 417.49 170.09 417.48 167.01 417.26 C 166.85 416.53 166.54 415.07 166.39 414.33 C 160.38 414.43 154.13 414.23 148.46 416.56 C 145.69 417.49 145.46 420.86 143.64 422.77 C 141.90 424.00 139.33 423.69 138.17 421.84 C 136.61 419.21 135.83 416.22 134.75 413.38 C 132.29 414.68 129.85 416.01 127.47 417.44 C 127.16 418.88 126.85 420.31 126.55 421.76 C 124.25 423.16 121.87 424.49 119.88 426.34 C 120.09 429.43 120.29 432.59 119.07 435.53 C 121.27 437.68 123.80 439.91 124.38 443.09 C 125.04 446.84 125.12 450.78 124.33 454.52 C 123.48 455.48 122.25 455.99 121.23 456.73 C 121.36 458.32 121.46 459.92 121.48 461.53 C 115.87 461.29 110.29 460.53 104.70 459.98 C 101.63 464.96 95.68 466.73 90.18 467.27 C 90.67 470.81 91.10 474.36 91.55 477.91 C 89.70 480.62 87.92 483.37 86.19 486.17 C 86.15 492.19 86.66 498.21 86.42 504.24 C 81.98 505.13 77.54 506.32 72.99 506.50 C 70.03 503.16 72.56 497.17 69.19 493.81 C 67.58 491.79 65.56 489.81 65.24 487.11 C 64.59 484.01 66.18 480.57 64.32 477.74 C 62.46 474.51 57.97 474.97 55.53 472.42 C 52.16 468.89 51.13 463.98 49.55 459.53 C 47.85 457.21 45.49 455.49 43.68 453.27 C 41.02 450.26 39.51 446.50 37.75 442.94 C 36.04 442.46 34.29 442.09 32.66 441.38 C 32.19 434.89 32.20 428.29 30.43 421.97 C 29.11 416.02 26.31 410.18 26.94 403.97 C 28.64 400.52 32.59 403.72 34.83 404.94 C 37.63 402.32 41.35 401.68 44.99 402.77 C 45.01 400.80 45.07 398.82 45.19 396.86 C 47.87 397.22 50.55 397.65 53.21 398.18 C 51.91 394.60 55.31 392.26 57.96 390.66 C 62.04 389.65 65.56 392.41 68.83 394.39 C 70.09 392.20 71.38 390.04 72.72 387.90 C 75.38 387.81 78.30 388.14 80.69 386.68 C 83.24 381.66 76.31 378.18 76.77 373.23 C 76.90 369.49 76.46 365.76 75.95 362.06 C 73.70 361.16 70.30 361.61 69.17 359.02 C 68.15 357.09 67.18 355.12 66.52 353.04 C 66.60 350.49 67.84 348.16 68.61 345.77 C 67.22 341.92 65.67 338.11 64.69 334.12 C 66.55 333.49 68.42 332.91 70.29 332.32 C 70.84 330.41 71.39 328.50 71.93 326.59 C 69.92 326.38 67.91 326.16 65.89 325.95 C 65.43 324.14 65.21 322.26 64.52 320.52 C 63.16 319.28 61.62 318.27 60.16 317.16 C 62.99 313.06 64.44 308.23 67.11 304.06 C 69.58 303.48 69.70 306.74 70.91 308.16 C 71.71 310.28 74.26 310.08 76.09 310.46 C 77.94 304.57 75.54 298.05 78.40 292.39 C 80.23 287.99 83.56 284.49 87.10 281.40 C 84.96 275.88 81.76 270.76 80.16 265.05 C 82.69 259.80 86.38 255.20 89.26 250.15 C 90.37 247.99 93.13 248.10 95.00 246.97 C 96.96 244.91 97.51 241.19 100.73 240.68 C 104.80 239.58 108.82 238.11 113.02 237.62 C 116.07 238.35 118.86 239.82 121.74 241.03 C 120.96 237.52 119.81 233.43 121.98 230.19 C 125.88 226.03 132.09 227.39 137.12 227.87 C 143.84 228.94 150.57 227.08 156.66 224.33 C 156.89 220.80 157.03 217.28 157.03 213.75 C 159.43 212.59 162.10 211.90 164.29 210.35 C 166.44 207.48 167.70 204.01 170.02 201.27 C 172.65 199.46 175.62 198.14 178.01 195.97 C 182.33 192.45 184.56 187.14 186.36 182.03 C 189.06 181.63 191.77 181.31 194.48 180.99 C 195.57 177.21 196.09 173.24 197.56 169.58 C 200.74 167.54 204.30 166.14 207.80 164.72 C 213.58 167.42 220.24 165.82 226.14 167.93 C 229.69 170.37 227.81 175.80 224.81 177.95 C 226.42 181.91 228.49 185.66 230.25 189.55 C 230.89 193.31 230.15 197.18 230.73 200.97 C 231.24 205.06 233.38 208.77 233.62 212.92 C 233.95 217.74 234.15 223.08 231.35 227.27 C 229.84 229.73 226.71 230.29 224.05 230.16 C 219.85 229.93 215.73 228.88 211.85 227.31 C 207.78 225.77 205.55 221.68 203.89 217.93 C 201.62 212.09 200.17 205.98 198.73 199.90 C 197.96 200.66 197.20 201.42 196.44 202.18 C 197.41 205.65 198.27 209.15 199.12 212.65 C 194.56 217.55 189.71 222.16 185.10 227.00 C 186.04 231.75 186.64 236.60 188.46 241.12 C 189.57 240.33 190.68 239.54 191.79 238.75 C 191.29 236.20 190.67 233.62 190.82 231.01 C 191.10 227.15 196.53 224.82 199.34 227.61 C 201.85 230.54 200.70 234.93 202.86 238.05 C 203.54 239.12 204.25 240.18 204.98 241.23 C 206.89 238.20 208.13 234.11 211.82 232.80 C 217.01 230.79 222.83 231.01 228.22 231.96 C 229.90 234.10 230.96 236.65 232.29 239.02 C 234.18 238.35 236.08 237.70 238.00 237.09 C 237.99 234.69 237.95 232.30 237.95 229.91 C 241.58 228.19 245.40 226.12 247.49 222.53 C 248.31 220.35 248.18 217.94 248.87 215.72 C 252.50 216.83 255.29 219.67 257.72 222.46 C 260.51 226.00 259.44 231.45 255.85 234.02 C 253.90 235.89 251.60 233.32 249.64 232.75 C 248.72 233.43 247.81 234.12 246.91 234.81 C 247.09 237.02 247.28 239.24 247.48 241.45 C 248.21 241.71 249.67 242.24 250.40 242.50 C 252.63 240.84 254.75 239.02 257.19 237.67 C 261.41 236.99 265.72 237.58 269.98 237.58 C 277.70 237.62 285.44 237.55 293.16 237.97 C 293.25 238.46 293.43 239.44 293.52 239.92 C 291.71 242.02 289.49 243.69 287.39 245.47 C 288.00 246.01 289.22 247.08 289.82 247.61 C 294.35 246.02 299.28 246.51 303.48 248.79 C 306.56 248.72 309.65 248.53 312.74 248.57 C 313.00 250.74 313.27 252.91 313.62 255.07 C 315.27 254.50 316.91 253.89 318.53 253.24 C 318.51 250.45 318.34 247.67 318.07 244.90 C 319.27 243.92 320.45 242.88 321.82 242.13 C 324.92 243.66 327.84 245.55 330.91 247.16 C 334.41 248.90 336.17 252.57 338.37 255.60 C 341.59 260.91 345.57 265.72 348.68 271.11 C 349.36 270.46 350.03 269.82 350.71 269.17 C 349.28 266.25 348.98 263.00 349.90 259.87 C 348.14 258.77 346.39 257.65 344.72 256.42 C 347.34 253.09 350.09 249.76 351.81 245.85 C 353.19 243.46 350.06 241.41 350.40 239.13 C 354.50 235.31 360.03 233.01 363.26 228.28 C 365.92 224.46 368.73 220.77 371.76 217.25 C 375.71 218.96 379.66 220.67 383.64 222.33 C 383.11 225.62 382.98 229.21 380.94 232.01 C 379.25 234.56 377.23 236.88 375.29 239.24 C 375.90 243.48 377.95 247.89 376.24 252.12 C 374.19 258.03 372.02 263.91 370.42 269.97 C 371.48 272.60 374.12 275.44 372.34 278.34 C 370.01 285.27 364.76 290.49 359.58 295.38 C 355.60 297.11 351.22 295.57 347.13 295.17 C 349.90 297.60 352.85 300.79 356.86 300.61 C 363.81 299.69 368.75 294.05 373.27 289.21 C 374.97 284.94 374.35 280.03 375.66 275.61 C 379.09 273.74 384.07 272.96 387.23 275.74 C 389.56 278.39 388.98 282.25 389.48 285.51 C 393.60 285.11 392.04 279.77 390.33 277.53 C 387.20 272.73 380.98 272.33 375.84 271.71 C 375.24 268.55 374.29 265.41 374.31 262.18 C 375.77 259.02 377.97 256.26 379.94 253.40 C 378.79 249.23 377.43 245.11 376.50 240.88 C 379.68 237.57 383.22 234.57 386.13 231.00 C 386.89 228.63 386.66 225.99 386.93 223.51 C 389.33 223.07 392.48 222.74 393.95 225.18 C 395.88 228.50 394.23 232.47 393.28 235.86 C 393.81 235.94 394.88 236.08 395.42 236.16 C 396.72 237.36 398.04 238.56 399.53 239.54 C 398.05 237.47 394.63 236.06 395.53 233.00 C 396.30 229.03 402.19 228.32 404.74 231.07 C 405.26 231.05 406.32 231.02 406.85 231.01 C 410.22 235.09 412.72 239.81 416.10 243.89 C 416.16 242.87 416.26 240.83 416.31 239.81 C 414.43 237.09 411.22 235.23 410.07 232.07 C 410.36 227.75 411.14 223.47 411.89 219.21 C 418.97 218.21 426.05 217.27 433.13 216.30 C 431.61 209.29 436.32 203.43 440.66 198.57 C 444.05 194.18 450.07 194.01 454.57 191.30 C 455.27 190.25 455.71 189.06 456.27 187.94 C 459.65 186.55 463.05 183.90 466.89 185.13 C 468.12 185.93 468.29 187.64 468.99 188.86 C 471.02 187.95 473.08 187.09 475.13 186.22 C 475.20 184.57 475.21 182.92 475.45 181.28 C 476.71 180.52 478.16 180.18 479.54 179.68 C 479.15 177.79 478.77 175.91 478.41 174.02 C 480.85 170.51 482.84 166.68 485.47 163.31 C 489.17 160.68 493.70 162.89 497.39 164.35 C 496.19 166.16 494.88 167.90 493.55 169.62 C 495.22 169.24 496.88 168.88 498.57 168.54 C 499.21 170.09 499.75 171.68 500.28 173.29 C 501.65 172.08 502.81 170.16 504.91 170.33 C 508.51 170.02 512.14 169.89 515.76 169.70 C 518.47 171.92 521.93 173.43 524.12 176.17 C 525.33 182.17 527.23 188.74 524.34 194.57 C 520.42 203.39 514.05 210.86 509.74 219.47 C 516.54 215.31 521.28 208.46 528.09 204.30 C 530.40 203.58 531.23 206.68 532.64 207.94 C 533.05 206.91 533.46 205.87 533.89 204.84 C 539.12 203.65 544.11 201.52 549.42 200.63 C 550.08 202.38 549.24 205.24 551.12 206.24 C 555.96 205.05 560.12 202.18 564.56 200.06 C 563.69 197.15 561.89 193.65 563.76 190.77 C 566.04 188.04 569.86 188.15 573.09 187.93 C 575.65 188.04 577.50 185.81 579.96 185.51 C 585.16 188.68 589.70 192.80 594.71 196.25 C 596.14 197.09 596.89 198.56 597.56 200.02 C 595.39 200.48 593.20 200.88 591.03 201.30 C 596.03 205.46 602.62 206.56 608.82 207.64 C 607.27 202.96 605.98 198.21 604.75 193.44 C 608.03 193.18 611.33 193.33 614.61 193.57 C 615.40 191.55 615.78 188.99 617.92 187.91 C 620.56 186.61 623.54 186.30 626.42 185.89 C 627.04 183.55 628.69 181.77 630.35 180.10 C 628.23 178.73 626.00 177.50 624.13 175.79 C 623.47 172.40 623.54 168.92 623.21 165.49 C 630.17 160.91 637.41 156.73 644.52 152.39 C 646.92 150.79 648.29 147.94 650.84 146.59 C 653.91 146.34 657.01 146.59 660.07 146.93 C 661.42 148.17 660.04 150.03 660.04 151.52 C 664.52 150.40 669.07 149.55 673.57 148.47 C 677.20 142.61 679.63 136.09 683.25 130.23 C 686.46 127.42 690.76 125.87 695.00 125.51 C 698.81 125.26 701.93 127.79 704.82 129.91 C 706.16 128.86 707.50 127.82 708.85 126.77 C 710.02 120.08 714.35 114.62 718.43 109.42 C 720.62 106.87 720.53 103.34 721.55 100.30 C 726.03 99.48 730.58 100.74 735.10 100.46 C 735.31 98.57 735.47 96.68 735.62 94.78 C 733.14 94.81 730.63 95.16 728.17 94.74 C 725.93 93.40 723.84 91.54 722.63 89.20 C 725.21 83.32 727.93 77.47 730.87 71.76 C 739.41 60.90 751.31 53.44 762.32 45.33 C 766.72 42.62 770.54 39.03 775.08 36.52 C 778.94 36.22 782.66 39.17 786.53 37.51 C 784.02 36.56 781.30 36.19 778.95 34.88 C 779.17 33.12 780.32 31.69 781.06 30.12 C 782.49 27.54 782.32 24.38 783.68 21.79 C 786.32 19.88 789.39 18.71 792.25 17.16 M 158.37 227.51 C 152.39 230.14 149.66 238.21 153.03 243.87 C 156.43 249.45 160.08 254.88 163.51 260.44 C 166.87 255.15 170.39 249.96 173.65 244.62 C 175.98 240.91 176.14 235.99 173.84 232.23 C 170.91 226.99 163.74 224.74 158.37 227.51 M 135.06 234.20 C 128.64 236.54 125.51 244.99 129.03 250.89 C 132.43 256.46 136.09 261.87 139.50 267.43 C 142.76 262.39 146.05 257.38 149.25 252.31 C 151.35 249.08 152.25 244.93 150.78 241.25 C 148.74 235.03 141.07 231.54 135.06 234.20 M 404.99 234.89 C 404.60 236.21 406.30 238.05 407.65 237.76 C 407.98 236.45 406.34 234.53 404.99 234.89 M 389.44 245.12 C 392.19 246.58 394.95 248.01 397.75 249.38 C 395.72 247.09 393.56 244.91 391.40 242.75 C 391.51 241.44 391.64 240.13 391.78 238.83 C 391.06 240.95 390.26 243.04 389.44 245.12 M 140.23 271.17 C 136.73 274.89 136.01 280.94 138.76 285.29 C 142.21 290.71 145.56 296.20 149.24 301.47 C 152.75 295.89 156.55 290.49 159.84 284.78 C 162.71 279.77 161.00 272.91 156.32 269.63 C 151.58 266.02 144.21 266.72 140.23 271.17 M 197.23 289.30 C 190.86 291.57 187.82 299.94 191.22 305.79 C 194.56 311.50 198.63 316.75 202.04 322.43 C 204.52 318.49 207.05 314.59 209.75 310.80 C 212.32 307.08 215.19 302.75 214.01 297.98 C 212.84 290.59 203.91 286.23 197.23 289.30 M 164.00 290.02 C 157.19 291.92 153.66 300.65 157.21 306.75 C 160.55 312.48 164.63 317.74 168.04 323.44 C 170.52 319.49 173.04 315.58 175.75 311.80 C 178.33 308.07 181.20 303.71 180.00 298.93 C 178.84 291.88 170.57 287.51 164.00 290.02 M 121.73 308.73 C 119.99 312.63 120.86 317.21 123.29 320.61 C 126.60 325.51 129.93 330.40 133.04 335.43 C 136.52 329.52 141.00 324.23 144.15 318.12 C 147.10 312.29 143.88 304.44 137.74 302.26 C 131.85 299.69 124.05 302.62 121.73 308.73 M 175.63 318.58 C 173.03 322.36 172.86 327.63 175.37 331.50 C 178.73 336.82 182.19 342.09 185.51 347.44 C 189.00 341.90 192.76 336.52 196.05 330.87 C 199.26 325.37 196.88 317.68 191.26 314.79 C 186.09 311.79 178.85 313.56 175.63 318.58 M 268.43 315.47 C 262.38 318.10 259.63 326.26 263.06 331.96 C 266.47 337.49 270.09 342.91 273.52 348.44 C 276.87 343.14 280.40 337.96 283.65 332.60 C 285.96 328.91 286.13 324.03 283.88 320.29 C 280.98 315.02 273.81 312.75 268.43 315.47 M 318.28 326.32 C 312.13 328.76 309.12 336.84 312.41 342.64 C 315.84 348.35 319.55 353.90 323.12 359.53 C 326.67 354.21 330.20 348.87 333.51 343.40 C 335.75 339.77 335.82 334.98 333.64 331.32 C 330.75 326.06 323.71 323.82 318.28 326.32 M 111.69 335.71 C 107.84 339.37 106.88 345.70 109.73 350.23 C 113.18 355.68 116.57 361.17 120.23 366.48 C 123.75 360.90 127.56 355.48 130.85 349.76 C 133.56 344.98 132.17 338.49 127.91 335.09 C 123.37 331.15 115.92 331.47 111.69 335.71 M 155.38 354.39 C 149.17 356.94 146.33 365.26 149.86 371.01 C 153.26 376.53 156.83 381.94 160.28 387.43 C 163.66 382.06 167.26 376.83 170.52 371.38 C 172.60 367.97 172.83 363.56 171.01 360.00 C 168.37 354.36 161.00 351.65 155.38 354.39 M 296.26 357.29 C 289.86 359.54 286.82 367.93 290.22 373.78 C 293.56 379.49 297.62 384.75 301.04 390.42 C 304.21 385.17 307.91 380.26 311.15 375.06 C 313.33 371.71 313.96 367.35 312.31 363.65 C 309.91 357.60 302.15 354.66 296.26 357.29 M 134.40 372.49 C 128.37 375.13 125.65 383.25 129.05 388.94 C 132.46 394.49 136.10 399.89 139.51 405.44 C 142.88 400.16 146.39 394.97 149.64 389.62 C 151.98 385.91 152.14 380.97 149.82 377.21 C 146.90 371.98 139.75 369.76 134.40 372.49 M 723.30 386.27 C 716.90 388.50 713.82 396.87 717.20 402.73 C 720.54 408.47 724.61 413.74 728.04 419.42 C 731.20 414.18 734.89 409.28 738.13 404.09 C 740.32 400.73 740.96 396.36 739.31 392.65 C 736.91 386.61 729.19 383.68 723.30 386.27 M 78.74 393.75 C 75.48 397.66 75.18 403.65 78.09 407.84 C 81.47 413.06 84.68 418.38 88.24 423.48 C 91.76 417.88 95.57 412.47 98.86 406.74 C 101.70 401.74 99.99 394.90 95.32 391.63 C 90.37 387.84 82.57 388.82 78.74 393.75 M 112.42 390.48 C 106.40 393.10 103.65 401.20 107.03 406.89 C 110.45 412.45 114.07 417.89 117.53 423.44 C 120.86 418.13 124.41 412.96 127.65 407.61 C 129.98 403.91 130.14 398.99 127.85 395.25 C 124.94 390.00 117.78 387.75 112.42 390.48 M 39.44 407.47 C 33.39 410.10 30.63 418.24 34.06 423.94 C 37.46 429.49 41.09 434.90 44.52 440.44 C 47.87 435.16 51.37 429.98 54.63 424.65 C 56.98 420.94 57.15 416.02 54.85 412.24 C 51.94 407.01 44.80 404.76 39.44 407.47 M 63.40 422.49 C 57.37 425.13 54.65 433.26 58.06 438.94 C 61.45 444.49 65.09 449.89 68.51 455.44 C 71.88 450.14 75.41 444.95 78.66 439.58 C 80.99 435.89 81.13 430.98 78.85 427.24 C 75.93 421.99 68.76 419.75 63.40 422.49 M 73.10 456.18 C 66.69 458.50 63.51 466.92 67.00 472.83 C 70.41 478.43 74.07 483.87 77.52 489.44 C 80.74 484.37 84.08 479.37 87.26 474.28 C 89.37 471.04 90.25 466.88 88.77 463.20 C 86.73 457.02 79.09 453.57 73.10 456.18 Z" />
<path fill="#cb1c23" opacity="1.00" d=" M 721.83 39.92 C 723.93 38.32 726.03 36.69 728.24 35.23 C 729.97 36.71 731.45 38.62 731.39 41.03 C 731.40 45.65 730.66 50.45 728.52 54.59 C 727.52 56.69 724.80 55.87 723.36 54.77 C 721.39 53.22 719.04 51.49 718.68 48.83 C 718.33 46.02 718.04 43.17 718.16 40.34 C 719.37 40.14 720.59 40.00 721.83 39.92 Z" />
<path fill="#cb1c23" opacity="1.00" d=" M 347.87 100.89 C 345.47 95.63 352.44 89.50 357.54 91.75 C 360.55 92.95 364.02 94.54 365.15 97.85 C 366.24 100.41 366.17 104.05 363.63 105.73 C 360.68 107.31 357.29 107.99 353.98 108.23 C 350.27 108.43 345.73 104.85 347.87 100.89 Z" />
<path fill="#cb1c23" opacity="1.00" d=" M 369.11 100.17 C 372.90 97.38 377.59 96.05 381.99 94.52 C 383.48 97.34 384.68 100.37 384.56 103.62 C 383.85 104.15 382.45 105.22 381.74 105.76 C 382.99 106.77 384.25 107.77 385.56 108.72 C 388.77 107.36 393.23 104.54 396.29 107.68 C 398.51 109.44 397.90 112.39 397.78 114.85 C 394.26 117.62 389.60 118.88 385.43 116.76 C 381.35 118.77 376.58 118.40 372.22 117.79 C 369.05 116.58 369.78 112.59 369.55 109.91 C 369.55 106.66 367.82 103.34 369.11 100.17 Z" />
<path fill="#cb1c23" opacity="1.00" d=" M 450.01 130.04 C 450.72 123.82 452.86 116.38 459.63 114.40 C 463.39 119.17 467.84 124.29 467.22 130.84 C 471.66 132.21 475.06 135.88 475.60 140.58 C 478.35 139.39 481.69 138.72 483.58 141.67 C 489.05 143.21 492.86 149.34 491.55 154.90 C 489.71 159.07 484.82 159.76 481.00 161.07 C 478.19 161.89 475.93 164.48 472.89 164.34 C 469.26 161.87 470.76 156.82 470.86 153.15 C 466.01 152.76 460.42 152.87 456.63 149.34 C 453.70 146.31 454.67 141.83 454.78 138.06 C 453.76 135.13 450.65 133.13 450.01 130.04 Z" />
<path fill="#cb1c23" opacity="1.00" d=" M 616.57 121.45 C 619.74 120.05 622.69 118.12 626.00 117.05 C 628.29 117.01 630.56 117.40 632.84 117.69 C 632.46 121.74 631.57 125.70 630.63 129.65 C 625.98 130.81 621.30 131.83 616.61 132.80 C 615.28 131.16 614.05 129.45 612.83 127.74 C 614.18 131.26 616.10 135.37 614.08 139.03 C 611.23 143.95 608.24 149.19 603.54 152.55 C 599.60 153.99 594.15 154.13 591.14 150.72 C 588.24 146.46 587.92 141.10 588.01 136.10 C 591.07 135.96 594.13 136.02 597.18 136.20 C 596.58 133.83 596.00 131.46 595.60 129.06 C 597.98 129.08 600.35 129.35 602.74 129.26 C 605.60 128.63 608.24 127.33 610.88 126.10 C 611.57 123.41 614.43 122.66 616.57 121.45 Z" />
<path fill="#cb1c23" opacity="1.00" d=" M 614.96 153.14 C 619.70 149.05 626.70 149.94 631.29 153.78 C 630.48 155.42 629.27 156.79 627.74 157.78 C 623.99 160.38 620.49 163.38 616.47 165.55 C 614.72 166.34 614.63 163.91 614.21 162.83 C 613.69 159.67 613.12 155.96 614.96 153.14 Z" />
<path fill="#cb1c23" opacity="1.00" d=" M 368.12 167.64 C 372.34 167.62 375.70 163.81 379.99 164.57 C 383.16 165.77 385.14 169.70 383.84 172.92 C 382.66 175.71 379.75 177.29 376.95 178.03 C 370.46 179.83 363.64 179.63 356.97 179.83 C 347.60 187.96 335.32 191.64 326.04 199.90 C 322.39 203.34 318.55 206.81 316.11 211.25 C 315.26 215.06 315.54 219.04 315.81 222.91 C 315.95 225.69 316.91 228.90 314.89 231.27 C 311.29 232.27 308.22 229.36 305.88 227.04 C 299.64 220.85 297.78 211.20 299.88 202.86 C 300.94 198.92 306.00 199.21 308.30 196.37 C 311.36 193.14 313.45 187.69 318.84 188.37 C 324.31 180.39 334.40 177.91 340.45 170.54 C 349.38 167.51 358.85 168.09 368.12 167.64 Z" />
<path fill="#cb1c23" opacity="1.00" d=" M 26.01 228.78 C 29.87 228.32 33.77 227.60 37.66 227.91 C 38.89 229.05 39.90 230.38 40.96 231.68 C 42.45 230.59 43.73 228.59 45.85 229.02 C 47.76 234.70 48.94 240.62 49.90 246.53 C 46.63 247.63 43.29 248.52 39.92 249.21 C 37.41 246.02 34.99 242.77 32.71 239.42 C 30.37 235.94 27.31 232.85 26.01 228.78 Z" />
<path fill="#cb1c23" opacity="1.00" d=" M 161.50 232.60 C 165.27 230.78 169.95 234.87 168.53 238.85 C 167.65 242.52 162.45 243.87 159.88 241.10 C 157.22 238.70 158.17 233.88 161.50 232.60 Z" />
<path fill="#cb1c23" opacity="1.00" d=" M 137.41 239.63 C 141.20 237.74 145.95 241.83 144.53 245.84 C 143.64 249.52 138.42 250.88 135.86 248.08 C 133.25 245.69 134.16 240.96 137.41 239.63 Z" />
<path fill="#cb1c23" opacity="1.00" d=" M 147.37 273.47 C 151.17 271.94 155.69 275.92 154.27 279.88 C 153.24 284.06 146.92 284.91 144.71 281.29 C 142.74 278.60 144.22 274.44 147.37 273.47 Z" />
<path fill="#cb1c23" opacity="1.00" d=" M 200.35 294.48 C 204.11 292.98 208.46 297.11 207.00 300.94 C 205.99 305.02 199.85 305.89 197.72 302.28 C 195.65 299.62 197.25 295.46 200.35 294.48 Z" />
<path fill="#cb1c23" opacity="1.00" d=" M 166.47 295.43 C 170.21 294.07 174.45 298.15 173.00 301.94 C 171.99 306.03 165.83 306.88 163.70 303.28 C 161.62 300.56 163.30 296.37 166.47 295.43 Z" />
<path fill="#cb1c23" opacity="1.00" d=" M 131.37 307.47 C 135.44 305.84 140.07 310.89 137.68 314.73 C 136.25 317.97 131.31 318.58 129.12 315.82 C 126.62 313.22 127.97 308.50 131.37 307.47 Z" />
<path fill="#cb1c23" opacity="1.00" d=" M 183.52 319.58 C 187.33 317.79 191.99 321.94 190.50 325.92 C 189.57 329.56 184.40 330.85 181.85 328.07 C 179.21 325.65 180.20 320.85 183.52 319.58 Z" />
<path fill="#cb1c23" opacity="1.00" d=" M 271.47 320.61 C 275.25 318.76 279.94 322.86 278.53 326.85 C 277.64 330.52 272.47 331.86 269.89 329.10 C 267.23 326.72 268.17 321.91 271.47 320.61 Z" />
<path fill="#cb1c23" opacity="1.00" d=" M 321.43 331.44 C 325.25 329.98 329.70 333.98 328.26 337.92 C 327.26 341.82 321.54 342.88 319.09 339.78 C 316.61 337.16 318.01 332.43 321.43 331.44 Z" />
<path fill="#cb1c23" opacity="1.00" d=" M 118.44 338.45 C 122.25 336.97 126.72 341.00 125.26 344.93 C 124.19 349.09 117.88 349.89 115.69 346.27 C 113.73 343.56 115.26 339.37 118.44 338.45 Z" />
<path fill="#cb1c23" opacity="1.00" d=" M 158.43 359.55 C 162.22 357.85 166.74 362.05 165.25 365.95 C 164.25 369.82 158.54 370.88 156.22 367.63 C 153.95 365.08 155.24 360.62 158.43 359.55 Z" />
<path fill="#cb1c23" opacity="1.00" d=" M 299.39 362.46 C 303.14 361.01 307.44 365.13 306.00 368.93 C 305.04 372.73 299.51 373.87 297.11 370.80 C 294.54 368.19 296.01 363.49 299.39 362.46 Z" />
<path fill="#cb1c23" opacity="1.00" d=" M 137.52 377.60 C 141.31 375.79 145.96 379.90 144.52 383.88 C 143.61 387.52 138.47 388.84 135.89 386.12 C 133.21 383.72 134.17 378.86 137.52 377.60 Z" />
<path fill="#cb1c23" opacity="1.00" d=" M 726.44 391.44 C 730.19 390.04 734.46 394.15 733.00 397.95 C 732.03 401.77 726.45 402.87 724.07 399.76 C 721.53 397.13 723.03 392.44 726.44 391.44 Z" />
<path fill="#cb1c23" opacity="1.00" d=" M 86.41 395.45 C 90.25 393.95 94.74 398.01 93.25 401.96 C 92.16 406.09 85.90 406.88 83.71 403.28 C 81.70 400.59 83.26 396.40 86.41 395.45 Z" />
<path fill="#cb1c23" opacity="1.00" d=" M 115.51 395.60 C 119.29 393.77 123.93 397.87 122.54 401.83 C 121.65 405.52 116.42 406.89 113.86 404.07 C 111.22 401.66 112.19 396.87 115.51 395.60 Z" />
<path fill="#cb1c23" opacity="1.00" d=" M 42.51 412.59 C 46.29 410.80 50.93 414.86 49.53 418.83 C 48.67 422.51 43.48 423.87 40.89 421.11 C 38.21 418.71 39.18 413.87 42.51 412.59 Z" />
<path fill="#cb1c23" opacity="1.00" d=" M 66.44 427.62 C 70.25 425.74 74.98 429.88 73.51 433.89 C 72.60 437.54 67.41 438.86 64.86 436.08 C 62.24 433.68 63.18 428.93 66.44 427.62 Z" />
<path fill="#cb1c23" opacity="1.00" d=" M 75.47 461.61 C 79.26 459.77 83.94 463.86 82.53 467.85 C 81.65 471.53 76.45 472.87 73.88 470.10 C 71.22 467.71 72.18 462.90 75.47 461.61 Z" />
</g>
</svg>
