<?xml version="1.0" encoding="utf-8"?>
<!-- Generator: Adobe Illustrator 19.0.1, SVG Export Plug-In . SVG Version: 6.00 Build 0)  -->
<svg version="1.1" id="Слой_1" xmlns="http://www.w3.org/2000/svg" xmlns:xlink="http://www.w3.org/1999/xlink" x="0px" y="0px"
	 viewBox="234 -57 907 554" style="enable-background:new 234 -57 907 554;" xml:space="preserve">
<style type="text/css">
	.st0{fill:#FFFFFF;}
	.st1{fill:#CB1C23;}
</style>
<g>
	<path class="st0" d="M234-57h907v554H234V-57 M1026.3-39.8c-2.9,1.5-5.9,2.7-8.6,4.6c-1.4,2.6-1.2,5.8-2.6,8.3
		c-0.7,1.6-1.9,3-2.1,4.8c2.3,1.3,5.1,1.7,7.6,2.6c-3.9,1.7-7.6-1.3-11.5-1c-4.5,2.5-8.4,6.1-12.8,8.8c-11,8.1-22.9,15.6-31.5,26.4
		c-2.9,5.7-5.7,11.6-8.2,17.4c1.2,2.3,3.3,4.2,5.5,5.5c2.5,0.4,5,0.1,7.5,0c-0.2,1.9-0.3,3.8-0.5,5.7c-4.5,0.3-9.1-1-13.5-0.2
		c-1,3-0.9,6.6-3.1,9.1c-4.1,5.2-8.4,10.7-9.6,17.3c-1.3,1.1-2.7,2.1-4,3.1c-2.9-2.1-6-4.7-9.8-4.4c-4.2,0.4-8.5,1.9-11.8,4.7
		c-3.6,5.9-6,12.4-9.7,18.2c-4.5,1.1-9,1.9-13.5,3.1c0-1.5,1.4-3.4,0-4.6c-3.1-0.3-6.2-0.6-9.2-0.3c-2.5,1.4-3.9,4.2-6.3,5.8
		c-7.1,4.3-14.3,8.5-21.3,13.1c0.3,3.4,0.3,6.9,0.9,10.3c1.9,1.7,4.1,2.9,6.2,4.3c-1.7,1.7-3.3,3.4-3.9,5.8c-2.9,0.4-5.9,0.7-8.5,2
		c-2.1,1.1-2.5,3.6-3.3,5.7c-3.3-0.2-6.6-0.4-9.9-0.1c1.2,4.8,2.5,9.5,4.1,14.2c-6.2-1.1-12.8-2.2-17.8-6.3c2.2-0.4,4.4-0.8,6.5-1.3
		c-0.7-1.5-1.4-2.9-2.8-3.8c-5-3.4-9.5-7.6-14.8-10.7c-2.5,0.3-4.3,2.5-6.9,2.4c-3.2,0.2-7,0.1-9.3,2.8c-1.9,2.9-0.1,6.4,0.8,9.3
		c-4.4,2.1-8.6,5-13.4,6.2c-1.9-1-1-3.9-1.7-5.6c-5.3,0.9-10.3,3-15.5,4.2c-0.4,1-0.8,2.1-1.3,3.1c-1.4-1.3-2.2-4.4-4.5-3.6
		c-6.8,4.2-11.5,11-18.3,15.2c4.3-8.6,10.7-16.1,14.6-24.9c2.9-5.8,1-12.4-0.2-18.4c-2.2-2.7-5.7-4.3-8.4-6.5
		c-3.6,0.2-7.3,0.3-10.8,0.6c-2.1-0.2-3.3,1.8-4.6,3c-0.5-1.6-1.1-3.2-1.7-4.8c-1.7,0.3-3.4,0.7-5,1.1c1.3-1.7,2.6-3.5,3.8-5.3
		c-3.7-1.5-8.2-3.7-11.9-1c-2.6,3.4-4.6,7.2-7.1,10.7c0.4,1.9,0.7,3.8,1.1,5.7c-1.4,0.5-2.8,0.8-4.1,1.6c-0.2,1.6-0.3,3.3-0.3,4.9
		c-2,0.9-4.1,1.7-6.1,2.6c-0.7-1.2-0.9-2.9-2.1-3.7c-3.8-1.2-7.2,1.4-10.6,2.8c-0.6,1.1-1,2.3-1.7,3.4c-4.5,2.7-10.5,2.9-13.9,7.3
		c-4.3,4.9-9,10.7-7.5,17.7c-7.1,1-14.2,1.9-21.2,2.9c-0.8,4.3-1.5,8.5-1.8,12.9c1.2,3.2,4.4,5,6.2,7.7c0,1-0.1,3.1-0.2,4.1
		c-3.4-4.1-5.9-8.8-9.3-12.9c-0.5,0-1.6,0-2.1,0.1c-2.5-2.8-8.4-2-9.2,1.9c-0.9,3.1,2.5,4.5,4,6.5c-1.5-1-2.8-2.2-4.1-3.4
		c-0.5-0.1-1.6-0.2-2.1-0.3c0.9-3.4,2.6-7.4,0.7-10.7c-1.5-2.4-4.6-2.1-7-1.7c-0.3,2.5,0,5.1-0.8,7.5c-2.9,3.6-6.4,6.6-9.6,9.9
		c0.9,4.2,2.3,8.4,3.4,12.5c-2,2.9-4.2,5.6-5.6,8.8c0,3.2,0.9,6.4,1.5,9.5c5.1,0.6,11.4,1,14.5,5.8c1.7,2.2,3.3,7.6-0.9,8
		c-0.5-3.3,0.1-7.1-2.3-9.8c-3.2-2.8-8.1-2-11.6-0.1c-1.3,4.4-0.7,9.3-2.4,13.6c-4.5,4.8-9.5,10.5-16.4,11.4c-4,0.2-7-3-9.7-5.4
		c4.1,0.4,8.5,1.9,12.4,0.2c5.2-4.9,10.4-10.1,12.8-17c1.8-2.9-0.9-5.7-1.9-8.4c1.6-6.1,3.8-11.9,5.8-17.9c1.7-4.2-0.3-8.6-1-12.9
		c1.9-2.4,4-4.7,5.6-7.2c2-2.8,2.2-6.4,2.7-9.7c-4-1.7-7.9-3.4-11.9-5.1c-3,3.5-5.8,7.2-8.5,11c-3.2,4.7-8.8,7-12.9,10.9
		c-0.3,2.3,2.8,4.3,1.4,6.7c-1.7,3.9-4.5,7.2-7.1,10.6c1.7,1.2,3.4,2.4,5.2,3.5c-0.9,3.1-0.6,6.4,0.8,9.3l-2,1.9
		c-3.1-5.4-7.1-10.2-10.3-15.5c-2.2-3-4-6.7-7.5-8.4c-3.1-1.6-6-3.5-9.1-5c-1.4,0.8-2.5,1.8-3.8,2.8c0.3,2.8,0.4,5.6,0.5,8.3
		c-1.6,0.6-3.3,1.3-4.9,1.8c-0.3-2.2-0.6-4.3-0.9-6.5c-3.1,0-6.2,0.1-9.3,0.2c-4.2-2.3-9.1-2.8-13.7-1.2c-0.6-0.5-1.8-1.6-2.4-2.1
		c2.1-1.8,4.3-3.4,6.1-5.6c-0.1-0.5-0.3-1.5-0.4-1.9c-7.7-0.4-15.5-0.4-23.2-0.4c-4.3,0-8.6-0.6-12.8,0.1c-2.4,1.4-4.6,3.2-6.8,4.8
		c-0.7-0.3-2.2-0.8-2.9-1.1c-0.2-2.2-0.4-4.4-0.6-6.6c0.9-0.7,1.8-1.4,2.7-2.1c2,0.6,4.3,3.1,6.2,1.3c3.6-2.6,4.7-8,1.9-11.6
		c-2.4-2.8-5.2-5.6-8.9-6.7c-0.7,2.2-0.6,4.6-1.4,6.8c-2.1,3.6-5.9,5.7-9.5,7.4c0,2.4,0,4.8,0,7.2c-1.9,0.6-3.8,1.3-5.7,1.9
		c-1.3-2.4-2.4-4.9-4.1-7.1c-5.4-0.9-11.2-1.2-16.4,0.8c-3.7,1.3-4.9,5.4-6.8,8.4c-0.7-1.1-1.4-2.1-2.1-3.2c-2.2-3.1-1-7.5-3.5-10.4
		c-2.8-2.8-8.2-0.5-8.5,3.4c-0.2,2.6,0.5,5.2,1,7.7l-3.3,2.4c-1.8-4.5-2.4-9.4-3.4-14.1c4.6-4.8,9.5-9.4,14-14.4
		c-0.9-3.5-1.7-7-2.7-10.5c0.8-0.8,1.5-1.5,2.3-2.3c1.4,6.1,2.9,12.2,5.2,18c1.7,3.8,3.9,7.8,8,9.4c3.9,1.6,8,2.6,12.2,2.9
		c2.7,0.1,5.8-0.4,7.3-2.9c2.8-4.2,2.6-9.5,2.3-14.4c-0.2-4.1-2.4-7.9-2.9-11.9c-0.6-3.8,0.2-7.7-0.5-11.4
		c-1.8-3.9-3.8-7.6-5.4-11.6c3-2.1,4.9-7.6,1.3-10c-5.9-2.1-12.6-0.5-18.3-3.2c-3.5,1.4-7.1,2.8-10.2,4.9c-1.5,3.7-2,7.6-3.1,11.4
		c-2.7,0.3-5.4,0.6-8.1,1c-1.8,5.1-4,10.4-8.4,13.9c-2.4,2.2-5.4,3.5-8,5.3c-2.3,2.7-3.6,6.2-5.7,9.1c-2.2,1.6-4.9,2.2-7.3,3.4
		c0,3.5-0.1,7.1-0.4,10.6c-6.1,2.8-12.8,4.6-19.5,3.5c-5-0.5-11.2-1.8-15.1,2.3c-2.2,3.2-1,7.3-0.2,10.8c-2.9-1.2-5.7-2.7-8.7-3.4
		c-4.2,0.5-8.2,2-12.3,3.1c-3.2,0.5-3.8,4.2-5.7,6.3c-1.9,1.1-4.6,1-5.7,3.2c-2.9,5.1-6.6,9.7-9.1,14.9c1.6,5.7,4.8,10.8,6.9,16.4
		c-3.5,3.1-6.9,6.6-8.7,11c-2.9,5.7-0.5,12.2-2.3,18.1c-1.8-0.4-4.4-0.2-5.2-2.3c-1.2-1.4-1.3-4.7-3.8-4.1c-2.7,4.2-4.1,9-7,13.1
		c1.5,1.1,3,2.1,4.4,3.4c0.7,1.7,0.9,3.6,1.4,5.4c2,0.2,4,0.4,6,0.6c-0.5,1.9-1.1,3.8-1.6,5.7c-1.9,0.6-3.7,1.2-5.6,1.8
		c1,4,2.5,7.8,3.9,11.6c-0.8,2.4-2,4.7-2.1,7.3c0.7,2.1,1.6,4,2.7,6c1.1,2.6,4.5,2.1,6.8,3c0.5,3.7,0.9,7.4,0.8,11.2
		c-0.5,5,6.5,8.4,3.9,13.5c-2.4,1.5-5.3,1.1-8,1.2c-1.3,2.1-2.6,4.3-3.9,6.5c-3.3-2-6.8-4.7-10.9-3.7c-2.6,1.6-6,3.9-4.8,7.5
		c-2.7-0.5-5.3-1-8-1.3c-0.1,2-0.2,3.9-0.2,5.9c-3.6-1.1-7.4-0.5-10.2,2.2c-2.2-1.2-6.2-4.4-7.9-1c-0.6,6.2,2.2,12,3.5,18
		c1.8,6.3,1.8,12.9,2.2,19.4c1.6,0.7,3.4,1.1,5.1,1.6c1.8,3.6,3.3,7.3,5.9,10.3c1.8,2.2,4.2,3.9,5.9,6.3c1.6,4.5,2.6,9.4,6,12.9
		c2.4,2.5,6.9,2.1,8.8,5.3c1.9,2.8,0.3,6.3,0.9,9.4c0.3,2.7,2.3,4.7,4,6.7c3.4,3.4,0.8,9.4,3.8,12.7c4.6-0.2,9-1.4,13.4-2.3
		c0.2-6-0.3-12-0.2-18.1c1.7-2.8,3.5-5.5,5.4-8.3c-0.4-3.5-0.9-7.1-1.4-10.6c5.5-0.5,11.4-2.3,14.5-7.3c5.6,0.5,11.2,1.3,16.8,1.5
		c0-1.6-0.1-3.2-0.3-4.8c1-0.7,2.3-1.3,3.1-2.2c0.8-3.7,0.7-7.7,0.1-11.4c-0.6-3.2-3.1-5.4-5.3-7.6c1.2-2.9,1-6.1,0.8-9.2
		c2-1.9,4.4-3.2,6.7-4.6c0.3-1.5,0.6-2.9,0.9-4.3c2.4-1.4,4.8-2.8,7.3-4.1c1.1,2.8,1.9,5.8,3.4,8.5c1.2,1.9,3.7,2.2,5.5,0.9
		c1.8-1.9,2.1-5.3,4.8-6.2c5.7-2.3,11.9-2.1,17.9-2.2c0.1,0.7,0.5,2.2,0.6,2.9c3.1,0.2,6.2,0.2,9.3,0.3c-0.4,1.6-0.8,3.2-1.3,4.8
		c2.2,1.2,5,2,6.1,4.5c1.7,3.8,1.8,8.1,2.4,12.2c1.3-0.3,2.6-0.5,3.9-0.8c1.1,2.3,1.7,5.1,3.6,6.9c3.4-0.3,6.5-2.1,9.6-3.5
		c1.1,2.2,2.1,4.5,3.5,6.5c2.7-0.1,5.3-1,8-1.2c0.4,2.3,0.2,4.6,0.8,6.9c1.2,3,4.4,4.5,6.9,6.3c1.7-1.2,3.1-3.1,5.2-3.4
		c2.3,1,3.9,2.9,5.9,4.4c2.4-2.7,5.5-5,7.2-8.2c-1-3.5-3.9-6.1-5.6-9.2c1.8-0.2,3.6-0.2,5.4-0.7c0.5-2.6,0.8-5.3,1.6-7.9
		c2.3,0.1,4.6,0.7,6.7,1.8c1.4,0.6,4.5,2,3.9-0.8c-1.5-3.6-3.8-7-3.9-11.1c4.6-0.3,8.7,2.4,13,3.5c3.9,1,7.9,1.4,11.9,1.5
		c3.8,0.2,7.4-1.3,11.1-1c4.7,0.2,9.1,2.8,13.9,2.4c2.7-0.2,4.6-2.3,6.5-3.8c3.6,1.6,7.3,3.1,11,4.5c0.6,5.3,0.3,10.8,1.8,15.9
		c1.9-0.4,3.8-1.2,5.7-0.9c2.1,0.1,3.2,2.2,4.5,3.6c-0.5,3-0.8,7.9,3.4,8.1c7.5-0.3,14.7-2.8,21.7-5.5c-0.6,1.2-1,2.5-1.4,3.7
		c2.3,4.1,6.1,7.2,8.3,11.5c4.4,9.7,7.5,19.9,12,29.6c0.4,0.2,1.2,0.7,1.6,0.9c1.7-1.6,3.2-3.4,4.7-5.2c0.8,2.6,0.5,6,2.5,8.1
		c5.8,0.2,11.6-0.6,17.5-0.8c3.6,6.2,7.6,12.4,13.3,17c3,2.6,6.8,0.8,9.8-0.8c1,2.3,1.8,4.7,3.4,6.7c2.4,0.9,4.9,1,7.4,1.3
		c1.4-1.5,2.7-3,4.4-4.2c3.1-2,6.9-1.8,10.4-2.6c0.5-1.4,0.7-2.8,1-4.2c5.6-2.5,11-5.5,16.7-8c3-1.5,6.5-0.6,9.7-0.4
		c2.3,0.4,4.7,0.5,6.8,1.8c2.2,1.6,2.4,4.5,3.1,6.9c6.8,0.2,13.7-0.3,20.5-0.4c4.2,0,6.9-3.8,10-6.1c-1.5-3.9-2.8-7.8-4.3-11.7
		c2.3-3.6,4.9-7,7.4-10.5c7.2,1.5,14.4,3.2,21.7,4.7c0.8,2.9,1.5,5.9,2.6,8.7c0.3,1.2,1.7,1.5,2.6,2c3.8,1.5,7.6,2.7,11.5,4
		c4-5,9.8-8.7,16.4-8.2c6.3,0.5,14.3,0,18.1,6.1c6.6-0.3,13.3-0.8,19.9-1.1c2.1-0.2,4.4,0,6.1-1.5c4-3.1,8.3-5.9,11.6-9.6
		c1.8-3.7,2.5-8.3,6.1-10.8c3.7-2,7.6,0.6,11.3,1.5c1.9-1,3.4-2.7,4.9-4.2c3.5,1.2,7.5,2.8,11.2,1.3c3.3-1.3,4.6-4.9,6.7-7.5
		c1.5-2.1,3.9-3.3,5.8-4.9c-1.1-1.9-2.4-3.5-3.7-5.2c0-4-0.1-7.9,0-11.9c-0.3-3.7,2.4-6.6,3.7-9.9c-2.9-2.6-5.9-5.1-8.8-7.7
		c2.7-7.8,10.7-11.8,16.9-16.4c3.5,0.7,7.3,2.1,10.8,0.5c2.6-0.8,5.8-2.3,8.2-0.3c10,8.8,19.5,18.2,30,26.5
		c5.6-1.4,11.2-4.6,17.1-3.3c2.7,0.5,5.5,0.2,8.2-0.4c3.7,3.9,7,9.4,12.8,9.9c4.8-1.1,7.2-5.9,9.2-9.9c2.3-5,5.6-9.3,8.4-14
		c1.5,2.4,3,4.8,4.5,7.1c-0.5,1.9-1,3.8-1.2,5.7c1.3,4.1,3.9,7.8,5,12c0.5,4.6,0.3,9.2,1.4,13.7c-3.2,0.6-6.5,0.7-9.7,1.8
		c-0.9,4.1-1.9,8.1-2.4,12.3c2.2,2.2,5.6,2.9,7.2,5.8c2,3.3,3.7,6.8,6,9.9c-2.2,2.9-4.5,5.7-6.5,8.8c2.9,2.6,7.1,2.7,10.7,3.7
		c2.4-4.4,4.5-9,3.7-14.1c4.7-1.4,9.7-2,14.1-4c2.3-4.6,4.2-9.4,6.4-14c1.1-2.1,1-4.5,1-6.8c-0.3-9.7-0.5-19.3-0.6-29
		c0-7.8-2.7-15.2-3.7-22.9c-1.2-5.7,0.4-11.5,0.2-17.3c0.1-2.8-2.2-4.8-3.7-6.9c-8.6-10.5-16.6-21.9-21.1-34.8
		c3.4,2.2,7,4.1,10.9,5.2c7.2,9.4,13.7,19.5,23.3,26.6c2.6,4.1,4.2,8.9,7.6,12.5c3.7,4.8,9,7.8,14.5,10.1c0.4-0.3,1.1-0.9,1.4-1.2
		c-0.7-3.1-1.8-6.1-2.6-9.2c3.6,0,7.3,1.1,10.8,0c-0.4-3.2-3.3-5.4-5.3-7.6c-5.7-2.2-11.7-3.5-17.4-5.8c-2.2-5.3-4.5-10.5-6.3-15.9
		c3.1-1.7,6.5-3.1,9.2-5.6c-11.5-7.4-23.8-13.2-35.6-20.1c-0.6-1.4-1-3.1-2.2-4.2c-4.8-4.9-9.7-9.6-14.5-14.6
		c-2.7-3.9-9.9,2-6.6,5.4c2.1,2,4.8,3.2,6.8,5.3c-0.7,2-2,3.8-2.2,6c-0.1,4.7,4.1,7.7,6.3,11.3c-3.1-2.8-6.6-5.4-7.5-9.6
		c-5.4-0.5-10.8-1.7-16.3-1.5c-2.3,1.7-4.4,3.8-6.5,5.6c1.1,2.1,2.2,4.3,3.3,6.4c-1,0.7-2,1.5-3,2.2c-0.8-1.8-1.5-3.7-2.3-5.5
		c-2.7,0.5-5.3,1.4-7.6,2.9c-0.9-0.9-1.9-1.7-2.8-2.6c-2.8,2.1-5.7,4.1-8.8,5.6c1.8-6.8,3.5-13.7,4.3-20.7c0.6-4.8-2.2-9.3-2-14.1
		c0.2-5.4,2.1-10.5,3.6-15.6c-1.4-1.9-2.8-3.9-4.2-5.8c1.2-2.8,3-5.5,3-8.6c0.2-2.4-1.5-4.4-2.6-6.3c3.6-4.1,7.4-8.1,10.8-12.4
		c2-0.2,4.4,0.5,5.9-1c0.8-1.3,1.1-2.9,1.6-4.4c1.6-0.6,3.3-1.1,4.7-2.2c0.8-1.4,1-3,1.3-4.5c1.4-1.2,3.7-2,3.5-4.2
		c0-2.4-0.8-4.6-1.4-6.9c3-1.7,6.1-3.2,9.2-4.7c-0.1,1.6-1.2,3.7,0.5,4.7c2.1,1.8,5.8,3.3,7.9,0.6c2.8-4.2,1.5-9.8,3.7-14.2
		c1.6-2.8,5-4.4,6-7.6c0.2-2.5-1.8-4.2-3.3-5.9c-1.6,1.2-3,2.5-4.5,3.7c-4.1-9.6-6.3-19.9-8.7-30.1c2.2-2.8,4.1-5.7,6.2-8.5
		c3,4.3,8.5,6.9,13.7,4.8c-0.3-7.4-3.6-14.6-2.6-22.1c-2.6-2.3-5.1-4.7-7.6-7.1c1.4-2.9,2.6-6,5.2-8.1c-0.7,2.9-1.8,5.6-2.9,8.4
		c3.9,3.2,7.8,6.4,12,9.3c0.2,3.8,0.1,7.6,0.5,11.3c3.3,11.2,7.7,22,10.4,33.4c0.8,3.4-0.2,6.7-0.6,10.1c2.1,1.7,4.9,2.8,6.3,5.3
		c1.4,2.9,1.4,6.3,1.5,9.5c3.5,4.2,6.7,8.6,10.7,12.3c15.1,8.2,30.9,15,46.2,22.9c1.1,0.6,2.3,1.1,3.5,0.8
		c1.8-9.2-1.1-19.3-8.6-25.3c0.4-4.8,1-10.3-2.1-14.4c-2.3-2.2-5.4-3.4-7.9-5.3c0.2-1.7-0.5-3.7,0.7-5c1.5-2.2,4.1-4.5,2.9-7.4
		c-2.6-3.9-7.4-5.3-11.3-7.6c-0.5-1.8-1-3.7-1.5-5.5c0.8-2,2.3-4,2.3-6.3c-1.6-3.7-6.2-2.6-9.4-2.6c-3.7-1.4-6.1-4.6-9.1-7.1
		c-4.2-2.2-4.8,3.7-6.1,6.3c-5.1-6.1-9.3-13-14-19.4c1.2-1.7,2.7-3.4,3.4-5.4c0.6-2.7-0.2-5.5-0.7-8.2c1.9,1,3.8,2.2,6.1,2.4
		c0.4-3.7-2.5-6.5-3.9-9.6c0.4-3.2,1-6.4,1.5-9.7c4.2-1.9,8.6-3.4,12.7-5.4c-1.8-3.3-5.5-5.4-6.1-9.3c-3.4-14-7-27.9-10.3-42
		c2.7-3.3,6-6.1,8.3-9.7c-2.4-1.9-4.8-3.7-7.2-5.4c-3.2,1.4-6.3,3.1-9.8,3.4c-2.4-0.3-4.4-1.4-6.6-2.4c-2.9,1.8-5.6,4-8.9,4.9
		c0.9-1.6,1.9-3.2,2.9-4.7c-1.1-4.2-2.3-8.4-3.5-12.5c-4.3-0.6-10.3,0.5-12.5-4.3c3.4,0.2,6.8,0.3,10.2-0.2c1-3.9,1.4-8.3,4.3-11.5
		c1.9-0.3,3.8,0,5.7-0.2c2.7-3.1,4.6-8,9.5-7.7c1.3-1.8,2.8-3.6,3-5.9c-0.2-2.3-1.8-4.5-4-5.1c-4.5-1.5-9.1-2.6-13.7-3.7
		c0.8-3,2.2-5.8,2.3-8.9C1033.6-39.9,1029.6-42.1,1026.3-39.8 M955.8-17.1c-1.2,0.1-2.5,0.2-3.7,0.4c-0.1,2.8,0.2,5.7,0.5,8.5
		c0.4,2.7,2.7,4.4,4.7,5.9c1.4,1.1,4.2,1.9,5.2-0.2c2.1-4.1,2.9-8.9,2.9-13.6c0.1-2.4-1.4-4.3-3.2-5.8
		C960-20.3,957.9-18.7,955.8-17.1 M581.9,43.9c-2.1,4,2.4,7.5,6.1,7.3c3.3-0.2,6.7-0.9,9.6-2.5c2.5-1.7,2.6-5.3,1.5-7.9
		c-1.1-3.3-4.6-4.9-7.6-6.1C586.4,32.5,579.5,38.6,581.9,43.9 M603.1,43.2c-1.3,3.2,0.4,6.5,0.4,9.7c0.2,2.7-0.5,6.7,2.7,7.9
		c4.4,0.6,9.1,1,13.2-1c4.2,2.1,8.8,0.9,12.3-1.9c0.1-2.5,0.7-5.4-1.5-7.2c-3.1-3.1-7.5-0.3-10.7,1c-1.3-0.9-2.6-1.9-3.8-3
		c0.7-0.5,2.1-1.6,2.8-2.1c0.1-3.3-1.1-6.3-2.6-9.1C611.6,39,606.9,40.4,603.1,43.2 M684,73c0.6,3.1,3.8,5.1,4.8,8
		c-0.1,3.8-1.1,8.3,1.8,11.3c3.8,3.5,9.4,3.4,14.2,3.8c-0.1,3.7-1.6,8.7,2,11.2c3,0.1,5.3-2.4,8.1-3.3c3.8-1.3,8.7-2,10.6-6.2
		c1.3-5.6-2.5-11.7-8-13.2c-1.9-2.9-5.2-2.3-8-1.1c-0.5-4.7-3.9-8.4-8.4-9.7c0.6-6.6-3.8-11.7-7.6-16.4
		C686.9,59.4,684.7,66.8,684,73 M850.6,64.4c-2.1,1.2-5,2-5.7,4.7c-2.6,1.2-5.3,2.5-8.1,3.2c-2.4,0.1-4.8-0.2-7.1-0.2
		c0.4,2.4,1,4.8,1.6,7.1c-3-0.2-6.1-0.2-9.2-0.1c-0.1,5,0.2,10.4,3.1,14.6c3,3.4,8.5,3.3,12.4,1.8c4.7-3.4,7.7-8.6,10.5-13.5
		c2-3.7,0.1-7.8-1.3-11.3c1.2,1.7,2.5,3.4,3.8,5.1c4.7-1,9.4-2,14-3.1c0.9-3.9,1.8-7.9,2.2-12c-2.3-0.3-4.5-0.7-6.8-0.6
		C856.7,61.1,853.7,63,850.6,64.4 M849,96.1c-1.8,2.8-1.3,6.5-0.8,9.7c0.4,1.1,0.5,3.5,2.3,2.7c4-2.2,7.5-5.2,11.3-7.8
		c1.5-1,2.7-2.4,3.5-4C860.7,92.9,853.7,92,849,96.1 M602.1,110.6c-9.3,0.4-18.7-0.1-27.7,2.9c-6,7.4-16.1,9.9-21.6,17.8
		c-5.4-0.7-7.5,4.8-10.5,8c-2.3,2.8-7.4,2.6-8.4,6.5c-2.1,8.3-0.2,18,6,24.2c2.3,2.3,5.4,5.2,9,4.2c2-2.4,1.1-5.6,0.9-8.4
		c-0.3-3.9-0.5-7.9,0.3-11.7c2.4-4.4,6.3-7.9,9.9-11.4c9.3-8.3,21.6-11.9,30.9-20.1c6.7-0.2,13.5,0,20-1.8c2.8-0.7,5.7-2.3,6.9-5.1
		c1.3-3.2-0.7-7.1-3.8-8.4C609.7,106.8,606.3,110.6,602.1,110.6 M260,171.8c1.3,4.1,4.4,7.2,6.7,10.6c2.3,3.4,4.7,6.6,7.2,9.8
		c3.4-0.7,6.7-1.6,10-2.7c-1-5.9-2.1-11.8-4-17.5c-2.1-0.4-3.4,1.6-4.9,2.7c-1.1-1.3-2.1-2.6-3.3-3.8
		C267.8,170.6,263.9,171.3,260,171.8z"/>
	<path class="st0" d="M392.4,170.5c5.4-2.8,12.5-0.5,15.5,4.7c2.3,3.8,2.1,8.7-0.2,12.4c-3.3,5.3-6.8,10.5-10.1,15.8
		c-3.4-5.6-7.1-11-10.5-16.6C383.7,181.2,386.4,173.1,392.4,170.5 M395.5,175.6c-3.3,1.3-4.3,6.1-1.6,8.5c2.6,2.8,7.8,1.4,8.6-2.3
		C404,177.9,399.3,173.8,395.5,175.6z M369.1,177.2c6-2.7,13.7,0.8,15.7,7.1c1.5,3.7,0.6,7.8-1.5,11.1c-3.2,5.1-6.5,10.1-9.8,15.1
		c-3.4-5.6-7.1-11-10.5-16.5C359.5,188,362.6,179.5,369.1,177.2 M371.4,182.6c-3.3,1.3-4.2,6.1-1.6,8.4c2.6,2.8,7.8,1.4,8.7-2.2
		C380,184.8,375.2,180.7,371.4,182.6L371.4,182.6z M639,177.9c1.3-0.4,3,1.6,2.7,2.9C640.3,181,638.6,179.2,639,177.9z M623.4,188.1
		c0.8-2.1,1.6-4.2,2.3-6.3c-0.1,1.3-0.3,2.6-0.4,3.9c2.2,2.2,4.3,4.3,6.3,6.6C629,191,626.2,189.6,623.4,188.1L623.4,188.1z
		 M374.2,214.2c4-4.5,11.4-5.1,16.1-1.5c4.7,3.3,6.4,10.1,3.5,15.1c-3.3,5.7-7.1,11.1-10.6,16.7c-3.7-5.3-7-10.8-10.5-16.2
		C370,223.9,370.7,217.9,374.2,214.2 M381.4,216.5c-3.1,1-4.6,5.1-2.7,7.8c2.2,3.6,8.5,2.8,9.6-1.4
		C389.7,218.9,385.2,214.9,381.4,216.5z M431.2,232.3c6.7-3.1,15.6,1.3,16.8,8.7c1.2,4.8-1.7,9.1-4.3,12.8
		c-2.7,3.8-5.2,7.7-7.7,11.6c-3.4-5.7-7.5-10.9-10.8-16.6C421.8,242.9,424.9,234.6,431.2,232.3 M434.3,237.5c-3.1,1-4.7,5.1-2.6,7.8
		c2.1,3.6,8.3,2.7,9.3-1.3C442.5,240.1,438.1,236,434.3,237.5z M398,233c6.6-2.5,14.8,1.9,16,8.9c1.2,4.8-1.7,9.1-4.3,12.9
		c-2.7,3.8-5.2,7.7-7.7,11.6c-3.4-5.7-7.5-11-10.8-16.7C387.7,243.6,391.2,234.9,398,233 M400.5,238.4c-3.2,0.9-4.8,5.1-2.8,7.9
		c2.1,3.6,8.3,2.8,9.3-1.3C408.4,241.1,404.2,237.1,400.5,238.4z M355.7,251.7c2.3-6.1,10.1-9,16-6.5c6.1,2.2,9.4,10,6.4,15.9
		c-3.1,6.1-7.6,11.4-11.1,17.3c-3.1-5-6.4-9.9-9.8-14.8C354.9,260.2,354,255.6,355.7,251.7 M365.4,250.5c-3.4,1-4.8,5.8-2.3,8.4
		c2.2,2.8,7.1,2.1,8.6-1.1C374.1,253.9,369.4,248.8,365.4,250.5z M409.6,261.6c3.2-5,10.5-6.8,15.6-3.8c5.6,2.9,8,10.6,4.8,16.1
		c-3.3,5.6-7.1,11-10.5,16.6c-3.3-5.4-6.8-10.6-10.1-15.9C406.9,270.6,407,265.4,409.6,261.6 M417.5,262.6c-3.3,1.3-4.3,6.1-1.7,8.5
		c2.5,2.8,7.7,1.5,8.6-2.1C426,264.9,421.3,260.8,417.5,262.6z M502.4,258.5c5.4-2.7,12.5-0.5,15.5,4.8c2.3,3.7,2.1,8.6-0.2,12.3
		c-3.3,5.4-6.8,10.5-10.1,15.8c-3.4-5.5-7-11-10.5-16.5C493.6,269.3,496.4,261.1,502.4,258.5 M505.5,263.6c-3.3,1.3-4.2,6.1-1.6,8.5
		c2.6,2.8,7.8,1.4,8.6-2.3C513.9,265.9,509.3,261.8,505.5,263.6L505.5,263.6z M552.3,269.3c5.4-2.5,12.5-0.3,15.4,5
		c2.2,3.7,2.1,8.5-0.1,12.1c-3.3,5.5-6.8,10.8-10.4,16.1c-3.6-5.6-7.3-11.2-10.7-16.9C543.1,279.8,546.1,271.8,552.3,269.3
		 M555.4,274.4c-3.4,1-4.8,5.7-2.3,8.3c2.5,3.1,8.2,2,9.2-1.9C563.7,277,559.3,273,555.4,274.4L555.4,274.4z M345.7,278.7
		c4.2-4.2,11.7-4.6,16.2-0.6c4.3,3.4,5.6,9.9,2.9,14.7c-3.3,5.7-7.1,11.1-10.6,16.7c-3.7-5.3-7-10.8-10.5-16.3
		C340.9,288.7,341.8,282.4,345.7,278.7 M352.4,281.4c-3.2,0.9-4.7,5.1-2.8,7.8c2.2,3.6,8.5,2.8,9.6-1.3
		C360.7,284,356.2,280,352.4,281.4z M389.4,297.4c5.6-2.7,13,0,15.6,5.6c1.8,3.6,1.6,8-0.5,11.4c-3.3,5.5-6.9,10.7-10.2,16
		c-3.5-5.5-7-10.9-10.4-16.4C380.3,308.3,383.2,299.9,389.4,297.4 M392.4,302.5c-3.2,1.1-4.5,5.5-2.2,8.1c2.3,3.3,8,2.2,9-1.7
		C400.7,305,396.2,300.8,392.4,302.5L392.4,302.5z M530.3,300.3c5.9-2.6,13.6,0.3,16,6.4c1.7,3.7,1,8.1-1.2,11.4
		c-3.2,5.2-6.9,10.1-10.1,15.4c-3.4-5.7-7.5-10.9-10.8-16.6C520.8,310.9,523.9,302.5,530.3,300.3 M533.4,305.5
		c-3.4,1-4.9,5.7-2.3,8.3c2.4,3.1,7.9,1.9,8.9-1.9C541.4,308.1,537.1,304,533.4,305.5L533.4,305.5z M368.4,315.5
		c5.4-2.7,12.5-0.5,15.4,4.7c2.3,3.8,2.2,8.7-0.2,12.4c-3.3,5.4-6.8,10.5-10.1,15.8c-3.4-5.5-7.1-11-10.5-16.5
		C359.6,326.3,362.4,318.1,368.4,315.5 M371.5,320.6c-3.4,1.3-4.3,6.1-1.6,8.5c2.6,2.7,7.7,1.4,8.6-2.2
		C380,322.9,375.3,318.8,371.5,320.6z M957.3,329.3c5.9-2.6,13.6,0.3,16,6.4c1.7,3.7,1,8.1-1.2,11.4c-3.2,5.2-6.9,10.1-10.1,15.3
		c-3.4-5.7-7.5-11-10.8-16.7C947.8,339.9,950.9,331.5,957.3,329.3 M960.4,334.4c-3.4,1-4.9,5.7-2.4,8.3c2.4,3.1,8,2,8.9-1.8
		C968.5,337.2,964.2,333,960.4,334.4z M312.7,336.8c3.8-4.9,11.6-5.9,16.6-2.1c4.7,3.3,6.4,10.1,3.5,15.1
		c-3.3,5.7-7.1,11.1-10.6,16.7c-3.6-5.1-6.8-10.4-10.1-15.6C309.2,346.6,309.5,340.7,312.7,336.8 M320.4,338.4
		c-3.1,1-4.7,5.1-2.7,7.8c2.2,3.6,8.4,2.8,9.5-1.3C328.7,341,324.3,336.9,320.4,338.4L320.4,338.4z M346.4,333.5
		c5.4-2.7,12.5-0.5,15.4,4.8c2.3,3.7,2.1,8.7-0.2,12.4c-3.2,5.4-6.8,10.5-10.1,15.8c-3.5-5.5-7.1-11-10.5-16.5
		C337.6,344.2,340.4,336.1,346.4,333.5 M349.5,338.6c-3.3,1.3-4.3,6.1-1.6,8.5c2.6,2.8,7.8,1.5,8.7-2.2
		C357.9,340.9,353.3,336.8,349.5,338.6z M273.4,350.5c5.4-2.7,12.5-0.5,15.4,4.8c2.3,3.8,2.1,8.7-0.2,12.4
		c-3.3,5.3-6.8,10.5-10.1,15.8c-3.4-5.5-7.1-11-10.5-16.5C264.6,361.2,267.4,353.1,273.4,350.5 M276.5,355.6
		c-3.3,1.3-4.3,6.1-1.6,8.5c2.6,2.8,7.8,1.4,8.6-2.3C284.9,357.9,280.3,353.8,276.5,355.6z M297.4,365.5c5.4-2.7,12.5-0.5,15.4,4.8
		c2.3,3.7,2.1,8.6-0.2,12.3c-3.3,5.4-6.8,10.6-10.1,15.9c-3.4-5.5-7.1-11-10.5-16.5C288.6,376.3,291.4,368.1,297.4,365.5
		 M300.4,370.6c-3.3,1.3-4.2,6.1-1.6,8.5c2.5,2.8,7.7,1.5,8.6-2.2C309,372.9,304.2,368.7,300.4,370.6z M307.1,399.2
		c6-2.6,13.6,0.8,15.7,7c1.5,3.7,0.6,7.8-1.5,11.1c-3.2,5.1-6.5,10.1-9.7,15.2c-3.4-5.6-7.1-11-10.5-16.6
		C297.5,409.9,300.7,401.5,307.1,399.2 M309.5,404.6c-3.3,1.3-4.3,6.1-1.6,8.5c2.6,2.8,7.8,1.4,8.6-2.3
		C317.9,406.9,313.3,402.8,309.5,404.6z"/>
</g>
<path class="st1" d="M1026.3-39.8c3.3-2.2,7.3-0.1,10.7,1.1c-0.1,3.1-1.5,6-2.3,8.9c4.6,1.1,9.2,2.2,13.7,3.7c2.3,0.6,3.9,2.8,4,5.1
	c-0.2,2.3-1.7,4.1-3,5.9c-4.9-0.3-6.9,4.6-9.5,7.7c-1.9,0.1-3.8-0.1-5.7,0.2c-2.9,3.1-3.3,7.5-4.3,11.5c-3.4,0.5-6.8,0.4-10.2,0.2
	c2.2,4.9,8.2,3.8,12.5,4.3c1.2,4.2,2.4,8.3,3.5,12.5c-1,1.6-2,3.1-2.9,4.7c3.3-0.9,6-3.1,8.9-4.9c2.1,0.9,4.2,2.1,6.6,2.4
	c3.5-0.3,6.7-2,9.8-3.4c2.5,1.7,4.9,3.5,7.2,5.4c-2.4,3.6-5.6,6.4-8.3,9.7c3.4,14,6.9,28,10.3,42c0.6,3.9,4.3,6,6.1,9.3
	c-4.1,2-8.5,3.5-12.7,5.4c-0.5,3.2-1,6.4-1.5,9.7c1.5,3.1,4.3,6,3.9,9.6c-2.2-0.2-4.1-1.4-6.1-2.4c0.6,2.7,1.3,5.4,0.7,8.2
	c-0.7,2.1-2.2,3.7-3.4,5.4c4.7,6.4,8.9,13.3,14,19.4c1.3-2.6,1.9-8.5,6.1-6.3c3,2.4,5.4,5.7,9.1,7.1c3.1-0.1,7.8-1.1,9.4,2.6
	c0.1,2.3-1.4,4.2-2.3,6.3c0.5,1.8,1,3.7,1.5,5.5c3.9,2.3,8.7,3.7,11.3,7.6c1.2,2.9-1.4,5.2-2.9,7.4c-1.3,1.4-0.5,3.4-0.7,5
	c2.5,1.9,5.6,3.1,7.9,5.3c3.1,4.1,2.5,9.6,2.1,14.4c7.5,6,10.4,16,8.6,25.3c-1.3,0.3-2.5-0.2-3.5-0.8c-15.2-7.9-31.1-14.7-46.2-22.9
	c-4-3.6-7.3-8.1-10.7-12.3c-0.1-3.2,0-6.5-1.5-9.5c-1.3-2.5-4.1-3.6-6.3-5.3c0.3-3.4,1.4-6.7,0.6-10.1c-2.7-11.4-7.1-22.2-10.4-33.4
	c-0.4-3.8-0.3-7.5-0.5-11.3c-4.1-2.9-8.1-6.1-12-9.3c1-2.8,2.2-5.5,2.9-8.4c-2.6,2-3.9,5.1-5.2,8.1c2.5,2.4,5,4.8,7.6,7.1
	c-1,7.5,2.3,14.7,2.6,22.1c-5.2,2.1-10.7-0.5-13.7-4.8c-2.1,2.9-4,5.8-6.2,8.5c2.3,10.2,4.5,20.4,8.7,30.1c1.5-1.2,3-2.5,4.5-3.7
	c1.5,1.6,3.5,3.4,3.3,5.9c-1,3.2-4.4,4.8-6,7.6c-2.2,4.4-0.9,10-3.7,14.2c-2.1,2.7-5.8,1.2-7.9-0.6c-1.8-1.1-0.6-3.1-0.5-4.7
	c-3.1,1.5-6.2,3.1-9.2,4.7c0.6,2.3,1.4,4.5,1.4,6.9c0.1,2.2-2.1,3-3.5,4.2c-0.4,1.5-0.6,3.1-1.3,4.5c-1.4,1.1-3.1,1.5-4.7,2.2
	c-0.5,1.5-0.8,3-1.6,4.4c-1.5,1.6-4,0.8-5.9,1c-3.3,4.4-7.2,8.3-10.8,12.4c1.1,2,2.8,3.9,2.6,6.3c0.1,3.1-1.7,5.9-3,8.6
	c1.3,2,2.8,3.9,4.2,5.8c-1.5,5.1-3.5,10.2-3.6,15.6c-0.2,4.8,2.6,9.2,2,14.1c-0.8,7-2.4,13.9-4.3,20.7c3.1-1.6,6-3.5,8.8-5.6
	c0.9,0.9,1.9,1.7,2.8,2.6c2.3-1.5,4.9-2.4,7.6-2.9c0.8,1.8,1.5,3.7,2.3,5.5c1-0.8,2-1.5,3-2.2c-1.1-2.1-2.2-4.3-3.3-6.4
	c2.2-1.9,4.2-3.9,6.5-5.6c5.4-0.1,10.8,1,16.3,1.5c1,4.2,4.5,6.9,7.5,9.6c-2.3-3.7-6.4-6.7-6.3-11.3c0.2-2.1,1.5-4,2.2-6
	c-2-2-4.8-3.2-6.8-5.3c-3.3-3.5,3.9-9.3,6.6-5.4c4.8,4.9,9.7,9.7,14.5,14.6c1.1,1.1,1.5,2.8,2.2,4.2c11.7,6.9,24.1,12.7,35.6,20.1
	c-2.6,2.5-6,3.9-9.2,5.6c1.9,5.4,4.2,10.6,6.3,15.9c5.7,2.2,11.7,3.5,17.4,5.8c2.1,2.2,5,4.4,5.4,7.6c-3.5,1.2-7.3,0-10.8,0
	c0.8,3.1,1.9,6.1,2.6,9.2c-0.4,0.3-1.1,0.9-1.4,1.2c-5.5-2.3-10.8-5.3-14.5-10.1c-3.4-3.6-5-8.4-7.6-12.5
	c-9.5-7.1-16.1-17.3-23.3-26.6c-3.9-1.1-7.5-3-10.9-5.2c4.5,13,12.4,24.3,21.1,34.8c1.5,2.1,3.8,4.1,3.7,6.9
	c0.2,5.8-1.5,11.5-0.2,17.3c1,7.7,3.7,15.1,3.7,22.9c0,9.7,0.3,19.3,0.6,29c0,2.3,0.1,4.7-1,6.8c-2.2,4.6-4.1,9.4-6.4,14
	c-4.5,2-9.4,2.7-14.1,4c0.7,5.1-1.4,9.8-3.7,14.1c-3.6-1-7.8-1.1-10.7-3.7c2-3.1,4.3-5.9,6.5-8.8c-2.2-3.2-4-6.6-5.9-9.9
	c-1.5-2.8-5-3.5-7.2-5.8c0.5-4.1,1.4-8.2,2.4-12.3c3.1-1,6.4-1.2,9.7-1.8c-1.2-4.5-1-9.2-1.4-13.7c-1.1-4.2-3.7-7.8-4.9-12
	c0.2-1.9,0.7-3.8,1.2-5.7c-1.5-2.4-3-4.8-4.5-7.1c-2.8,4.6-6.1,9-8.4,14c-2.1,4-4.4,8.8-9.2,9.9c-5.8-0.5-9.1-6-12.8-9.9
	c-2.7,0.6-5.5,0.9-8.2,0.4c-5.9-1.3-11.5,1.8-17.1,3.3c-10.4-8.4-19.9-17.8-30-26.5c-2.4-2-5.6-0.5-8.2,0.3
	c-3.5,1.5-7.3,0.2-10.8-0.5c-6.3,4.6-14.2,8.6-16.9,16.4c2.9,2.6,5.9,5.1,8.8,7.7c-1.3,3.3-4,6.2-3.7,9.9c0,4,0,7.9,0,11.9
	c1.3,1.7,2.6,3.4,3.7,5.2c-1.9,1.7-4.3,2.8-5.8,4.9c-2.1,2.6-3.4,6.2-6.7,7.5c-3.7,1.4-7.7-0.1-11.2-1.3c-1.5,1.5-3,3.2-4.9,4.2
	c-3.6-0.9-7.5-3.5-11.3-1.5c-3.6,2.5-4.3,7.1-6.1,10.8c-3.4,3.7-7.7,6.5-11.6,9.6c-1.7,1.5-4,1.3-6.1,1.5
	c-6.6,0.3-13.3,0.9-19.9,1.1c-3.8-6.1-11.8-5.6-18.1-6.1c-6.6-0.5-12.5,3.2-16.4,8.2c-3.8-1.3-7.7-2.5-11.5-4c-1-0.5-2.4-0.7-2.6-2
	c-1.1-2.9-1.8-5.8-2.6-8.7c-7.2-1.5-14.4-3.2-21.7-4.7c-2.5,3.5-5.1,6.9-7.4,10.5c1.5,3.9,2.8,7.8,4.3,11.7c-3.1,2.3-5.8,6.1-10,6.1
	c-6.8,0.1-13.7,0.7-20.5,0.4c-0.8-2.4-0.9-5.3-3.1-6.9c-2-1.3-4.5-1.4-6.8-1.8c-3.2-0.3-6.7-1.1-9.7,0.4c-5.6,2.5-11,5.5-16.7,8
	c-0.3,1.4-0.6,2.8-1,4.2c-3.5,0.8-7.3,0.7-10.4,2.6c-1.7,1.2-3,2.7-4.4,4.2c-2.5-0.3-5.1-0.3-7.4-1.3c-1.6-2-2.3-4.4-3.4-6.7
	c-3,1.5-6.8,3.4-9.8,0.8c-5.7-4.5-9.7-10.8-13.3-17c-5.8,0.2-11.6,1-17.5,0.8c-2-2.1-1.7-5.5-2.5-8.1c-1.5,1.8-3,3.6-4.7,5.2
	c-0.4-0.2-1.2-0.7-1.6-0.9c-4.5-9.6-7.6-19.9-12-29.6c-2.2-4.2-6-7.3-8.3-11.5c0.4-1.3,0.8-2.5,1.4-3.7c-6.9,2.7-14.2,5.2-21.7,5.5
	c-4.2-0.2-3.9-5.1-3.4-8.1c-1.3-1.4-2.4-3.4-4.5-3.6c-2-0.2-3.8,0.6-5.7,0.9c-1.4-5.2-1.2-10.6-1.8-15.9c-3.7-1.4-7.4-2.9-11-4.5
	c-2,1.6-3.8,3.7-6.5,3.8c-4.8,0.4-9.2-2.2-13.9-2.4c-3.7-0.2-7.3,1.2-11.1,1c-4-0.1-8-0.5-11.9-1.5c-4.4-1.1-8.4-3.8-13-3.5
	c0,4.1,2.4,7.5,3.9,11.1c0.6,2.8-2.5,1.5-3.9,0.8c-2.1-1-4.4-1.7-6.7-1.8c-0.7,2.6-1,5.2-1.6,7.9c-1.7,0.5-3.6,0.5-5.4,0.7
	c1.8,3.1,4.6,5.7,5.6,9.2c-1.7,3.2-4.8,5.5-7.2,8.2c-1.9-1.5-3.6-3.4-5.9-4.4c-2.1,0.4-3.5,2.3-5.2,3.4c-2.5-1.8-5.7-3.2-6.9-6.3
	c-0.5-2.3-0.3-4.6-0.8-6.9c-2.7,0.2-5.3,1.1-8,1.2c-1.4-2-2.4-4.3-3.5-6.5c-3.1,1.3-6.2,3.1-9.6,3.5c-1.9-1.9-2.5-4.6-3.6-6.9
	c-1.3,0.3-2.6,0.5-3.9,0.8c-0.6-4.1-0.7-8.3-2.4-12.2c-1.1-2.5-3.9-3.3-6.1-4.5c0.4-1.6,0.8-3.2,1.3-4.8c-3.1,0-6.2-0.1-9.3-0.3
	c-0.2-0.7-0.5-2.2-0.6-2.9c-6,0.1-12.3-0.1-17.9,2.2c-2.8,0.9-3,4.3-4.8,6.2c-1.7,1.2-4.3,0.9-5.5-0.9c-1.6-2.6-2.3-5.6-3.4-8.5
	c-2.5,1.3-4.9,2.6-7.3,4.1c-0.3,1.4-0.6,2.9-0.9,4.3c-2.3,1.4-4.7,2.7-6.7,4.6c0.2,3.1,0.4,6.3-0.8,9.2c2.2,2.1,4.7,4.4,5.3,7.6
	c0.7,3.8,0.7,7.7,0,11.4c-0.9,1-2.1,1.5-3.1,2.2c0.1,1.6,0.2,3.2,0.3,4.8c-5.6-0.2-11.2-1-16.8-1.5c-3.1,5-9,6.8-14.5,7.3
	c0.5,3.5,0.9,7.1,1.4,10.6c-1.9,2.7-3.6,5.5-5.4,8.3c0,6,0.5,12,0.2,18.1c-4.4,0.9-8.9,2.1-13.4,2.3c-3-3.3-0.4-9.3-3.8-12.7
	c-1.6-2-3.6-4-4-6.7c-0.6-3.1,0.9-6.5-0.9-9.4c-1.9-3.2-6.4-2.8-8.8-5.3c-3.4-3.5-4.4-8.4-6-12.9c-1.7-2.3-4.1-4-5.9-6.3
	c-2.7-3-4.2-6.8-5.9-10.3c-1.7-0.5-3.5-0.9-5.1-1.6c-0.5-6.5-0.5-13.1-2.2-19.4c-1.3-6-4.1-11.8-3.5-18c1.7-3.5,5.6-0.3,7.9,1
	c2.8-2.6,6.5-3.3,10.2-2.2c0-2,0.1-4,0.2-5.9c2.7,0.4,5.4,0.8,8,1.3c-1.3-3.6,2.1-5.9,4.8-7.5c4.1-1,7.6,1.8,10.9,3.7
	c1.3-2.2,2.6-4.4,3.9-6.5c2.7-0.1,5.6,0.2,8-1.2c2.6-5-4.4-8.5-3.9-13.5c0.1-3.7-0.3-7.5-0.8-11.2c-2.3-0.9-5.6-0.5-6.8-3
	c-1-1.9-2-3.9-2.7-6c0.1-2.5,1.3-4.9,2.1-7.3c-1.4-3.9-2.9-7.7-3.9-11.6c1.9-0.6,3.7-1.2,5.6-1.8c0.5-1.9,1.1-3.8,1.6-5.7
	c-2-0.2-4-0.4-6-0.6c-0.5-1.8-0.7-3.7-1.4-5.4c-1.4-1.2-2.9-2.3-4.4-3.4c2.8-4.1,4.3-8.9,6.9-13.1c2.5-0.6,2.6,2.7,3.8,4.1
	c0.8,2.1,3.3,1.9,5.2,2.3c1.9-5.9-0.5-12.4,2.3-18.1c1.8-4.4,5.2-7.9,8.7-11c-2.1-5.5-5.3-10.6-6.9-16.4c2.5-5.3,6.2-9.9,9.1-14.9
	c1.1-2.2,3.9-2.1,5.7-3.2c2-2.1,2.5-5.8,5.7-6.3c4.1-1.1,8.1-2.6,12.3-3.1c3,0.7,5.8,2.2,8.7,3.4c-0.8-3.5-1.9-7.6,0.2-10.8
	c3.9-4.2,10.1-2.8,15.1-2.3c6.7,1.1,13.4-0.8,19.5-3.5c0.2-3.5,0.4-7.1,0.4-10.6c2.4-1.2,5.1-1.9,7.3-3.4c2.1-2.9,3.4-6.3,5.7-9.1
	c2.6-1.8,5.6-3.1,8-5.3c4.3-3.5,6.6-8.8,8.4-13.9c2.7-0.4,5.4-0.7,8.1-1c1.1-3.8,1.6-7.8,3.1-11.4c3.2-2,6.7-3.4,10.2-4.9
	c5.8,2.7,12.4,1.1,18.3,3.2c3.6,2.4,1.7,7.9-1.3,10c1.6,4,3.7,7.7,5.4,11.6c0.6,3.8-0.1,7.6,0.5,11.4c0.5,4.1,2.6,7.8,2.9,11.9
	c0.3,4.8,0.5,10.2-2.3,14.4c-1.5,2.5-4.6,3-7.3,2.9c-4.2-0.2-8.3-1.3-12.2-2.9c-4.1-1.5-6.3-5.6-8-9.4c-2.3-5.8-3.7-11.9-5.2-18
	c-0.8,0.8-1.5,1.5-2.3,2.3c1,3.5,1.8,7,2.7,10.5c-4.6,4.9-9.4,9.5-14,14.4c0.9,4.8,1.5,9.6,3.4,14.1l3.3-2.4c-0.5-2.6-1.1-5.1-1-7.7
	c0.3-3.9,5.7-6.2,8.5-3.4c2.5,2.9,1.4,7.3,3.5,10.4c0.7,1.1,1.4,2.1,2.1,3.2c1.9-3,3.1-7.1,6.8-8.4c5.2-2,11-1.8,16.4-0.8
	c1.7,2.1,2.7,4.7,4.1,7.1c1.9-0.7,3.8-1.3,5.7-1.9c0-2.4,0-4.8,0-7.2c3.6-1.7,7.5-3.8,9.5-7.4c0.8-2.2,0.7-4.6,1.4-6.8
	c3.6,1.1,6.4,3.9,8.9,6.7c2.8,3.5,1.7,9-1.9,11.6c-1.9,1.9-4.3-0.7-6.2-1.3c-0.9,0.7-1.8,1.4-2.7,2.1c0.2,2.2,0.4,4.4,0.6,6.6
	c0.7,0.3,2.2,0.8,2.9,1.1c2.2-1.7,4.3-3.5,6.8-4.8c4.2-0.7,8.5-0.1,12.8-0.1c7.7,0,15.5,0,23.2,0.4c0.1,0.5,0.3,1.5,0.4,1.9
	c-1.8,2.1-4,3.8-6.1,5.6c0.6,0.5,1.8,1.6,2.4,2.1c4.5-1.6,9.5-1.1,13.7,1.2c3.1-0.1,6.2-0.3,9.3-0.2c0.3,2.2,0.5,4.3,0.9,6.5
	c1.6-0.6,3.3-1.2,4.9-1.8c0-2.8-0.2-5.6-0.5-8.3c1.2-1,2.4-2,3.8-2.8c3.1,1.5,6,3.4,9.1,5c3.5,1.7,5.3,5.4,7.5,8.4
	c3.2,5.3,7.2,10.1,10.3,15.5l2-1.9c-1.4-2.9-1.7-6.2-0.8-9.3c-1.8-1.1-3.5-2.2-5.2-3.5c2.6-3.3,5.4-6.7,7.1-10.6
	c1.4-2.4-1.8-4.4-1.4-6.7c4.1-3.8,9.6-6.1,12.9-10.9c2.7-3.8,5.5-7.5,8.5-11c4,1.7,7.9,3.4,11.9,5.1c-0.5,3.3-0.7,6.9-2.7,9.7
	c-1.7,2.6-3.7,4.9-5.7,7.2c0.6,4.2,2.7,8.6,1,12.9c-2,5.9-4.2,11.8-5.8,17.8c1.1,2.6,3.7,5.5,1.9,8.4c-2.3,6.9-7.6,12.1-12.8,17
	c-4,1.7-8.4,0.2-12.5-0.2c2.8,2.4,5.7,5.6,9.7,5.4c7-0.9,11.9-6.6,16.4-11.4c1.7-4.3,1.1-9.2,2.4-13.6c3.4-1.9,8.4-2.6,11.6,0.1
	c2.3,2.6,1.8,6.5,2.3,9.8c4.1-0.4,2.6-5.7,0.8-8c-3.1-4.8-9.3-5.2-14.5-5.8c-0.6-3.2-1.5-6.3-1.5-9.5c1.5-3.2,3.7-5.9,5.6-8.8
	c-1.1-4.2-2.5-8.3-3.4-12.5c3.2-3.3,6.7-6.3,9.6-9.9c0.8-2.4,0.5-5,0.8-7.5c2.4-0.4,5.6-0.8,7,1.7c1.9,3.3,0.3,7.3-0.7,10.7
	c0.5,0.1,1.6,0.2,2.1,0.3c1.3,1.2,2.6,2.4,4.1,3.4c-1.5-2.1-4.9-3.5-4-6.5c0.8-4,6.7-4.7,9.2-1.9c0.5,0,1.6-0.1,2.1-0.1
	c3.4,4.1,5.9,8.8,9.3,12.9c0.1-1,0.2-3.1,0.2-4.1c-1.9-2.7-5.1-4.6-6.2-7.7c0.3-4.3,1.1-8.6,1.8-12.9c7.1-1,14.2-1.9,21.2-2.9
	c-1.5-7,3.2-12.9,7.5-17.7c3.4-4.4,9.4-4.6,13.9-7.3c0.7-1.1,1.1-2.2,1.7-3.4c3.4-1.4,6.8-4,10.6-2.8c1.2,0.8,1.4,2.5,2.1,3.7
	c2-0.9,4.1-1.8,6.1-2.6c0.1-1.6,0.1-3.3,0.3-4.9c1.3-0.8,2.7-1.1,4.1-1.6c-0.4-1.9-0.8-3.8-1.1-5.7c2.4-3.5,4.4-7.3,7.1-10.7
	c3.7-2.6,8.2-0.4,11.9,1c-1.2,1.8-2.5,3.6-3.8,5.3c1.7-0.4,3.3-0.7,5-1.1c0.6,1.6,1.2,3.1,1.7,4.8c1.4-1.2,2.5-3.1,4.6-3
	c3.6-0.3,7.2-0.4,10.9-0.6c2.7,2.2,6.2,3.7,8.4,6.5c1.2,6,3.1,12.6,0.2,18.4c-3.9,8.8-10.3,16.3-14.6,24.9
	c6.8-4.2,11.5-11,18.4-15.2c2.3-0.7,3.1,2.4,4.5,3.6c0.4-1,0.8-2.1,1.3-3.1c5.2-1.2,10.2-3.3,15.5-4.2c0.7,1.8-0.2,4.6,1.7,5.6
	c4.8-1.2,9-4.1,13.4-6.2c-0.9-2.9-2.7-6.4-0.8-9.3c2.3-2.7,6.1-2.6,9.3-2.8c2.6,0.1,4.4-2.1,6.9-2.4c5.2,3.2,9.7,7.3,14.8,10.7
	c1.4,0.8,2.2,2.3,2.8,3.8c-2.2,0.5-4.4,0.9-6.5,1.3c5,4.2,11.6,5.3,17.8,6.3c-1.5-4.7-2.8-9.4-4.1-14.2c3.3-0.3,6.6-0.1,9.9,0.1
	c0.8-2,1.2-4.6,3.3-5.7c2.6-1.3,5.6-1.6,8.5-2c0.6-2.3,2.3-4.1,3.9-5.8c-2.1-1.4-4.3-2.6-6.2-4.3c-0.7-3.4-0.6-6.9-0.9-10.3
	c7-4.6,14.2-8.8,21.3-13.1c2.4-1.6,3.8-4.4,6.3-5.8c3.1-0.3,6.2,0,9.2,0.3c1.3,1.2,0,3.1,0,4.6c4.5-1.1,9-2,13.5-3.1
	c3.6-5.9,6.1-12.4,9.7-18.2c3.2-2.8,7.5-4.4,11.8-4.7c3.8-0.3,6.9,2.3,9.8,4.4c1.3-1.1,2.7-2.1,4-3.1c1.2-6.7,5.5-12.2,9.6-17.3
	c2.2-2.6,2.1-6.1,3.1-9.1c4.5-0.8,9,0.4,13.5,0.2c0.2-1.9,0.4-3.8,0.5-5.7c-2.5,0-5,0.4-7.5,0c-2.2-1.3-4.3-3.2-5.5-5.5
	c2.6-5.9,5.3-11.7,8.2-17.4c8.5-10.9,20.4-18.3,31.5-26.4c4.4-2.7,8.2-6.3,12.8-8.8c3.9-0.3,7.6,2.7,11.5,1c-2.5-1-5.2-1.3-7.6-2.6
	c0.2-1.8,1.4-3.2,2.1-4.8c1.4-2.6,1.3-5.7,2.6-8.3C1020.3-37.1,1023.4-38.3,1026.3-39.8"/>
<path class="st1" d="M392.4,170.5c-6,2.6-8.7,10.7-5.3,16.4c3.4,5.6,7.1,11,10.5,16.6c3.4-5.3,6.9-10.5,10.1-15.8
	c2.3-3.7,2.5-8.6,0.2-12.4C404.9,170,397.7,167.7,392.4,170.5"/>
<path class="st1" d="M369.1,177.2c-6.4,2.3-9.5,10.8-6,16.7c3.4,5.6,7.1,11,10.5,16.5c3.3-5,6.5-10,9.8-15.1c2.1-3.2,3-7.4,1.5-11.1
	C382.7,178,375.1,174.5,369.1,177.2"/>
<path class="st1" d="M639,177.9c-0.4,1.3,1.3,3.2,2.7,2.9C642,179.4,640.3,177.5,639,177.9"/>
<path class="st1" d="M623.4,188.1c2.8,1.5,5.5,2.9,8.3,4.3c-2-2.3-4.2-4.5-6.3-6.6c0.1-1.3,0.2-2.6,0.4-3.9
	C625.1,183.9,624.3,186,623.4,188.1"/>
<path class="st1" d="M374.2,214.2c-3.5,3.7-4.2,9.8-1.5,14.1c3.4,5.4,6.8,10.9,10.5,16.2c3.5-5.6,7.3-11,10.6-16.7
	c2.9-5,1.2-11.9-3.5-15.1C385.6,209,378.2,209.7,374.2,214.2"/>
<path class="st1" d="M431.2,232.3c-6.4,2.3-9.4,10.6-6,16.5c3.3,5.7,7.4,11,10.8,16.6c2.5-3.9,5-7.8,7.7-11.6
	c2.6-3.7,5.4-8,4.3-12.8C446.8,233.6,437.9,229.2,431.2,232.3"/>
<path class="st1" d="M398,233c-6.8,1.9-10.3,10.6-6.8,16.7c3.3,5.7,7.4,11,10.8,16.7c2.5-4,5-7.9,7.7-11.6c2.6-3.7,5.4-8.1,4.3-12.9
	C412.8,234.9,404.6,230.5,398,233"/>
<path class="st1" d="M355.7,251.7c-1.7,3.9-0.9,8.5,1.6,11.9c3.3,4.9,6.6,9.8,9.8,14.8c3.5-5.9,8-11.2,11.1-17.3
	c3-5.8-0.3-13.7-6.4-15.9C365.9,242.7,358.1,245.6,355.7,251.7"/>
<path class="st1" d="M409.6,261.6c-2.6,3.8-2.8,9-0.3,12.9c3.4,5.3,6.8,10.6,10.1,15.9c3.5-5.5,7.3-10.9,10.5-16.6
	c3.2-5.5,0.8-13.2-4.8-16.1C420.1,254.8,412.9,256.6,409.6,261.6"/>
<path class="st1" d="M502.4,258.5c-6,2.6-8.8,10.8-5.4,16.5c3.4,5.5,7,11,10.5,16.5c3.4-5.3,6.9-10.5,10.1-15.8
	c2.3-3.7,2.5-8.6,0.2-12.3C515,258,507.8,255.8,502.4,258.5"/>
<path class="st1" d="M552.3,269.3c-6.2,2.4-9.2,10.5-5.9,16.3c3.4,5.7,7.1,11.3,10.7,16.9c3.6-5.3,7.1-10.7,10.4-16.1
	c2.2-3.6,2.3-8.4,0.1-12.1C564.8,269.1,557.7,266.8,552.3,269.3"/>
<path class="st1" d="M345.7,278.7c-3.9,3.7-4.8,10-2,14.5c3.4,5.5,6.8,10.9,10.5,16.3c3.5-5.6,7.3-11,10.6-16.7
	c2.7-4.8,1.3-11.3-2.9-14.7C357.4,274.2,349.9,274.5,345.7,278.7"/>
<path class="st1" d="M389.4,297.4c-6.2,2.5-9,10.9-5.5,16.6c3.4,5.5,7,10.9,10.4,16.4c3.4-5.4,7-10.6,10.2-16
	c2.1-3.4,2.3-7.8,0.5-11.4C402.4,297.4,395,294.7,389.4,297.4"/>
<path class="st1" d="M530.3,300.3c-6.4,2.3-9.4,10.6-6,16.5c3.3,5.7,7.4,11,10.8,16.6c3.2-5.3,6.9-10.2,10.1-15.4
	c2.2-3.4,2.8-7.7,1.2-11.4C543.9,300.6,536.2,297.7,530.3,300.3"/>
<path class="st1" d="M368.4,315.5c-6,2.6-8.8,10.8-5.4,16.5c3.4,5.5,7.1,11,10.5,16.5c3.4-5.3,6.9-10.5,10.1-15.8
	c2.3-3.7,2.5-8.6,0.2-12.4C380.9,315,373.8,312.8,368.4,315.5"/>
<path class="st1" d="M957.3,329.3c-6.4,2.2-9.5,10.6-6.1,16.5c3.3,5.7,7.4,11,10.8,16.7c3.2-5.2,6.8-10.1,10.1-15.3
	c2.2-3.4,2.8-7.7,1.2-11.4C970.9,329.6,963.2,326.7,957.3,329.3"/>
<path class="st1" d="M312.7,336.8c-3.3,3.9-3.6,9.9-0.6,14.1c3.4,5.2,6.6,10.5,10.1,15.6c3.5-5.6,7.3-11,10.6-16.7
	c2.8-5,1.1-11.8-3.5-15.1C324.4,330.8,316.6,331.8,312.7,336.8"/>
<path class="st1" d="M346.4,333.5c-6,2.6-8.8,10.7-5.4,16.4c3.4,5.6,7,11,10.5,16.5c3.3-5.3,6.9-10.5,10.1-15.8
	c2.3-3.7,2.5-8.6,0.2-12.4C358.9,333,351.8,330.8,346.4,333.5"/>
<path class="st1" d="M273.4,350.5c-6.1,2.6-8.8,10.8-5.4,16.5c3.4,5.5,7,11,10.5,16.5c3.4-5.3,6.9-10.5,10.1-15.8
	c2.4-3.7,2.5-8.6,0.2-12.4C285.9,350,278.8,347.8,273.4,350.5"/>
<path class="st1" d="M297.4,365.5c-6,2.6-8.8,10.8-5.3,16.5c3.4,5.5,7,11,10.4,16.5c3.4-5.3,6.9-10.5,10.1-15.9
	c2.3-3.7,2.5-8.6,0.2-12.3C309.9,365,302.8,362.8,297.4,365.5"/>
<path class="st1" d="M307.1,399.2c-6.4,2.3-9.6,10.7-6.1,16.6c3.4,5.6,7.1,11,10.5,16.6c3.2-5.1,6.6-10.1,9.7-15.2
	c2.1-3.2,3-7.4,1.5-11.1C320.7,400,313.1,396.6,307.1,399.2L307.1,399.2z"/>
<path class="st1" d="M955.8-17.1c2.1-1.6,4.2-3.2,6.4-4.7c1.7,1.5,3.2,3.4,3.2,5.8c0,4.6-0.7,9.4-2.9,13.6c-1,2.1-3.7,1.3-5.2,0.2
	c-2-1.5-4.3-3.3-4.7-5.9c-0.3-2.8-0.6-5.7-0.5-8.5C953.4-16.9,954.6-17,955.8-17.1z M581.9,43.9c-2.4-5.3,4.6-11.4,9.7-9.1
	c3,1.2,6.5,2.8,7.6,6.1c1.1,2.6,1,6.2-1.5,7.9c-2.9,1.6-6.3,2.3-9.6,2.5C584.3,51.4,579.7,47.8,581.9,43.9L581.9,43.9z M603.1,43.2
	c3.8-2.8,8.5-4.1,12.9-5.7c1.5,2.8,2.7,5.8,2.6,9.1c-0.7,0.5-2.1,1.6-2.8,2.1c1.3,1,2.5,2,3.8,3c3.2-1.4,7.7-4.2,10.7-1
	c2.2,1.8,1.6,4.7,1.5,7.2c-3.5,2.8-8.2,4-12.3,1.9c-4.1,2-8.9,1.6-13.2,1c-3.2-1.2-2.4-5.2-2.7-7.9
	C603.6,49.7,601.8,46.3,603.1,43.2z M684,73c0.7-6.2,2.8-13.7,9.6-15.6c3.8,4.8,8.2,9.9,7.6,16.4c4.4,1.4,7.8,5,8.4,9.7
	c2.8-1.2,6.1-1.9,8,1.1c5.5,1.5,9.3,7.7,8,13.2c-1.8,4.2-6.7,4.9-10.6,6.2c-2.8,0.8-5.1,3.4-8.1,3.3c-3.6-2.5-2.1-7.5-2-11.2
	c-4.9-0.4-10.4-0.3-14.2-3.8c-2.9-3-2-7.5-1.8-11.3C687.8,78.1,684.7,76.1,684,73L684,73z M850.6,64.4c3.2-1.4,6.1-3.3,9.4-4.4
	c2.3,0,4.6,0.3,6.8,0.6c-0.4,4.1-1.3,8-2.2,12c-4.7,1.2-9.3,2.2-14,3.1c-1.3-1.6-2.6-3.4-3.8-5.1c1.3,3.5,3.3,7.6,1.3,11.3
	c-2.8,4.9-5.8,10.2-10.5,13.5c-3.9,1.4-9.4,1.6-12.4-1.8c-2.9-4.3-3.2-9.6-3.1-14.6c3.1-0.1,6.1-0.1,9.2,0.1
	c-0.6-2.4-1.2-4.7-1.6-7.1c2.4,0,4.8,0.3,7.1,0.2c2.9-0.6,5.5-1.9,8.1-3.2C845.6,66.4,848.4,65.7,850.6,64.4L850.6,64.4z M849,96.1
	c4.7-4.1,11.7-3.2,16.3,0.6c-0.8,1.6-2,3-3.5,4c-3.8,2.6-7.3,5.6-11.3,7.8c-1.8,0.8-1.8-1.6-2.3-2.7C847.7,102.7,847.1,99,849,96.1z
	 M602.1,110.6c4.2,0,7.6-3.8,11.9-3.1c3.2,1.2,5.2,5.1,3.9,8.4c-1.2,2.8-4.1,4.4-6.9,5.1c-6.5,1.8-13.3,1.6-20,1.8
	c-9.4,8.1-21.6,11.8-30.9,20.1c-3.7,3.4-7.5,6.9-9.9,11.4c-0.8,3.8-0.6,7.8-0.3,11.7c0.1,2.8,1.1,6-0.9,8.4c-3.6,1-6.7-1.9-9-4.2
	c-6.2-6.2-8.1-15.8-6-24.2c1.1-3.9,6.1-3.6,8.4-6.5c3.1-3.2,5.1-8.7,10.5-8c5.5-8,15.6-10.5,21.6-17.8
	C583.4,110.5,592.8,111.1,602.1,110.6L602.1,110.6z M260,171.8c3.9-0.5,7.8-1.2,11.6-0.9c1.2,1.1,2.2,2.5,3.3,3.8
	c1.5-1.1,2.8-3.1,4.9-2.7c1.9,5.7,3.1,11.6,4,17.5c-3.3,1.1-6.6,2-10,2.7c-2.5-3.2-4.9-6.4-7.2-9.8
	C264.4,178.9,261.3,175.8,260,171.8z M395.5,175.6c3.8-1.8,8.5,2.3,7,6.3c-0.9,3.7-6.1,5-8.6,2.3
	C391.2,181.7,392.2,176.9,395.5,175.6z M371.4,182.6c3.8-1.9,8.5,2.2,7.1,6.2c-0.9,3.7-6.1,5-8.7,2.2
	C367.3,188.7,368.2,184,371.4,182.6L371.4,182.6z M381.4,216.5c3.8-1.5,8.3,2.5,6.9,6.4c-1,4.2-7.4,5-9.6,1.4
	C376.7,221.6,378.2,217.4,381.4,216.5z M434.4,237.5c3.8-1.5,8.1,2.6,6.6,6.5c-1,4.1-7.1,5-9.3,1.3
	C429.6,242.6,431.3,238.5,434.4,237.5z M400.5,238.4c3.7-1.4,8,2.7,6.5,6.5c-1,4.1-7.2,4.9-9.3,1.3
	C395.6,243.6,397.3,239.4,400.5,238.4z M365.4,250.5c4.1-1.6,8.7,3.4,6.3,7.3c-1.4,3.2-6.4,3.9-8.6,1.1
	C360.6,256.2,362,251.5,365.4,250.5z M417.5,262.6c3.8-1.8,8.5,2.4,7,6.3c-0.9,3.6-6.1,4.9-8.7,2.1
	C413.2,268.6,414.2,263.9,417.5,262.6z M505.5,263.6c3.8-1.9,8.5,2.3,7.1,6.2c-0.9,3.7-6.1,5-8.6,2.3
	C501.2,269.7,502.2,264.9,505.5,263.6L505.5,263.6z M555.4,274.4c3.8-1.5,8.3,2.5,6.8,6.5c-1,3.9-6.7,5-9.2,1.9
	C550.6,280.2,552,275.4,555.4,274.4L555.4,274.4z M352.4,281.5c3.8-1.5,8.3,2.5,6.8,6.5c-1.1,4.2-7.4,5-9.6,1.3
	C347.7,286.6,349.3,282.4,352.4,281.5z M392.4,302.6c3.8-1.7,8.3,2.5,6.8,6.4c-1,3.9-6.7,4.9-9,1.7
	C387.9,308.1,389.2,303.6,392.4,302.6L392.4,302.6z M533.4,305.5c3.8-1.5,8,2.7,6.6,6.5c-1,3.8-6.5,4.9-8.9,1.9
	C528.5,311.2,530,306.5,533.4,305.5L533.4,305.5z M371.5,320.6c3.8-1.8,8.4,2.3,7,6.3c-0.9,3.6-6.1,5-8.6,2.2
	C367.2,326.7,368.2,321.9,371.5,320.6z M960.4,334.4c3.8-1.4,8,2.7,6.6,6.5c-1,3.8-6.5,4.9-8.9,1.8
	C955.5,340.1,957,335.4,960.4,334.4z M320.4,338.5c3.8-1.5,8.3,2.6,6.8,6.5c-1.1,4.1-7.4,4.9-9.5,1.3
	C315.7,343.6,317.3,339.4,320.4,338.5L320.4,338.5z M349.5,338.6c3.8-1.8,8.4,2.3,7,6.2c-0.9,3.7-6.1,5.1-8.7,2.2
	C345.2,344.7,346.2,339.9,349.5,338.6z M276.5,355.6c3.8-1.8,8.4,2.3,7,6.2c-0.9,3.7-6,5-8.6,2.3
	C272.2,361.7,273.2,356.9,276.5,355.6z M300.4,370.6c3.8-1.9,8.5,2.3,7.1,6.3c-0.9,3.6-6.1,5-8.6,2.2
	C296.2,376.7,297.2,371.9,300.4,370.6z M309.5,404.6c3.8-1.8,8.5,2.3,7.1,6.2c-0.9,3.7-6.1,5-8.6,2.3
	C305.2,410.7,306.2,405.9,309.5,404.6z"/>
</svg>
