<?xml version="1.0" encoding="utf-8"?>
<!-- Generator: Adobe Illustrator 19.2.1, SVG Export Plug-In . SVG Version: 6.00 Build 0)  -->
<svg version="1.1" id="Capa_1" xmlns="http://www.w3.org/2000/svg" xmlns:xlink="http://www.w3.org/1999/xlink" x="0px" y="0px"
	 viewBox="0 0 497.4 497.4" style="enable-background:new 0 0 497.4 497.4;" xml:space="preserve">
<style type="text/css">
	.st0{fill:#D7282F;}
</style>
<g>
	<g>
		<path class="st0" d="M66.1,68.2c1.1-3.2,6-3.7,7.8-0.8c2.5,3.9,3.9,8.4,6.1,12.5c12.3,3.1,24.7,6.2,37,9.4c0.7-1.8,1-4,2.9-5
			c1.5-0.9,3.4-0.5,5-0.2c33.7,8.1,67.3,16.3,101,24.4c1.5,0.4,3.1,0.9,4,2.4c1.4,2.1,0.2,4.6-0.1,6.9c5.3,1.2,10.6,2.8,14.8,6.5
			c6.7,5.5,10,14.4,9.2,22.9c3.9,1,7.8,1.7,11.6,2.9c1.9,0.5,2.8,2.2,3.8,3.7c7.5,12.5,15.2,24.8,22.8,37.3c24.1,0.1,48.2,0,72.2,0
			c2.8-0.3,5.1,2,5.3,4.8c4,24,7.9,48.1,11.9,72.1c17.7,0.1,35.3-0.1,53,0.1c10.9,0.2,20.5,9.9,20.6,20.8c0.1,18.1,0.1,36.1,0,54.2
			c0.2,3.1-2.9,5.2-5.8,4.8c-25.4,0-50.9,0-76.3,0c0,2.4,0,4.7,0,7.1c29.6,0,59.3,0,88.9,0c8.6,0,17.2,3,23.7,8.8
			c7.5,6.4,11.7,16.2,12.1,26v1c-0.4,9.6-4.6,19.1-11.9,25.5c-6.7,6.1-15.8,9.1-24.8,9c-81.5,0-163.1,0-244.6,0
			c-7.8-0.2-15.7,0.6-23.4-0.9c-14-2.8-25.3-15-27.3-29.1c-2-12.2,3.3-25.2,13.1-32.8c6.5-5.2,14.9-7.6,23.1-7.5
			c33.6,0,67.2,0,100.8,0c0-2.4,0-4.7,0-7.1c-13.4,0-26.7,0-40.1,0c-2.5,0.2-5.4-0.8-6.1-3.5c-11.8-38-14.6-78.8-7.7-117.9
			c1-3-1.5-5.4-2.9-7.8c-4.6-7.1-8.5-14.6-13.4-21.4C183,181.4,133.5,166.2,84,150.7c-8.4,34.8-16.8,69.7-25.2,104.5
			c16.1,4.2,32.1,8.4,48.2,12.6c9.1-4.2,18.1-8.6,27.2-12.8c3.1-1.9,7.4,1.1,6.8,4.7c-0.6,2.2-1.9,4-3.1,5.9
			c-10,16.5-19.9,33-29.9,49.4c-4.2,7-10.5,12.7-18.1,15.8c-12.1,5-26.6,3-37.3-4.5c-8.5-6-14.1-15.7-15.4-25.9
			c-1.5-11.7-2.4-23.4-3.8-35.1C25,256.6,16.6,248,8.1,239.4c-1.5-1.6-3.4-3.4-2.9-5.8c1.3-6.3,3.2-12.4,4.7-18.6
			c-3-0.7-6.9-1.2-7.7-4.8v-1.4c7.7-31.5,15.2-63.1,22.8-94.6c0.4-2.1,1.9-4.1,4.1-4.4c2.1,0,4.1,0.6,6.2,1
			c1.5-6.1,2.4-12.4,4.6-18.3C44,83,54,76.7,64.2,77C64.8,74.1,65,71,66.1,68.2z M72.2,85.3c-1.7,9.3-3.3,18.5-5,27.8
			c4-3.9,9.3-6.4,14.9-6.7C78.8,99.4,75.5,92.3,72.2,85.3z M48.7,96.2c-1.8,5.5-2.7,11.2-4.1,16.8c2.3,0.7,5.3,0.8,6.7,3
			c1.4,2,0.4,4.5,0,6.6c-7.3,30.2-14.6,60.5-21.9,90.7c-0.4,1.6-0.9,3.3-2.4,4.2c-2.4,1.5-5.3,0.1-7.8-0.4c-0.7,2.9-1.4,5.9-2.1,8.8
			c7.4-3.2,14.7-6.4,22.1-9.6c7.8-43.3,15.6-86.6,23.3-130C56.6,86.9,50.9,90.5,48.7,96.2z M85,90.8c2.7,5.8,5.4,11.7,8.1,17.5
			c50.5,12.2,100.9,24.4,151.4,36.5c0-4.7-1.9-9.4-5.1-12.8c-3.1-3.3-7.7-4.4-11.9-5.3c-0.7,2.1-0.8,4.9-2.9,6.2
			c-1.6,1.1-3.7,0.7-5.5,0.3c-33.5-8.1-67-16.1-100.6-24.1c-2-0.4-4.2-1.6-4.6-3.7c-0.3-2.3,0.6-4.6,1.1-6.9
			C104.9,95.8,94.9,93.3,85,90.8z M125.5,93.8c-0.5,2.3-1,4.6-1.6,6.8c31.5,7.6,63.1,15.3,94.6,22.8c0.5-2.3,1.1-4.6,1.6-6.9
			C188.6,109,157.1,101.3,125.5,93.8z M75.6,118.3c-4.5,3.2-6.3,9.8-3.7,14.8c1.6,3.5,5.1,5.7,8.7,6.8
			c51.9,16.2,103.8,32.4,155.7,48.6c1.5,0.4,2.9,1.4,3.7,2.8c3.9,6.4,7.8,12.8,11.7,19.1c2.3-6.1,2.6-13,6.1-18.6
			c7.5-1.9,15.4-0.4,23-0.9c-6.6-10.8-13.1-21.6-19.8-32.3c-9.7-2.9-19.6-4.8-29.4-7.3c-48.3-11.6-96.7-23.3-145-35
			C82.9,115.5,78.7,115.8,75.6,118.3z M33.5,120c-6.9,28.7-13.8,57.3-20.7,86c2.8,0.7,5.6,1.4,8.4,2c6.9-28.7,13.8-57.3,20.7-86
			C39.1,121.3,36.3,120.6,33.5,120z M63,136.4c-6.8,38.2-13.8,76.3-20.5,114.5c2.4,0.6,4.9,1.1,7.3,1.7
			c8.4-34.9,16.8-69.8,25.2-104.8C69.8,145.7,65.5,141.5,63,136.4z M262,208c26.5,0,53.1-0.1,79.7,0c2.9-0.2,5.2,2.4,4.9,5.2
			c0,31.3,0,62.5,0,93.8c0.2,2.4-1.5,4.9-3.9,5.2c-27.1,5.3-54.2,10.4-81.3,15.7c0.9,3.5,1.9,6.9,2.8,10.4c60.5,0,120.9,0,181.4,0
			c0-16.2,0-32.5,0-48.7c0.2-6.9-6.1-13.1-13-12.6c-18.4,0-36.7,0.1-55.1,0c-2.6,0.1-4.8-2.1-4.9-4.7c-4-24-7.9-48.1-12-72.1
			c-32.1,0-64.3,0-96.4,0C263.5,202.8,262.8,205.4,262,208z M259.8,217.2c-3.5,16.6-5.5,33.5-5.7,50.5
			c27.7-12.2,55.5-24.5,83.2-36.7c0-4.6,0-9.1,0-13.7C311.5,217.3,285.6,217.2,259.8,217.2z M18,235.8c5,5.1,10,10.3,15,15.4
			c1.5-8,2.9-15.9,4.3-23.9C30.8,230.1,24.4,233,18,235.8z M254.3,277.9c0.2,3.4,0.4,6.9,0.6,10.3c27.5-12.1,54.9-24.3,82.4-36.4
			c0-3.5,0-7.1,0-10.6C309.6,253.4,282,265.6,254.3,277.9z M42.5,260.6c1.3,12.3,2.5,24.7,3.9,37c0.7,6.1,2.8,12.1,6.9,16.7
			c7.7,8.9,21.3,12.7,32.3,8.1c6.7-2.3,11.8-7.5,15.4-13.4c7.8-13,15.7-26,23.5-39.1c-4.9,2.3-9.8,4.7-14.8,7
			c-1.5,0.8-3.3,0.5-4.9,0C84,271.4,63.3,266,42.5,260.6z M255.8,298c1.2,7,2.3,14,3.5,21c26-5,52-10.1,78-15.1c0-14,0-28,0-41.9
			C310.2,274,283,286,255.8,298z M311.8,347.7c0,2.4,0,4.7,0,7.1c17.2,0,34.4,0,51.6,0c0-2.4,0-4.7,0-7.1
			C346.2,347.7,329,347.7,311.8,347.7z M194.4,364.8c-6.4,1.5-12.2,5.5-15.8,11c-5.9,8.8-5.5,21.3,1,29.6c5,6.8,13.6,10.5,22,10.3
			c86.7,0,173.3,0,260,0c7.2,0,14.4-2.8,19.4-8.1c7.5-7.6,9.2-20,4.2-29.5c-4.3-8.7-13.9-14.2-23.5-14.1c-86.4-0.1-172.7,0-259,0
			C199.8,364.1,197.1,364.2,194.4,364.8z"/>
	</g>
	<path class="st0" d="M398.1,287.1c2-0.9,4.3-0.6,6.4-0.6c7.1,0.1,14.2-0.2,21.3,0.1c3.4,0.1,5.4,4.6,3.2,7.3
		c-1.6,2.3-4.6,1.9-7.1,2c-7.4-0.1-14.8,0.2-22.2-0.1C395.5,295.4,394.3,288.9,398.1,287.1z"/>
	<path class="st0" d="M399.2,303.8c7.5-0.6,15.2-0.1,22.7-0.3c2.4,0,5.6-0.4,7.2,2c2.4,3-0.4,7.7-4.1,7.3c-8.4,0-16.9,0.2-25.3-0.1
		C394.9,312.3,394.5,304.7,399.2,303.8z"/>
	<path class="st0" d="M398.2,321.2c2-0.9,4.3-0.5,6.4-0.6c7.1,0.1,14.2-0.2,21.3,0.1c3.6,0.2,5.4,5.1,2.8,7.6
		c-1.4,1.8-3.8,1.5-5.8,1.6c-7.7-0.1-15.4,0.1-23.1-0.1C395.5,329.6,394.3,323,398.2,321.2z"/>
	<g>
		<path class="st0" d="M196.9,370.1c4.7-1,9.8-0.4,14,2c6.6,3.4,10.9,10.8,10.6,18.2c0,7.3-4.4,14.4-11,17.7
			c-6.6,3.5-15.2,2.9-21.2-1.6c-5.9-4.2-9.3-11.8-8.2-19C182.1,379,188.8,371.8,196.9,370.1z M197,379.9c-3.4,1.5-6,4.8-6.4,8.5
			c-1.1,5.7,3.4,11.7,9.1,12.3c7.1,1.4,14.1-5.8,12.3-12.8C211,381.2,203,377.1,197,379.9z"/>
	</g>
	<g>
		<path class="st0" d="M456.2,370.4c9.7-2.9,20.9,2.6,24.4,12.1c2.9,7.2,1.2,15.9-4.2,21.5c-5.8,6.2-15.5,8.1-23.2,4.4
			c-7.6-3.4-12.6-11.8-11.7-20.1C442,379.9,448.2,372.5,456.2,370.4z M457.1,380c-2.9,1.4-5.2,4-6,7.2c-1.8,5.8,2.4,12.5,8.4,13.4
			c7,1.7,14.3-5.1,12.9-12.3C471.7,381.3,463.4,376.9,457.1,380z"/>
	</g>
	<path class="st0" d="M232.7,385.7c2.1-0.7,4.4-0.4,6.6-0.5c62.5,0,125,0,187.5,0c2.8-0.4,5.7,2,5.4,4.9c-0.1,2.7-2.8,4.6-5.4,4.4
		c-63.5,0-127,0-190.5,0c-1.7,0-3.7,0-4.9-1.4C229.1,391.1,229.9,386.9,232.7,385.7z"/>
</g>
</svg>
