<?xml version="1.0" encoding="utf-8"?>
<!-- Generator: Adobe Illustrator 19.2.1, SVG Export Plug-In . SVG Version: 6.00 Build 0)  -->
<svg version="1.1" id="Capa_1" xmlns="http://www.w3.org/2000/svg" xmlns:xlink="http://www.w3.org/1999/xlink" x="0px" y="0px"
	 viewBox="0 0 512 512" style="enable-background:new 0 0 512 512;" xml:space="preserve">
<style type="text/css">
	.st0{fill:#D2282F;}
</style>
<g>
	<g>
		<g>
			<path class="st0" d="M458.7,224H416c-5.9,0-10.7,4.8-10.7,10.7V256h-32v-71.5L508.9,48.9c4.2-4.2,4.2-10.9,0-15.1L478.2,3.1
				C474-1,467.2-1,463.1,3.1l-89.7,89.7V74.7c0-17.7-14.3-32-32-32H57.7L18.2,3.1c-2-2-4.7-3.1-7.5-3.1C4.8,0,0,4.8,0,10.7v256
				c0,5.9,4.8,10.7,10.7,10.7h74.7v64c0,5.9,4.8,10.7,10.7,10.7h309.3v149.3c0,5.9,4.8,10.7,10.7,10.7h85.3
				c5.9,0,10.7-4.8,10.7-10.7v-224C512,247.9,488.1,224,458.7,224z M470.6,25.7l15.6,15.6L347.7,179.9l-15.6-15.6L470.6,25.7z
				 M341.3,64c5.9,0,10.7,4.8,10.7,10.7v39.5l-42.5,42.5c-1.5,1.5-2.5,3.4-2.9,5.4l0,0l-6,29.9h-55.3v21.3h64c0.8,0,1.6-0.1,2.3-0.3
				l38.1-7.6c0.8-0.1,1.5-0.4,2.2-0.7V256h-80.9L79.1,64C79.1,64,341.3,64,341.3,64z M21.3,36.4L240.9,256H96H21.3V36.4z
				 M373.3,330.7v-21.3H352v21.3h-21.3v-21.3h-21.3v21.3H288v-21.3h-21.3v21.3h-21.3v-21.3H224v21.3h-21.3v-21.3h-21.3v21.3H160
				v-21.3h-21.3v21.3h-32v-53.3h160h138.7v53.3H373.3z M490.7,490.7h-64V341.3v-74.7v-21.3h32c17.7,0,32,14.3,32,32V490.7z"/>
			<circle class="st0" cx="458.7" cy="448" r="21.3"/>
			<path class="st0" d="M146.2,231.5c4.2-4.2,4.2-10.9,0-15.1l-85.3-85.3c-2-2-4.7-3.1-7.5-3.1c-5.9,0-10.7,4.8-10.7,10.7V224
				c0,5.9,4.8,10.7,10.7,10.7h85.3C141.5,234.7,144.2,233.5,146.2,231.5z M64,213.3v-48.9l48.9,48.9H64z"/>
			<path class="st0" d="M352,480c0,5.9-4.8,10.7-10.7,10.7H32c-5.9,0-10.7-4.8-10.7-10.7V298.7H0V480c0,17.7,14.3,32,32,32h309.3
				c17.7,0,32-14.3,32-32V373.3H352V480z"/>
			<path class="st0" d="M42.7,416v42.7c0,5.9,4.8,10.7,10.7,10.7H96V448H64v-32L42.7,416L42.7,416z"/>
			<rect x="117.3" y="448" class="st0" width="21.3" height="21.3"/>
		</g>
	</g>
</g>
</svg>
