<?xml version="1.0" encoding="utf-8"?>
<!-- Generator: Adobe Illustrator 19.2.1, SVG Export Plug-In . SVG Version: 6.00 Build 0)  -->
<svg version="1.1" id="Capa_1" xmlns="http://www.w3.org/2000/svg" xmlns:xlink="http://www.w3.org/1999/xlink" x="0px" y="0px"
	 viewBox="0 0 512 512" style="enable-background:new 0 0 512 512;" xml:space="preserve">
<style type="text/css">
	.st0{fill:#D7282F;}
</style>
<g>
	<g>
		<path class="st0" d="M274,419.7c10.1,0,24.3,8.2,29.4,17l31.8,55.1l-233.1,0c-10.1,0-22.8-7.4-27.9-16.2l0,0l0,0l-32.2-55.7
			L274,419.7L274,419.7 M274,400.7C274,400.7,274,400.7,274,400.7L9,400.8L57.7,485c8.4,14.6,27.5,25.8,44.4,25.8c0,0,0,0,0,0l266,0
			l-48.2-83.6C311.4,412.6,290.8,400.7,274,400.7L274,400.7z"/>
		<path class="st0" d="M158.7,218.5c11.7,0,22.2,8.3,27,16.1l32.5,56l-176.3,0l32.7-55.8c5.2-8.4,18.3-16.3,27.1-16.3L158.7,218.5
			 M158.7,199.5l-56.9,0.1c-15.9,0-35,11.9-43.3,25.5L8.8,309.6l242.5,0L202,224.8C193.8,211.3,177.4,199.5,158.7,199.5L158.7,199.5
			z"/>
		<path class="st0" d="M339,21.2c9.5,0,22.3,8.2,27.9,18l116.2,202.9c4.3,7.4,3.7,20.7-1.2,29.7L450.2,328L332.4,126.2
			c-11.8-20.3-33.7-32.8-57.1-32.8H41.5l30.6-53.2l0.2-0.3l0.2-0.3c5.3-10,17.6-18.4,26.8-18.4H339 M339,2.2H99.2
			c-17.3,0-35.4,13.2-43.6,28.5l-47,81.6h266.7c16.8,0,32.2,8.9,40.7,23.4L450.4,366l48.2-84.9c7.7-14,9-34.6,1-48.4L383.4,29.8
			C374.6,14.3,355.6,2.2,339,2.2L339,2.2z"/>
	</g>
</g>
</svg>
