<?xml version="1.0" encoding="utf-8"?>
<!-- Generator: Adobe Illustrator 19.2.1, SVG Export Plug-In . SVG Version: 6.00 Build 0)  -->
<svg version="1.1" id="Capa_1" xmlns="http://www.w3.org/2000/svg" xmlns:xlink="http://www.w3.org/1999/xlink" x="0px" y="0px"
	 viewBox="0 0 496 496" style="enable-background:new 0 0 496 496;" xml:space="preserve">
<style type="text/css">
	.st0{fill:#D7282F;}
</style>
<g>
	<g>
		<path class="st0" d="M384,72V0H112v72H0v400h80v24h336v-24h80V72H384z M128,16h240v160h16v-40h16v72h-16v-16h-16v16H128V16z
			 M304,224v16H192v-16H304z M16,88h96v32H16V88z M112,136v72H96v-72H112z M80,456H16V136h64v73.5c-9.3,3.3-16,12.1-16,22.5v136h16
			V456z M400,480H96V368h80v32h144v-32h80V480z M192,384v-16h48v16H192z M256,384v-16h48v16H256z M80,352V232c0-4.4,3.6-8,8-8h88v32
			h144v-32h88c4.4,0,8,3.6,8,8v120H80z M480,456h-64v-88h16V232c0-10.4-6.7-19.2-16-22.5V136h64V456z M480,120h-96V88h96V120z"/>
	</g>
</g>
<g>
	<g>
		<path class="st0" d="M144,32v64h208V32H144z M336,80H160V48h176V80z"/>
	</g>
</g>
<g>
	<g>
		<rect x="176" y="112" class="st0" width="176" height="16"/>
	</g>
</g>
<g>
	<g>
		<rect x="144" y="144" class="st0" width="208" height="16"/>
	</g>
</g>
<g>
	<g>
		<rect x="144" y="176" class="st0" width="120" height="16"/>
	</g>
</g>
<g>
	<g>
		<rect x="144" y="112" class="st0" width="16" height="16"/>
	</g>
</g>
</svg>
