<?xml version="1.0" encoding="utf-8"?>
<!-- Generator: Adobe Illustrator 19.2.1, SVG Export Plug-In . SVG Version: 6.00 Build 0)  -->
<svg version="1.1" id="Capa_1" xmlns="http://www.w3.org/2000/svg" xmlns:xlink="http://www.w3.org/1999/xlink" x="0px" y="0px"
	 viewBox="0 0 496 496" style="enable-background:new 0 0 496 496;" xml:space="preserve">
<style type="text/css">
	.st0{fill:#D7282F;}
</style>
<g>
	<g>
		<g>
			<path class="st0" d="M464,152v-32H256v32h-24v16h248v40H232v16h248v32H336h-8h-18.3L232,305.4V256h-26.2L120,306.1V256H93.7
				L0,315.6V496h336v-64h144v48H352v16h144V152L464,152L464,152z M288,152h-16v-16h16V152z M320,152h-16v-16h16V152z M352,152h-16
				v-16h16V152z M384,152h-16v-16h16V152z M416,152h-16v-16h16V152z M448,152h-16v-16h16V152z M64,480H48v-16h16V480z M64,448H48
				v-16h16V448z M64,416H48v-16h16V416z M64,384H48v-16h16V384z M96,480H80v-16h16V480z M96,448H80v-16h16V448z M96,416H80v-16h16
				V416z M96,384H80v-16h16V384z M160,480h-16v-16h16V480z M160,448h-16v-16h16V448z M160,416h-16v-16h16V416z M160,384h-16v-16h16
				V384z M192,480h-16v-16h16V480z M192,448h-16v-16h16V448z M192,416h-16v-16h16V416z M192,384h-16v-16h16V384z M256,480h-16v-16
				h16V480z M256,448h-16v-16h16V448z M256,416h-16v-16h16V416z M256,384h-16v-16h16V384z M288,480h-16v-16h16V480z M288,448h-16
				v-16h16V448z M288,416h-16v-16h16V416z M288,384h-16v-16h16V384z M320,480h-16V352h-80v128h-16V352h-80v128h-16V352H32v128H16
				V324.4L98.3,272h5.7v61.9L210.2,272h5.8v62.6l98.3-62.6h5.7V480z M360,416h-24v-64h24V416z M360,336h-24v-64h24V336z M400,416
				h-24v-64h24V416z M400,336h-24v-64h24V336z M440,416h-24v-64h24V416z M440,336h-24v-64h24V336z M480,416h-24v-64h24V416z
				 M480,336h-24v-64h24V336z"/>
			<path class="st0" d="M48,128c2,0,4-0.1,5.9-0.4c0.9-0.1,1.4,0.3,1.6,0.4c0.4,0.4,0.5,0.8,0.5,1V144H40v128h16v-48h48v16h16v-96
				h-16v-15.2c0-2.2,1.4-3.4,2-3.8c0.7-0.5,2.3-1.2,4.1-0.4c11.4,4.6,24.3,4.6,35.7,0c1.9-0.8,3.4-0.1,4.1,0.4c0.6,0.4,2,1.6,2,3.8
				V144h-16v128h16v-48h48v16h16v-96h-16v-32c10.7,0,21.1-3.6,29.4-10.2c7.3,6.5,16.7,10.2,26.6,10.2c20.8,0,38-16,39.8-36.3
				C305.7,70.1,312,59.6,312,48c0-17.6-14.4-32-32-32c-2.5,0-4.9,0.3-7.4,0.9C264.9,6,252.2-0.5,238.5,0
				c-12.4,0.5-23.7,6.7-30.8,16.7c-2.6-0.5-5.2-0.7-7.6-0.7c-5,0-9.9,0.8-14.5,2.3C178,6.8,164.7-0.4,150.5,0
				c-12.5,0.5-23.8,6.7-31,16.8c-2.4-0.5-4.9-0.8-7.5-0.8c-4.9,0-9.7,1-14.2,2.7C90.6,7.3,78,0,64,0C42.4,0,24.9,17.2,24.1,38.7
				C9.8,47.2-0.1,62.9,0,80.2C0.1,106.6,21.6,128,48,128z M104,208H56v-16h48V208z M104,176H56v-16h48V176z M200,208h-48v-16h48V208
				z M200,176h-48v-16h48V176z M47.3,48c4.7-0.1,9.2,0.8,13.5,2.7l6.5-14.6c-6.4-2.8-13.2-4.3-20.3-4c-1.9,0-3.8,0.2-5.6,0.5
				C44.5,23,53.4,16,64,16c8.4,0,16,4.4,20.3,11.2c-2.7,2.6-5,5.5-6.9,8.8l13.8,8c4.3-7.4,12.2-12,20.8-12c9.2,0,17.5,5.2,21.5,13.6
				l14.4-7c-3.1-6.4-7.6-11.6-13.1-15.4c4.2-4.4,10-7,16.3-7.2c8.2-0.4,15.6,3.5,20.2,9.7c-6.5,4.9-11.8,11.3-15.2,19l14.7,6.4
				C175.9,39.5,187.3,32,200,32c2.8,0,5.7,0.5,9.2,1.5l6.5,1.9l3-6c3.9-7.9,11.8-13.1,20.5-13.4c9.9-0.4,18.7,5.1,22.7,14l3.5,7.6
				l7.5-3.8c11-5.7,23.2,2.9,23.2,14.2c0,6.7-4.3,12.8-10.8,15l-5.6,2l0.4,7c0,13.2-10.8,24-24,24c-7.7,0-15-3.8-19.5-10.2l-5.8-8.2
				l-6.7,7.6c-7.5,8.5-19.2,12.4-30.4,10.2l-9.6-1.9V144h-16v-15.2c0-6.9-3.4-13.2-9.1-17.1c-5.7-3.8-12.8-4.6-19.1-2
				c-7.5,3-16.2,3-23.7,0c-6.3-2.6-13.4-1.8-19.1,2c-5.7,3.8-9.1,10.2-9.1,17.1V144H72v-14.9c0-5-2.1-9.8-5.9-13
				c-3.9-3.4-9-5-14.2-4.3c-1.3,0.2-2.6,0.2-3.9,0.2c-17.6,0-31.9-14.3-32-31.9C15.9,63.1,30.3,48.4,47.3,48z"/>
		</g>
	</g>
</g>
</svg>
