<?xml version="1.0" encoding="utf-8"?>
<!-- Generator: Adobe Illustrator 19.2.1, SVG Export Plug-In . SVG Version: 6.00 Build 0)  -->
<svg version="1.1" id="Capa_1" xmlns="http://www.w3.org/2000/svg" xmlns:xlink="http://www.w3.org/1999/xlink" x="0px" y="0px"
	 viewBox="0 0 497.4 497.4" style="enable-background:new 0 0 497.4 497.4;" xml:space="preserve">
<style type="text/css">
	.st0{fill:#D7282F;}
</style>
<g>
	<g>
		<path class="st0" d="M10.5,5.3h35.9c2,1.5,4.3,3.1,4.6,5.8c0.6,5,0.2,10.1,0.2,15.1c0,51.3-0.1,102.6,0,154
			c10.1,0.1,20.2,0.1,30.3,0c0.1-15.1,0.2-30.1-0.1-45.2c-4-0.2-8.3,0.4-12-1.6c-3.1-1.9-3.2-5.9-3.2-9.2c0.1-8.6,0-17.2,0-25.8
			c0-3.2,0.5-7.1,3.8-8.5c3.6-1.4,7.6-0.8,11.5-1c0.1-25.3-0.1-50.7,0.1-76c-0.2-3.3,2.2-5.9,4.8-7.5h96.7c2,1.5,4.3,3.2,4.6,5.8
			c0.6,4.7,0.2,9.4,0.2,14.1c0,21.2-0.1,42.4,0,63.6c3.8,0.2,7.8-0.4,11.5,1c3.3,1.5,3.8,5.4,3.8,8.5c0,8.6-0.1,17.2,0,25.8
			c0,3.2-0.1,7.3-3.2,9.2c-3.7,2-8,1.4-12,1.6c-0.2,15.1-0.1,30.1,0,45.2c20.2,0.1,40.5,0.1,60.7,0c0-25.2,0.2-50.4,0-75.6
			c-4-0.2-8.3,0.4-12-1.6c-3.1-1.9-3.2-5.9-3.2-9.2c0.1-8.3,0.1-16.5,0-24.8c0.1-2.8-0.1-6.2,2.1-8.3c1.6-1.7,4.2-2,6.4-2.1
			c59.9,0,119.9,0.1,179.8,0c2.5,0.1,5.5,0.1,7.4,2.1c2.2,2.2,2,5.5,2.1,8.3c-0.1,8.3-0.1,16.5,0,24.8c0,3.2,0,7.3-3.2,9.2
			c-3.7,2-8,1.4-12,1.6c-0.2,25.2-0.1,50.4,0,75.6c10.1,0.1,20.2,0.1,30.3,0c0.1-51.3,0-102.6,0-154c0.1-5-0.4-10.1,0.2-15.1
			c0.3-2.7,2.6-4.4,4.6-5.8h35.9c1.8,1.4,3.4,3,4.8,4.8v477.1c-1.5,2-3.2,4.3-5.9,4.7c-5.3,0.9-10.7,0.3-16,0.4
			c-147.7,0-295.3,0-443,0c-5.3-0.1-10.7,0.4-16-0.4c-2.6-0.4-4.4-2.7-5.8-4.7V10.1C7.1,8.4,8.7,6.7,10.5,5.3z M20.9,20.8
			c-0.2,62.3,0,124.7-0.1,187c0,89.7,0,179.3,0,269c5,0.1,10.1,0.1,15.2,0c0-152,0.1-304-0.1-456C31,20.8,25.9,20.8,20.9,20.8z
			 M97,20.8c-0.2,12.6-0.1,25.2-0.1,37.8c10.1,0.1,20.2-0.1,30.4,0.1c0.1,5.1,0.1,10.2,0,15.3c-10.1,0.2-20.2,0-30.3,0.1
			c-0.2,5-0.2,10-0.1,15c25.3,0,50.7,0.1,76,0c0-22.7,0.1-45.5-0.1-68.2C147.6,20.8,122.3,20.8,97,20.8z M462,20.8
			c-0.2,50.3,0,100.6-0.1,150.9c0,101.7,0,203.4,0,305.1c5,0.1,10.1,0.1,15.2,0c0-152,0.1-304-0.1-456C472,20.8,467,20.8,462,20.8z
			 M249.1,74c-0.2,5-0.2,10-0.1,15c55.7,0,111.5,0,167.2,0c0.1-5,0.1-10-0.1-15C360.5,74,304.8,74,249.1,74z M81.8,104.4
			c-0.2,5-0.2,10-0.1,15c35.5,0,70.9,0,106.4,0c0.1-5,0.1-10-0.1-14.9C152.6,104.5,117.2,104.5,81.8,104.4z M264.3,104.4
			c-0.2,15.1-0.1,30.2-0.1,45.4c30.4,0.1,60.8,0,91.2,0.1c0.1,5.1,0.1,10.2,0,15.3c-30.4,0.2-60.7,0.1-91.1,0.1
			c-0.2,5-0.2,10-0.1,15c45.6,0,91.2,0.1,136.8,0c0-25.3,0.1-50.5-0.1-75.8C355.4,104.5,309.9,104.5,264.3,104.4z M97,134.8
			c-0.2,5-0.2,10-0.1,15c10.1,0.1,20.2-0.1,30.3,0.1c0.1,5.1,0.1,10.2,0,15.3c-10.1,0.2-20.2,0-30.3,0.1c-0.2,5-0.2,10-0.1,15
			c25.3,0,50.7,0.1,76,0c0-15.1,0.1-30.2-0.1-45.4C147.6,134.9,122.3,134.9,97,134.8z M51.4,195.7c-0.2,43-0.1,86-0.1,129
			c7.6,0.1,15.2,0.1,22.8,0c0.1-32.7,0-65.3,0-98c0-2.3,0.3-4.8,2.1-6.4c1.9-2.1,4.8-2.1,7.4-2.1c29.8,0.1,59.7,0,89.5,0.1
			c4.2-0.3,7.8,3.4,7.5,7.5c0.1,33,0,65.9,0.1,98.9c5,0.1,10.1,0.1,15.2,0c0.1-33,0-65.9,0-98.9c-0.2-3.4,2.3-6.9,5.8-7.3
			c4.1-0.5,8.2-0.2,12.3-0.2c26.3,0,52.6,0,78.9,0c2.6,0,5.5,0.1,7.4,2.1c1.8,1.6,2.1,4.1,2.1,6.4c0,32.6-0.1,65.3,0,97.9
			c5,0.1,10.1,0.1,15.2,0c0.1-32.6,0-65.3,0-97.9c0-2.3,0.3-4.8,2.1-6.4c1.9-2.1,4.8-2.1,7.4-2.1c29.8,0.1,59.7,0,89.5,0.1
			c4.2-0.3,7.8,3.3,7.5,7.5c0.1,33,0,65.9,0.1,98.9c7.6,0.1,15.2,0.1,22.8,0c0-43,0.1-86-0.1-129
			C314.9,195.7,183.1,195.7,51.4,195.7z M89.4,233.7c-0.2,20.2-0.1,40.4-0.1,60.6c10.1,0.1,20.2-0.1,30.4,0.1
			c0.1,5.1,0.1,10.2,0,15.3c-10.1,0.2-20.2,0-30.3,0.1c-0.2,5-0.2,10-0.1,14.9c25.3,0,50.7,0.1,76,0c0-30.3,0.1-60.7-0.1-91
			C140,233.8,114.7,233.8,89.4,233.7z M211.1,233.7c-0.2,20.2-0.1,40.4-0.1,60.6c10.1,0.1,20.2-0.1,30.4,0.1
			c0.1,5.1,0.1,10.2,0,15.3c-10.1,0.2-20.2,0-30.3,0.1c-0.2,5-0.2,10-0.1,15c25.3,0,50.6,0,76,0c0-30.3,0.1-60.7-0.1-91
			C261.6,233.8,236.4,233.8,211.1,233.7z M332.7,233.7c-0.2,20.2-0.1,40.4-0.1,60.6c10.1,0.1,20.2-0.1,30.4,0.1
			c0.1,5.1,0.1,10.2,0,15.3c-10.1,0.2-20.2,0-30.3,0.1c-0.2,5-0.2,10-0.1,15c25.3,0,50.7,0,76,0c0-30.3,0.1-60.7-0.1-91
			C383.3,233.8,358,233.8,332.7,233.7z M51.4,340.2c-0.2,45.5-0.1,91.1-0.1,136.6c10.1,0.1,20.2,0.1,30.4,0
			c0-17.6,0.1-35.3-0.1-52.9c-3.4-0.1-6.8,0.2-10.1-0.6c-3.2-0.8-5.2-4-5-7.2c-0.2-8.9,0.1-17.8-0.1-26.7c0.1-3.1-0.4-6.9,2.1-9.3
			c1.9-2.1,4.8-2.1,7.4-2.1c40,0.1,79.9,0,119.9,0.1c3.8-0.2,7.4,2.8,7.4,6.6c0.3,8.9-0.1,17.7,0.1,26.6c-0.2,3.4,0.6,7.6-2.1,10.3
			c-3.5,3.2-8.7,2.1-13,2.4c-0.2,17.6-0.1,35.3-0.1,52.9c20.3,0,40.5,0,60.8,0c0-25.2,0.1-50.5-0.1-75.7c-3.4-0.1-6.8,0.2-10.1-0.6
			c-3.2-0.8-5.2-4-5-7.2c-0.2-8.9,0.1-17.8-0.1-26.7c0.1-3.1-0.4-6.9,2.1-9.3c1.9-2.1,4.8-2.1,7.4-2.1c60.2,0.1,120.5,0,180.7,0.1
			c3.8-0.2,7.4,2.8,7.4,6.6c0.3,9.2-0.1,18.4,0.1,27.6c-0.1,3.3,0.4,7.5-2.6,9.8c-3.6,2.7-8.4,1.7-12.5,1.9
			c-0.2,25.2-0.1,50.5-0.1,75.7c10.1,0.1,20.2,0.1,30.4,0c0-45.5,0.1-91.1-0.1-136.6C314.9,340.2,183.1,340.2,51.4,340.2z
			 M249.1,370.6c-0.2,5-0.2,10-0.1,15c55.7,0,111.5,0,167.2,0c0.1-5,0.1-10-0.1-15C360.5,370.6,304.8,370.6,249.1,370.6z
			 M81.8,393.4c-0.2,5-0.2,10-0.1,14.9c35.5,0,70.9,0,106.4,0c0.1-5,0.1-10-0.1-15C152.6,393.5,117.2,393.5,81.8,393.4z M264.3,401
			c-0.2,15.1-0.1,30.2-0.1,45.4c30.4,0.1,60.8,0,91.2,0.1c0.1,5.1,0.1,10.2,0,15.3c-30.4,0.2-60.7,0.1-91.1,0.1
			c-0.2,5-0.2,10-0.1,15c45.6,0,91.2,0,136.8,0c0-25.3,0.1-50.5-0.1-75.8C355.4,401.1,309.9,401.1,264.3,401z M97,423.8
			c-0.2,7.5-0.1,15-0.1,22.6c10.1,0.1,20.2-0.1,30.4,0.1c0.1,5.1,0.1,10.2,0,15.3c-10.1,0.2-20.2,0-30.3,0.1c-0.2,5-0.2,10-0.1,14.9
			c25.3,0,50.7,0,76,0c0-17.7,0.1-35.3-0.1-53C147.6,423.9,122.3,423.9,97,423.8z"/>
	</g>
	<path class="st0" d="M142.6,58.6c5-0.1,10.1-0.1,15.1,0c0.1,5.1,0.1,10.2,0,15.3c-5,0.2-10.1,0.2-15.1,0
		C142.5,68.8,142.5,63.7,142.6,58.6z"/>
	<path class="st0" d="M142.6,149.8c5-0.1,10.1-0.1,15.1,0c0.1,5.1,0.1,10.2,0,15.3c-5,0.2-10.1,0.2-15.1,0
		C142.5,160.1,142.5,155,142.6,149.8z"/>
	<path class="st0" d="M370.7,149.8c5-0.1,10.1-0.1,15.1,0c0.1,5.1,0.1,10.2,0,15.3c-5,0.2-10.1,0.2-15.1,0
		C370.6,160.1,370.6,155,370.7,149.8z"/>
	<path class="st0" d="M135,294.3c5-0.1,10.1-0.1,15.1,0c0.1,5.1,0.1,10.2,0,15.3c-5,0.2-10.1,0.2-15.1,0
		C134.9,304.6,134.9,299.4,135,294.3z"/>
	<path class="st0" d="M256.6,294.3c5-0.1,10.1-0.1,15.1,0c0.1,5.1,0.1,10.2,0,15.3c-5,0.2-10.1,0.2-15.1,0
		C256.5,304.6,256.5,299.4,256.6,294.3z"/>
	<path class="st0" d="M378.3,294.3c5-0.1,10.1-0.1,15.1,0c0.1,5.1,0.1,10.2,0,15.3c-5,0.2-10.1,0.2-15.1,0
		C378.2,304.6,378.2,299.4,378.3,294.3z"/>
	<path class="st0" d="M142.6,446.4c5-0.1,10.1-0.1,15.1,0c0.1,5.1,0.1,10.2,0,15.3c-5,0.2-10.1,0.2-15.1,0
		C142.5,456.7,142.5,451.6,142.6,446.4z"/>
	<path class="st0" d="M370.7,446.4c5-0.1,10.1-0.1,15.1,0c0.1,5.1,0.1,10.2,0,15.3c-5,0.2-10.1,0.2-15.1,0
		C370.6,456.7,370.6,451.6,370.7,446.4z"/>
</g>
</svg>
