<?xml version="1.0" encoding="utf-8"?>
<!-- Generator: Adobe Illustrator 19.2.1, SVG Export Plug-In . SVG Version: 6.00 Build 0)  -->
<svg version="1.1" id="Capa_1" xmlns="http://www.w3.org/2000/svg" xmlns:xlink="http://www.w3.org/1999/xlink" x="0px" y="0px"
	 viewBox="0 0 497.4 497.4" style="enable-background:new 0 0 497.4 497.4;" xml:space="preserve">
<style type="text/css">
	.st0{fill:#D9232E;}
	.st1{fill:#D7282F;}
</style>
<g>
	<g>
		<path class="st0" d="M104.6,6.1h3.7c2.6,0.9,5,2.9,5.6,5.7c0.3,2.5,0.2,5,0.2,7.5c0,39.5,0,79,0,118.5
			c44.1-13.2,88.2-26.5,132.2-39.7c3-1,6.1,0.1,9,1.1c36.1,11.5,72.3,22.8,108.4,34.3c4.5,1.4,6.6,7.3,4.1,11.2
			c-1.7,3.3-6.1,4.7-9.4,3.4c-35.9-11.3-71.8-22.7-107.7-34c-2.3-0.9-4.6,0.5-6.8,1c-63.6,19.1-127.2,38.2-190.8,57.2
			c0,100.8,0,201.6,0,302.4c15.2,0,30.4,0,45.6,0c0-51.9,0-103.9,0-155.8c-0.1-4,3.6-7.4,7.6-7.2c95.2,0,190.3,0,285.5,0
			c3.4-0.2,6.4,2.3,7.4,5.5c0.3,2.5,0.1,5,0.2,7.5c0,50,0,100,0,150.1c11.8,0,23.6,0,35.4,0c0.1-100.8,0-201.6,0-302.5
			c-15.3-4.9-30.7-9.6-46-14.6c-5.8-1.9-6.5-10.8-1.3-13.8c3.3-2.3,7.3-0.6,10.7,0.5c15.6,5,31.2,9.9,46.8,14.8
			c3.2,1,5.6,4.2,5.4,7.6c0,102.7,0,205.3,0,308c11,0,22.1,0,33.1,0c3.5-0.2,6.4,2.5,7.5,5.6v3.8c-0.8,3.4-3.9,6.2-7.5,5.9
			c-37.5,0-75,0-112.6,0c-4,0.2-7.5-3.6-7.3-7.5c-0.3-4.1,3.3-7.9,7.4-7.8c4.3-0.1,8.6,0,13,0c0-49.1-0.1-98.3,0-147.4
			c-90-0.2-180-0.1-270,0c0.1,49.1,0,98.3,0,147.4c18.6,0,37.2,0,55.8,0c0-41.2,0-82.4,0-123.6c-0.2-3.4,1.4-7,4.7-8.3
			c4.6-2.3,10.7,1.3,10.9,6.5c0.1,41.8,0,83.6,0.1,125.4c18.6,0,37.2,0,55.7,0c0-41.5,0-83,0-124.6c-0.4-5.3,5.7-9.6,10.5-7.5
			c3.1,1,5.2,4.2,5,7.5c0,41.5,0,83,0,124.5c18.6,0,37.1,0,55.7,0c0.2-41.5,0-83.1,0.1-124.6c-0.2-3.7,2.7-7.4,6.4-7.8
			c4.7-1,9.4,3.1,9.2,7.9c0.1,41.5-0.1,83,0.1,124.5c4.8,0.1,9.6-0.2,14.3,0.1c4.9,1,7.6,7.3,4.9,11.5c-1.6,3.1-5.4,4.1-8.6,3.9
			c-105.6,0-211.1,0-316.7,0c-3.2,0-6.4,0.2-9.6-0.4c-2.8-0.6-4.8-3.1-5.5-5.7v-3.7c1-3.2,4-5.9,7.6-5.7c7.6,0,15.3,0,22.9,0
			c0-102.7,0-205.3,0-308c-0.2-3.4,2.2-6.7,5.4-7.6c18.6-5.6,37.2-11.2,55.8-16.7c0-41,0-82.1,0-123.1c0-2.5-0.2-5.1,0.2-7.6
			C99.5,8.9,101.9,6.8,104.6,6.1z"/>
		<path class="st1" d="M18,493.3c-2,0-4-0.1-6-0.5c-3.7-0.8-6.8-3.9-7.9-7.9L4,484.6V480l0.1-0.4c1.5-4.8,5.8-8.1,10.5-7.8
			c4.3,0,8.5,0,12.8,0c2.4,0,4.7,0,7.1,0c0-101.7,0-203.3,0-304.9c-0.2-4.8,3.1-9.3,7.6-10.5c12.8-3.9,25.8-7.8,38.7-11.6l14.9-4.5
			c0-26.6,0-53.2,0-79.8l0-41c0-0.8,0-1.5,0-2.2c0-1.9-0.1-3.8,0.2-5.8l0-0.2c0.8-3.7,3.9-6.8,7.9-7.9l0.4-0.1h4.6l0.5,0.2
			c3.9,1.4,6.8,4.4,7.5,7.9l0,0.2c0.3,2,0.2,4,0.2,5.9c0,0.7,0,1.4,0,2c0,26.4,0,52.7,0,79l0,35.5c18.9-5.7,37.7-11.3,56.6-17
			c23.9-7.2,47.8-14.4,71.8-21.5c3.7-1.2,7.3,0,10.2,0.9l0.5,0.2c16.4,5.2,32.8,10.4,49.3,15.6c19.4,6.1,39.4,12.4,59.1,18.7
			c3,0.9,5.4,3.2,6.6,6.4c1.2,3.1,0.9,6.6-0.7,9.2c-2.4,4.4-8.2,6.5-13,4.7l-35.5-11.2c-24.1-7.6-48.1-15.2-72.2-22.8l-0.2-0.1
			c-0.6-0.2-1.5,0-2.9,0.5c-0.6,0.2-1.3,0.4-2,0.6c-49.4,14.8-98.9,29.7-148.3,44.5l-40.3,12.1c0,99,0,198.1,0,297.2
			c5.1,0,10.2,0,15.3,0c8.1,0,16.2,0,24.3,0c0-27.9,0-55.7,0-83.6c0-23.1,0-46.1,0-69.2c-0.1-2.6,1-5.2,3.1-7.2c2.1-2,4.8-3.1,7.6-3
			c95.1,0,190.2,0,285.3,0c4.6-0.2,9,3,10.3,7.6l0.1,0.5c0.3,2,0.2,3.9,0.2,5.7c0,0.7,0,1.4,0,2.2l0,37.6c0,36.5,0,73,0,109.6
			c4.1,0,8.2,0,12.3,0c5.7,0,11.4,0,17.1,0c0-56.6,0-113.2,0-169.8c0-42.5,0-85,0-127.4c-6-1.9-12-3.8-17.9-5.7
			c-8.5-2.7-17.4-5.5-26-8.3c-3.8-1.2-6.4-4.7-6.8-8.9c-0.4-4.3,1.5-8.3,4.9-10.3c4.3-2.8,8.9-1.3,12.4-0.1l0.9,0.3
			c10.6,3.4,21.3,6.7,31.9,10.1l14.8,4.7c4.6,1.4,7.7,5.9,7.5,10.6c0,51.3,0,102.6,0,153.9c0,50.3,0,100.6,0,151l8,0
			c7.3,0,14.7,0,22,0c5.2-0.2,8.9,3.6,10.4,7.6l0.2,0.5v4.7l-0.1,0.4c-1.3,5-5.8,8.5-10.5,8.2c-15.9,0-31.8,0-47.6,0
			c-21.6,0-43.2,0-64.7,0c-2.7,0.1-5.3-1-7.3-3c-2.1-2.1-3.2-4.8-3.1-7.5c-0.2-2.7,0.9-5.5,2.9-7.6c2-2.1,4.8-3.3,7.5-3.3
			c2.4,0,4.8,0,7.1,0c0.9,0,1.9,0,2.8,0c0-18.4,0-36.9,0-55.3c0-28.2,0-57.3,0-86.1c-91.2-0.2-180.7-0.1-264,0c0,27.7,0,55.8,0,83
			c0,19.5,0,39,0,58.4h49.8c0-22.5,0-45.1,0-67.6c0-17.6,0-35.3,0-52.9c-0.2-4.2,1.7-9.2,6.5-11.1c3.1-1.5,6.8-1.2,9.9,0.7
			c3.1,1.9,5,5.1,5.1,8.5c0.1,21.7,0.1,43.7,0,64.9c0,18.9,0,38.4,0,57.6c9.5,0,19.1,0,28.6,0c7,0,14.1,0,21.1,0
			c0-16.1,0-32.2,0-48.3c0-24.4,0-48.7,0-73.1c-0.2-3.5,1.4-6.8,4.5-9c3-2.2,6.9-2.7,10.1-1.4c4.2,1.5,7.2,5.8,7,10.4
			c0,24.4,0,48.9,0,73.3c0,16.1,0,32.1,0,48.2c6.1,0,12.3,0,18.4,0c10.3,0,20.8,0,31.3,0c0.1-24.6,0.1-49.6,0.1-73.8
			c0-15.9,0-31.8,0-47.7c-0.2-5.3,3.8-10.1,8.9-10.9c3.1-0.6,6.3,0.2,8.8,2.4c2.6,2.2,4,5.4,3.9,8.6c0.1,19.5,0,39.3,0,58.4
			c0,20.7,0,42,0,63.1c0.7,0,1.4,0,2.2,0c3.1,0,6.2-0.1,9.4,0.2l0.3,0c3.3,0.6,6.1,3,7.5,6.2c1.4,3.3,1.2,6.9-0.5,9.7
			c-2,3.7-6.2,5.7-11.3,5.4H22.1c-0.8,0-1.6,0-2.4,0C19.1,493.3,18.6,493.3,18,493.3z M10,483.7c0.5,1.4,1.6,2.9,3.2,3.3
			c2,0.4,4.2,0.4,6.5,0.3c0.8,0,1.7,0,2.5,0h316.7l0.1,0c2.2,0.1,4.8-0.4,5.8-2.3l0.1-0.2c0.7-1.2,0.8-2.8,0.2-4.2
			c-0.6-1.4-1.7-2.4-3-2.7c-2.8-0.2-5.7-0.2-8.7-0.1c-1.7,0-3.5,0-5.3,0l-2.9,0l0-2.9c-0.1-22-0.1-44.4-0.1-66.1c0-19.2,0-39,0-58.4
			l0-0.2c0.1-1.4-0.6-2.8-1.7-3.8c-1.1-1-2.5-1.3-3.8-1.1l-0.3,0c-2.1,0.3-3.9,2.5-3.8,4.7l0,0.1c0,15.9,0,31.9,0,47.8
			c0,25.2,0,51.2-0.1,76.8l0,3l-3,0c-11.4,0-23,0-34.3,0c-7.1,0-14.3,0-21.4,0l-3,0l0-3c0-17.1,0-34.1,0-51.2c0-24.5,0-48.9,0-73.3
			l0-0.1c0.1-2-1.2-3.9-3-4.5l-0.2-0.1c-1.6-0.7-3.3-0.1-4.4,0.7c-1.3,1-2.1,2.4-2,3.8l0,0.2c0,24.4,0,48.8,0,73.2
			c0,17.1,0,34.2,0,51.3l0,3l-3,0c-8,0-16.1,0-24.1,0c-10.5,0-21.1,0-31.6,0l-3,0l0-3c-0.1-20.2,0-40.8,0-60.6c0-21.2,0-43.2,0-64.8
			c0-1.3-0.9-2.6-2.2-3.4c-1.4-0.9-3-1-4.3-0.4l-0.3,0.1c-2.1,0.8-2.9,3.3-2.8,5.3l0,0.2c0,17.7,0,35.3,0,53c0,23.5,0,47.1,0,70.6
			l0,3h-61.8l0-3c0-20.5,0-41,0-61.4c0-28.2,0-57.3,0-86l0-3l3,0c85-0.1,176.6-0.1,270,0l3,0l0,3c-0.1,29.7-0.1,59.9,0,89.1
			c0,19.4,0,38.9,0,58.3l0,3l-3,0c-2,0-3.9,0-5.9,0c-2.3,0-4.7,0-7,0l-0.1,0l-0.1,0c-1.1,0-2.2,0.5-3.1,1.4
			c-0.9,0.9-1.3,2.1-1.2,3.2l0,0.2l0,0.2c-0.1,1.1,0.4,2.3,1.3,3.2c0.8,0.8,1.9,1.3,2.9,1.2l0.2,0c21.6,0,43.2,0,64.8,0
			c15.9,0,31.8,0,47.8,0l0.2,0c2,0.2,3.7-1.5,4.3-3.3v-2.8c-0.8-1.7-2.4-3.3-4.4-3.2l-0.2,0c-7.4,0-14.7,0-22.1,0l-14,0l0-3
			c0-51.3,0-102.7,0-154c0-51.3,0-102.7,0-154l0-0.2c0.1-2-1.3-4-3.3-4.6l-14.8-4.7c-10.7-3.4-21.3-6.7-32-10.1l-1-0.3
			c-3.2-1.1-5.5-1.7-7.2-0.6l-0.2,0.1c-1.7,1-2.1,3.1-2,4.5c0.1,0.7,0.5,3.1,2.7,3.8c8.6,2.8,17.4,5.6,26,8.3
			c6.7,2.1,13.4,4.2,20,6.3l2.1,0.7l0,2.2c0,43.2,0,86.4,0,129.6c0,57.6,0,115.2,0,172.8l0,3l-3,0c-6.7,0-13.4,0-20.1,0
			c-5.1,0-10.2,0-15.3,0l-3,0l0-3c0-37.5,0-75,0-112.6l0-37.5c0-0.7,0-1.5,0-2.3c0-1.6,0-3.1-0.1-4.6c-0.7-1.9-2.5-3.2-4.3-3.1
			l-0.1,0c-95.2,0-190.3,0-285.5,0l-0.1,0c-1.1,0-2.3,0.4-3.2,1.3c-0.8,0.8-1.3,1.9-1.3,2.8c0,23.2,0,46.2,0,69.3
			c0,28.9,0,57.7,0,86.6l0,3l-3,0c-9.1,0-18.2,0-27.2,0c-6.1,0-12.2,0-18.3,0l-3,0l0-3c0-100.8,0-201.6,0-302.4v-2.2l44.5-13.4
			c49.5-14.8,98.9-29.7,148.4-44.5l0.2,0c0.5-0.1,1-0.3,1.5-0.5c1.8-0.6,4.3-1.5,6.9-0.4c24,7.6,48,15.2,72.1,22.8l35.7,11.3
			c2.1,0.8,4.8-0.1,5.7-2l0.1-0.2c0.7-1.1,0.8-2.6,0.3-4c-0.5-1.4-1.5-2.4-2.7-2.7c-19.7-6.3-39.8-12.6-59.2-18.7
			c-16.4-5.2-32.9-10.4-49.3-15.6l-0.6-0.2c-2.4-0.8-4.6-1.5-6.5-0.9c-24,7.2-47.9,14.4-71.8,21.5c-20.2,6.1-40.3,12.1-60.5,18.1
			l-3.9,1.2l0-43.5c0-26.3,0-52.7,0-79c0-0.7,0-1.4,0-2.1c0-1.7,0-3.3-0.1-4.9c-0.4-1.8-2.2-2.8-3.2-3.2h-2.7
			c-1.6,0.6-2.9,1.8-3.2,3.1c-0.2,1.5-0.2,3.1-0.1,4.8c0,0.8,0,1.6,0,2.4l0,41c0,27.4,0,54.7,0,82.1l0,2.2l-19.2,5.7
			c-12.9,3.9-25.8,7.7-38.8,11.6c-2,0.5-3.4,2.6-3.3,4.5l0,0.2c0,102.7,0,205.3,0,308l0,3l-3,0c-3.4,0-6.7,0-10.1,0
			c-4.3,0-8.5,0-12.8,0l-0.2,0c-2-0.1-3.7,1.5-4.4,3.3V483.7z"/>
	</g>
	<g>
		<g>
			<path class="st0" d="M98.6,207.4c-0.3-4.1,3.5-8.1,7.7-7.8c93.6,0,187.1,0,280.7,0c2.2,0,4.5-0.1,6.7,0.2
				c3.3,0.9,5.9,4.1,5.6,7.6c-0.1,13.9,0,27.8,0,41.7c-0.2,3.8-3.9,6.7-7.6,6.7c-94.8,0-189.7,0-284.5,0c-3,0.2-6.3-1.2-7.6-4
				c-1.5-2.6-0.7-5.8-0.9-8.6c0.2-3.5-0.9-7.6,1.7-10.5c3-3.7,9.4-3.5,12.2,0.4c1.7,2,1.5,4.7,1.5,7.1c42.4,0,84.7,0,127.1,0
				c0.2-8.4-0.5-16.9,0.4-25.3c-45.1,0-90.2,0-135.3,0C102.2,215.2,98.4,211.5,98.6,207.4z M256.4,215c0.9,8.4,0.2,16.9,0.4,25.3
				c42.4,0,84.8,0,127.1,0c0-8.4,0-16.8,0-25.3C341.4,215,298.9,215,256.4,215z"/>
			<path class="st1" d="M106.7,258.9c-4.2,0-8.1-2.2-9.8-5.6c-1.4-2.5-1.3-5.3-1.2-7.4c0-0.8,0.1-1.6,0-2.4l0-0.2l0-0.2
				c0.1-0.8,0-1.7,0-2.6c-0.1-3-0.2-6.7,2.4-9.7c2-2.5,5.1-3.8,8.5-3.7c3.3,0.1,6.4,1.7,8.3,4.2c1.5,1.9,2,4,2.1,6h121.2
				c0-2.1,0-4.3,0-6.4c-0.1-4.2-0.1-8.5,0.1-12.9c-16.9,0-33.8,0-50.8,0c-27.1,0-54.2,0-81.3,0c-2.8,0.1-5.6-1-7.7-3.1
				c-2-2-3.1-4.7-3-7.4c-0.2-2.8,0.9-5.6,3-7.7c2.1-2.1,4.9-3.3,7.7-3.1H387c0.6,0,1.2,0,1.8,0c1.7,0,3.5,0,5.3,0.2l0.3,0.1
				c4.8,1.2,8.2,5.9,7.9,10.7c0,6.5,0,13,0,19.5c0,7.3,0,14.8,0,22.2l0,0.1c-0.3,5.2-5.1,9.6-10.6,9.6c0,0,0,0-0.1,0
				c-44.5,0-89.1,0-133.7,0c-50.2,0-100.5,0-150.7,0C107.1,258.9,106.9,258.9,106.7,258.9z M101.7,243.3c0.1,1,0,1.9,0,2.8
				c-0.1,1.7-0.1,3.3,0.5,4.3l0.1,0.1c0.9,1.7,3.1,2.4,4.8,2.3l0.2,0c50.3,0,100.5,0,150.8,0c44.6,0,89.1,0,133.7,0c0,0,0,0,0,0
				c2.1,0,4.4-1.6,4.6-3.8c0-7.4,0-14.8,0-22.1c0-6.5,0-13.1,0-19.6l0-0.3c0.2-1.8-1.3-3.8-3.2-4.4c-1.3-0.2-2.7-0.1-4.2-0.1
				c-0.6,0-1.3,0-1.9,0H106.2l-0.1,0c-1.1-0.1-2.2,0.4-3.1,1.3c-0.9,0.9-1.4,2.1-1.3,3.3l0,0.2l0,0.2c-0.1,1,0.4,2.1,1.3,3
				c0.9,0.9,2.1,1.4,3.2,1.3l0.2,0c27.1,0,54.2,0,81.3,0c18,0,36,0,54,0l3.3,0l-0.3,3.3c-0.5,5.1-0.4,10.4-0.4,15.5
				c0,3.1,0.1,6.4,0,9.6l-0.1,2.9h-133l0-3.7c0-1.8,0-3.6-0.8-4.5l-0.1-0.2c-0.8-1.1-2.1-1.7-3.7-1.8c-1.5,0-2.9,0.5-3.7,1.6
				l-0.1,0.1c-1,1.1-1,2.8-0.9,5.5C101.7,241.3,101.8,242.3,101.7,243.3z M386.9,243.3H253.9l-0.1-2.9c-0.1-3.2,0-6.4,0-9.6
				c0.1-5.1,0.1-10.4-0.4-15.5l-0.3-3.3l3.3,0c14.1,0,28.2,0,42.4,0c28.4,0,56.8,0,85.2,0l3,0l0,3c0,5.3,0,10.6,0,15.9
				c0,3.1,0,6.2,0,9.3L386.9,243.3z M259.8,237.3h121.2c0-2.1,0-4.2,0-6.3c0-4.3,0-8.6,0-13c-27.4,0-54.8,0-82.2,0
				c-13,0-26.1,0-39.1,0c0.3,4.3,0.2,8.7,0.1,12.9C259.8,233,259.7,235.1,259.8,237.3z"/>
		</g>
	</g>
</g>
</svg>
