<?xml version="1.0" encoding="utf-8"?>
<!-- Generator: Adobe Illustrator 19.2.1, SVG Export Plug-In . SVG Version: 6.00 Build 0)  -->
<svg version="1.1" id="Capa_1" xmlns="http://www.w3.org/2000/svg" xmlns:xlink="http://www.w3.org/1999/xlink" x="0px" y="0px"
	 viewBox="0 0 497.4 497.4" style="enable-background:new 0 0 497.4 497.4;" xml:space="preserve">
<style type="text/css">
	.st0{fill:#D7282F;}
</style>
<g>
	<g>
		<path class="st0" d="M93,129.2c0.1-3.1,3.3-4.8,6.1-4.5c26.3,0,52.5,0,78.8,0c2.7-0.2,5.3,1.2,6.2,3.8c6.2,14,12.4,28.1,18.5,42.2
			c84.7,0.1,169.4,0,254.1,0c2.9-0.3,5.8,1,6.9,3.9c9.2,18.6,18.4,37.3,27.6,55.9c2.1,4.5,4.7,8.7,6.2,13.4v1
			c-0.6,2.1-2.2,3.7-4.4,4.3c-15.1,5.3-30.2,10.5-45.2,15.8c-4,1.5-8.4,0.9-12.6,1c-71.9,0-143.8,0-215.7,0c-3.4,0-6.9,0.3-10.3-0.2
			c-2.6-0.3-3.7-2.9-4.6-4.9c-10.4-24.7-20.8-49.3-31.2-73.9c-2.6,0-5.3,0-7.9,0c7.4,21.3,14.8,42.5,22.2,63.8
			c3.8,0.4,9.5-1.4,11.5,3c1,6.3,0.2,12.7,0.4,19c78.6,0,157.2,0,235.8,0c2.3-0.1,5,0.4,5.9,2.8c0.9,2.9,0.4,6,0.5,9
			c4.7,4.8,9.6,9.5,14.3,14.4c0.5-2.3,0.4-5.3,2.9-6.4c2.9-1.6,6.9,0.6,6.9,3.9c0.4,6.7,0,13.4,0.2,20c-0.1,2.3,0.3,5-1.5,6.8
			c-2.3,2.5-7.1,1.3-7.9-2c-0.5-2.8-0.3-5.6-0.3-8.4c-4.9-4.9-9.7-9.8-14.7-14.6c-0.7,5.6,3,10.1,4.2,15.3c3,11.1,1.3,23.4-4.5,33.3
			c-5.4,9.4-14.5,16.6-24.9,19.7c-12.4,3.9-26.5,1.8-37.1-5.7c-9.3-6.2-15.7-16.2-18.2-27c-3.6,0-7.1,0-10.7,0
			c-2.5,10.7-8.7,20.5-17.8,26.8c-11.8,8.4-27.9,10.2-41.2,4.7c-13.3-5.3-23.3-17.5-26.4-31.5c-3.7,0-7.5,0-11.2,0
			c-0.3,2.7-0.1,6.7-3.4,7.7c-3.1,0.7-6.3,0.3-9.4,0.4c-27.9,0-55.7,0-83.5,0c-2.1-0.1-4.7,0.1-6.1-1.8c-1.3-1.8-1-4.3-1.3-6.4
			c-2.6,13.1-11.7,24.7-23.8,30.4c-10.4,5.1-22.8,5.6-33.7,1.7c-9.9-3.6-18.4-10.9-23.4-20.3c-5.5-10-6.7-22.3-3.3-33.2
			c3.5-12,12.7-22.2,24.2-27.2c14.9-6.7,33.2-3.9,45.7,6.6c0-4.5,0-9.1,0-13.6c-2.7-2.7-4.7-6.1-6-9.7c-12.7,0.2-25.5,0.1-38.2,0.4
			c-11.2,0.1-21.7,8.4-24.4,19.3c-1.9,8.4-2.5,17-4.1,25.4c-0.3,2.3-2.3,4.1-4.6,4.1c-7.7,0.3-15.4,0-23.2,0.1c-1,2.1-2.2,4.8-5,4.7
			c-8.4,0.2-16.9,0.2-25.3,0c-2.5,0.1-4-1.9-4.8-4v-21.1c0.5-1.8,1.4-3.8,3.4-4.3c3.6-0.7,7.3-0.3,11-0.3c-1.4-3.6-3.2-7.2-3.1-11.1
			c0-18.8,0-37.6,0-56.3c-0.1-3.8,1.9-7.2,3.4-10.6c6.8-15,13.4-29.9,20.2-44.9c2.1-4.7,5.2-9.1,9.8-11.6c4.4-2.6,9.7-2.8,14.6-2.8
			c21.1,0.1,42.1-0.1,63.2,0.1c8.6-0.1,16,7.8,15.6,16.4c0,25.7,0,51.4,0,77.1c3.9-1.6,8.2-2.8,12.4-1.9c3.2,0.5,5.7,2.8,8.8,3.5
			c6,0.3,12.1,0,18.1,0.1c-7.4-21.1-14.6-42.4-22.1-63.5c-2.1-0.9-4.2-2-5-4.2c-4.8-10.5-9.5-21.1-14.3-31.6c-8.4,0-16.8,0-25.2,0
			c-2.3,0-5.1-0.1-6.4-2.2c-2.9-4-5.2-8.4-7.9-12.5C95,134.3,93.1,132,93,129.2z M106.4,134.3c1.5,2.4,3,4.8,4.5,7.2
			c16.5,0,33,0,49.4,0c3-0.3,5.4,1.8,6.3,4.5c15.5,36.7,31,73.4,46.5,110.1c5.3,0,10.6,0,16,0c-9.2-21.1-18.5-42.3-27.7-63.4
			c-0.9-2-1.6-4.4-0.2-6.3c1.2-1.9,3.6-2.1,5.7-2.1c83.6,0,167.2,0,250.7,0c-0.7-1.4-1.4-2.7-2-4c-84.9,0-169.8,0-254.6,0
			c-2.5,0.1-5.1-0.8-6.1-3.3c-6.4-14.2-12.5-28.5-18.8-42.7C152.9,134.3,129.6,134.3,106.4,134.3z M146.5,151.3
			c3.9,8.6,7.8,17.2,11.6,25.8c3.7,0,7.4,0,11,0c-3.6-8.6-7.3-17.2-10.9-25.8C154.4,151.3,150.4,151.3,146.5,151.3z M44.6,171.7
			c-7.5,16.5-14.9,33.2-22.4,49.7c-0.7,1.5-1.3,3.1-1.2,4.8c0,17.8,0,35.6,0,53.4c-0.3,4.7,2.4,8.7,3.8,13c3.3,0.1,8-0.8,9.5,3.1
			c0.8,4,0.2,8.2,0.4,12.3c6.4,0,12.8,0,19.2,0c2.1-10.7,1.8-22.3,7.7-31.8c6.1-10.3,17.8-16.9,29.7-17.1c12.3-0.3,24.7-0.2,37-0.4
			c-0.1-29,0-58-0.1-87c0.3-3.8-3.1-7-6.8-6.7c-22.1-0.1-44.2,0-66.3,0C50.8,164.9,46.4,167.6,44.6,171.7z M212.5,194.1
			c9,20.7,18.1,41.5,27.2,62.2c8.3,0,16.6,0,24.9,0c-9-20.7-18.1-41.3-27-62.1C229.2,194,220.9,194.1,212.5,194.1z M248,194.1
			c9,20.7,18.1,41.4,27.1,62.2c7.4,0,14.8,0,22.1,0c-9-20.7-18.1-41.5-27.1-62.2C262.8,194.1,255.4,194.1,248,194.1z M280.7,194.1
			c9.1,20.7,18.1,41.5,27.2,62.2c7.4,0,14.7,0,22.1,0c-9-20.7-18.1-41.4-27.1-62.2C295.5,194.1,288.1,194.1,280.7,194.1z
			 M313.4,194.1c9,20.7,18.2,41.3,27,62.1c7.4,0.2,14.8,0.1,22.3,0.1c-9.1-20.7-18.1-41.5-27.2-62.2
			C328.1,194.1,320.8,194.1,313.4,194.1z M346.1,194.1c9,20.7,18.1,41.5,27.2,62.2c7.4,0,14.7,0,22.1,0c-9-20.7-18.1-41.5-27.2-62.2
			C360.9,194.1,353.5,194.1,346.1,194.1z M378.8,194.1c9,20.7,18.1,41.5,27.1,62.2c7.4,0,14.7,0,22.1,0
			c-9.1-20.7-18.1-41.4-27.1-62.2C393.6,194.1,386.2,194.1,378.8,194.1z M411.5,194.1c9,20.7,18.1,41.4,27.1,62.2
			c7,0.4,13.2-3.5,19.8-5.3c-8.2-19-16.6-37.8-24.7-56.8C426.4,194,419,194.1,411.5,194.1z M444.3,194.1
			c7.8,17.9,15.6,35.8,23.4,53.6c6-2.1,12.1-4.2,18.1-6.3c-7.8-15.8-15.6-31.5-23.3-47.3C456.4,194.1,450.3,194.1,444.3,194.1z
			 M144.1,256.9c-5.4,1.8-6.9,9.6-2.6,13.3c4.2,4.3,12.4,1.7,13.3-4.3C156.3,260,149.7,254.5,144.1,256.9z M164.3,260.3
			c0.7,4.2,0.1,8.5-1.6,12.4c9,0,18,0,27,0c0-4.1,0-8.2,0-12.4C181.3,260.3,172.8,260.3,164.3,260.3z M145.3,282.3
			c0.2,7.1-0.3,14.3,0.2,21.4c1.8,4.1,3.6,8.3,4.6,12.7c0.1-8.4-0.1-16.8,0.1-25.1c-0.2-2.9,2.4-5.3,5.2-5.1
			c30.1-0.1,60.2,0,90.3-0.1c2.2,0.1,4.8-0.2,6.5,1.6c1.4,1.4,1.3,3.6,1.4,5.5c0,10.3,0,20.6,0,30.9c3.5,0,7,0,10.5,0
			c0.4-6.2,1.6-12.5,4.4-18.1c5.6-11.9,16.9-20.6,29.6-23.6C247.2,282.3,196.3,282.3,145.3,282.3z M317.3,282.4
			c6,1.7,11.9,4.1,16.9,8.1c10.4,7.9,16.7,20.6,17.1,33.7c3,0,5.9,0,8.9,0c0.4-8.8,3.1-17.5,8.3-24.6c6.1-8.6,15.4-14.5,25.6-17.1
			C368.5,282.3,342.9,282.3,317.3,282.4z M414,282.4c6.6,1.9,12.8,4.9,18.1,9.3c0-3.1,0-6.3,0-9.4C426,282.4,420,282.3,414,282.4z
			 M99.6,292c-13.3,3-24.1,14.8-25.7,28.3c-1.7,11.2,2.9,23,11.6,30.2c8.4,7.3,20.5,9.9,31.2,6.8c13.5-3.6,23.8-16.4,24.5-30.3
			c0.8-10.8-4-21.7-12.4-28.4C120.7,292.1,109.6,289.6,99.6,292z M300.6,291.8c-14,2.8-25.3,15.3-26.6,29.5
			c-1.3,10.9,3.2,22.1,11.6,29.2c7.1,6.2,16.9,9.1,26.2,7.9c10.4-1.2,20-7.6,25.1-16.7c3.7-6.4,5.2-14,4.2-21.2
			c-1.3-10.4-7.8-20-17-25.1C317.1,291.4,308.6,290.2,300.6,291.8z M396.8,291.8c-13.7,2.7-24.9,14.7-26.6,28.6
			c-1.6,11.2,2.9,22.9,11.5,30.2c7.1,6.2,17,9.1,26.3,7.9c10.4-1.2,19.9-7.7,25.1-16.8c3.6-6.3,5.1-13.9,4.1-21.1
			c-1.3-10.4-7.8-19.9-16.9-25C413.3,291.4,404.7,290.2,396.8,291.8z M159.9,295.8c0,12.1,0,24.2,0,36.3c4.6,0,9.2,0,13.7,0
			c0-12.1,0-24.2,0-36.4C169,295.8,164.4,295.8,159.9,295.8z M183.3,295.8c0,12.1,0,24.2,0,36.3c12.4,0,24.8,0,37.1,0
			c0-12.1,0-24.2,0-36.3C208.1,295.8,195.7,295.8,183.3,295.8z M230.1,295.8c0,12.1,0,24.2,0,36.3c4.6,0,9.1,0,13.7,0
			c0-12.1,0-24.2,0-36.3C239.3,295.8,234.7,295.8,230.1,295.8z M9.7,302.3c0,3.5,0,7,0,10.5c5.1,0,10.2,0,15.4,0c0-3.5,0-7,0-10.5
			C19.9,302.3,14.8,302.3,9.7,302.3z"/>
	</g>
	<g>
		<path class="st0" d="M50,176.3c1.7-0.8,3.6-0.8,5.4-0.8c15.2,0,30.4,0,45.6,0c1.9,0.1,4.1-0.1,5.6,1.4c1.6,1.4,1.5,3.7,1.6,5.6
			c0,12.6,0,25.3,0,37.9c0,1.9,0,4.2-1.6,5.6c-1.7,1.6-4.3,1.2-6.5,1.3c-21.7-0.1-43.5,0.1-65.2-0.1c-3.4,0.2-6-3.6-4.5-6.7
			c5.2-12.8,10.8-25.5,16.1-38.2C47.4,180.1,48.1,177.7,50,176.3z M55.7,185.3c-4.5,10.8-9.1,21.5-13.6,32.2
			c5.9,0,11.8,0.1,17.7-0.1c-0.1-10.7,0-21.5-0.1-32.2C58.4,185.2,57,185.2,55.7,185.3z M69.5,217.5c9.7,0,19.4,0,29,0
			c0-10.8,0-21.5,0-32.3c-9.7,0-19.3,0-29,0C69.4,196,69.5,206.7,69.5,217.5z"/>
	</g>
	<path class="st0" d="M78.1,237.3c5.6-1,11.4-0.2,17.2-0.4c2.9,0.2,6.6-0.7,8.7,1.9c2.3,2.6,0.5,7.3-3,7.6c-5.8,0.4-11.6,0-17.4,0.2
		c-2.4-0.1-5.4,0.4-7.2-1.7C74.2,242.7,75.1,238.4,78.1,237.3z"/>
	<g>
		<path class="st0" d="M101.4,302.5c6.9-1.8,14.6-0.4,20.2,4.1c7.1,5.4,10.5,15,8.4,23.6c-2.4,11.1-13.7,19.3-25,17.8
			c-11-0.9-20.4-10.7-20.7-21.8C83.4,315.5,91.1,305,101.4,302.5z M102.4,312.3c-6.2,2.3-9.9,9.5-8.2,15.9
			c1.6,7.1,9.5,11.8,16.4,9.8c7.1-1.6,11.9-9.6,9.8-16.6C118.7,313.8,109.6,309.2,102.4,312.3z"/>
	</g>
	<g>
		<path class="st0" d="M301.6,302.5c7.1-1.9,15.1-0.3,20.8,4.5c6.7,5.4,9.9,14.7,7.9,23.1c-2.3,11.2-13.8,19.4-25.2,17.8
			c-11-1-20.2-10.8-20.6-21.8C283.7,315.6,291.3,305.1,301.6,302.5z M304.3,311.8c-6.7,1.6-11.4,8.8-9.9,15.6
			c1.1,7.1,8.5,12.3,15.6,10.9c7.3-1,12.6-8.7,11.1-15.9C319.8,314.9,311.5,309.7,304.3,311.8z"/>
	</g>
	<g>
		<path class="st0" d="M397.8,302.5c6.9-1.9,14.6-0.3,20.2,4.1c7,5.4,10.5,14.9,8.3,23.5c-2.3,11.1-13.7,19.3-25,17.8
			c-11-0.9-20.4-10.8-20.7-21.8C379.8,315.5,387.4,305,397.8,302.5z M398.8,312.3c-6.2,2.3-9.9,9.5-8.2,15.8
			c1.6,7.1,9.4,11.8,16.4,9.9c7.2-1.6,12-9.6,9.9-16.7C415,313.8,406,309.2,398.8,312.3z"/>
	</g>
</g>
</svg>
