<?xml version="1.0" encoding="utf-8"?>
<!-- Generator: Adobe Illustrator 19.2.1, SVG Export Plug-In . SVG Version: 6.00 Build 0)  -->
<svg version="1.1" id="Capa_1" xmlns="http://www.w3.org/2000/svg" xmlns:xlink="http://www.w3.org/1999/xlink" x="0px" y="0px"
	 viewBox="0 0 497.4 497.4" style="enable-background:new 0 0 497.4 497.4;" xml:space="preserve">
<style type="text/css">
	.st0{fill:#D7282F;}
</style>
<g>
	<g>
		<path class="st0" d="M378.9,2h31.3c1.3,0.6,2.5,1.2,3.5,2.2c24.1,22.7,48.3,45.3,72.4,67.9c2.1,1.7,3.2,4.9,1.3,7.2
			c-1.8,2.6-5.7,2.7-7.8,0.3c-21.9-20.5-43.7-41-65.6-61.5c0,41.5,0,82.9,0,124.4c21.8,0,43.5,0,65.3,0c2.5-0.2,5.1,1.1,5.7,3.7
			c0.9,3-1.7,6.3-4.8,6.2c-6.9,0.2-13.7,0-20.6,0.1c0,10.7,0,21.5,0,32.2c6.9,0.1,13.8-0.1,20.8,0.1c3.6-0.1,6,4.2,4.2,7.3
			c-1.1,2.4-4,2.7-6.3,2.6c-21.4,0-42.8,0-64.3,0c0,17.2,0,34.4,0,51.6c10.2,0.1,20.4-0.1,30.7,0.1c2.9,0,4.8,2.8,4.6,5.5
			c0.1,25.4,0,50.7,0,76.1c-0.1,1.8,0,3.8-1.4,5.2c-1.6,1.8-4.1,1.6-6.2,1.6c-9.2,0-18.5,0-27.7,0c0,51.3,0,102.5,0,153.8
			c0.3,2.7-1.6,5.1-4.2,5.7h-1.4c-2.3-0.5-4.3-2.3-4.3-4.8c-0.2-7.1,0-14.1-0.1-21.2c-6.6,6.5-13.1,13.1-19.7,19.7
			c-2.3,2.3-4.4,4.9-7.4,6.4h-1.8c-3.9-0.7-5.6-5.9-2.6-8.6c8-8.2,16.2-16.1,24.2-24.3c-15.6,0-31.1,0-46.7,0
			c-0.1,9.3,0.1,18.7-0.1,28c0,2.6-2.2,4.6-4.7,4.9h-0.9c-2.7-0.6-4.5-3-4.3-5.7c0-51.3,0-102.6,0-153.8c-4.8,0-9.9,0.4-14.5-1.6
			c-6.4-2.5-11.2-8.3-12.8-14.9c-7.9-29-15.9-58.1-23.8-87.1c-1.8-6.2-0.6-13,3-18.4c-55.2-0.1-110.3,0-165.5,0
			c-2.1,13.1-4.2,26.1-6.2,39.2c-0.2,2.1-1.1,4.4-3.2,5.2c-2.4,0.7-5.1,0.4-7.6,0.5c0,3.4,0,6.8,0,10.3c9.8,2.3,17.7,11.4,17.9,21.6
			c0.7,10.6-7.1,20.9-17.5,23.3c-9.8,2.6-21-2.3-25.6-11.4c-0.9-1.7-1.5-3.6-2.8-5c-2.1-1.2-5-1-6.4-3.1c-1.9-2.7-0.3-6.8,2.9-7.5
			c3.6-0.5,7.4,0.9,10.1,3.2c3.7,3,4.2,8.4,7.9,11.4c4.2,3.8,11,4.2,15.7,0.9c5.8-3.8,7.7-12.5,3.5-18.1c-2.4-3.7-6.6-5.5-10.9-5.8
			c-2.5-0.1-4.7-2-4.7-4.6c-0.3-5,0-10.1-0.1-15.1c-2.5-0.1-5.2,0.3-7.6-0.5c-2.1-0.8-2.9-3.1-3.1-5.1C87,239.1,85,226,82.9,212.9
			c-18.8,0-37.7,0-56.5,0c-2.5,0-5.1,0.2-7.6-0.4c-3.1-1-4.2-5.3-2.1-7.7c1.3-1.8,3.8-1.8,5.8-1.9c105.9,0,211.9,0,317.8,0
			c0-2.8,0-5.5,0-8.3c-106.3-0.1-212.5,0-318.8,0c-2.1,0.1-4.5-0.6-5.4-2.6c-1.6-2.7,0.2-6.7,3.4-7.1c5.1-0.5,10.2,0,15.3-0.2
			c-5.4-5.5-11-10.7-16.2-16.3c-2.5-2.4-1.3-7,2-7.9c2.2-0.9,4.4,0.3,5.9,1.9c6.7,6.7,13.4,13.5,20.2,20.1
			c12.7-12.7,25.3-25.3,38-38c-21.1-0.1-42.2,0.1-63.2-0.1c-3.4,0.3-6.3-3.5-4.8-6.7c0.8-2.4,3.5-3.3,5.8-3.1
			c89.1,0,178.2,0,267.4,0c2.8,0.1,5.7-0.3,8.5,0.4c2.2,1.2,3.8,3.2,5.6,4.9c12.7,12.7,25.4,25.4,38.1,38.1
			c10.3-54.9,20.6-109.9,30.9-164.8C256.4,35.6,139.9,58,23.4,80.4c-2.8,0.5-5.6,1.3-8.5,1.4c-3.4-0.2-5.4-4.5-3.6-7.3
			c0.9-1.7,2.8-2.3,4.6-2.6C136.9,48.5,257.9,25.4,378.9,2z M383.3,11.9c-1.1,5.8-2.2,11.7-3.3,17.5c5.9-5.8,11.7-11.7,17.5-17.5
			C392.7,11.9,388,11.9,383.3,11.9z M378.9,44.5c8.4,8.5,16.8,16.8,25.2,25.3c0-16.8,0-33.7,0-50.5
			C395.7,27.7,387.4,36.2,378.9,44.5z M375.2,54.9c-4.1,21.9-8.2,43.8-12.3,65.7c13-13,26-26,39-39C393,72.7,384.1,63.8,375.2,54.9z
			 M362.2,135.4c14,14,27.9,28,42,41.9c0-28,0-55.9,0-83.9C390.2,107.4,376.2,121.4,362.2,135.4z M108.1,144.6
			c12.7,12.7,25.4,25.4,38.2,38.1c12.7-12.7,25.5-25.4,38.2-38.2C159,144.5,133.6,144.5,108.1,144.6z M207.6,144.5
			c12.8,12.8,25.6,25.5,38.4,38.2c12.8-12.7,25.6-25.5,38.4-38.2C258.8,144.5,233.2,144.5,207.6,144.5z M358.2,145.5
			c-2.5,13.1-4.9,26.2-7.4,39.3c15.5,0,31.1,0,46.6,0C384.4,171.6,371.3,158.5,358.2,145.5z M58.6,184.7c25.2,0,50.5,0,75.7,0
			c-12.6-12.6-25.2-25.2-37.9-37.9C83.8,159.5,71.2,172.1,58.6,184.7z M158.3,184.7c25.2,0,50.4,0,75.7,0
			c-12.6-12.6-25.3-25.1-37.9-37.7C183.4,159.5,170.9,172.2,158.3,184.7z M258.1,184.7c25.5,0,51,0,76.5,0
			c-12.7-12.7-25.4-25.4-38.2-38.2C283.7,159.3,270.9,172,258.1,184.7z M414.1,152.5c0,10.8,0,21.5,0,32.2c4.3,0,8.6,0,12.9,0
			c-0.1-10.7,0-21.5,0-32.2C422.7,152.5,418.4,152.5,414.1,152.5z M436.8,152.6c0.1,10.7,0,21.4,0.1,32.2c4.3,0,8.6,0,12.8,0
			c0-10.7,0-21.5,0-32.2C445.5,152.5,441.1,152.4,436.8,152.6z M350.2,194.8c0.1,3.1,0.1,6.2,0.1,9.3c18,0,35.9,0,53.9,0
			c0-3.1,0-6.3,0-9.4C386.2,194.7,368.2,194.5,350.2,194.8z M93,213.3c1.8,11.5,3.6,23,5.5,34.5c4.3,0,8.5,0.1,12.7-0.1
			c1.7-11.5,3.6-23,5.5-34.4C108.8,213.3,100.9,213.3,93,213.3z M303.6,215.7c-4.5,2.6-6.4,8.5-4.7,13.3c8,29.1,15.9,58.3,23.9,87.4
			c1.3,5,6.1,8.5,11.2,8.4c23.4,0.1,46.7,0,70.1,0c0-37,0-73.9,0-110.9c-30.1,0-60.1,0-90.2,0C310.5,214,306.7,213.7,303.6,215.7z
			 M414.1,256.2c0,3.1,0,6.3,0,9.4c8.5-0.1,17,0.1,25.4-0.1c-0.1-3.1-0.1-6.2,0-9.3C431,256.2,422.6,256.2,414.1,256.2z
			 M414.1,275.5c0,3.3,0,6.7,0,10c8.5,0,16.9,0,25.4,0c0-3.3,0-6.7,0-10C431,275.5,422.6,275.5,414.1,275.5z M414.1,295.4
			c0,3.3,0,6.7,0,10c8.5,0,16.9,0,25.4,0c0-3.3,0-6.7,0-10C431,295.4,422.6,295.4,414.1,295.4z M414.1,315.4c0,3.2,0,6.4,0,9.5
			c8.5,0,16.9,0,25.4,0c0-3.2,0.1-6.4-0.1-9.6C430.9,315.5,422.5,315.3,414.1,315.4z M350.3,334.9c0,15.6,0,31.2,0,46.9
			c15.6-15.6,31.2-31.2,46.9-46.9C381.5,334.8,365.9,334.8,350.3,334.9z M357.9,388.1c15.4,0,30.8,0,46.2,0c0-15.4,0-30.8,0-46.3
			C388.7,357.3,373.3,372.7,357.9,388.1z M357.9,398.1c15.4,15.4,30.8,30.8,46.2,46.3c0-15.4,0-30.8,0-46.3
			C388.7,398.1,373.3,398.1,357.9,398.1z M350.3,404.6c-0.1,15.7,0,31.3,0,47c15.6,0.1,31.3,0,46.9,0
			C381.7,435.8,365.9,420.3,350.3,404.6z"/>
	</g>
	<g>
		<path class="st0" d="M308.5,222.8c1.4-0.7,2.9-0.7,4.4-0.7c13.2,0,26.3,0,39.4,0c3.2-0.4,6.1,2.5,5.7,5.8c0.1,17.3,0,34.7,0,52
			c0,2,0.1,4.5-1.7,5.9c-1.6,1.6-3.9,1.3-5.9,1.4c-8-0.1-16.1,0-24.1,0c-2.6,0.2-4.8-1.9-5.3-4.4c-4.9-17.9-9.8-35.8-14.7-53.7
			C305.6,226.8,306.4,224.1,308.5,222.8z M317.5,232.1c4.1,15.1,8.2,30.2,12.4,45.2c6-0.1,12.1-0.1,18.1,0c0.3-15.1,0-30.2,0.1-45.2
			C338,232.1,327.7,232.1,317.5,232.1z"/>
	</g>
	<g>
		<path class="st0" d="M367.1,222.7c2.7-0.9,5.6-0.4,8.3-0.5c6.1,0.1,12.2-0.2,18.3,0.1c2.8,0.2,4.6,3,4.4,5.7c0,18,0.1,36,0,54
			c0.2,2.8-2.4,5.4-5.2,5.2c-7.8,0.1-15.5,0.1-23.3,0c-2.8,0.2-5.5-2.3-5.3-5.1c-0.1-18,0-36,0-54.1
			C364.2,225.8,365.1,223.6,367.1,222.7z M374.2,232.1c0,15.1,0,30.1,0,45.2c4.6,0,9.3,0,14,0c0-15.1,0-30.1,0-45.2
			C383.5,232.1,378.9,232.1,374.2,232.1z"/>
	</g>
</g>
</svg>
