<svg version="1.1" id="Capa_1" xmlns="http://www.w3.org/2000/svg" x="0" y="0" viewBox="0 0 512 512" xml:space="preserve"><style>.st0{fill:#d2282f}</style><path class="st0" d="M458.7 224H416c-5.9 0-10.7 4.8-10.7 10.7V256h-32v-71.5L508.9 48.9c4.2-4.2 4.2-10.9 0-15.1L478.2 3.1c-4.2-4.1-11-4.1-15.1 0l-89.7 89.7V74.7c0-17.7-14.3-32-32-32H57.7L18.2 3.1c-2-2-4.7-3.1-7.5-3.1C4.8 0 0 4.8 0 10.7v256c0 5.9 4.8 10.7 10.7 10.7h74.7v64c0 5.9 4.8 10.7 10.7 10.7h309.3v149.3c0 5.9 4.8 10.7 10.7 10.7h85.3c5.9 0 10.7-4.8 10.7-10.7v-224c-.1-29.5-24-53.4-53.4-53.4zm11.9-198.3l15.6 15.6-138.5 138.6-15.6-15.6L470.6 25.7zM341.3 64c5.9 0 10.7 4.8 10.7 10.7v39.5l-42.5 42.5c-1.5 1.5-2.5 3.4-2.9 5.4l-6 29.9h-55.3v21.3h64c.8 0 1.6-.1 2.3-.3l38.1-7.6c.8-.1 1.5-.4 2.2-.7V256H271L79.1 64h262.2zm-320-27.6L240.9 256H21.3V36.4zm352 294.3v-21.3H352v21.3h-21.3v-21.3h-21.3v21.3H288v-21.3h-21.3v21.3h-21.3v-21.3H224v21.3h-21.3v-21.3h-21.3v21.3H160v-21.3h-21.3v21.3h-32v-53.3h298.7v53.3h-32.1zm117.4 160h-64V245.3h32c17.7 0 32 14.3 32 32v213.4z"/><circle class="st0" cx="458.7" cy="448" r="21.3"/><path class="st0" d="M146.2 231.5c4.2-4.2 4.2-10.9 0-15.1l-85.3-85.3c-2-2-4.7-3.1-7.5-3.1-5.9 0-10.7 4.8-10.7 10.7V224c0 5.9 4.8 10.7 10.7 10.7h85.3c2.8 0 5.5-1.2 7.5-3.2zM64 213.3v-48.9l48.9 48.9H64zM352 480c0 5.9-4.8 10.7-10.7 10.7H32c-5.9 0-10.7-4.8-10.7-10.7V298.7H0V480c0 17.7 14.3 32 32 32h309.3c17.7 0 32-14.3 32-32V373.3H352V480z"/><path class="st0" d="M42.7 416v42.7c0 5.9 4.8 10.7 10.7 10.7H96V448H64v-32H42.7zm74.6 32h21.3v21.3h-21.3z"/></svg>