<svg version="1.1" id="Capa_1" xmlns="http://www.w3.org/2000/svg" x="0" y="0" viewBox="0 0 512 512" xml:space="preserve"><style>.st0{fill:#d7282f}</style><path class="st0" d="M274 419.7c10.1 0 24.3 8.2 29.4 17l31.8 55.1H102.1c-10.1 0-22.8-7.4-27.9-16.2L42 419.9l232-.2m0-19l-265 .1L57.7 485c8.4 14.6 27.5 25.8 44.4 25.8h266l-48.2-83.6c-8.5-14.6-29.1-26.5-45.9-26.5zM158.7 218.5c11.7 0 22.2 8.3 27 16.1l32.5 56H41.9l32.7-55.8c5.2-8.4 18.3-16.3 27.1-16.3h57m0-19l-56.9.1c-15.9 0-35 11.9-43.3 25.5L8.8 309.6h242.5L202 224.8c-8.2-13.5-24.6-25.3-43.3-25.3z"/><path class="st0" d="M339 21.2c9.5 0 22.3 8.2 27.9 18l116.2 202.9c4.3 7.4 3.7 20.7-1.2 29.7L450.2 328 332.4 126.2c-11.8-20.3-33.7-32.8-57.1-32.8H41.5l30.6-53.2.2-.3.2-.3c5.3-10 17.6-18.4 26.8-18.4H339m0-19H99.2c-17.3 0-35.4 13.2-43.6 28.5l-47 81.6h266.7c16.8 0 32.2 8.9 40.7 23.4L450.4 366l48.2-84.9c7.7-14 9-34.6 1-48.4L383.4 29.8C374.6 14.3 355.6 2.2 339 2.2z"/></svg>