<svg version="1.1" id="Capa_1" xmlns="http://www.w3.org/2000/svg" x="0" y="0" viewBox="0 0 497.4 497.4" xml:space="preserve"><style>.st0{fill:#d7282f}</style><path class="st0" d="M479.8 390.9c-5.4-32.2-28-58.7-59-69L352 299v-10.2h-16v14l-56 105-56-105v-14h-16v18l64 120v14h-96v16h96v24H153.1l6.4-51.1c10.3-6.8 16.6-18.2 16.6-30.8v-6.1h-16v6.1c0 8-4.4 15.2-11.6 18.7l-3.8 1.9-7.7 61.2H81.4l9.1-54.7-15.8-2.6-12.2 73.3h434.9l-17.6-105.8zM288 480.7v-24h96v-16h-96v-14l59.9-112.3 36.1 12v72.3c0 12.6 6.2 24 16.6 30.8l6.4 51.1-119 .1zm135.1 0l-7.7-61.2-3.8-1.9c-7.1-3.6-11.6-10.8-11.6-18.7v-67l15.8 5.3c25.4 8.5 43.9 30.1 48.3 56.5l14.5 87.2h-55.5z"/><path class="st0" d="M144 176.7c0 20.5 15.6 37.3 35.5 39.6 4.1 14 11.6 26.9 22.2 37.5L233 285c7.6 7.6 17.6 11.7 28.3 11.7h37.5c10.7 0 20.7-4.2 28.3-11.7l31.2-31.2c10.6-10.6 18.2-23.5 22.2-37.5 19.9-2.3 35.5-19 35.5-39.6 0-9-3.1-17.3-8.2-24H424v-48h-25.1C392.5 57.5 358 18 312 5.2V.7h-64v4.5c-46 12.8-80.5 52.3-86.9 99.5H136v48h16.2c-5.1 6.7-8.2 15-8.2 24zm16 0c0-10.4 6.7-19.2 16-22.5v37.4c0 2.6.2 5.2.4 7.8-9.5-3.2-16.4-12.1-16.4-22.7zm208 14.9c0 19.2-7.5 37.3-21.1 50.9l-31.2 31.2c-4.5 4.5-10.6 7-17 7h-37.5c-6.4 0-12.4-2.5-17-7L213 242.5c-13.6-13.6-21.1-31.7-21.1-50.9v-38.9h176v38.9zm15.6 7.8c.2-2.6.4-5.2.4-7.8v-37.4c9.3 3.3 16 12.1 16 22.5 0 10.6-6.9 19.5-16.4 22.7zM248 21.9v66.8h16v-72h32v72h16V21.9c37.1 12 64.8 44.3 70.8 82.8H177.2c6.1-38.5 33.7-70.8 70.8-82.8zm-96 114.8v-16h256v16H152z"/><path class="st0" d="M328 72.7h16v16h-16zm-112 0h16v16h-16zm-142.6 336h45.1l4.1-20.6c2.6-.9 5.2-2 7.8-3.2l17.5 11.7 31.9-31.9-11.7-17.5c1.2-2.5 2.3-5.1 3.2-7.8l20.6-4.1v-45.1l-20.6-4.1c-1.5-4.2-3.3-8.3-5.5-12.2l-14 7.8c2.3 4.2 4.2 8.8 5.6 13.5l1.3 4.7 17.2 3.4v18.9l-17.2 3.4-1.3 4.7c-1.4 4.8-3.2 9.3-5.6 13.5l-2.4 4.3 9.7 14.5-13.2 13.4-14.5-9.7-4.3 2.4c-4.2 2.3-8.8 4.2-13.5 5.6l-4.7 1.3-3.4 17.2H86.6l-3.4-17.2-4.7-1.3c-4.8-1.4-9.3-3.2-13.5-5.6l-4.3-2.4-14.6 9.7-18-18-11.3 11.3 27.3 27.3 17.5-11.7c2.5 1.2 5.1 2.3 7.8 3.2l4 20.6zm-47.3-57.1l14-7.8c-2.3-4.2-4.2-8.8-5.6-13.5l-1.3-4.7-17.2-3.4v-18.9l17.2-3.4 1.3-4.7c1.4-4.8 3.2-9.3 5.6-13.5l2.4-4.3-9.7-14.5 13.4-13.4 14.5 9.7 4.3-2.4c4.2-2.3 8.8-4.2 13.5-5.6l4.7-1.3 3.4-17.2h18.9l3.4 17.2 4.7 1.3c4.8 1.4 9.3 3.2 13.5 5.6l4.3 2.4 14.5-9.7 18 18 11.3-11.3-27.3-27.3-17.5 11.7c-2.5-1.2-5.1-2.3-7.8-3.2l-4.1-20.6H73.4l-4.1 20.6c-2.6.9-5.2 2-7.8 3.2L44 228.9l-31.9 31.9 11.7 17.5c-1.2 2.5-2.3 5.1-3.2 7.8L0 290.2v45.1l20.6 4.1c1.5 4.2 3.3 8.3 5.5 12.2z"/><path class="st0" d="M96 272.7c-22.1 0-40 17.9-40 40s17.9 40 40 40 40-17.9 40-40-17.9-40-40-40zm0 64c-13.2 0-24-10.8-24-24s10.8-24 24-24 24 10.8 24 24-10.8 24-24 24z"/></svg>