<svg version="1.1" id="Capa_1" xmlns="http://www.w3.org/2000/svg" x="0" y="0" viewBox="0 0 496 496" xml:space="preserve"><style>.st0{fill:#d7282f}</style><path class="st0" d="M464 152v-32H256v32h-24v16h248v40H232v16h248v32H309.7L232 305.4V256h-26.2L120 306.1V256H93.7L0 315.6V496h336v-64h144v48H352v16h144V152h-32zm-176 0h-16v-16h16v16zm32 0h-16v-16h16v16zm32 0h-16v-16h16v16zm32 0h-16v-16h16v16zm32 0h-16v-16h16v16zm32 0h-16v-16h16v16zM64 480H48v-16h16v16zm0-32H48v-16h16v16zm0-32H48v-16h16v16zm0-32H48v-16h16v16zm32 96H80v-16h16v16zm0-32H80v-16h16v16zm0-32H80v-16h16v16zm0-32H80v-16h16v16zm64 96h-16v-16h16v16zm0-32h-16v-16h16v16zm0-32h-16v-16h16v16zm0-32h-16v-16h16v16zm32 96h-16v-16h16v16zm0-32h-16v-16h16v16zm0-32h-16v-16h16v16zm0-32h-16v-16h16v16zm64 96h-16v-16h16v16zm0-32h-16v-16h16v16zm0-32h-16v-16h16v16zm0-32h-16v-16h16v16zm32 96h-16v-16h16v16zm0-32h-16v-16h16v16zm0-32h-16v-16h16v16zm0-32h-16v-16h16v16zm32 96h-16V352h-80v128h-16V352h-80v128h-16V352H32v128H16V324.4L98.3 272h5.7v61.9L210.2 272h5.8v62.6l98.3-62.6h5.7v208zm40-64h-24v-64h24v64zm0-80h-24v-64h24v64zm40 80h-24v-64h24v64zm0-80h-24v-64h24v64zm40 80h-24v-64h24v64zm0-80h-24v-64h24v64zm40 80h-24v-64h24v64zm0-80h-24v-64h24v64z"/><path class="st0" d="M48 128c2 0 4-.1 5.9-.4.9-.1 1.4.3 1.6.4.4.4.5.8.5 1v15H40v128h16v-48h48v16h16v-96h-16v-15.2c0-2.2 1.4-3.4 2-3.8.7-.5 2.3-1.2 4.1-.4 11.4 4.6 24.3 4.6 35.7 0 1.9-.8 3.4-.1 4.1.4.6.4 2 1.6 2 3.8V144h-16v128h16v-48h48v16h16v-96h-16v-32c10.7 0 21.1-3.6 29.4-10.2 7.3 6.5 16.7 10.2 26.6 10.2 20.8 0 38-16 39.8-36.3 10-5.6 16.3-16.1 16.3-27.7 0-17.6-14.4-32-32-32-2.5 0-4.9.3-7.4.9C264.9 6 252.2-.5 238.5 0c-12.4.5-23.7 6.7-30.8 16.7-2.6-.5-5.2-.7-7.6-.7-5 0-9.9.8-14.5 2.3C178 6.8 164.7-.4 150.5 0c-12.5.5-23.8 6.7-31 16.8-2.4-.5-4.9-.8-7.5-.8-4.9 0-9.7 1-14.2 2.7C90.6 7.3 78 0 64 0 42.4 0 24.9 17.2 24.1 38.7 9.8 47.2-.1 62.9 0 80.2.1 106.6 21.6 128 48 128zm56 80H56v-16h48v16zm0-32H56v-16h48v16zm96 32h-48v-16h48v16zm0-32h-48v-16h48v16zM47.3 48c4.7-.1 9.2.8 13.5 2.7l6.5-14.6c-6.4-2.8-13.2-4.3-20.3-4-1.9 0-3.8.2-5.6.5C44.5 23 53.4 16 64 16c8.4 0 16 4.4 20.3 11.2-2.7 2.6-5 5.5-6.9 8.8l13.8 8c4.3-7.4 12.2-12 20.8-12 9.2 0 17.5 5.2 21.5 13.6l14.4-7c-3.1-6.4-7.6-11.6-13.1-15.4 4.2-4.4 10-7 16.3-7.2 8.2-.4 15.6 3.5 20.2 9.7-6.5 4.9-11.8 11.3-15.2 19l14.7 6.4C175.9 39.5 187.3 32 200 32c2.8 0 5.7.5 9.2 1.5l6.5 1.9 3-6c3.9-7.9 11.8-13.1 20.5-13.4 9.9-.4 18.7 5.1 22.7 14l3.5 7.6 7.5-3.8c11-5.7 23.2 2.9 23.2 14.2 0 6.7-4.3 12.8-10.8 15l-5.6 2 .4 7c0 13.2-10.8 24-24 24-7.7 0-15-3.8-19.5-10.2l-5.8-8.2-6.7 7.6c-7.5 8.5-19.2 12.4-30.4 10.2l-9.6-1.9V144h-16v-15.2c0-6.9-3.4-13.2-9.1-17.1-5.7-3.8-12.8-4.6-19.1-2-7.5 3-16.2 3-23.7 0-6.3-2.6-13.4-1.8-19.1 2-5.7 3.8-9.1 10.2-9.1 17.1V144H72v-14.9c0-5-2.1-9.8-5.9-13-3.9-3.4-9-5-14.2-4.3-1.3.2-2.6.2-3.9.2-17.6 0-31.9-14.3-32-31.9-.1-17 14.3-31.7 31.3-32.1z"/></svg>