<svg version="1.1" id="Capa_1" xmlns="http://www.w3.org/2000/svg" x="0" y="0" viewBox="0 0 496 496" xml:space="preserve"><style>.st0{fill:#d7282f}</style><path class="st0" d="M384 72V0H112v72H0v400h80v24h336v-24h80V72H384zM128 16h240v160h16v-40h16v72h-16v-16h-16v16H128V16zm176 208v16H192v-16h112zM16 88h96v32H16V88zm96 48v72H96v-72h16zM80 456H16V136h64v73.5c-9.3 3.3-16 12.1-16 22.5v136h16v88zm320 24H96V368h80v32h144v-32h80v112zm-208-96v-16h48v16h-48zm64 0v-16h48v16h-48zM80 352V232c0-4.4 3.6-8 8-8h88v32h144v-32h88c4.4 0 8 3.6 8 8v120H80zm400 104h-64v-88h16V232c0-10.4-6.7-19.2-16-22.5V136h64v320zm0-336h-96V88h96v32z"/><path class="st0" d="M144 32v64h208V32H144zm192 48H160V48h176v32zm-160 32h176v16H176zm-32 32h208v16H144zm0 32h120v16H144zm0-64h16v16h-16z"/></svg>