<svg version="1.1" id="Capa_1" xmlns="http://www.w3.org/2000/svg" x="0" y="0" viewBox="0 0 497.4 497.4" xml:space="preserve"><style>.st0{fill:#d7282f}</style><path class="st0" d="M378.9 2h31.3c1.3.6 2.5 1.2 3.5 2.2 24.1 22.7 48.3 45.3 72.4 67.9 2.1 1.7 3.2 4.9 1.3 7.2-1.8 2.6-5.7 2.7-7.8.3-21.9-20.5-43.7-41-65.6-61.5v124.4h65.3c2.5-.2 5.1 1.1 5.7 3.7.9 3-1.7 6.3-4.8 6.2-6.9.2-13.7 0-20.6.1v32.2c6.9.1 13.8-.1 20.8.1 3.6-.1 6 4.2 4.2 7.3-1.1 2.4-4 2.7-6.3 2.6H414v51.6c10.2.1 20.4-.1 30.7.1 2.9 0 4.8 2.8 4.6 5.5.1 25.4 0 50.7 0 76.1-.1 1.8 0 3.8-1.4 5.2-1.6 1.8-4.1 1.6-6.2 1.6H414v153.8c.3 2.7-1.6 5.1-4.2 5.7h-1.4c-2.3-.5-4.3-2.3-4.3-4.8-.2-7.1 0-14.1-.1-21.2-6.6 6.5-13.1 13.1-19.7 19.7-2.3 2.3-4.4 4.9-7.4 6.4h-1.8c-3.9-.7-5.6-5.9-2.6-8.6 8-8.2 16.2-16.1 24.2-24.3H350c-.1 9.3.1 18.7-.1 28 0 2.6-2.2 4.6-4.7 4.9h-.9c-2.7-.6-4.5-3-4.3-5.7V334.9c-4.8 0-9.9.4-14.5-1.6-6.4-2.5-11.2-8.3-12.8-14.9-7.9-29-15.9-58.1-23.8-87.1-1.8-6.2-.6-13 3-18.4-55.2-.1-110.3 0-165.5 0-2.1 13.1-4.2 26.1-6.2 39.2-.2 2.1-1.1 4.4-3.2 5.2-2.4.7-5.1.4-7.6.5v10.3c9.8 2.3 17.7 11.4 17.9 21.6.7 10.6-7.1 20.9-17.5 23.3-9.8 2.6-21-2.3-25.6-11.4-.9-1.7-1.5-3.6-2.8-5-2.1-1.2-5-1-6.4-3.1-1.9-2.7-.3-6.8 2.9-7.5 3.6-.5 7.4.9 10.1 3.2 3.7 3 4.2 8.4 7.9 11.4 4.2 3.8 11 4.2 15.7.9 5.8-3.8 7.7-12.5 3.5-18.1-2.4-3.7-6.6-5.5-10.9-5.8-2.5-.1-4.7-2-4.7-4.6-.3-5 0-10.1-.1-15.1-2.5-.1-5.2.3-7.6-.5-2.1-.8-2.9-3.1-3.1-5.1-1.7-13.2-3.7-26.3-5.8-39.4H26.4c-2.5 0-5.1.2-7.6-.4-3.1-1-4.2-5.3-2.1-7.7 1.3-1.8 3.8-1.8 5.8-1.9h317.8v-8.3c-106.3-.1-212.5 0-318.8 0-2.1.1-4.5-.6-5.4-2.6-1.6-2.7.2-6.7 3.4-7.1 5.1-.5 10.2 0 15.3-.2-5.4-5.5-11-10.7-16.2-16.3-2.5-2.4-1.3-7 2-7.9 2.2-.9 4.4.3 5.9 1.9 6.7 6.7 13.4 13.5 20.2 20.1l38-38c-21.1-.1-42.2.1-63.2-.1-3.4.3-6.3-3.5-4.8-6.7.8-2.4 3.5-3.3 5.8-3.1h267.4c2.8.1 5.7-.3 8.5.4 2.2 1.2 3.8 3.2 5.6 4.9l38.1 38.1c10.3-54.9 20.6-109.9 30.9-164.8C256.4 35.6 139.9 58 23.4 80.4c-2.8.5-5.6 1.3-8.5 1.4-3.4-.2-5.4-4.5-3.6-7.3.9-1.7 2.8-2.3 4.6-2.6 121-23.4 242-46.5 363-69.9zm4.4 9.9c-1.1 5.8-2.2 11.7-3.3 17.5 5.9-5.8 11.7-11.7 17.5-17.5h-14.2zm-4.4 32.6c8.4 8.5 16.8 16.8 25.2 25.3V19.3c-8.4 8.4-16.7 16.9-25.2 25.2zm-3.7 10.4l-12.3 65.7 39-39-26.7-26.7zm-13 80.5c14 14 27.9 28 42 41.9V93.4l-42 42zm-254.1 9.2c12.7 12.7 25.4 25.4 38.2 38.1 12.7-12.7 25.5-25.4 38.2-38.2-25.5 0-50.9 0-76.4.1zm99.5-.1c12.8 12.8 25.6 25.5 38.4 38.2 12.8-12.7 25.6-25.5 38.4-38.2h-76.8zm150.6 1c-2.5 13.1-4.9 26.2-7.4 39.3h46.6c-13-13.2-26.1-26.3-39.2-39.3zM58.6 184.7h75.7l-37.9-37.9c-12.6 12.7-25.2 25.3-37.8 37.9zm99.7 0H234c-12.6-12.6-25.3-25.1-37.9-37.7-12.7 12.5-25.2 25.2-37.8 37.7zm99.8 0h76.5l-38.2-38.2c-12.7 12.8-25.5 25.5-38.3 38.2zm156-32.2v32.2H427c-.1-10.7 0-21.5 0-32.2h-12.9zm22.7.1c.1 10.7 0 21.4.1 32.2h12.8v-32.2c-4.2-.1-8.6-.2-12.9 0zm-86.6 42.2c.1 3.1.1 6.2.1 9.3h53.9v-9.4c-18 0-36-.2-54 .1zM93 213.3c1.8 11.5 3.6 23 5.5 34.5 4.3 0 8.5.1 12.7-.1 1.7-11.5 3.6-23 5.5-34.4H93zm210.6 2.4c-4.5 2.6-6.4 8.5-4.7 13.3 8 29.1 15.9 58.3 23.9 87.4 1.3 5 6.1 8.5 11.2 8.4 23.4.1 46.7 0 70.1 0V213.9h-90.2c-3.4.1-7.2-.2-10.3 1.8zm110.5 40.5v9.4c8.5-.1 17 .1 25.4-.1-.1-3.1-.1-6.2 0-9.3h-25.4zm0 19.3v10h25.4v-10h-25.4zm0 19.9v10h25.4v-10h-25.4zm0 20v9.5h25.4c0-3.2.1-6.4-.1-9.6-8.5.2-16.9 0-25.3.1zm-63.8 19.5v46.9l46.9-46.9c-15.7-.1-31.3-.1-46.9 0zm7.6 53.2h46.2v-46.3c-15.4 15.5-30.8 30.9-46.2 46.3zm0 10c15.4 15.4 30.8 30.8 46.2 46.3v-46.3h-46.2zm-7.6 6.5c-.1 15.7 0 31.3 0 47 15.6.1 31.3 0 46.9 0-15.5-15.8-31.3-31.3-46.9-47z"/><path class="st0" d="M308.5 222.8c1.4-.7 2.9-.7 4.4-.7h39.4c3.2-.4 6.1 2.5 5.7 5.8.1 17.3 0 34.7 0 52 0 2 .1 4.5-1.7 5.9-1.6 1.6-3.9 1.3-5.9 1.4-8-.1-16.1 0-24.1 0-2.6.2-4.8-1.9-5.3-4.4l-14.7-53.7c-.7-2.3.1-5 2.2-6.3zm9 9.3c4.1 15.1 8.2 30.2 12.4 45.2 6-.1 12.1-.1 18.1 0 .3-15.1 0-30.2.1-45.2h-30.6zm49.6-9.4c2.7-.9 5.6-.4 8.3-.5 6.1.1 12.2-.2 18.3.1 2.8.2 4.6 3 4.4 5.7 0 18 .1 36 0 54 .2 2.8-2.4 5.4-5.2 5.2-7.8.1-15.5.1-23.3 0-2.8.2-5.5-2.3-5.3-5.1-.1-18 0-36 0-54.1-.1-2.2.8-4.4 2.8-5.3zm7.1 9.4v45.2h14v-45.2h-14z"/></svg>