<svg version="1.1" id="Capa_1" xmlns="http://www.w3.org/2000/svg" x="0" y="0" viewBox="0 0 497.4 497.4" xml:space="preserve"><style>.st0{fill:#d7282f}</style><path class="st0" d="M93 129.2c.1-3.1 3.3-4.8 6.1-4.5h78.8c2.7-.2 5.3 1.2 6.2 3.8 6.2 14 12.4 28.1 18.5 42.2 84.7.1 169.4 0 254.1 0 2.9-.3 5.8 1 6.9 3.9 9.2 18.6 18.4 37.3 27.6 55.9 2.1 4.5 4.7 8.7 6.2 13.4v1c-.6 2.1-2.2 3.7-4.4 4.3-15.1 5.3-30.2 10.5-45.2 15.8-4 1.5-8.4.9-12.6 1H219.5c-3.4 0-6.9.3-10.3-.2-2.6-.3-3.7-2.9-4.6-4.9-10.4-24.7-20.8-49.3-31.2-73.9h-7.9c7.4 21.3 14.8 42.5 22.2 63.8 3.8.4 9.5-1.4 11.5 3 1 6.3.2 12.7.4 19h235.8c2.3-.1 5 .4 5.9 2.8.9 2.9.4 6 .5 9 4.7 4.8 9.6 9.5 14.3 14.4.5-2.3.4-5.3 2.9-6.4 2.9-1.6 6.9.6 6.9 3.9.4 6.7 0 13.4.2 20-.1 2.3.3 5-1.5 6.8-2.3 2.5-7.1 1.3-7.9-2-.5-2.8-.3-5.6-.3-8.4-4.9-4.9-9.7-9.8-14.7-14.6-.7 5.6 3 10.1 4.2 15.3 3 11.1 1.3 23.4-4.5 33.3-5.4 9.4-14.5 16.6-24.9 19.7-12.4 3.9-26.5 1.8-37.1-5.7-9.3-6.2-15.7-16.2-18.2-27h-10.7c-2.5 10.7-8.7 20.5-17.8 26.8-11.8 8.4-27.9 10.2-41.2 4.7-13.3-5.3-23.3-17.5-26.4-31.5h-11.2c-.3 2.7-.1 6.7-3.4 7.7-3.1.7-6.3.3-9.4.4h-83.5c-2.1-.1-4.7.1-6.1-1.8-1.3-1.8-1-4.3-1.3-6.4-2.6 13.1-11.7 24.7-23.8 30.4-10.4 5.1-22.8 5.6-33.7 1.7-9.9-3.6-18.4-10.9-23.4-20.3-5.5-10-6.7-22.3-3.3-33.2 3.5-12 12.7-22.2 24.2-27.2 14.9-6.7 33.2-3.9 45.7 6.6v-13.6c-2.7-2.7-4.7-6.1-6-9.7-12.7.2-25.5.1-38.2.4-11.2.1-21.7 8.4-24.4 19.3-1.9 8.4-2.5 17-4.1 25.4-.3 2.3-2.3 4.1-4.6 4.1-7.7.3-15.4 0-23.2.1-1 2.1-2.2 4.8-5 4.7-8.4.2-16.9.2-25.3 0-2.5.1-4-1.9-4.8-4v-21.1c.5-1.8 1.4-3.8 3.4-4.3 3.6-.7 7.3-.3 11-.3-1.4-3.6-3.2-7.2-3.1-11.1v-56.3c-.1-3.8 1.9-7.2 3.4-10.6 6.8-15 13.4-29.9 20.2-44.9 2.1-4.7 5.2-9.1 9.8-11.6 4.4-2.6 9.7-2.8 14.6-2.8 21.1.1 42.1-.1 63.2.1 8.6-.1 16 7.8 15.6 16.4v77.1c3.9-1.6 8.2-2.8 12.4-1.9 3.2.5 5.7 2.8 8.8 3.5 6 .3 12.1 0 18.1.1-7.4-21.1-14.6-42.4-22.1-63.5-2.1-.9-4.2-2-5-4.2-4.8-10.5-9.5-21.1-14.3-31.6h-25.2c-2.3 0-5.1-.1-6.4-2.2-2.9-4-5.2-8.4-7.9-12.5-1.8-2.5-3.7-4.8-3.8-7.6zm13.4 5.1l4.5 7.2h49.4c3-.3 5.4 1.8 6.3 4.5l46.5 110.1h16c-9.2-21.1-18.5-42.3-27.7-63.4-.9-2-1.6-4.4-.2-6.3 1.2-1.9 3.6-2.1 5.7-2.1h250.7c-.7-1.4-1.4-2.7-2-4H201c-2.5.1-5.1-.8-6.1-3.3-6.4-14.2-12.5-28.5-18.8-42.7h-69.7zm40.1 17c3.9 8.6 7.8 17.2 11.6 25.8h11c-3.6-8.6-7.3-17.2-10.9-25.8h-11.7zM44.6 171.7c-7.5 16.5-14.9 33.2-22.4 49.7-.7 1.5-1.3 3.1-1.2 4.8v53.4c-.3 4.7 2.4 8.7 3.8 13 3.3.1 8-.8 9.5 3.1.8 4 .2 8.2.4 12.3h19.2c2.1-10.7 1.8-22.3 7.7-31.8 6.1-10.3 17.8-16.9 29.7-17.1 12.3-.3 24.7-.2 37-.4-.1-29 0-58-.1-87 .3-3.8-3.1-7-6.8-6.7-22.1-.1-44.2 0-66.3 0-4.3-.1-8.7 2.6-10.5 6.7zm167.9 22.4c9 20.7 18.1 41.5 27.2 62.2h24.9c-9-20.7-18.1-41.3-27-62.1-8.4-.2-16.7-.1-25.1-.1zm35.5 0c9 20.7 18.1 41.4 27.1 62.2h22.1c-9-20.7-18.1-41.5-27.1-62.2H248zm32.7 0c9.1 20.7 18.1 41.5 27.2 62.2H330c-9-20.7-18.1-41.4-27.1-62.2h-22.2zm32.7 0c9 20.7 18.2 41.3 27 62.1 7.4.2 14.8.1 22.3.1-9.1-20.7-18.1-41.5-27.2-62.2h-22.1zm32.7 0c9 20.7 18.1 41.5 27.2 62.2h22.1c-9-20.7-18.1-41.5-27.2-62.2h-22.1zm32.7 0c9 20.7 18.1 41.5 27.1 62.2H428c-9.1-20.7-18.1-41.4-27.1-62.2h-22.1zm32.7 0c9 20.7 18.1 41.4 27.1 62.2 7 .4 13.2-3.5 19.8-5.3-8.2-19-16.6-37.8-24.7-56.8-7.3-.2-14.7-.1-22.2-.1zm32.8 0c7.8 17.9 15.6 35.8 23.4 53.6 6-2.1 12.1-4.2 18.1-6.3-7.8-15.8-15.6-31.5-23.3-47.3h-18.2zm-300.2 62.8c-5.4 1.8-6.9 9.6-2.6 13.3 4.2 4.3 12.4 1.7 13.3-4.3 1.5-5.9-5.1-11.4-10.7-9zm20.2 3.4c.7 4.2.1 8.5-1.6 12.4h27v-12.4h-25.4zm-19 22c.2 7.1-.3 14.3.2 21.4 1.8 4.1 3.6 8.3 4.6 12.7.1-8.4-.1-16.8.1-25.1-.2-2.9 2.4-5.3 5.2-5.1 30.1-.1 60.2 0 90.3-.1 2.2.1 4.8-.2 6.5 1.6 1.4 1.4 1.3 3.6 1.4 5.5v30.9h10.5c.4-6.2 1.6-12.5 4.4-18.1 5.6-11.9 16.9-20.6 29.6-23.6-50.9-.1-101.8-.1-152.8-.1zm172 .1c6 1.7 11.9 4.1 16.9 8.1 10.4 7.9 16.7 20.6 17.1 33.7h8.9c.4-8.8 3.1-17.5 8.3-24.6 6.1-8.6 15.4-14.5 25.6-17.1-25.6-.2-51.2-.2-76.8-.1zm96.7 0c6.6 1.9 12.8 4.9 18.1 9.3v-9.4c-6.1.1-12.1 0-18.1.1zM99.6 292c-13.3 3-24.1 14.8-25.7 28.3-1.7 11.2 2.9 23 11.6 30.2 8.4 7.3 20.5 9.9 31.2 6.8 13.5-3.6 23.8-16.4 24.5-30.3.8-10.8-4-21.7-12.4-28.4-8.1-6.5-19.2-9-29.2-6.6zm201-.2c-14 2.8-25.3 15.3-26.6 29.5-1.3 10.9 3.2 22.1 11.6 29.2 7.1 6.2 16.9 9.1 26.2 7.9 10.4-1.2 20-7.6 25.1-16.7 3.7-6.4 5.2-14 4.2-21.2-1.3-10.4-7.8-20-17-25.1-7-4-15.5-5.2-23.5-3.6zm96.2 0c-13.7 2.7-24.9 14.7-26.6 28.6-1.6 11.2 2.9 22.9 11.5 30.2 7.1 6.2 17 9.1 26.3 7.9 10.4-1.2 19.9-7.7 25.1-16.8 3.6-6.3 5.1-13.9 4.1-21.1-1.3-10.4-7.8-19.9-16.9-25-7-4.2-15.6-5.4-23.5-3.8zm-236.9 4v36.3h13.7v-36.4c-4.6.1-9.2.1-13.7.1zm23.4 0v36.3h37.1v-36.3h-37.1zm46.8 0v36.3h13.7v-36.3h-13.7zM9.7 302.3v10.5h15.4v-10.5H9.7z"/><path class="st0" d="M50 176.3c1.7-.8 3.6-.8 5.4-.8H101c1.9.1 4.1-.1 5.6 1.4 1.6 1.4 1.5 3.7 1.6 5.6v37.9c0 1.9 0 4.2-1.6 5.6-1.7 1.6-4.3 1.2-6.5 1.3-21.7-.1-43.5.1-65.2-.1-3.4.2-6-3.6-4.5-6.7 5.2-12.8 10.8-25.5 16.1-38.2.9-2.2 1.6-4.6 3.5-6zm5.7 9c-4.5 10.8-9.1 21.5-13.6 32.2 5.9 0 11.8.1 17.7-.1-.1-10.7 0-21.5-.1-32.2-1.3 0-2.7 0-4 .1zm13.8 32.2h29v-32.3h-29c-.1 10.8 0 21.5 0 32.3zm8.6 19.8c5.6-1 11.4-.2 17.2-.4 2.9.2 6.6-.7 8.7 1.9 2.3 2.6.5 7.3-3 7.6-5.8.4-11.6 0-17.4.2-2.4-.1-5.4.4-7.2-1.7-2.2-2.2-1.3-6.5 1.7-7.6zm23.3 65.2c6.9-1.8 14.6-.4 20.2 4.1 7.1 5.4 10.5 15 8.4 23.6-2.4 11.1-13.7 19.3-25 17.8-11-.9-20.4-10.7-20.7-21.8-.9-10.7 6.8-21.2 17.1-23.7zm1 9.8c-6.2 2.3-9.9 9.5-8.2 15.9 1.6 7.1 9.5 11.8 16.4 9.8 7.1-1.6 11.9-9.6 9.8-16.6-1.7-7.6-10.8-12.2-18-9.1zm199.2-9.8c7.1-1.9 15.1-.3 20.8 4.5 6.7 5.4 9.9 14.7 7.9 23.1-2.3 11.2-13.8 19.4-25.2 17.8-11-1-20.2-10.8-20.6-21.8-.8-10.5 6.8-21 17.1-23.6zm2.7 9.3c-6.7 1.6-11.4 8.8-9.9 15.6 1.1 7.1 8.5 12.3 15.6 10.9 7.3-1 12.6-8.7 11.1-15.9-1.3-7.5-9.6-12.7-16.8-10.6zm93.5-9.3c6.9-1.9 14.6-.3 20.2 4.1 7 5.4 10.5 14.9 8.3 23.5-2.3 11.1-13.7 19.3-25 17.8-11-.9-20.4-10.8-20.7-21.8-.8-10.6 6.8-21.1 17.2-23.6zm1 9.8c-6.2 2.3-9.9 9.5-8.2 15.8 1.6 7.1 9.4 11.8 16.4 9.9 7.2-1.6 12-9.6 9.9-16.7-1.9-7.5-10.9-12.1-18.1-9z"/></svg>