<svg version="1.1" id="Capa_1" xmlns="http://www.w3.org/2000/svg" x="0" y="0" viewBox="0 0 497.4 497.4" xml:space="preserve"><style>.st0{fill:#d7282f}</style><path class="st0" d="M10.5 5.3h35.9c2 1.5 4.3 3.1 4.6 5.8.6 5 .2 10.1.2 15.1 0 51.3-.1 102.6 0 154 10.1.1 20.2.1 30.3 0 .1-15.1.2-30.1-.1-45.2-4-.2-8.3.4-12-1.6-3.1-1.9-3.2-5.9-3.2-9.2.1-8.6 0-17.2 0-25.8 0-3.2.5-7.1 3.8-8.5 3.6-1.4 7.6-.8 11.5-1 .1-25.3-.1-50.7.1-76-.2-3.3 2.2-5.9 4.8-7.5h96.7c2 1.5 4.3 3.2 4.6 5.8.6 4.7.2 9.4.2 14.1 0 21.2-.1 42.4 0 63.6 3.8.2 7.8-.4 11.5 1 3.3 1.5 3.8 5.4 3.8 8.5 0 8.6-.1 17.2 0 25.8 0 3.2-.1 7.3-3.2 9.2-3.7 2-8 1.4-12 1.6-.2 15.1-.1 30.1 0 45.2 20.2.1 40.5.1 60.7 0 0-25.2.2-50.4 0-75.6-4-.2-8.3.4-12-1.6-3.1-1.9-3.2-5.9-3.2-9.2.1-8.3.1-16.5 0-24.8.1-2.8-.1-6.2 2.1-8.3 1.6-1.7 4.2-2 6.4-2.1 59.9 0 119.9.1 179.8 0 2.5.1 5.5.1 7.4 2.1 2.2 2.2 2 5.5 2.1 8.3-.1 8.3-.1 16.5 0 24.8 0 3.2 0 7.3-3.2 9.2-3.7 2-8 1.4-12 1.6-.2 25.2-.1 50.4 0 75.6 10.1.1 20.2.1 30.3 0 .1-51.3 0-102.6 0-154 .1-5-.4-10.1.2-15.1.3-2.7 2.6-4.4 4.6-5.8h35.9c1.8 1.4 3.4 3 4.8 4.8v477.1c-1.5 2-3.2 4.3-5.9 4.7-5.3.9-10.7.3-16 .4H27c-5.3-.1-10.7.4-16-.4-2.6-.4-4.4-2.7-5.8-4.7V10.1c1.9-1.7 3.5-3.4 5.3-4.8zm10.4 15.5c-.2 62.3 0 124.7-.1 187v269c5 .1 10.1.1 15.2 0 0-152 .1-304-.1-456h-15zm76.1 0c-.2 12.6-.1 25.2-.1 37.8 10.1.1 20.2-.1 30.4.1.1 5.1.1 10.2 0 15.3-10.1.2-20.2 0-30.3.1-.2 5-.2 10-.1 15 25.3 0 50.7.1 76 0 0-22.7.1-45.5-.1-68.2-25.2-.1-50.5-.1-75.8-.1zm365 0c-.2 50.3 0 100.6-.1 150.9v305.1c5 .1 10.1.1 15.2 0 0-152 .1-304-.1-456h-15zM249.1 74c-.2 5-.2 10-.1 15h167.2c.1-5 .1-10-.1-15h-167zM81.8 104.4c-.2 5-.2 10-.1 15h106.4c.1-5 .1-10-.1-14.9-35.4 0-70.8 0-106.2-.1zm182.5 0c-.2 15.1-.1 30.2-.1 45.4 30.4.1 60.8 0 91.2.1.1 5.1.1 10.2 0 15.3-30.4.2-60.7.1-91.1.1-.2 5-.2 10-.1 15 45.6 0 91.2.1 136.8 0 0-25.3.1-50.5-.1-75.8-45.5 0-91 0-136.6-.1zM97 134.8c-.2 5-.2 10-.1 15 10.1.1 20.2-.1 30.3.1.1 5.1.1 10.2 0 15.3-10.1.2-20.2 0-30.3.1-.2 5-.2 10-.1 15 25.3 0 50.7.1 76 0 0-15.1.1-30.2-.1-45.4-25.1 0-50.4 0-75.7-.1zm-45.6 60.9c-.2 43-.1 86-.1 129 7.6.1 15.2.1 22.8 0 .1-32.7 0-65.3 0-98 0-2.3.3-4.8 2.1-6.4 1.9-2.1 4.8-2.1 7.4-2.1 29.8.1 59.7 0 89.5.1 4.2-.3 7.8 3.4 7.5 7.5.1 33 0 65.9.1 98.9 5 .1 10.1.1 15.2 0 .1-33 0-65.9 0-98.9-.2-3.4 2.3-6.9 5.8-7.3 4.1-.5 8.2-.2 12.3-.2h78.9c2.6 0 5.5.1 7.4 2.1 1.8 1.6 2.1 4.1 2.1 6.4 0 32.6-.1 65.3 0 97.9 5 .1 10.1.1 15.2 0 .1-32.6 0-65.3 0-97.9 0-2.3.3-4.8 2.1-6.4 1.9-2.1 4.8-2.1 7.4-2.1 29.8.1 59.7 0 89.5.1 4.2-.3 7.8 3.3 7.5 7.5.1 33 0 65.9.1 98.9 7.6.1 15.2.1 22.8 0 0-43 .1-86-.1-129-132-.1-263.8-.1-395.5-.1zm38 38c-.2 20.2-.1 40.4-.1 60.6 10.1.1 20.2-.1 30.4.1.1 5.1.1 10.2 0 15.3-10.1.2-20.2 0-30.3.1-.2 5-.2 10-.1 14.9 25.3 0 50.7.1 76 0 0-30.3.1-60.7-.1-91-25.2.1-50.5.1-75.8 0zm121.7 0c-.2 20.2-.1 40.4-.1 60.6 10.1.1 20.2-.1 30.4.1.1 5.1.1 10.2 0 15.3-10.1.2-20.2 0-30.3.1-.2 5-.2 10-.1 15h76c0-30.3.1-60.7-.1-91-25.3 0-50.5 0-75.8-.1zm121.6 0c-.2 20.2-.1 40.4-.1 60.6 10.1.1 20.2-.1 30.4.1.1 5.1.1 10.2 0 15.3-10.1.2-20.2 0-30.3.1-.2 5-.2 10-.1 15h76c0-30.3.1-60.7-.1-91-25.2 0-50.5 0-75.8-.1zM51.4 340.2c-.2 45.5-.1 91.1-.1 136.6 10.1.1 20.2.1 30.4 0 0-17.6.1-35.3-.1-52.9-3.4-.1-6.8.2-10.1-.6-3.2-.8-5.2-4-5-7.2-.2-8.9.1-17.8-.1-26.7.1-3.1-.4-6.9 2.1-9.3 1.9-2.1 4.8-2.1 7.4-2.1 40 .1 79.9 0 119.9.1 3.8-.2 7.4 2.8 7.4 6.6.3 8.9-.1 17.7.1 26.6-.2 3.4.6 7.6-2.1 10.3-3.5 3.2-8.7 2.1-13 2.4-.2 17.6-.1 35.3-.1 52.9h60.8c0-25.2.1-50.5-.1-75.7-3.4-.1-6.8.2-10.1-.6-3.2-.8-5.2-4-5-7.2-.2-8.9.1-17.8-.1-26.7.1-3.1-.4-6.9 2.1-9.3 1.9-2.1 4.8-2.1 7.4-2.1 60.2.1 120.5 0 180.7.1 3.8-.2 7.4 2.8 7.4 6.6.3 9.2-.1 18.4.1 27.6-.1 3.3.4 7.5-2.6 9.8-3.6 2.7-8.4 1.7-12.5 1.9-.2 25.2-.1 50.5-.1 75.7 10.1.1 20.2.1 30.4 0 0-45.5.1-91.1-.1-136.6-131.5-.2-263.3-.2-395-.2zm197.7 30.4c-.2 5-.2 10-.1 15h167.2c.1-5 .1-10-.1-15h-167zM81.8 393.4c-.2 5-.2 10-.1 14.9h106.4c.1-5 .1-10-.1-15-35.4.2-70.8.2-106.2.1zm182.5 7.6c-.2 15.1-.1 30.2-.1 45.4 30.4.1 60.8 0 91.2.1.1 5.1.1 10.2 0 15.3-30.4.2-60.7.1-91.1.1-.2 5-.2 10-.1 15H401c0-25.3.1-50.5-.1-75.8-45.5 0-91 0-136.6-.1zM97 423.8c-.2 7.5-.1 15-.1 22.6 10.1.1 20.2-.1 30.4.1.1 5.1.1 10.2 0 15.3-10.1.2-20.2 0-30.3.1-.2 5-.2 10-.1 14.9h76c0-17.7.1-35.3-.1-53-25.2.1-50.5.1-75.8 0z"/><path class="st0" d="M142.6 58.6c5-.1 10.1-.1 15.1 0 .1 5.1.1 10.2 0 15.3-5 .2-10.1.2-15.1 0-.1-5.1-.1-10.2 0-15.3zm0 91.2c5-.1 10.1-.1 15.1 0 .1 5.1.1 10.2 0 15.3-5 .2-10.1.2-15.1 0-.1-5-.1-10.1 0-15.3zm228.1 0c5-.1 10.1-.1 15.1 0 .1 5.1.1 10.2 0 15.3-5 .2-10.1.2-15.1 0-.1-5-.1-10.1 0-15.3zM135 294.3c5-.1 10.1-.1 15.1 0 .1 5.1.1 10.2 0 15.3-5 .2-10.1.2-15.1 0-.1-5-.1-10.2 0-15.3zm121.6 0c5-.1 10.1-.1 15.1 0 .1 5.1.1 10.2 0 15.3-5 .2-10.1.2-15.1 0-.1-5-.1-10.2 0-15.3zm121.7 0c5-.1 10.1-.1 15.1 0 .1 5.1.1 10.2 0 15.3-5 .2-10.1.2-15.1 0-.1-5-.1-10.2 0-15.3zM142.6 446.4c5-.1 10.1-.1 15.1 0 .1 5.1.1 10.2 0 15.3-5 .2-10.1.2-15.1 0-.1-5-.1-10.1 0-15.3zm228.1 0c5-.1 10.1-.1 15.1 0 .1 5.1.1 10.2 0 15.3-5 .2-10.1.2-15.1 0-.1-5-.1-10.1 0-15.3z"/></svg>