<svg version="1.1" id="Capa_1" xmlns="http://www.w3.org/2000/svg" x="0" y="0" viewBox="0 0 497.4 497.4" xml:space="preserve"><style>.st0{fill:#d7282f}</style><path class="st0" d="M66.6 5.2h86.2c5.4 1.4 7.8 8.6 4 12.7-2.6 3.5-7.3 2.6-11.1 2.7 1.9 33.9 3.7 67.8 5.6 101.8 30.3-8.1 60.5-16.6 90.7-24.8 4.3-1.2 9-1.2 13.3 0l108.3 29.7c4.3 1.1 7.8 3.9 11.2 6.7l102.9 81.6c4.6 3.6 7.7 9.1 8.4 14.9 1.3 8.7-2.9 18-10.4 22.7-5.8 3.9-13.4 4.6-20 2.5-4.6-1.4-8.2-4.7-11.9-7.7v35.8c.2 4.6-4.2 8.7-8.8 8-3.9-.4-7.1-4-6.9-7.9-.1-16.1 0-32.2 0-48.3-27.3-21.5-54.4-43.3-81.8-64.7-31.6-9.1-63.5-17.5-95.2-26.3-2.8-1.1-5.6.3-8.2 1-30 8.2-60 16.5-90 24.7-1.3.3-2.4 1-3.5 1.9-26.7 21.3-53.4 42.5-80.1 63.7v211.7c19.9.1 39.8 0 59.7 0V297.9c-4.1 0-9.2.8-11.8-3.1-3.9-4.8 0-12.9 6.3-12.6 82.7-.1 165.4 0 248 0 3.1 0 6.8-.4 9.2 2 3.6 2.9 3.6 8.9.1 11.8-3.2 2.9-7.8 1.7-11.6 1.9 0 49.9-.1 99.9 0 149.8 19.7-.1 39.4 0 59.1 0V312.5c-.4-3.8 2.2-7.5 6-8.3 4.6-1.3 9.7 2.5 9.7 7.3.1 45.4 0 90.8 0 136.2 9.8.1 19.6-.2 29.4.2 9.5.5 17.8 8.5 18.9 18v8.7c-1.3 10.1-10.8 18.2-21 17.8-35.5.1-70.9.1-106.4 0-4.5.5-9.4-3.1-9.1-7.9-.3-4.3 3.8-8.2 8.1-7.8h107.6c7.5.3 7.5-13.6 0-13.3-148-.1-296 0-444 0-2.8-.4-5.8 1.3-6.3 4.2-.2 2.5-.6 5.6 1.4 7.5 2 2.2 5.2 1.5 7.8 1.6 101.4-.1 202.8 0 304.3 0 2.3-.1 4.7.8 6.2 2.6 3 3.2 2.5 8.8-1.1 11.4-2 1.7-4.7 1.7-7.1 1.7H28.5c-4.8.1-9.8-.7-13.8-3.6-4.9-3.1-8-8.6-9-14.2v-8.7c1.1-9.5 9.3-17.4 18.9-18 9.8-.4 19.6 0 29.4-.2V248.6c-3.5 2.6-6.7 5.6-10.9 7-9.6 3.5-21.3 0-27-8.5-6.8-9.5-4.9-23.9 4.3-31.2 15.1-12 30-24 45.1-35.9 3-53 5.8-106.1 8.7-159.2-2.5 0-5 .2-7.5-.3-3.9-1.1-6.3-5.6-5.2-9.4.2-3 2.6-4.9 5.1-5.9zm22.9 15.4c-.3 4.8-.6 9.7-.8 14.5h42.2c-.2-4.8-.4-9.7-.8-14.5H89.5zm-3.2 58.7h46.9c-.4-9.5-.9-19-1.5-28.5H87.8c-.6 9.5-1.1 19-1.5 28.5zm-.8 15.5c-1.4 24-2.7 47.9-3.9 71.9 14.8-11.7 29.5-23.5 44.3-35.2 2.9-2.4 6.4-3.8 10-4.7-.6-10.6-1.1-21.3-1.8-31.9-16.2-.1-32.4-.1-48.6-.1zm158.9 18.4c-35.2 9.7-70.5 19.3-105.7 29-2.1.5-3.7 2-5.4 3.3-34.2 27.3-68.5 54.5-102.7 81.8-2.1 1.6-3.7 4.3-3.3 7 .4 4.4 5.1 7.9 9.4 6.6 1.6-.3 2.9-1.5 4.1-2.5 33.7-26.8 67.4-53.7 101.1-80.5 2.1-1.9 4.9-2.3 7.5-3.1 32.1-8.8 64.1-17.6 96.2-26.4 2-.6 4.1-.6 6.1 0 33.4 9.2 66.8 18.3 100.3 27.5 1.1.3 2.1.8 3 1.5 34.7 27.4 69.3 55 104 82.4 4.1 3.1 10.6.2 11.5-4.7 1-3.5-1.3-6.7-4.1-8.6-34.8-27.6-69.6-55.2-104.5-82.8-1.2-1-2.6-1.5-4-1.8-35.5-9.7-70.9-19.4-106.4-29.2-2.3-.7-4.8-.2-7.1.5zm-99.8 202.2c69.5-.1 139.1 0 208.6 0v-17.6H144.6v17.6zm0 15.4v17.6h208.7v-17.6H144.6zm0 33c0 5.8.1 11.7-.1 17.5 69.6.2 139.2 0 208.7.1v-17.6H144.6zm.3 33.4c-.7 5.6-.1 11.6-.3 17.3h208.7v-17.4c-69.5.1-139 0-208.4.1zm-.4 33c.1 5.8 0 11.5.1 17.3 69.5-.1 139.1 0 208.6 0v-17.3c-69.5 0-139.1-.1-208.7 0z"/><path class="st0" d="M150.3 210.1c13.1-3.4 27.8 4.3 32.4 17 5 12.2-.3 27.5-11.8 34-11.8 7.3-28.7 3.9-36.6-7.5-8.7-11.2-6.5-28.9 4.6-37.8 3.2-2.8 7.2-4.7 11.4-5.7zm3.7 15.2c-4.8 1.1-8.6 5.3-9.4 10.1-1 6.1 3.4 12.3 9.4 13.7 7.3 1.9 15.1-4.4 14.8-11.9.3-7.5-7.5-13.8-14.8-11.9zm88.4-15.2c14.6-4 31 6.3 33.7 21.2 3.3 13.6-5.5 28.5-18.9 32.4-11.7 3.8-25.5-1.3-31.8-11.8-4.3-6.8-5.4-15.6-2.9-23.3 2.8-9.1 10.7-16.4 19.9-18.5zm3.9 15.2c-5.3 1.2-9.6 6.3-9.5 11.9-.1 6 4.9 11.5 10.9 12.1 6.9.9 13.6-5.1 13.4-12.1.3-7.5-7.6-13.8-14.8-11.9zm88.4-15.2c12.1-3.2 25.7 3.1 31.2 14.2 4.3 8.2 4.1 18.7-.6 26.7-5 8.8-15.1 14.5-25.3 13.9-13-.3-24.8-11-26.3-23.9-2.3-13.7 7.4-28 21-30.9zm3.8 15.2c-4.7 1.1-8.6 5.3-9.3 10.1-1.1 6.3 3.7 12.7 10 13.8 7.1 1.4 14.5-4.8 14.2-12.1.1-7.4-7.7-13.7-14.9-11.8z"/></svg>