<svg version="1.1" id="Capa_1" xmlns="http://www.w3.org/2000/svg" x="0" y="0" viewBox="0 0 497.4 497.4" xml:space="preserve"><style>.st0{fill:#d7282f}</style><path class="st0" d="M66.1 68.2c1.1-3.2 6-3.7 7.8-.8 2.5 3.9 3.9 8.4 6.1 12.5 12.3 3.1 24.7 6.2 37 9.4.7-1.8 1-4 2.9-5 1.5-.9 3.4-.5 5-.2 33.7 8.1 67.3 16.3 101 24.4 1.5.4 3.1.9 4 2.4 1.4 2.1.2 4.6-.1 6.9 5.3 1.2 10.6 2.8 14.8 6.5 6.7 5.5 10 14.4 9.2 22.9 3.9 1 7.8 1.7 11.6 2.9 1.9.5 2.8 2.2 3.8 3.7 7.5 12.5 15.2 24.8 22.8 37.3 24.1.1 48.2 0 72.2 0 2.8-.3 5.1 2 5.3 4.8 4 24 7.9 48.1 11.9 72.1 17.7.1 35.3-.1 53 .1 10.9.2 20.5 9.9 20.6 20.8.1 18.1.1 36.1 0 54.2.2 3.1-2.9 5.2-5.8 4.8h-76.3v7.1h88.9c8.6 0 17.2 3 23.7 8.8 7.5 6.4 11.7 16.2 12.1 26v1c-.4 9.6-4.6 19.1-11.9 25.5-6.7 6.1-15.8 9.1-24.8 9H216.3c-7.8-.2-15.7.6-23.4-.9-14-2.8-25.3-15-27.3-29.1-2-12.2 3.3-25.2 13.1-32.8 6.5-5.2 14.9-7.6 23.1-7.5h100.8v-7.1h-40.1c-2.5.2-5.4-.8-6.1-3.5-11.8-38-14.6-78.8-7.7-117.9 1-3-1.5-5.4-2.9-7.8-4.6-7.1-8.5-14.6-13.4-21.4-49.4-15.9-98.9-31.1-148.4-46.6-8.4 34.8-16.8 69.7-25.2 104.5 16.1 4.2 32.1 8.4 48.2 12.6 9.1-4.2 18.1-8.6 27.2-12.8 3.1-1.9 7.4 1.1 6.8 4.7-.6 2.2-1.9 4-3.1 5.9-10 16.5-19.9 33-29.9 49.4-4.2 7-10.5 12.7-18.1 15.8-12.1 5-26.6 3-37.3-4.5-8.5-6-14.1-15.7-15.4-25.9-1.5-11.7-2.4-23.4-3.8-35.1-8.4-8.7-16.8-17.3-25.3-25.9-1.5-1.6-3.4-3.4-2.9-5.8 1.3-6.3 3.2-12.4 4.7-18.6-3-.7-6.9-1.2-7.7-4.8v-1.4c7.7-31.5 15.2-63.1 22.8-94.6.4-2.1 1.9-4.1 4.1-4.4 2.1 0 4.1.6 6.2 1 1.5-6.1 2.4-12.4 4.6-18.3C44 83 54 76.7 64.2 77c.6-2.9.8-6 1.9-8.8zm6.1 17.1c-1.7 9.3-3.3 18.5-5 27.8 4-3.9 9.3-6.4 14.9-6.7-3.3-7-6.6-14.1-9.9-21.1zM48.7 96.2c-1.8 5.5-2.7 11.2-4.1 16.8 2.3.7 5.3.8 6.7 3 1.4 2 .4 4.5 0 6.6-7.3 30.2-14.6 60.5-21.9 90.7-.4 1.6-.9 3.3-2.4 4.2-2.4 1.5-5.3.1-7.8-.4-.7 2.9-1.4 5.9-2.1 8.8 7.4-3.2 14.7-6.4 22.1-9.6 7.8-43.3 15.6-86.6 23.3-130-5.9.6-11.6 4.2-13.8 9.9zM85 90.8c2.7 5.8 5.4 11.7 8.1 17.5 50.5 12.2 100.9 24.4 151.4 36.5 0-4.7-1.9-9.4-5.1-12.8-3.1-3.3-7.7-4.4-11.9-5.3-.7 2.1-.8 4.9-2.9 6.2-1.6 1.1-3.7.7-5.5.3-33.5-8.1-67-16.1-100.6-24.1-2-.4-4.2-1.6-4.6-3.7-.3-2.3.6-4.6 1.1-6.9-10.1-2.7-20.1-5.2-30-7.7zm40.5 3c-.5 2.3-1 4.6-1.6 6.8 31.5 7.6 63.1 15.3 94.6 22.8.5-2.3 1.1-4.6 1.6-6.9-31.5-7.5-63-15.2-94.6-22.7zm-49.9 24.5c-4.5 3.2-6.3 9.8-3.7 14.8 1.6 3.5 5.1 5.7 8.7 6.8l155.7 48.6c1.5.4 2.9 1.4 3.7 2.8 3.9 6.4 7.8 12.8 11.7 19.1 2.3-6.1 2.6-13 6.1-18.6 7.5-1.9 15.4-.4 23-.9-6.6-10.8-13.1-21.6-19.8-32.3-9.7-2.9-19.6-4.8-29.4-7.3-48.3-11.6-96.7-23.3-145-35-3.7-.8-7.9-.5-11 2zM33.5 120c-6.9 28.7-13.8 57.3-20.7 86 2.8.7 5.6 1.4 8.4 2 6.9-28.7 13.8-57.3 20.7-86-2.8-.7-5.6-1.4-8.4-2zM63 136.4c-6.8 38.2-13.8 76.3-20.5 114.5 2.4.6 4.9 1.1 7.3 1.7 8.4-34.9 16.8-69.8 25.2-104.8-5.2-2.1-9.5-6.3-12-11.4zM262 208c26.5 0 53.1-.1 79.7 0 2.9-.2 5.2 2.4 4.9 5.2V307c.2 2.4-1.5 4.9-3.9 5.2-27.1 5.3-54.2 10.4-81.3 15.7.9 3.5 1.9 6.9 2.8 10.4h181.4v-48.7c.2-6.9-6.1-13.1-13-12.6-18.4 0-36.7.1-55.1 0-2.6.1-4.8-2.1-4.9-4.7-4-24-7.9-48.1-12-72.1h-96.4c-.7 2.6-1.4 5.2-2.2 7.8zm-2.2 9.2c-3.5 16.6-5.5 33.5-5.7 50.5 27.7-12.2 55.5-24.5 83.2-36.7v-13.7c-25.8 0-51.7-.1-77.5-.1zM18 235.8c5 5.1 10 10.3 15 15.4 1.5-8 2.9-15.9 4.3-23.9-6.5 2.8-12.9 5.7-19.3 8.5zm236.3 42.1c.2 3.4.4 6.9.6 10.3 27.5-12.1 54.9-24.3 82.4-36.4v-10.6c-27.7 12.2-55.3 24.4-83 36.7zM42.5 260.6c1.3 12.3 2.5 24.7 3.9 37 .7 6.1 2.8 12.1 6.9 16.7 7.7 8.9 21.3 12.7 32.3 8.1 6.7-2.3 11.8-7.5 15.4-13.4 7.8-13 15.7-26 23.5-39.1-4.9 2.3-9.8 4.7-14.8 7-1.5.8-3.3.5-4.9 0-20.8-5.5-41.5-10.9-62.3-16.3zM255.8 298c1.2 7 2.3 14 3.5 21 26-5 52-10.1 78-15.1V262c-27.1 12-54.3 24-81.5 36zm56 49.7v7.1h51.6v-7.1h-51.6zm-117.4 17.1c-6.4 1.5-12.2 5.5-15.8 11-5.9 8.8-5.5 21.3 1 29.6 5 6.8 13.6 10.5 22 10.3h260c7.2 0 14.4-2.8 19.4-8.1 7.5-7.6 9.2-20 4.2-29.5-4.3-8.7-13.9-14.2-23.5-14.1-86.4-.1-172.7 0-259 0-2.9.1-5.6.2-8.3.8z"/><path class="st0" d="M398.1 287.1c2-.9 4.3-.6 6.4-.6 7.1.1 14.2-.2 21.3.1 3.4.1 5.4 4.6 3.2 7.3-1.6 2.3-4.6 1.9-7.1 2-7.4-.1-14.8.2-22.2-.1-4.2-.4-5.4-6.9-1.6-8.7zm1.1 16.7c7.5-.6 15.2-.1 22.7-.3 2.4 0 5.6-.4 7.2 2 2.4 3-.4 7.7-4.1 7.3-8.4 0-16.9.2-25.3-.1-4.8-.4-5.2-8-.5-8.9zm-1 17.4c2-.9 4.3-.5 6.4-.6 7.1.1 14.2-.2 21.3.1 3.6.2 5.4 5.1 2.8 7.6-1.4 1.8-3.8 1.5-5.8 1.6-7.7-.1-15.4.1-23.1-.1-4.3-.2-5.5-6.8-1.6-8.6zm-201.3 48.9c4.7-1 9.8-.4 14 2 6.6 3.4 10.9 10.8 10.6 18.2 0 7.3-4.4 14.4-11 17.7-6.6 3.5-15.2 2.9-21.2-1.6-5.9-4.2-9.3-11.8-8.2-19 1-8.4 7.7-15.6 15.8-17.3zm.1 9.8c-3.4 1.5-6 4.8-6.4 8.5-1.1 5.7 3.4 11.7 9.1 12.3 7.1 1.4 14.1-5.8 12.3-12.8-1-6.7-9-10.8-15-8zm259.2-9.5c9.7-2.9 20.9 2.6 24.4 12.1 2.9 7.2 1.2 15.9-4.2 21.5-5.8 6.2-15.5 8.1-23.2 4.4-7.6-3.4-12.6-11.8-11.7-20.1.5-8.4 6.7-15.8 14.7-17.9zm.9 9.6c-2.9 1.4-5.2 4-6 7.2-1.8 5.8 2.4 12.5 8.4 13.4 7 1.7 14.3-5.1 12.9-12.3-.7-7-9-11.4-15.3-8.3zm-224.4 5.7c2.1-.7 4.4-.4 6.6-.5h187.5c2.8-.4 5.7 2 5.4 4.9-.1 2.7-2.8 4.6-5.4 4.4H236.3c-1.7 0-3.7 0-4.9-1.4-2.3-2-1.5-6.2 1.3-7.4z"/></svg>