<svg version="1.1" id="Capa_1" xmlns="http://www.w3.org/2000/svg" x="0" y="0" viewBox="0 0 497.4 497.4" xml:space="preserve"><style>.st0{fill:#d9232e}.st1{fill:#d7282f}</style><path class="st0" d="M104.6 6.1h3.7c2.6.9 5 2.9 5.6 5.7.3 2.5.2 5 .2 7.5v118.5c44.1-13.2 88.2-26.5 132.2-39.7 3-1 6.1.1 9 1.1 36.1 11.5 72.3 22.8 108.4 34.3 4.5 1.4 6.6 7.3 4.1 11.2-1.7 3.3-6.1 4.7-9.4 3.4-35.9-11.3-71.8-22.7-107.7-34-2.3-.9-4.6.5-6.8 1-63.6 19.1-127.2 38.2-190.8 57.2v302.4h45.6V318.9c-.1-4 3.6-7.4 7.6-7.2h285.5c3.4-.2 6.4 2.3 7.4 5.5.3 2.5.1 5 .2 7.5v150.1h35.4c.1-100.8 0-201.6 0-302.5-15.3-4.9-30.7-9.6-46-14.6-5.8-1.9-6.5-10.8-1.3-13.8 3.3-2.3 7.3-.6 10.7.5 15.6 5 31.2 9.9 46.8 14.8 3.2 1 5.6 4.2 5.4 7.6v308h33.1c3.5-.2 6.4 2.5 7.5 5.6v3.8c-.8 3.4-3.9 6.2-7.5 5.9H370.9c-4 .2-7.5-3.6-7.3-7.5-.3-4.1 3.3-7.9 7.4-7.8 4.3-.1 8.6 0 13 0 0-49.1-.1-98.3 0-147.4-90-.2-180-.1-270 0 .1 49.1 0 98.3 0 147.4h55.8V351.2c-.2-3.4 1.4-7 4.7-8.3 4.6-2.3 10.7 1.3 10.9 6.5.1 41.8 0 83.6.1 125.4h55.7V350.2c-.4-5.3 5.7-9.6 10.5-7.5 3.1 1 5.2 4.2 5 7.5v124.5h55.7c.2-41.5 0-83.1.1-124.6-.2-3.7 2.7-7.4 6.4-7.8 4.7-1 9.4 3.1 9.2 7.9.1 41.5-.1 83 .1 124.5 4.8.1 9.6-.2 14.3.1 4.9 1 7.6 7.3 4.9 11.5-1.6 3.1-5.4 4.1-8.6 3.9H22.1c-3.2 0-6.4.2-9.6-.4-2.8-.6-4.8-3.1-5.5-5.7v-3.7c1-3.2 4-5.9 7.6-5.7h22.9v-308c-.2-3.4 2.2-6.7 5.4-7.6 18.6-5.6 37.2-11.2 55.8-16.7V19.3c0-2.5-.2-5.1.2-7.6.6-2.8 3-4.9 5.7-5.6z"/><path class="st1" d="M18 493.3c-2 0-4-.1-6-.5-3.7-.8-6.8-3.9-7.9-7.9l-.1-.3V480l.1-.4c1.5-4.8 5.8-8.1 10.5-7.8h19.9V166.9c-.2-4.8 3.1-9.3 7.6-10.5 12.8-3.9 25.8-7.8 38.7-11.6l14.9-4.5v-123c0-1.9-.1-3.8.2-5.8v-.2c.8-3.7 3.9-6.8 7.9-7.9l.4-.1h4.6l.5.2c3.9 1.4 6.8 4.4 7.5 7.9v.2c.3 2 .2 4 .2 5.9V134c18.9-5.7 37.7-11.3 56.6-17 23.9-7.2 47.8-14.4 71.8-21.5 3.7-1.2 7.3 0 10.2.9l.5.2c16.4 5.2 32.8 10.4 49.3 15.6 19.4 6.1 39.4 12.4 59.1 18.7 3 .9 5.4 3.2 6.6 6.4 1.2 3.1.9 6.6-.7 9.2-2.4 4.4-8.2 6.5-13 4.7L321.9 140c-24.1-7.6-48.1-15.2-72.2-22.8l-.2-.1c-.6-.2-1.5 0-2.9.5-.6.2-1.3.4-2 .6-49.4 14.8-98.9 29.7-148.3 44.5L56 174.8V472h39.6V319.2c-.1-2.6 1-5.2 3.1-7.2s4.8-3.1 7.6-3h285.3c4.6-.2 9 3 10.3 7.6l.1.5c.3 2 .2 3.9.2 5.7v149.4h29.4V175c-6-1.9-12-3.8-17.9-5.7-8.5-2.7-17.4-5.5-26-8.3-3.8-1.2-6.4-4.7-6.8-8.9-.4-4.3 1.5-8.3 4.9-10.3 4.3-2.8 8.9-1.3 12.4-.1l.9.3c10.6 3.4 21.3 6.7 31.9 10.1l14.8 4.7c4.6 1.4 7.7 5.9 7.5 10.6v304.9h30c5.2-.2 8.9 3.6 10.4 7.6l.2.5v4.7l-.1.4c-1.3 5-5.8 8.5-10.5 8.2H371c-2.7.1-5.3-1-7.3-3-2.1-2.1-3.2-4.8-3.1-7.5-.2-2.7.9-5.5 2.9-7.6 2-2.1 4.8-3.3 7.5-3.3h9.9V330.9c-91.2-.2-180.7-.1-264 0v141.4h49.8V351.8c-.2-4.2 1.7-9.2 6.5-11.1 3.1-1.5 6.8-1.2 9.9.7 3.1 1.9 5 5.1 5.1 8.5.1 21.7.1 43.7 0 64.9v57.6h49.7V351c-.2-3.5 1.4-6.8 4.5-9 3-2.2 6.9-2.7 10.1-1.4 4.2 1.5 7.2 5.8 7 10.4v121.5h49.7c.1-24.6.1-49.6.1-73.8V351c-.2-5.3 3.8-10.1 8.9-10.9 3.1-.6 6.3.2 8.8 2.4 2.6 2.2 4 5.4 3.9 8.6.1 19.5 0 39.3 0 58.4v63.1h2.2c3.1 0 6.2-.1 9.4.2h.3c3.3.6 6.1 3 7.5 6.2 1.4 3.3 1.2 6.9-.5 9.7-2 3.7-6.2 5.7-11.3 5.4H19.7c-.6-.8-1.1-.8-1.7-.8zm-8-9.6c.5 1.4 1.6 2.9 3.2 3.3 2 .4 4.2.4 6.5.3H339c2.2.1 4.8-.4 5.8-2.3l.1-.2c.7-1.2.8-2.8.2-4.2-.6-1.4-1.7-2.4-3-2.7-2.8-.2-5.7-.2-8.7-.1h-8.2v-2.9c-.1-22-.1-44.4-.1-66.1v-58.6c.1-1.4-.6-2.8-1.7-3.8s-2.5-1.3-3.8-1.1h-.3c-2.1.3-3.9 2.5-3.8 4.7v47.9c0 25.2 0 51.2-.1 76.8v3h-61.7V350.1c.1-2-1.2-3.9-3-4.5l-.2-.1c-1.6-.7-3.3-.1-4.4.7-1.3 1-2.1 2.4-2 3.8v127.7h-61.7v-3c-.1-20.2 0-40.8 0-60.6v-64.8c0-1.3-.9-2.6-2.2-3.4-1.4-.9-3-1-4.3-.4l-.3.1c-2.1.8-2.9 3.3-2.8 5.3v126.8H111V324.3h3c85-.1 176.6-.1 270 0h3v3c-.1 29.7-.1 59.9 0 89.1v61.3h-16.1c-1.1 0-2.2.5-3.1 1.4-.9.9-1.3 2.1-1.2 3.2v.4c-.1 1.1.4 2.3 1.3 3.2.8.8 1.9 1.3 2.9 1.2h113c2 .2 3.7-1.5 4.3-3.3V481c-.8-1.7-2.4-3.3-4.4-3.2h-36.3V166.6c.1-2-1.3-4-3.3-4.6l-14.8-4.7c-10.7-3.4-21.3-6.7-32-10.1l-1-.3c-3.2-1.1-5.5-1.7-7.2-.6l-.2.1c-1.7 1-2.1 3.1-2 4.5.1.7.5 3.1 2.7 3.8 8.6 2.8 17.4 5.6 26 8.3 6.7 2.1 13.4 4.2 20 6.3l2.1.7v307.6h-41.4V322.2c0-1.6 0-3.1-.1-4.6-.7-1.9-2.5-3.2-4.3-3.1H106.2c-1.1 0-2.3.4-3.2 1.3-.8.8-1.3 1.9-1.3 2.8v158.9H50.2V169.9l44.5-13.4c49.5-14.8 98.9-29.7 148.4-44.5h.2c.5-.1 1-.3 1.5-.5 1.8-.6 4.3-1.5 6.9-.4 24 7.6 48 15.2 72.1 22.8l35.7 11.3c2.1.8 4.8-.1 5.7-2l.1-.2c.7-1.1.8-2.6.3-4s-1.5-2.4-2.7-2.7c-19.7-6.3-39.8-12.6-59.2-18.7-16.4-5.2-32.9-10.4-49.3-15.6l-.6-.2c-2.4-.8-4.6-1.5-6.5-.9-24 7.2-47.9 14.4-71.8 21.5-20.2 6.1-40.3 12.1-60.5 18.1l-3.9 1.2V17.1c0-1.7 0-3.3-.1-4.9-.4-1.8-2.2-2.8-3.2-3.2h-2.7c-1.6.6-2.9 1.8-3.2 3.1-.2 1.5-.2 3.1-.1 4.8v127.7l-19.2 5.7c-12.9 3.9-25.8 7.7-38.8 11.6-2 .5-3.4 2.6-3.3 4.5v311.2H14.4c-2-.1-3.7 1.5-4.4 3.3v2.8z"/><path class="st0" d="M98.6 207.4c-.3-4.1 3.5-8.1 7.7-7.8H387c2.2 0 4.5-.1 6.7.2 3.3.9 5.9 4.1 5.6 7.6-.1 13.9 0 27.8 0 41.7-.2 3.8-3.9 6.7-7.6 6.7H107.2c-3 .2-6.3-1.2-7.6-4-1.5-2.6-.7-5.8-.9-8.6.2-3.5-.9-7.6 1.7-10.5 3-3.7 9.4-3.5 12.2.4 1.7 2 1.5 4.7 1.5 7.1h127.1c.2-8.4-.5-16.9.4-25.3H106.3c-4.1.3-7.9-3.4-7.7-7.5zm157.8 7.6c.9 8.4.2 16.9.4 25.3h127.1V215H256.4z"/><path class="st1" d="M106.7 258.9c-4.2 0-8.1-2.2-9.8-5.6-1.4-2.5-1.3-5.3-1.2-7.4 0-.8.1-1.6 0-2.4v-.4c.1-.8 0-1.7 0-2.6-.1-3-.2-6.7 2.4-9.7 2-2.5 5.1-3.8 8.5-3.7 3.3.1 6.4 1.7 8.3 4.2 1.5 1.9 2 4 2.1 6h121.2v-6.4c-.1-4.2-.1-8.5.1-12.9H106.2c-2.8.1-5.6-1-7.7-3.1-2-2-3.1-4.7-3-7.4-.2-2.8.9-5.6 3-7.7 2.1-2.1 4.9-3.3 7.7-3.1h282.6c1.7 0 3.5 0 5.3.2l.3.1c4.8 1.2 8.2 5.9 7.9 10.7v41.8c-.3 5.2-5.1 9.6-10.6 9.6H107.2c-.1-.2-.3-.2-.5-.2zm-5-15.6c.1 1 0 1.9 0 2.8-.1 1.7-.1 3.3.5 4.3l.1.1c.9 1.7 3.1 2.4 4.8 2.3h284.7c2.1 0 4.4-1.6 4.6-3.8v-42c.2-1.8-1.3-3.8-3.2-4.4-1.3-.2-2.7-.1-4.2-.1H106.1c-1.1-.1-2.2.4-3.1 1.3-.9.9-1.4 2.1-1.3 3.3v.4c-.1 1 .4 2.1 1.3 3 .9.9 2.1 1.4 3.2 1.3H245l-.3 3.3c-.5 5.1-.4 10.4-.4 15.5 0 3.1.1 6.4 0 9.6l-.1 2.9h-133v-3.7c0-1.8 0-3.6-.8-4.5l-.1-.2c-.8-1.1-2.1-1.7-3.7-1.8-1.5 0-2.9.5-3.7 1.6l-.1.1c-1 1.1-1 2.8-.9 5.5-.2 1.2-.1 2.2-.2 3.2zm285.2 0h-133l-.1-2.9c-.1-3.2 0-6.4 0-9.6.1-5.1.1-10.4-.4-15.5l-.3-3.3H387v28.2l-.1 3.1zm-127.1-6H381V218H259.7c.3 4.3.2 8.7.1 12.9 0 2.1-.1 4.2 0 6.4z"/></svg>