<?xml version="1.0" encoding="utf-8"?>
<!-- Generator: Adobe Illustrator 19.2.1, SVG Export Plug-In . SVG Version: 6.00 Build 0)  -->
<svg version="1.1" id="Слой_1" xmlns="http://www.w3.org/2000/svg" xmlns:xlink="http://www.w3.org/1999/xlink" x="0px" y="0px"
	 viewBox="0 0 218 74" style="enable-background:new 0 0 218 74;" xml:space="preserve">
<style type="text/css">
	.st0{fill:#D9232E;}
</style>
<g id="_x23_d9232eff">
	<path class="st0" d="M153.6,0h39.5c2,0.9,4,1.9,5.1,3.9c6,9.6,11.9,19.3,17.9,28.9c1.8,2.5,1.8,5.9,0,8.4
		c-5.8,9.5-11.7,18.9-17.5,28.4c-1.2,2.2-3.2,3.7-5.5,4.4H153c-4.7-1.1-6.4-5.9-8.8-9.5H23.9c-3.4,0-7.3,0.5-9.5-2.1
		c-2.5-3.2-4.2-7-6.3-10.4C5.5,47,2.2,42.4,0,37.1v-2.7c3.7-7.9,8.5-15.1,12.6-22.8c1.3-2.8,3.5-4.8,7.3-4.8h125.8
		C147.6,3.9,149.8,0.6,153.6,0 M15.6,12.6c-4,6.8-7.8,13.6-11.7,20.4c-1.1,1.6-1.3,3.7-0.1,5.3c4.1,7.2,8.3,14.3,12.5,21.5
		c0.9,1.7,3.7,1.7,5.4,1.7h120.9c-4.4-6.7-8.4-13.6-12.7-20.3c-1.8-2.5-1.6-5.8,0-8.3c4.8-7.6,9.4-15.3,14.2-22.9L20,9.9
		C17.7,9.9,16.4,10.9,15.6,12.6z"/>
</g>
</svg>
