<?xml version="1.0" encoding="utf-8"?>
<!-- Generator: Adobe Illustrator 19.2.1, SVG Export Plug-In . SVG Version: 6.00 Build 0)  -->
<svg version="1.1" id="Capa_1" xmlns="http://www.w3.org/2000/svg" xmlns:xlink="http://www.w3.org/1999/xlink" x="0px" y="0px"
	 viewBox="0 0 497.4 497.4" style="enable-background:new 0 0 497.4 497.4;" xml:space="preserve">
<style type="text/css">
	.st0{fill:#D7282F;}
</style>
<g>
	<g>
		<g>
			<path class="st0" d="M479.8,390.9c-5.4-32.2-28-58.7-59-69L352,299v-10.2h-16v14l-56,105l-56-105v-14h-16v18l64,120v14h-96v16h96
				v24H153.1l6.4-51.1c10.3-6.8,16.6-18.2,16.6-30.8v-6.1h-16v6.1c0,8-4.4,15.2-11.6,18.7l-3.8,1.9l-7.7,61.2H81.4l9.1-54.7
				l-15.8-2.6l-12.2,73.3h434.9L479.8,390.9z M288,480.7v-24h96v-16h-96v-14l59.9-112.3l36.1,12v72.3c0,12.6,6.2,24,16.6,30.8
				l6.4,51.1L288,480.7L288,480.7z M423.1,480.7l-7.7-61.2l-3.8-1.9c-7.1-3.6-11.6-10.8-11.6-18.7v-67l15.8,5.3
				c25.4,8.5,43.9,30.1,48.3,56.5l14.5,87.2H423.1z"/>
			<path class="st0" d="M144,176.7c0,20.5,15.6,37.3,35.5,39.6c4.1,14,11.6,26.9,22.2,37.5L233,285c7.6,7.6,17.6,11.7,28.3,11.7
				h37.5c10.7,0,20.7-4.2,28.3-11.7l31.2-31.2c10.6-10.6,18.2-23.5,22.2-37.5c19.9-2.3,35.5-19,35.5-39.6c0-9-3.1-17.3-8.2-24H424
				v-48h-25.1C392.5,57.5,358,18,312,5.2V0.7h-64v4.5c-46,12.8-80.5,52.3-86.9,99.5H136v48h16.2C147.1,159.4,144,167.7,144,176.7z
				 M160,176.7c0-10.4,6.7-19.2,16-22.5v37.4c0,2.6,0.2,5.2,0.4,7.8C166.9,196.2,160,187.3,160,176.7z M368,191.6
				c0,19.2-7.5,37.3-21.1,50.9l-31.2,31.2c-4.5,4.5-10.6,7-17,7h-37.5c-6.4,0-12.4-2.5-17-7l-31.2-31.2
				c-13.6-13.6-21.1-31.7-21.1-50.9v-38.9h176V191.6z M383.6,199.4c0.2-2.6,0.4-5.2,0.4-7.8v-37.4c9.3,3.3,16,12.1,16,22.5
				C400,187.3,393.1,196.2,383.6,199.4z M248,21.9v66.8h16v-72h32v72h16V21.9c37.1,12,64.8,44.3,70.8,82.8H177.2
				C183.3,66.2,210.9,33.9,248,21.9z M152,136.7v-16h256v16H152z"/>
			<rect x="328" y="72.7" class="st0" width="16" height="16"/>
			<rect x="216" y="72.7" class="st0" width="16" height="16"/>
			<path class="st0" d="M73.4,408.7h45.1l4.1-20.6c2.6-0.9,5.2-2,7.8-3.2l17.5,11.7l31.9-31.9l-11.7-17.5c1.2-2.5,2.3-5.1,3.2-7.8
				l20.6-4.1v-45.1l-20.6-4.1c-1.5-4.2-3.3-8.3-5.5-12.2l-14,7.8c2.3,4.2,4.2,8.8,5.6,13.5l1.3,4.7l17.2,3.4v18.9l-17.2,3.4
				l-1.3,4.7c-1.4,4.8-3.2,9.3-5.6,13.5l-2.4,4.3l9.7,14.5L145.9,376l-14.5-9.7l-4.3,2.4c-4.2,2.3-8.8,4.2-13.5,5.6l-4.7,1.3
				l-3.4,17.2H86.6l-3.4-17.2l-4.7-1.3c-4.8-1.4-9.3-3.2-13.5-5.6l-4.3-2.4L46.1,376l-18-18l-11.3,11.3l27.3,27.3l17.5-11.7
				c2.5,1.2,5.1,2.3,7.8,3.2L73.4,408.7z"/>
			<path class="st0" d="M26.1,351.6l14-7.8c-2.3-4.2-4.2-8.8-5.6-13.5l-1.3-4.7L16,322.2v-18.9l17.2-3.4l1.3-4.7
				c1.4-4.8,3.2-9.3,5.6-13.5l2.4-4.3l-9.7-14.5l13.4-13.4l14.5,9.7l4.3-2.4c4.2-2.3,8.8-4.2,13.5-5.6l4.7-1.3l3.4-17.2h18.9
				l3.4,17.2l4.7,1.3c4.8,1.4,9.3,3.2,13.5,5.6l4.3,2.4l14.5-9.7l18,18l11.3-11.3l-27.3-27.3l-17.5,11.7c-2.5-1.2-5.1-2.3-7.8-3.2
				l-4.1-20.6H73.4l-4.1,20.6c-2.6,0.9-5.2,2-7.8,3.2L44,228.9l-31.9,31.9l11.7,17.5c-1.2,2.5-2.3,5.1-3.2,7.8L0,290.2v45.1
				l20.6,4.1C22.1,343.6,23.9,347.7,26.1,351.6z"/>
			<path class="st0" d="M96,272.7c-22.1,0-40,17.9-40,40s17.9,40,40,40s40-17.9,40-40S118.1,272.7,96,272.7z M96,336.7
				c-13.2,0-24-10.8-24-24s10.8-24,24-24s24,10.8,24,24S109.2,336.7,96,336.7z"/>
		</g>
	</g>
</g>
</svg>
