<?xml version="1.0" encoding="utf-8"?>
<!-- Generator: Adobe Illustrator 19.2.1, SVG Export Plug-In . SVG Version: 6.00 Build 0)  -->
<svg version="1.1" id="Capa_1" xmlns="http://www.w3.org/2000/svg" xmlns:xlink="http://www.w3.org/1999/xlink" x="0px" y="0px"
	 viewBox="0 0 497.4 497.4" style="enable-background:new 0 0 497.4 497.4;" xml:space="preserve">
<style type="text/css">
	.st0{fill:#D7282F;}
</style>
<g>
	<g>
		<path class="st0" d="M66.6,5.2h86.2c5.4,1.4,7.8,8.6,4,12.7c-2.6,3.5-7.3,2.6-11.1,2.7c1.9,33.9,3.7,67.8,5.6,101.8
			c30.3-8.1,60.5-16.6,90.7-24.8c4.3-1.2,9-1.2,13.3,0c36.1,9.9,72.2,19.8,108.3,29.7c4.3,1.1,7.8,3.9,11.2,6.7
			c34.3,27.2,68.6,54.4,102.9,81.6c4.6,3.6,7.7,9.1,8.4,14.9c1.3,8.7-2.9,18-10.4,22.7c-5.8,3.9-13.4,4.6-20,2.5
			c-4.6-1.4-8.2-4.7-11.9-7.7c0,11.9,0,23.9,0,35.8c0.2,4.6-4.2,8.7-8.8,8c-3.9-0.4-7.1-4-6.9-7.9c-0.1-16.1,0-32.2,0-48.3
			c-27.3-21.5-54.4-43.3-81.8-64.7c-31.6-9.1-63.5-17.5-95.2-26.3c-2.8-1.1-5.6,0.3-8.2,1c-30,8.2-60,16.5-90,24.7
			c-1.3,0.3-2.4,1-3.5,1.9c-26.7,21.3-53.4,42.5-80.1,63.7c0,70.6,0,141.1,0,211.7c19.9,0.1,39.8,0,59.7,0c0-49.9,0-99.8,0-149.7
			c-4.1,0-9.2,0.8-11.8-3.1c-3.9-4.8,0-12.9,6.3-12.6c82.7-0.1,165.4,0,248,0c3.1,0,6.8-0.4,9.2,2c3.6,2.9,3.6,8.9,0.1,11.8
			c-3.2,2.9-7.8,1.7-11.6,1.9c0,49.9-0.1,99.9,0,149.8c19.7-0.1,39.4,0,59.1,0c0-45.1,0-90.1,0-135.2c-0.4-3.8,2.2-7.5,6-8.3
			c4.6-1.3,9.7,2.5,9.7,7.3c0.1,45.4,0,90.8,0,136.2c9.8,0.1,19.6-0.2,29.4,0.2c9.5,0.5,17.8,8.5,18.9,18v8.7
			c-1.3,10.1-10.8,18.2-21,17.8c-35.5,0.1-70.9,0.1-106.4,0c-4.5,0.5-9.4-3.1-9.1-7.9c-0.3-4.3,3.8-8.2,8.1-7.8
			c35.9,0,71.7,0,107.6,0c7.5,0.3,7.5-13.6,0-13.3c-148-0.1-296,0-444,0c-2.8-0.4-5.8,1.3-6.3,4.2c-0.2,2.5-0.6,5.6,1.4,7.5
			c2,2.2,5.2,1.5,7.8,1.6c101.4-0.1,202.8,0,304.3,0c2.3-0.1,4.7,0.8,6.2,2.6c3,3.2,2.5,8.8-1.1,11.4c-2,1.7-4.7,1.7-7.1,1.7
			c-101.4,0-202.8,0-304.2,0c-4.8,0.1-9.8-0.7-13.8-3.6c-4.9-3.1-8-8.6-9-14.2v-8.7c1.1-9.5,9.3-17.4,18.9-18
			c9.8-0.4,19.6,0,29.4-0.2c0-66.4,0-132.7,0-199.1c-3.5,2.6-6.7,5.6-10.9,7c-9.6,3.5-21.3,0-27-8.5c-6.8-9.5-4.9-23.9,4.3-31.2
			c15.1-12,30-24,45.1-35.9c3-53,5.8-106.1,8.7-159.2c-2.5,0-5,0.2-7.5-0.3c-3.9-1.1-6.3-5.6-5.2-9.4C61.7,8.1,64.1,6.2,66.6,5.2z
			 M89.5,20.6c-0.3,4.8-0.6,9.7-0.8,14.5c14.1,0,28.1,0,42.2,0c-0.2-4.8-0.4-9.7-0.8-14.5C116.5,20.6,103,20.6,89.5,20.6z
			 M86.3,79.3c15.6,0,31.3,0,46.9,0c-0.4-9.5-0.9-19-1.5-28.5c-14.6,0-29.2,0-43.9,0C87.2,60.3,86.7,69.8,86.3,79.3z M85.5,94.8
			c-1.4,24-2.7,47.9-3.9,71.9c14.8-11.7,29.5-23.5,44.3-35.2c2.9-2.4,6.4-3.8,10-4.7c-0.6-10.6-1.1-21.3-1.8-31.9
			C117.9,94.8,101.7,94.8,85.5,94.8z M244.4,113.2c-35.2,9.7-70.5,19.3-105.7,29c-2.1,0.5-3.7,2-5.4,3.3
			c-34.2,27.3-68.5,54.5-102.7,81.8c-2.1,1.6-3.7,4.3-3.3,7c0.4,4.4,5.1,7.9,9.4,6.6c1.6-0.3,2.9-1.5,4.1-2.5
			c33.7-26.8,67.4-53.7,101.1-80.5c2.1-1.9,4.9-2.3,7.5-3.1c32.1-8.8,64.1-17.6,96.2-26.4c2-0.6,4.1-0.6,6.1,0
			c33.4,9.2,66.8,18.3,100.3,27.5c1.1,0.3,2.1,0.8,3,1.5c34.7,27.4,69.3,55,104,82.4c4.1,3.1,10.6,0.2,11.5-4.7
			c1-3.5-1.3-6.7-4.1-8.6c-34.8-27.6-69.6-55.2-104.5-82.8c-1.2-1-2.6-1.5-4-1.8c-35.5-9.7-70.9-19.4-106.4-29.2
			C249.2,112,246.7,112.5,244.4,113.2z M144.6,315.4c69.5-0.1,139.1,0,208.6,0c0-5.9,0-11.7,0-17.6c-69.5,0-139.1,0-208.6,0
			C144.6,303.6,144.6,309.5,144.6,315.4z M144.6,330.8c0,5.9,0,11.7,0,17.6c69.6,0,139.1,0,208.7,0c0-5.9,0-11.7,0-17.6
			C283.7,330.8,214.2,330.8,144.6,330.8z M144.6,363.8c0,5.8,0.1,11.7-0.1,17.5c69.6,0.2,139.2,0,208.7,0.1c0-5.9,0-11.7,0-17.6
			C283.7,363.8,214.2,363.8,144.6,363.8z M144.9,397.2c-0.7,5.6-0.1,11.6-0.3,17.3c69.6,0,139.1,0,208.7,0c0-5.8,0-11.6,0-17.4
			C283.8,397.2,214.3,397.1,144.9,397.2z M144.5,430.2c0.1,5.8,0,11.5,0.1,17.3c69.5-0.1,139.1,0,208.6,0c0-5.8,0-11.6,0-17.3
			C283.7,430.2,214.1,430.1,144.5,430.2z"/>
	</g>
	<g>
		<path class="st0" d="M150.3,210.1c13.1-3.4,27.8,4.3,32.4,17c5,12.2-0.3,27.5-11.8,34c-11.8,7.3-28.7,3.9-36.6-7.5
			c-8.7-11.2-6.5-28.9,4.6-37.8C142.1,213,146.1,211.1,150.3,210.1z M154,225.3c-4.8,1.1-8.6,5.3-9.4,10.1c-1,6.1,3.4,12.3,9.4,13.7
			c7.3,1.9,15.1-4.4,14.8-11.9C169.1,229.7,161.3,223.4,154,225.3z"/>
	</g>
	<g>
		<path class="st0" d="M242.4,210.1c14.6-4,31,6.3,33.7,21.2c3.3,13.6-5.5,28.5-18.9,32.4c-11.7,3.8-25.5-1.3-31.8-11.8
			c-4.3-6.8-5.4-15.6-2.9-23.3C225.3,219.5,233.2,212.2,242.4,210.1z M246.3,225.3c-5.3,1.2-9.6,6.3-9.5,11.9
			c-0.1,6,4.9,11.5,10.9,12.1c6.9,0.9,13.6-5.1,13.4-12.1C261.4,229.7,253.5,223.4,246.3,225.3z"/>
	</g>
	<g>
		<path class="st0" d="M334.7,210.1c12.1-3.2,25.7,3.1,31.2,14.2c4.3,8.2,4.1,18.7-0.6,26.7c-5,8.8-15.1,14.5-25.3,13.9
			c-13-0.3-24.8-11-26.3-23.9C311.4,227.3,321.1,213,334.7,210.1z M338.5,225.3c-4.7,1.1-8.6,5.3-9.3,10.1
			c-1.1,6.3,3.7,12.7,10,13.8c7.1,1.4,14.5-4.8,14.2-12.1C353.5,229.7,345.7,223.4,338.5,225.3z"/>
	</g>
</g>
</svg>
