<?xml version="1.0" encoding="utf-8"?>
<!-- Generator: Adobe Illustrator 19.0.1, SVG Export Plug-In . SVG Version: 6.00 Build 0)  -->
<svg version="1.1" xmlns="http://www.w3.org/2000/svg" xmlns:xlink="http://www.w3.org/1999/xlink" x="0px" y="0px"
	 viewBox="-136 184 174 74" style="enable-background:new -136 184 174 74;" xml:space="preserve">
<style type="text/css">
	.st0{fill:#D9232E;}
	.st1{fill:#FCFCFC;}
</style>
<g id="Слой_2">
	<path class="st0" d="M-186.2,312.6c-4,6.8-7.8,13.6-11.7,20.4c-1.1,1.6-1.3,3.7-0.1,5.3c4.1,7.2,8.3,14.3,12.5,21.5
		c0.9,1.7,3.7,1.7,5.4,1.7h72.9c-4.4-6.7-8.4-13.6-12.7-20.3c-1.8-2.5-1.6-5.8,0-8.3c4.8-7.6,9.4-15.3,14.2-22.9l-76.1-0.1
		C-184.1,309.9-185.4,310.9-186.2,312.6z"/>
	<path class="st1" d="M36.7,216.8c-6-9.6-11.9-19.3-17.9-28.9c-1.1-2-3.1-3-5.1-3.9h-0.5c1,9.3-3.8,19.3-4.7,28.6
		c-0.8,8.4,0,17-0.5,25.5c-0.4,6.7-1.3,13.3-2.2,19.9h7.9c2.3-0.7,4.3-2.2,5.5-4.4c5.8-9.5,11.7-18.9,17.5-28.4
		C38.4,222.7,38.4,219.3,36.7,216.8z"/>
</g>
<g id="Слой_1">
	<g id="_x23_d9232eff">
		<path class="st0" d="M-30.4,184H9.1c2,0.9,4,1.9,5.1,3.9c6,9.6,11.9,19.3,17.9,28.9c1.8,2.5,1.8,5.9,0,8.4
			c-5.8,9.5-11.7,18.9-17.5,28.4c-1.2,2.2-3.2,3.7-5.5,4.4H-31c-4.7-1.1-6.4-5.9-8.8-9.5h-72.3c-3.4,0-7.3,0.5-9.5-2.1
			c-2.5-3.2-4.2-7-6.3-10.4c-2.6-5-5.9-9.6-8.1-14.9v-2.7c3.7-7.9,8.5-15.1,12.6-22.8c1.3-2.8,3.5-4.8,7.3-4.8h77.8
			C-36.4,187.9-34.2,184.6-30.4,184 M-120.4,196.6c-4,6.8-7.8,13.6-11.7,20.4c-1.1,1.6-1.3,3.7-0.1,5.3c4.1,7.2,8.3,14.3,12.5,21.5
			c0.9,1.7,3.7,1.7,5.4,1.7h72.9c-4.4-6.7-8.4-13.6-12.7-20.3c-1.8-2.5-1.6-5.8,0-8.3c4.8-7.6,9.4-15.3,14.2-22.9l-76.1-0.1
			C-118.3,193.9-119.6,194.9-120.4,196.6z"/>
	</g>
</g>
</svg>
